%TF.GenerationSoftware,KiCad,Pcbnew,(5.1.6)-1*%
%TF.CreationDate,2020-09-08T21:42:59+03:00*%
%TF.ProjectId,freepdk,66726565-7064-46b2-9e6b-696361645f70,3*%
%TF.SameCoordinates,PX3c51298PY447eab0*%
%TF.FileFunction,Legend,Top*%
%TF.FilePolarity,Positive*%
%FSLAX46Y46*%
G04 Gerber Fmt 4.6, Leading zero omitted, Abs format (unit mm)*
G04 Created by KiCad (PCBNEW (5.1.6)-1) date 2020-09-08 21:42:59*
%MOMM*%
%LPD*%
G01*
G04 APERTURE LIST*
%ADD10C,0.200000*%
%ADD11C,0.300000*%
%ADD12C,0.150000*%
%ADD13C,0.120000*%
%ADD14C,0.010000*%
G04 APERTURE END LIST*
D10*
X7365000Y8830000D02*
G75*
G03*
X7365000Y8830000I-254000J0D01*
G01*
X22986000Y30928000D02*
G75*
G03*
X22986000Y30928000I-254000J0D01*
G01*
D11*
X43814000Y18482000D02*
G75*
G03*
X43814000Y18482000I-254000J0D01*
G01*
D10*
X66594571Y29487429D02*
X65737428Y29487429D01*
X66166000Y29487429D02*
X66166000Y30987429D01*
X66023142Y30773143D01*
X65880285Y30630286D01*
X65737428Y30558858D01*
D12*
X36446142Y12693572D02*
X36553285Y12657858D01*
X36589000Y12622143D01*
X36624714Y12550715D01*
X36624714Y12443572D01*
X36589000Y12372143D01*
X36553285Y12336429D01*
X36481857Y12300715D01*
X36196142Y12300715D01*
X36196142Y13050715D01*
X36446142Y13050715D01*
X36517571Y13015000D01*
X36553285Y12979286D01*
X36589000Y12907858D01*
X36589000Y12836429D01*
X36553285Y12765000D01*
X36517571Y12729286D01*
X36446142Y12693572D01*
X36196142Y12693572D01*
X37089000Y13050715D02*
X37231857Y13050715D01*
X37303285Y13015000D01*
X37374714Y12943572D01*
X37410428Y12800715D01*
X37410428Y12550715D01*
X37374714Y12407858D01*
X37303285Y12336429D01*
X37231857Y12300715D01*
X37089000Y12300715D01*
X37017571Y12336429D01*
X36946142Y12407858D01*
X36910428Y12550715D01*
X36910428Y12800715D01*
X36946142Y12943572D01*
X37017571Y13015000D01*
X37089000Y13050715D01*
X37874714Y13050715D02*
X38017571Y13050715D01*
X38089000Y13015000D01*
X38160428Y12943572D01*
X38196142Y12800715D01*
X38196142Y12550715D01*
X38160428Y12407858D01*
X38089000Y12336429D01*
X38017571Y12300715D01*
X37874714Y12300715D01*
X37803285Y12336429D01*
X37731857Y12407858D01*
X37696142Y12550715D01*
X37696142Y12800715D01*
X37731857Y12943572D01*
X37803285Y13015000D01*
X37874714Y13050715D01*
X38410428Y13050715D02*
X38839000Y13050715D01*
X38624714Y12300715D02*
X38624714Y13050715D01*
D13*
X30098000Y14418000D02*
X23494000Y14418000D01*
X30098000Y2480000D02*
X30098000Y14418000D01*
X23494000Y2480000D02*
X30098000Y2480000D01*
X23494000Y14418000D02*
X23494000Y2480000D01*
D12*
X24192571Y4887000D02*
X24121142Y4922715D01*
X24014000Y4922715D01*
X23906857Y4887000D01*
X23835428Y4815572D01*
X23799714Y4744143D01*
X23764000Y4601286D01*
X23764000Y4494143D01*
X23799714Y4351286D01*
X23835428Y4279858D01*
X23906857Y4208429D01*
X24014000Y4172715D01*
X24085428Y4172715D01*
X24192571Y4208429D01*
X24228285Y4244143D01*
X24228285Y4494143D01*
X24085428Y4494143D01*
X24549714Y4172715D02*
X24549714Y4922715D01*
X24978285Y4172715D01*
X24978285Y4922715D01*
X25335428Y4172715D02*
X25335428Y4922715D01*
X25514000Y4922715D01*
X25621142Y4887000D01*
X25692571Y4815572D01*
X25728285Y4744143D01*
X25764000Y4601286D01*
X25764000Y4494143D01*
X25728285Y4351286D01*
X25692571Y4279858D01*
X25621142Y4208429D01*
X25514000Y4172715D01*
X25335428Y4172715D01*
X24317571Y6784143D02*
X24281857Y6748429D01*
X24174714Y6712715D01*
X24103285Y6712715D01*
X23996142Y6748429D01*
X23924714Y6819858D01*
X23889000Y6891286D01*
X23853285Y7034143D01*
X23853285Y7141286D01*
X23889000Y7284143D01*
X23924714Y7355572D01*
X23996142Y7427000D01*
X24103285Y7462715D01*
X24174714Y7462715D01*
X24281857Y7427000D01*
X24317571Y7391286D01*
X24996142Y6712715D02*
X24639000Y6712715D01*
X24639000Y7462715D01*
X25246142Y6712715D02*
X25246142Y7462715D01*
X25674714Y6712715D02*
X25353285Y7141286D01*
X25674714Y7462715D02*
X25246142Y7034143D01*
X24879142Y9252715D02*
X24879142Y10002715D01*
X25379142Y10002715D02*
X25522000Y10002715D01*
X25593428Y9967000D01*
X25664857Y9895572D01*
X25700571Y9752715D01*
X25700571Y9502715D01*
X25664857Y9359858D01*
X25593428Y9288429D01*
X25522000Y9252715D01*
X25379142Y9252715D01*
X25307714Y9288429D01*
X25236285Y9359858D01*
X25200571Y9502715D01*
X25200571Y9752715D01*
X25236285Y9895572D01*
X25307714Y9967000D01*
X25379142Y10002715D01*
X23764000Y12288715D02*
X24014000Y11538715D01*
X24264000Y12288715D01*
X24942571Y11610143D02*
X24906857Y11574429D01*
X24799714Y11538715D01*
X24728285Y11538715D01*
X24621142Y11574429D01*
X24549714Y11645858D01*
X24514000Y11717286D01*
X24478285Y11860143D01*
X24478285Y11967286D01*
X24514000Y12110143D01*
X24549714Y12181572D01*
X24621142Y12253000D01*
X24728285Y12288715D01*
X24799714Y12288715D01*
X24906857Y12253000D01*
X24942571Y12217286D01*
X25692571Y11610143D02*
X25656857Y11574429D01*
X25549714Y11538715D01*
X25478285Y11538715D01*
X25371142Y11574429D01*
X25299714Y11645858D01*
X25264000Y11717286D01*
X25228285Y11860143D01*
X25228285Y11967286D01*
X25264000Y12110143D01*
X25299714Y12181572D01*
X25371142Y12253000D01*
X25478285Y12288715D01*
X25549714Y12288715D01*
X25656857Y12253000D01*
X25692571Y12217286D01*
X31487333Y3964286D02*
X30725428Y3678572D01*
X31487333Y3392858D01*
X31963523Y3678572D02*
X32725428Y3678572D01*
X33915904Y3345239D02*
X34058761Y3297620D01*
X34296857Y3297620D01*
X34392095Y3345239D01*
X34439714Y3392858D01*
X34487333Y3488096D01*
X34487333Y3583334D01*
X34439714Y3678572D01*
X34392095Y3726191D01*
X34296857Y3773810D01*
X34106380Y3821429D01*
X34011142Y3869048D01*
X33963523Y3916667D01*
X33915904Y4011905D01*
X33915904Y4107143D01*
X33963523Y4202381D01*
X34011142Y4250000D01*
X34106380Y4297620D01*
X34344476Y4297620D01*
X34487333Y4250000D01*
X34820666Y4297620D02*
X35058761Y3297620D01*
X35249238Y4011905D01*
X35439714Y3297620D01*
X35677809Y4297620D01*
X36058761Y3297620D02*
X36058761Y4297620D01*
X36296857Y4297620D01*
X36439714Y4250000D01*
X36534952Y4154762D01*
X36582571Y4059524D01*
X36630190Y3869048D01*
X36630190Y3726191D01*
X36582571Y3535715D01*
X36534952Y3440477D01*
X36439714Y3345239D01*
X36296857Y3297620D01*
X36058761Y3297620D01*
D11*
X39522285Y2440858D02*
X39379428Y2369429D01*
X39093714Y2369429D01*
X38950857Y2440858D01*
X38879428Y2583715D01*
X38879428Y3155143D01*
X38950857Y3298000D01*
X39093714Y3369429D01*
X39379428Y3369429D01*
X39522285Y3298000D01*
X39593714Y3155143D01*
X39593714Y3012286D01*
X38879428Y2869429D01*
X40879428Y2369429D02*
X40879428Y3155143D01*
X40808000Y3298000D01*
X40665142Y3369429D01*
X40379428Y3369429D01*
X40236571Y3298000D01*
X40879428Y2440858D02*
X40736571Y2369429D01*
X40379428Y2369429D01*
X40236571Y2440858D01*
X40165142Y2583715D01*
X40165142Y2726572D01*
X40236571Y2869429D01*
X40379428Y2940858D01*
X40736571Y2940858D01*
X40879428Y3012286D01*
X41522285Y2440858D02*
X41665142Y2369429D01*
X41950857Y2369429D01*
X42093714Y2440858D01*
X42165142Y2583715D01*
X42165142Y2655143D01*
X42093714Y2798000D01*
X41950857Y2869429D01*
X41736571Y2869429D01*
X41593714Y2940858D01*
X41522285Y3083715D01*
X41522285Y3155143D01*
X41593714Y3298000D01*
X41736571Y3369429D01*
X41950857Y3369429D01*
X42093714Y3298000D01*
X42665142Y3369429D02*
X43022285Y2369429D01*
X43379428Y3369429D02*
X43022285Y2369429D01*
X42879428Y2012286D01*
X42808000Y1940858D01*
X42665142Y1869429D01*
X43950857Y2940858D02*
X45093714Y2940858D01*
X45808000Y3369429D02*
X45808000Y1869429D01*
X45808000Y3298000D02*
X45950857Y3369429D01*
X46236571Y3369429D01*
X46379428Y3298000D01*
X46450857Y3226572D01*
X46522285Y3083715D01*
X46522285Y2655143D01*
X46450857Y2512286D01*
X46379428Y2440858D01*
X46236571Y2369429D01*
X45950857Y2369429D01*
X45808000Y2440858D01*
X47808000Y2369429D02*
X47808000Y3869429D01*
X47808000Y2440858D02*
X47665142Y2369429D01*
X47379428Y2369429D01*
X47236571Y2440858D01*
X47165142Y2512286D01*
X47093714Y2655143D01*
X47093714Y3083715D01*
X47165142Y3226572D01*
X47236571Y3298000D01*
X47379428Y3369429D01*
X47665142Y3369429D01*
X47808000Y3298000D01*
X48522285Y2369429D02*
X48522285Y3869429D01*
X48665142Y2940858D02*
X49093714Y2369429D01*
X49093714Y3369429D02*
X48522285Y2798000D01*
X49736571Y2940858D02*
X50879428Y2940858D01*
X51593714Y2369429D02*
X51593714Y3369429D01*
X51593714Y3226572D02*
X51665142Y3298000D01*
X51808000Y3369429D01*
X52022285Y3369429D01*
X52165142Y3298000D01*
X52236571Y3155143D01*
X52236571Y2369429D01*
X52236571Y3155143D02*
X52308000Y3298000D01*
X52450857Y3369429D01*
X52665142Y3369429D01*
X52808000Y3298000D01*
X52879428Y3155143D01*
X52879428Y2369429D01*
X53593714Y2369429D02*
X53593714Y3369429D01*
X53593714Y3869429D02*
X53522285Y3798000D01*
X53593714Y3726572D01*
X53665142Y3798000D01*
X53593714Y3869429D01*
X53593714Y3726572D01*
X54308000Y3369429D02*
X54308000Y2369429D01*
X54308000Y3226572D02*
X54379428Y3298000D01*
X54522285Y3369429D01*
X54736571Y3369429D01*
X54879428Y3298000D01*
X54950857Y3155143D01*
X54950857Y2369429D01*
X55665142Y2369429D02*
X55665142Y3369429D01*
X55665142Y3869429D02*
X55593714Y3798000D01*
X55665142Y3726572D01*
X55736571Y3798000D01*
X55665142Y3869429D01*
X55665142Y3726572D01*
X57379428Y3369429D02*
X57736571Y2369429D01*
X58093714Y3369429D01*
X59450857Y2369429D02*
X58593714Y2369429D01*
X59022285Y2369429D02*
X59022285Y3869429D01*
X58879428Y3655143D01*
X58736571Y3512286D01*
X58593714Y3440858D01*
X60093714Y2512286D02*
X60165142Y2440858D01*
X60093714Y2369429D01*
X60022285Y2440858D01*
X60093714Y2512286D01*
X60093714Y2369429D01*
X61093714Y3869429D02*
X61236571Y3869429D01*
X61379428Y3798000D01*
X61450857Y3726572D01*
X61522285Y3583715D01*
X61593714Y3298000D01*
X61593714Y2940858D01*
X61522285Y2655143D01*
X61450857Y2512286D01*
X61379428Y2440858D01*
X61236571Y2369429D01*
X61093714Y2369429D01*
X60950857Y2440858D01*
X60879428Y2512286D01*
X60808000Y2655143D01*
X60736571Y2940858D01*
X60736571Y3298000D01*
X60808000Y3583715D01*
X60879428Y3726572D01*
X60950857Y3798000D01*
X61093714Y3869429D01*
X62236571Y2512286D02*
X62308000Y2440858D01*
X62236571Y2369429D01*
X62165142Y2440858D01*
X62236571Y2512286D01*
X62236571Y2369429D01*
X62807999Y3869429D02*
X63736571Y3869429D01*
X63236571Y3298000D01*
X63450857Y3298000D01*
X63593714Y3226572D01*
X63665142Y3155143D01*
X63736571Y3012286D01*
X63736571Y2655143D01*
X63665142Y2512286D01*
X63593714Y2440858D01*
X63450857Y2369429D01*
X63022285Y2369429D01*
X62879428Y2440858D01*
X62807999Y2512286D01*
X1544000Y33595429D02*
X1544000Y32095429D01*
X1544000Y33524000D02*
X1686857Y33595429D01*
X1972571Y33595429D01*
X2115428Y33524000D01*
X2186857Y33452572D01*
X2258285Y33309715D01*
X2258285Y32881143D01*
X2186857Y32738286D01*
X2115428Y32666858D01*
X1972571Y32595429D01*
X1686857Y32595429D01*
X1544000Y32666858D01*
X3544000Y32595429D02*
X3544000Y33381143D01*
X3472571Y33524000D01*
X3329714Y33595429D01*
X3044000Y33595429D01*
X2901142Y33524000D01*
X3544000Y32666858D02*
X3401142Y32595429D01*
X3044000Y32595429D01*
X2901142Y32666858D01*
X2829714Y32809715D01*
X2829714Y32952572D01*
X2901142Y33095429D01*
X3044000Y33166858D01*
X3401142Y33166858D01*
X3544000Y33238286D01*
X4901142Y32666858D02*
X4758285Y32595429D01*
X4472571Y32595429D01*
X4329714Y32666858D01*
X4258285Y32738286D01*
X4186857Y32881143D01*
X4186857Y33309715D01*
X4258285Y33452572D01*
X4329714Y33524000D01*
X4472571Y33595429D01*
X4758285Y33595429D01*
X4901142Y33524000D01*
X5544000Y32595429D02*
X5544000Y33595429D01*
X5544000Y33452572D02*
X5615428Y33524000D01*
X5758285Y33595429D01*
X5972571Y33595429D01*
X6115428Y33524000D01*
X6186857Y33381143D01*
X6186857Y32595429D01*
X6186857Y33381143D02*
X6258285Y33524000D01*
X6401142Y33595429D01*
X6615428Y33595429D01*
X6758285Y33524000D01*
X6829714Y33381143D01*
X6829714Y32595429D01*
X8186857Y32595429D02*
X8186857Y33381143D01*
X8115428Y33524000D01*
X7972571Y33595429D01*
X7686857Y33595429D01*
X7544000Y33524000D01*
X8186857Y32666858D02*
X8044000Y32595429D01*
X7686857Y32595429D01*
X7544000Y32666858D01*
X7472571Y32809715D01*
X7472571Y32952572D01*
X7544000Y33095429D01*
X7686857Y33166858D01*
X8044000Y33166858D01*
X8186857Y33238286D01*
X8901142Y33595429D02*
X8901142Y32595429D01*
X8901142Y33452572D02*
X8972571Y33524000D01*
X9115428Y33595429D01*
X9329714Y33595429D01*
X9472571Y33524000D01*
X9544000Y33381143D01*
X9544000Y32595429D01*
X10901142Y32666858D02*
X10758285Y32595429D01*
X10472571Y32595429D01*
X10329714Y32666858D01*
X10258285Y32738286D01*
X10186857Y32881143D01*
X10186857Y33309715D01*
X10258285Y33452572D01*
X10329714Y33524000D01*
X10472571Y33595429D01*
X10758285Y33595429D01*
X10901142Y33524000D01*
X11758285Y32595429D02*
X11615428Y32666858D01*
X11544000Y32738286D01*
X11472571Y32881143D01*
X11472571Y33309715D01*
X11544000Y33452572D01*
X11615428Y33524000D01*
X11758285Y33595429D01*
X11972571Y33595429D01*
X12115428Y33524000D01*
X12186857Y33452572D01*
X12258285Y33309715D01*
X12258285Y32881143D01*
X12186857Y32738286D01*
X12115428Y32666858D01*
X11972571Y32595429D01*
X11758285Y32595429D01*
X13544000Y32595429D02*
X13544000Y34095429D01*
X13544000Y32666858D02*
X13401142Y32595429D01*
X13115428Y32595429D01*
X12972571Y32666858D01*
X12901142Y32738286D01*
X12829714Y32881143D01*
X12829714Y33309715D01*
X12901142Y33452572D01*
X12972571Y33524000D01*
X13115428Y33595429D01*
X13401142Y33595429D01*
X13544000Y33524000D01*
X14829714Y32666858D02*
X14686857Y32595429D01*
X14401142Y32595429D01*
X14258285Y32666858D01*
X14186857Y32809715D01*
X14186857Y33381143D01*
X14258285Y33524000D01*
X14401142Y33595429D01*
X14686857Y33595429D01*
X14829714Y33524000D01*
X14901142Y33381143D01*
X14901142Y33238286D01*
X14186857Y33095429D01*
X15544000Y32595429D02*
X15544000Y33595429D01*
X15544000Y33309715D02*
X15615428Y33452572D01*
X15686857Y33524000D01*
X15829714Y33595429D01*
X15972571Y33595429D01*
X16472571Y32738286D02*
X16544000Y32666858D01*
X16472571Y32595429D01*
X16401142Y32666858D01*
X16472571Y32738286D01*
X16472571Y32595429D01*
X17044000Y32595429D02*
X17829714Y33595429D01*
X17044000Y33595429D02*
X17829714Y32595429D01*
X18258285Y33595429D02*
X18615428Y32595429D01*
X18972571Y33595429D02*
X18615428Y32595429D01*
X18472571Y32238286D01*
X18401142Y32166858D01*
X18258285Y32095429D01*
X19401142Y33595429D02*
X20186857Y33595429D01*
X19401142Y32595429D01*
X20186857Y32595429D01*
D13*
%TO.C,D1*%
X12060000Y3624000D02*
X5160000Y3624000D01*
X12060000Y6924000D02*
X5160000Y6924000D01*
X12060000Y3624000D02*
X12060000Y6924000D01*
%TO.C,F1*%
X16356252Y17690000D02*
X15833748Y17690000D01*
X16356252Y19110000D02*
X15833748Y19110000D01*
%TO.C,R1*%
X42342000Y8574252D02*
X42342000Y8051748D01*
X43762000Y8574252D02*
X43762000Y8051748D01*
%TO.C,J4*%
X76316000Y31330000D02*
X77646000Y31330000D01*
X77646000Y31330000D02*
X77646000Y30000000D01*
X77646000Y28730000D02*
X77646000Y10890000D01*
X74986000Y10890000D02*
X77646000Y10890000D01*
X74986000Y28730000D02*
X74986000Y10890000D01*
X74986000Y28730000D02*
X77646000Y28730000D01*
%TO.C,J3*%
X68706000Y31330000D02*
X70036000Y31330000D01*
X70036000Y31330000D02*
X70036000Y30000000D01*
X70036000Y28730000D02*
X70036000Y10890000D01*
X67376000Y10890000D02*
X70036000Y10890000D01*
X67376000Y28730000D02*
X67376000Y10890000D01*
X67376000Y28730000D02*
X70036000Y28730000D01*
D14*
%TO.C,*%
G36*
X48008680Y33217869D02*
G01*
X48087224Y33217439D01*
X48144068Y33216275D01*
X48182875Y33214010D01*
X48207308Y33210277D01*
X48221032Y33204711D01*
X48227710Y33196944D01*
X48231006Y33186612D01*
X48231326Y33185274D01*
X48236332Y33161138D01*
X48245599Y33113516D01*
X48258162Y33047476D01*
X48273057Y32968089D01*
X48289321Y32880421D01*
X48289889Y32877342D01*
X48306180Y32791428D01*
X48321422Y32715521D01*
X48334631Y32654172D01*
X48344824Y32611935D01*
X48351018Y32593362D01*
X48351313Y32593033D01*
X48369558Y32583964D01*
X48407175Y32568850D01*
X48456041Y32550955D01*
X48456313Y32550859D01*
X48517863Y32527724D01*
X48590427Y32498252D01*
X48658827Y32468620D01*
X48662064Y32467155D01*
X48773472Y32416591D01*
X49020169Y32585057D01*
X49095847Y32636414D01*
X49164401Y32682328D01*
X49221858Y32720187D01*
X49264246Y32747380D01*
X49287595Y32761296D01*
X49289812Y32762328D01*
X49306780Y32757733D01*
X49338471Y32735562D01*
X49386122Y32694770D01*
X49450968Y32634312D01*
X49517167Y32569990D01*
X49580984Y32506605D01*
X49638099Y32448766D01*
X49685075Y32400042D01*
X49718473Y32364007D01*
X49734855Y32344233D01*
X49735464Y32343215D01*
X49737275Y32329645D01*
X49730453Y32307484D01*
X49713310Y32273739D01*
X49684163Y32225417D01*
X49641325Y32159525D01*
X49584218Y32074700D01*
X49533536Y32000040D01*
X49488231Y31933077D01*
X49450920Y31877701D01*
X49424222Y31837797D01*
X49410755Y31817255D01*
X49409907Y31815861D01*
X49411551Y31796179D01*
X49424015Y31757924D01*
X49444818Y31708328D01*
X49452232Y31692489D01*
X49484584Y31621927D01*
X49519098Y31541864D01*
X49547135Y31472588D01*
X49567338Y31421172D01*
X49583385Y31382098D01*
X49592658Y31361676D01*
X49593811Y31360103D01*
X49610866Y31357496D01*
X49651068Y31350354D01*
X49709072Y31339694D01*
X49779533Y31326532D01*
X49857105Y31311884D01*
X49936442Y31296768D01*
X50012201Y31282199D01*
X50079034Y31269195D01*
X50131598Y31258772D01*
X50164546Y31251947D01*
X50172627Y31250018D01*
X50180975Y31245255D01*
X50187276Y31234499D01*
X50191815Y31214119D01*
X50194874Y31180483D01*
X50196737Y31129962D01*
X50197688Y31058925D01*
X50198010Y30963741D01*
X50198027Y30924725D01*
X50198027Y30607418D01*
X50121827Y30592378D01*
X50079433Y30584222D01*
X50016170Y30572318D01*
X49939732Y30558101D01*
X49857813Y30543007D01*
X49835170Y30538862D01*
X49759576Y30524164D01*
X49693723Y30509712D01*
X49643136Y30496842D01*
X49613344Y30486895D01*
X49608382Y30483930D01*
X49596196Y30462934D01*
X49578723Y30422250D01*
X49559347Y30369895D01*
X49555504Y30358617D01*
X49530109Y30288694D01*
X49498587Y30209799D01*
X49467739Y30138951D01*
X49467587Y30138622D01*
X49416217Y30027484D01*
X49585169Y29778964D01*
X49754122Y29530445D01*
X49537199Y29313159D01*
X49471589Y29248491D01*
X49411749Y29191484D01*
X49361037Y29145184D01*
X49322816Y29112633D01*
X49300445Y29096874D01*
X49297236Y29095874D01*
X49278396Y29103748D01*
X49239950Y29125639D01*
X49186100Y29158950D01*
X49121046Y29201086D01*
X49050710Y29248274D01*
X48979325Y29296407D01*
X48915678Y29338289D01*
X48863811Y29371346D01*
X48827765Y29392999D01*
X48811637Y29400674D01*
X48791959Y29394180D01*
X48754645Y29377067D01*
X48707391Y29352891D01*
X48702382Y29350204D01*
X48638747Y29318290D01*
X48595111Y29302638D01*
X48567972Y29302472D01*
X48553827Y29317013D01*
X48553745Y29317217D01*
X48546675Y29334438D01*
X48529812Y29375318D01*
X48504465Y29436692D01*
X48471941Y29515398D01*
X48433548Y29608270D01*
X48390592Y29712145D01*
X48348992Y29812715D01*
X48303274Y29923701D01*
X48261296Y30026514D01*
X48224318Y30118002D01*
X48193597Y30195016D01*
X48170392Y30254402D01*
X48155960Y30293008D01*
X48151513Y30307417D01*
X48162666Y30323945D01*
X48191839Y30350287D01*
X48230741Y30379330D01*
X48341527Y30471178D01*
X48428121Y30576458D01*
X48489486Y30692951D01*
X48524585Y30818441D01*
X48532378Y30950710D01*
X48526713Y31011760D01*
X48495848Y31138422D01*
X48442690Y31250276D01*
X48370537Y31346216D01*
X48282687Y31425141D01*
X48182435Y31485947D01*
X48073080Y31527530D01*
X47957917Y31548789D01*
X47840245Y31548618D01*
X47723360Y31525916D01*
X47610559Y31479579D01*
X47505139Y31408504D01*
X47461138Y31368306D01*
X47376749Y31265088D01*
X47317992Y31152292D01*
X47284474Y31033207D01*
X47275805Y30911122D01*
X47291593Y30789324D01*
X47331448Y30671101D01*
X47394977Y30559742D01*
X47481791Y30458533D01*
X47578799Y30379330D01*
X47619207Y30349055D01*
X47647752Y30322998D01*
X47658027Y30307392D01*
X47652647Y30290374D01*
X47637345Y30249717D01*
X47613382Y30188575D01*
X47582014Y30110098D01*
X47544502Y30017437D01*
X47502103Y29913745D01*
X47460433Y29812691D01*
X47414460Y29701610D01*
X47371877Y29598676D01*
X47333991Y29507052D01*
X47302110Y29429901D01*
X47277541Y29370386D01*
X47261590Y29331673D01*
X47255680Y29317217D01*
X47241718Y29302532D01*
X47214710Y29302575D01*
X47171183Y29318118D01*
X47107660Y29349933D01*
X47107158Y29350204D01*
X47059330Y29374894D01*
X47020667Y29392879D01*
X46998865Y29400603D01*
X46997903Y29400674D01*
X46981491Y29392839D01*
X46945257Y29371052D01*
X46893244Y29337889D01*
X46829495Y29295926D01*
X46758830Y29248274D01*
X46686886Y29200026D01*
X46622044Y29158066D01*
X46568505Y29124990D01*
X46530467Y29103396D01*
X46512303Y29095874D01*
X46495578Y29105760D01*
X46461950Y29133391D01*
X46414780Y29175722D01*
X46357428Y29229712D01*
X46293254Y29292318D01*
X46272267Y29313234D01*
X46055269Y29530594D01*
X46220438Y29772997D01*
X46270634Y29847436D01*
X46314689Y29914245D01*
X46350132Y29969552D01*
X46374489Y30009488D01*
X46385292Y30030181D01*
X46385608Y30031654D01*
X46379913Y30051159D01*
X46364596Y30090395D01*
X46342307Y30142787D01*
X46326663Y30177862D01*
X46297411Y30245016D01*
X46269864Y30312859D01*
X46248507Y30370183D01*
X46242705Y30387645D01*
X46226222Y30434279D01*
X46210110Y30470312D01*
X46201260Y30483930D01*
X46181730Y30492265D01*
X46139104Y30504080D01*
X46078915Y30518036D01*
X46006692Y30532795D01*
X45974370Y30538862D01*
X45892292Y30553944D01*
X45813565Y30568548D01*
X45745879Y30581237D01*
X45696930Y30590575D01*
X45687713Y30592378D01*
X45611513Y30607418D01*
X45611513Y30924725D01*
X45611684Y31029063D01*
X45612386Y31108004D01*
X45613904Y31165179D01*
X45616519Y31204218D01*
X45620516Y31228752D01*
X45626179Y31242412D01*
X45633790Y31248828D01*
X45636913Y31250018D01*
X45655748Y31254237D01*
X45697358Y31262655D01*
X45756400Y31274256D01*
X45827527Y31288022D01*
X45905395Y31302937D01*
X45984657Y31317985D01*
X46059968Y31332148D01*
X46125983Y31344411D01*
X46177357Y31353756D01*
X46208745Y31359167D01*
X46215729Y31360103D01*
X46222055Y31372621D01*
X46236060Y31405971D01*
X46255125Y31453840D01*
X46262404Y31472588D01*
X46291766Y31545022D01*
X46326341Y31625047D01*
X46357307Y31692489D01*
X46380093Y31744058D01*
X46395252Y31786432D01*
X46400312Y31812383D01*
X46399506Y31815861D01*
X46388811Y31832281D01*
X46364390Y31868800D01*
X46328865Y31921530D01*
X46284857Y31986582D01*
X46234987Y32060066D01*
X46225126Y32074572D01*
X46167262Y32160513D01*
X46124726Y32225956D01*
X46095824Y32273913D01*
X46078860Y32307397D01*
X46072137Y32329422D01*
X46073960Y32343000D01*
X46074006Y32343086D01*
X46088356Y32360920D01*
X46120093Y32395400D01*
X46165780Y32442949D01*
X46221974Y32499995D01*
X46285238Y32562962D01*
X46292372Y32569990D01*
X46372100Y32647197D01*
X46433627Y32703887D01*
X46478191Y32741107D01*
X46507027Y32759902D01*
X46519728Y32762328D01*
X46538264Y32751746D01*
X46576731Y32727301D01*
X46631156Y32691605D01*
X46697568Y32647270D01*
X46771995Y32596906D01*
X46789371Y32585057D01*
X47036067Y32416591D01*
X47147476Y32467155D01*
X47215227Y32496622D01*
X47287953Y32526258D01*
X47350473Y32549887D01*
X47353227Y32550859D01*
X47402130Y32568760D01*
X47439827Y32583897D01*
X47458195Y32593007D01*
X47458226Y32593033D01*
X47464055Y32609500D01*
X47473962Y32649998D01*
X47486965Y32709975D01*
X47502079Y32784877D01*
X47518322Y32870153D01*
X47519651Y32877342D01*
X47535945Y32965203D01*
X47550903Y33044957D01*
X47563561Y33111536D01*
X47572956Y33159870D01*
X47578124Y33184892D01*
X47578214Y33185274D01*
X47581359Y33195918D01*
X47587474Y33203955D01*
X47600223Y33209750D01*
X47623270Y33213670D01*
X47660279Y33216082D01*
X47714914Y33217352D01*
X47790837Y33217846D01*
X47891714Y33217931D01*
X47904770Y33217931D01*
X48008680Y33217869D01*
G37*
X48008680Y33217869D02*
X48087224Y33217439D01*
X48144068Y33216275D01*
X48182875Y33214010D01*
X48207308Y33210277D01*
X48221032Y33204711D01*
X48227710Y33196944D01*
X48231006Y33186612D01*
X48231326Y33185274D01*
X48236332Y33161138D01*
X48245599Y33113516D01*
X48258162Y33047476D01*
X48273057Y32968089D01*
X48289321Y32880421D01*
X48289889Y32877342D01*
X48306180Y32791428D01*
X48321422Y32715521D01*
X48334631Y32654172D01*
X48344824Y32611935D01*
X48351018Y32593362D01*
X48351313Y32593033D01*
X48369558Y32583964D01*
X48407175Y32568850D01*
X48456041Y32550955D01*
X48456313Y32550859D01*
X48517863Y32527724D01*
X48590427Y32498252D01*
X48658827Y32468620D01*
X48662064Y32467155D01*
X48773472Y32416591D01*
X49020169Y32585057D01*
X49095847Y32636414D01*
X49164401Y32682328D01*
X49221858Y32720187D01*
X49264246Y32747380D01*
X49287595Y32761296D01*
X49289812Y32762328D01*
X49306780Y32757733D01*
X49338471Y32735562D01*
X49386122Y32694770D01*
X49450968Y32634312D01*
X49517167Y32569990D01*
X49580984Y32506605D01*
X49638099Y32448766D01*
X49685075Y32400042D01*
X49718473Y32364007D01*
X49734855Y32344233D01*
X49735464Y32343215D01*
X49737275Y32329645D01*
X49730453Y32307484D01*
X49713310Y32273739D01*
X49684163Y32225417D01*
X49641325Y32159525D01*
X49584218Y32074700D01*
X49533536Y32000040D01*
X49488231Y31933077D01*
X49450920Y31877701D01*
X49424222Y31837797D01*
X49410755Y31817255D01*
X49409907Y31815861D01*
X49411551Y31796179D01*
X49424015Y31757924D01*
X49444818Y31708328D01*
X49452232Y31692489D01*
X49484584Y31621927D01*
X49519098Y31541864D01*
X49547135Y31472588D01*
X49567338Y31421172D01*
X49583385Y31382098D01*
X49592658Y31361676D01*
X49593811Y31360103D01*
X49610866Y31357496D01*
X49651068Y31350354D01*
X49709072Y31339694D01*
X49779533Y31326532D01*
X49857105Y31311884D01*
X49936442Y31296768D01*
X50012201Y31282199D01*
X50079034Y31269195D01*
X50131598Y31258772D01*
X50164546Y31251947D01*
X50172627Y31250018D01*
X50180975Y31245255D01*
X50187276Y31234499D01*
X50191815Y31214119D01*
X50194874Y31180483D01*
X50196737Y31129962D01*
X50197688Y31058925D01*
X50198010Y30963741D01*
X50198027Y30924725D01*
X50198027Y30607418D01*
X50121827Y30592378D01*
X50079433Y30584222D01*
X50016170Y30572318D01*
X49939732Y30558101D01*
X49857813Y30543007D01*
X49835170Y30538862D01*
X49759576Y30524164D01*
X49693723Y30509712D01*
X49643136Y30496842D01*
X49613344Y30486895D01*
X49608382Y30483930D01*
X49596196Y30462934D01*
X49578723Y30422250D01*
X49559347Y30369895D01*
X49555504Y30358617D01*
X49530109Y30288694D01*
X49498587Y30209799D01*
X49467739Y30138951D01*
X49467587Y30138622D01*
X49416217Y30027484D01*
X49585169Y29778964D01*
X49754122Y29530445D01*
X49537199Y29313159D01*
X49471589Y29248491D01*
X49411749Y29191484D01*
X49361037Y29145184D01*
X49322816Y29112633D01*
X49300445Y29096874D01*
X49297236Y29095874D01*
X49278396Y29103748D01*
X49239950Y29125639D01*
X49186100Y29158950D01*
X49121046Y29201086D01*
X49050710Y29248274D01*
X48979325Y29296407D01*
X48915678Y29338289D01*
X48863811Y29371346D01*
X48827765Y29392999D01*
X48811637Y29400674D01*
X48791959Y29394180D01*
X48754645Y29377067D01*
X48707391Y29352891D01*
X48702382Y29350204D01*
X48638747Y29318290D01*
X48595111Y29302638D01*
X48567972Y29302472D01*
X48553827Y29317013D01*
X48553745Y29317217D01*
X48546675Y29334438D01*
X48529812Y29375318D01*
X48504465Y29436692D01*
X48471941Y29515398D01*
X48433548Y29608270D01*
X48390592Y29712145D01*
X48348992Y29812715D01*
X48303274Y29923701D01*
X48261296Y30026514D01*
X48224318Y30118002D01*
X48193597Y30195016D01*
X48170392Y30254402D01*
X48155960Y30293008D01*
X48151513Y30307417D01*
X48162666Y30323945D01*
X48191839Y30350287D01*
X48230741Y30379330D01*
X48341527Y30471178D01*
X48428121Y30576458D01*
X48489486Y30692951D01*
X48524585Y30818441D01*
X48532378Y30950710D01*
X48526713Y31011760D01*
X48495848Y31138422D01*
X48442690Y31250276D01*
X48370537Y31346216D01*
X48282687Y31425141D01*
X48182435Y31485947D01*
X48073080Y31527530D01*
X47957917Y31548789D01*
X47840245Y31548618D01*
X47723360Y31525916D01*
X47610559Y31479579D01*
X47505139Y31408504D01*
X47461138Y31368306D01*
X47376749Y31265088D01*
X47317992Y31152292D01*
X47284474Y31033207D01*
X47275805Y30911122D01*
X47291593Y30789324D01*
X47331448Y30671101D01*
X47394977Y30559742D01*
X47481791Y30458533D01*
X47578799Y30379330D01*
X47619207Y30349055D01*
X47647752Y30322998D01*
X47658027Y30307392D01*
X47652647Y30290374D01*
X47637345Y30249717D01*
X47613382Y30188575D01*
X47582014Y30110098D01*
X47544502Y30017437D01*
X47502103Y29913745D01*
X47460433Y29812691D01*
X47414460Y29701610D01*
X47371877Y29598676D01*
X47333991Y29507052D01*
X47302110Y29429901D01*
X47277541Y29370386D01*
X47261590Y29331673D01*
X47255680Y29317217D01*
X47241718Y29302532D01*
X47214710Y29302575D01*
X47171183Y29318118D01*
X47107660Y29349933D01*
X47107158Y29350204D01*
X47059330Y29374894D01*
X47020667Y29392879D01*
X46998865Y29400603D01*
X46997903Y29400674D01*
X46981491Y29392839D01*
X46945257Y29371052D01*
X46893244Y29337889D01*
X46829495Y29295926D01*
X46758830Y29248274D01*
X46686886Y29200026D01*
X46622044Y29158066D01*
X46568505Y29124990D01*
X46530467Y29103396D01*
X46512303Y29095874D01*
X46495578Y29105760D01*
X46461950Y29133391D01*
X46414780Y29175722D01*
X46357428Y29229712D01*
X46293254Y29292318D01*
X46272267Y29313234D01*
X46055269Y29530594D01*
X46220438Y29772997D01*
X46270634Y29847436D01*
X46314689Y29914245D01*
X46350132Y29969552D01*
X46374489Y30009488D01*
X46385292Y30030181D01*
X46385608Y30031654D01*
X46379913Y30051159D01*
X46364596Y30090395D01*
X46342307Y30142787D01*
X46326663Y30177862D01*
X46297411Y30245016D01*
X46269864Y30312859D01*
X46248507Y30370183D01*
X46242705Y30387645D01*
X46226222Y30434279D01*
X46210110Y30470312D01*
X46201260Y30483930D01*
X46181730Y30492265D01*
X46139104Y30504080D01*
X46078915Y30518036D01*
X46006692Y30532795D01*
X45974370Y30538862D01*
X45892292Y30553944D01*
X45813565Y30568548D01*
X45745879Y30581237D01*
X45696930Y30590575D01*
X45687713Y30592378D01*
X45611513Y30607418D01*
X45611513Y30924725D01*
X45611684Y31029063D01*
X45612386Y31108004D01*
X45613904Y31165179D01*
X45616519Y31204218D01*
X45620516Y31228752D01*
X45626179Y31242412D01*
X45633790Y31248828D01*
X45636913Y31250018D01*
X45655748Y31254237D01*
X45697358Y31262655D01*
X45756400Y31274256D01*
X45827527Y31288022D01*
X45905395Y31302937D01*
X45984657Y31317985D01*
X46059968Y31332148D01*
X46125983Y31344411D01*
X46177357Y31353756D01*
X46208745Y31359167D01*
X46215729Y31360103D01*
X46222055Y31372621D01*
X46236060Y31405971D01*
X46255125Y31453840D01*
X46262404Y31472588D01*
X46291766Y31545022D01*
X46326341Y31625047D01*
X46357307Y31692489D01*
X46380093Y31744058D01*
X46395252Y31786432D01*
X46400312Y31812383D01*
X46399506Y31815861D01*
X46388811Y31832281D01*
X46364390Y31868800D01*
X46328865Y31921530D01*
X46284857Y31986582D01*
X46234987Y32060066D01*
X46225126Y32074572D01*
X46167262Y32160513D01*
X46124726Y32225956D01*
X46095824Y32273913D01*
X46078860Y32307397D01*
X46072137Y32329422D01*
X46073960Y32343000D01*
X46074006Y32343086D01*
X46088356Y32360920D01*
X46120093Y32395400D01*
X46165780Y32442949D01*
X46221974Y32499995D01*
X46285238Y32562962D01*
X46292372Y32569990D01*
X46372100Y32647197D01*
X46433627Y32703887D01*
X46478191Y32741107D01*
X46507027Y32759902D01*
X46519728Y32762328D01*
X46538264Y32751746D01*
X46576731Y32727301D01*
X46631156Y32691605D01*
X46697568Y32647270D01*
X46771995Y32596906D01*
X46789371Y32585057D01*
X47036067Y32416591D01*
X47147476Y32467155D01*
X47215227Y32496622D01*
X47287953Y32526258D01*
X47350473Y32549887D01*
X47353227Y32550859D01*
X47402130Y32568760D01*
X47439827Y32583897D01*
X47458195Y32593007D01*
X47458226Y32593033D01*
X47464055Y32609500D01*
X47473962Y32649998D01*
X47486965Y32709975D01*
X47502079Y32784877D01*
X47518322Y32870153D01*
X47519651Y32877342D01*
X47535945Y32965203D01*
X47550903Y33044957D01*
X47563561Y33111536D01*
X47572956Y33159870D01*
X47578124Y33184892D01*
X47578214Y33185274D01*
X47581359Y33195918D01*
X47587474Y33203955D01*
X47600223Y33209750D01*
X47623270Y33213670D01*
X47660279Y33216082D01*
X47714914Y33217352D01*
X47790837Y33217846D01*
X47891714Y33217931D01*
X47904770Y33217931D01*
X48008680Y33217869D01*
G36*
X51058365Y28493251D02*
G01*
X51115791Y28455720D01*
X51143489Y28422121D01*
X51165432Y28361153D01*
X51167175Y28312909D01*
X51163227Y28248401D01*
X51014456Y28183283D01*
X50942119Y28150015D01*
X50894854Y28123253D01*
X50870277Y28100073D01*
X50866007Y28077550D01*
X50879659Y28052762D01*
X50894713Y28036331D01*
X50938516Y28009982D01*
X50986159Y28008136D01*
X51029915Y28028671D01*
X51062059Y28069465D01*
X51067808Y28083870D01*
X51095346Y28128861D01*
X51127028Y28148035D01*
X51170484Y28164438D01*
X51170484Y28102251D01*
X51166642Y28059934D01*
X51151593Y28024248D01*
X51120050Y27983274D01*
X51115362Y27977950D01*
X51080276Y27941497D01*
X51050117Y27921934D01*
X51012385Y27912934D01*
X50981105Y27909987D01*
X50925155Y27909252D01*
X50885325Y27918557D01*
X50860478Y27932371D01*
X50821426Y27962750D01*
X50794395Y27995604D01*
X50777287Y28036923D01*
X50768008Y28092696D01*
X50764463Y28168912D01*
X50764180Y28207595D01*
X50765142Y28253970D01*
X50852777Y28253970D01*
X50853793Y28229091D01*
X50856326Y28225017D01*
X50873044Y28230552D01*
X50909019Y28245200D01*
X50957101Y28266027D01*
X50967156Y28270503D01*
X51027922Y28301403D01*
X51061402Y28328560D01*
X51068760Y28353997D01*
X51051161Y28379736D01*
X51036626Y28391108D01*
X50984180Y28413853D01*
X50935092Y28410095D01*
X50893997Y28382333D01*
X50865528Y28333065D01*
X50856401Y28293960D01*
X50852777Y28253970D01*
X50765142Y28253970D01*
X50766055Y28297968D01*
X50772966Y28364833D01*
X50786654Y28413522D01*
X50808866Y28449368D01*
X50841344Y28477704D01*
X50855503Y28486862D01*
X50919823Y28510710D01*
X50990243Y28512211D01*
X51058365Y28493251D01*
G37*
X51058365Y28493251D02*
X51115791Y28455720D01*
X51143489Y28422121D01*
X51165432Y28361153D01*
X51167175Y28312909D01*
X51163227Y28248401D01*
X51014456Y28183283D01*
X50942119Y28150015D01*
X50894854Y28123253D01*
X50870277Y28100073D01*
X50866007Y28077550D01*
X50879659Y28052762D01*
X50894713Y28036331D01*
X50938516Y28009982D01*
X50986159Y28008136D01*
X51029915Y28028671D01*
X51062059Y28069465D01*
X51067808Y28083870D01*
X51095346Y28128861D01*
X51127028Y28148035D01*
X51170484Y28164438D01*
X51170484Y28102251D01*
X51166642Y28059934D01*
X51151593Y28024248D01*
X51120050Y27983274D01*
X51115362Y27977950D01*
X51080276Y27941497D01*
X51050117Y27921934D01*
X51012385Y27912934D01*
X50981105Y27909987D01*
X50925155Y27909252D01*
X50885325Y27918557D01*
X50860478Y27932371D01*
X50821426Y27962750D01*
X50794395Y27995604D01*
X50777287Y28036923D01*
X50768008Y28092696D01*
X50764463Y28168912D01*
X50764180Y28207595D01*
X50765142Y28253970D01*
X50852777Y28253970D01*
X50853793Y28229091D01*
X50856326Y28225017D01*
X50873044Y28230552D01*
X50909019Y28245200D01*
X50957101Y28266027D01*
X50967156Y28270503D01*
X51027922Y28301403D01*
X51061402Y28328560D01*
X51068760Y28353997D01*
X51051161Y28379736D01*
X51036626Y28391108D01*
X50984180Y28413853D01*
X50935092Y28410095D01*
X50893997Y28382333D01*
X50865528Y28333065D01*
X50856401Y28293960D01*
X50852777Y28253970D01*
X50765142Y28253970D01*
X50766055Y28297968D01*
X50772966Y28364833D01*
X50786654Y28413522D01*
X50808866Y28449368D01*
X50841344Y28477704D01*
X50855503Y28486862D01*
X50919823Y28510710D01*
X50990243Y28512211D01*
X51058365Y28493251D01*
G36*
X50557370Y28501465D02*
G01*
X50574718Y28493883D01*
X50616126Y28461089D01*
X50651535Y28413670D01*
X50673434Y28363066D01*
X50676999Y28338119D01*
X50665049Y28303290D01*
X50638837Y28284860D01*
X50610734Y28273701D01*
X50597865Y28271645D01*
X50591599Y28286568D01*
X50579226Y28319042D01*
X50573798Y28333715D01*
X50543360Y28384473D01*
X50499290Y28409790D01*
X50442780Y28409011D01*
X50438595Y28408014D01*
X50408425Y28393710D01*
X50386246Y28365824D01*
X50371097Y28320930D01*
X50362020Y28255602D01*
X50358056Y28166413D01*
X50357684Y28118956D01*
X50357500Y28044146D01*
X50356292Y27993148D01*
X50353079Y27960746D01*
X50346879Y27941722D01*
X50336710Y27930861D01*
X50321589Y27922945D01*
X50320716Y27922547D01*
X50291598Y27910236D01*
X50277173Y27905703D01*
X50274956Y27919408D01*
X50273059Y27957292D01*
X50271617Y28014502D01*
X50270768Y28086190D01*
X50270599Y28138652D01*
X50271462Y28240170D01*
X50274840Y28317185D01*
X50281912Y28374194D01*
X50293858Y28415691D01*
X50311860Y28446174D01*
X50337097Y28470137D01*
X50362017Y28486862D01*
X50421941Y28509120D01*
X50491681Y28514141D01*
X50557370Y28501465D01*
G37*
X50557370Y28501465D02*
X50574718Y28493883D01*
X50616126Y28461089D01*
X50651535Y28413670D01*
X50673434Y28363066D01*
X50676999Y28338119D01*
X50665049Y28303290D01*
X50638837Y28284860D01*
X50610734Y28273701D01*
X50597865Y28271645D01*
X50591599Y28286568D01*
X50579226Y28319042D01*
X50573798Y28333715D01*
X50543360Y28384473D01*
X50499290Y28409790D01*
X50442780Y28409011D01*
X50438595Y28408014D01*
X50408425Y28393710D01*
X50386246Y28365824D01*
X50371097Y28320930D01*
X50362020Y28255602D01*
X50358056Y28166413D01*
X50357684Y28118956D01*
X50357500Y28044146D01*
X50356292Y27993148D01*
X50353079Y27960746D01*
X50346879Y27941722D01*
X50336710Y27930861D01*
X50321589Y27922945D01*
X50320716Y27922547D01*
X50291598Y27910236D01*
X50277173Y27905703D01*
X50274956Y27919408D01*
X50273059Y27957292D01*
X50271617Y28014502D01*
X50270768Y28086190D01*
X50270599Y28138652D01*
X50271462Y28240170D01*
X50274840Y28317185D01*
X50281912Y28374194D01*
X50293858Y28415691D01*
X50311860Y28446174D01*
X50337097Y28470137D01*
X50362017Y28486862D01*
X50421941Y28509120D01*
X50491681Y28514141D01*
X50557370Y28501465D01*
G36*
X50049646Y28503882D02*
G01*
X50091437Y28484873D01*
X50124239Y28461839D01*
X50148273Y28436084D01*
X50164867Y28402859D01*
X50175347Y28357417D01*
X50181041Y28295010D01*
X50183277Y28210890D01*
X50183513Y28155496D01*
X50183513Y27939391D01*
X50146544Y27922547D01*
X50117426Y27910236D01*
X50103001Y27905703D01*
X50100242Y27919192D01*
X50098052Y27955564D01*
X50096712Y28008675D01*
X50096427Y28050845D01*
X50095204Y28111770D01*
X50091906Y28160102D01*
X50087091Y28189699D01*
X50083266Y28195988D01*
X50057553Y28189565D01*
X50017188Y28173092D01*
X49970449Y28150759D01*
X49925615Y28126760D01*
X49890963Y28105287D01*
X49874772Y28090532D01*
X49874708Y28090372D01*
X49876100Y28063065D01*
X49888588Y28036998D01*
X49910513Y28015825D01*
X49942513Y28008743D01*
X49969862Y28009568D01*
X50008596Y28010175D01*
X50028928Y28001101D01*
X50041139Y27977125D01*
X50042679Y27972604D01*
X50047973Y27938411D01*
X50033817Y27917649D01*
X49996918Y27907755D01*
X49957059Y27905925D01*
X49885332Y27919490D01*
X49848202Y27938862D01*
X49802346Y27984372D01*
X49778026Y28040234D01*
X49775843Y28099260D01*
X49796399Y28154264D01*
X49827319Y28188731D01*
X49858190Y28208028D01*
X49906712Y28232458D01*
X49963255Y28257232D01*
X49972680Y28261018D01*
X50034789Y28288426D01*
X50070592Y28312583D01*
X50082107Y28336598D01*
X50071350Y28363582D01*
X50052884Y28384674D01*
X50009239Y28410645D01*
X49961216Y28412593D01*
X49917176Y28392580D01*
X49885479Y28352666D01*
X49881319Y28342369D01*
X49857097Y28304493D01*
X49821735Y28276375D01*
X49777113Y28253300D01*
X49777113Y28318732D01*
X49779739Y28358711D01*
X49791000Y28390220D01*
X49815969Y28423839D01*
X49839939Y28449733D01*
X49877211Y28486400D01*
X49906171Y28506096D01*
X49937275Y28513997D01*
X49972483Y28515303D01*
X50049646Y28503882D01*
G37*
X50049646Y28503882D02*
X50091437Y28484873D01*
X50124239Y28461839D01*
X50148273Y28436084D01*
X50164867Y28402859D01*
X50175347Y28357417D01*
X50181041Y28295010D01*
X50183277Y28210890D01*
X50183513Y28155496D01*
X50183513Y27939391D01*
X50146544Y27922547D01*
X50117426Y27910236D01*
X50103001Y27905703D01*
X50100242Y27919192D01*
X50098052Y27955564D01*
X50096712Y28008675D01*
X50096427Y28050845D01*
X50095204Y28111770D01*
X50091906Y28160102D01*
X50087091Y28189699D01*
X50083266Y28195988D01*
X50057553Y28189565D01*
X50017188Y28173092D01*
X49970449Y28150759D01*
X49925615Y28126760D01*
X49890963Y28105287D01*
X49874772Y28090532D01*
X49874708Y28090372D01*
X49876100Y28063065D01*
X49888588Y28036998D01*
X49910513Y28015825D01*
X49942513Y28008743D01*
X49969862Y28009568D01*
X50008596Y28010175D01*
X50028928Y28001101D01*
X50041139Y27977125D01*
X50042679Y27972604D01*
X50047973Y27938411D01*
X50033817Y27917649D01*
X49996918Y27907755D01*
X49957059Y27905925D01*
X49885332Y27919490D01*
X49848202Y27938862D01*
X49802346Y27984372D01*
X49778026Y28040234D01*
X49775843Y28099260D01*
X49796399Y28154264D01*
X49827319Y28188731D01*
X49858190Y28208028D01*
X49906712Y28232458D01*
X49963255Y28257232D01*
X49972680Y28261018D01*
X50034789Y28288426D01*
X50070592Y28312583D01*
X50082107Y28336598D01*
X50071350Y28363582D01*
X50052884Y28384674D01*
X50009239Y28410645D01*
X49961216Y28412593D01*
X49917176Y28392580D01*
X49885479Y28352666D01*
X49881319Y28342369D01*
X49857097Y28304493D01*
X49821735Y28276375D01*
X49777113Y28253300D01*
X49777113Y28318732D01*
X49779739Y28358711D01*
X49791000Y28390220D01*
X49815969Y28423839D01*
X49839939Y28449733D01*
X49877211Y28486400D01*
X49906171Y28506096D01*
X49937275Y28513997D01*
X49972483Y28515303D01*
X50049646Y28503882D01*
G36*
X49684603Y28501554D02*
G01*
X49686818Y28463367D01*
X49688554Y28405331D01*
X49689669Y28332037D01*
X49690027Y28255162D01*
X49690027Y27995021D01*
X49644096Y27949090D01*
X49612445Y27920788D01*
X49584660Y27909324D01*
X49546685Y27910049D01*
X49531610Y27911896D01*
X49484496Y27917269D01*
X49445526Y27920348D01*
X49436027Y27920632D01*
X49404003Y27918772D01*
X49358202Y27914103D01*
X49340444Y27911896D01*
X49296827Y27908482D01*
X49267515Y27915897D01*
X49238450Y27938790D01*
X49227958Y27949090D01*
X49182027Y27995021D01*
X49182027Y28481615D01*
X49218996Y28498459D01*
X49250829Y28510935D01*
X49269453Y28515303D01*
X49274228Y28501499D01*
X49278691Y28462931D01*
X49282545Y28403861D01*
X49285492Y28328554D01*
X49286913Y28264931D01*
X49290884Y28014560D01*
X49325529Y28009661D01*
X49357038Y28013086D01*
X49372478Y28024176D01*
X49376793Y28044909D01*
X49380478Y28089072D01*
X49383239Y28151071D01*
X49384782Y28225308D01*
X49385005Y28263511D01*
X49385227Y28483434D01*
X49430936Y28499368D01*
X49463288Y28510202D01*
X49480885Y28515255D01*
X49481393Y28515303D01*
X49483158Y28501569D01*
X49485099Y28463487D01*
X49487052Y28405735D01*
X49488854Y28332990D01*
X49490113Y28264931D01*
X49494084Y28014560D01*
X49581170Y28014560D01*
X49585166Y28242977D01*
X49589162Y28471395D01*
X49631617Y28493349D01*
X49662962Y28508424D01*
X49681514Y28515266D01*
X49682049Y28515303D01*
X49684603Y28501554D01*
G37*
X49684603Y28501554D02*
X49686818Y28463367D01*
X49688554Y28405331D01*
X49689669Y28332037D01*
X49690027Y28255162D01*
X49690027Y27995021D01*
X49644096Y27949090D01*
X49612445Y27920788D01*
X49584660Y27909324D01*
X49546685Y27910049D01*
X49531610Y27911896D01*
X49484496Y27917269D01*
X49445526Y27920348D01*
X49436027Y27920632D01*
X49404003Y27918772D01*
X49358202Y27914103D01*
X49340444Y27911896D01*
X49296827Y27908482D01*
X49267515Y27915897D01*
X49238450Y27938790D01*
X49227958Y27949090D01*
X49182027Y27995021D01*
X49182027Y28481615D01*
X49218996Y28498459D01*
X49250829Y28510935D01*
X49269453Y28515303D01*
X49274228Y28501499D01*
X49278691Y28462931D01*
X49282545Y28403861D01*
X49285492Y28328554D01*
X49286913Y28264931D01*
X49290884Y28014560D01*
X49325529Y28009661D01*
X49357038Y28013086D01*
X49372478Y28024176D01*
X49376793Y28044909D01*
X49380478Y28089072D01*
X49383239Y28151071D01*
X49384782Y28225308D01*
X49385005Y28263511D01*
X49385227Y28483434D01*
X49430936Y28499368D01*
X49463288Y28510202D01*
X49480885Y28515255D01*
X49481393Y28515303D01*
X49483158Y28501569D01*
X49485099Y28463487D01*
X49487052Y28405735D01*
X49488854Y28332990D01*
X49490113Y28264931D01*
X49494084Y28014560D01*
X49581170Y28014560D01*
X49585166Y28242977D01*
X49589162Y28471395D01*
X49631617Y28493349D01*
X49662962Y28508424D01*
X49681514Y28515266D01*
X49682049Y28515303D01*
X49684603Y28501554D01*
G36*
X49094887Y28394859D02*
G01*
X49094703Y28286380D01*
X49093989Y28202930D01*
X49092445Y28140513D01*
X49089771Y28095132D01*
X49085664Y28062788D01*
X49079825Y28039484D01*
X49071952Y28021222D01*
X49065991Y28010799D01*
X49016625Y27954272D01*
X48954034Y27918840D01*
X48884783Y27906127D01*
X48815438Y27917754D01*
X48774145Y27938649D01*
X48730795Y27974795D01*
X48701251Y28018941D01*
X48683425Y28076755D01*
X48675233Y28153904D01*
X48674072Y28210503D01*
X48674228Y28214570D01*
X48775627Y28214570D01*
X48776246Y28149667D01*
X48779084Y28106703D01*
X48785610Y28078595D01*
X48797293Y28058264D01*
X48811253Y28042929D01*
X48858135Y28013327D01*
X48908471Y28010798D01*
X48956046Y28035512D01*
X48959749Y28038861D01*
X48975553Y28056282D01*
X48985463Y28077008D01*
X48990828Y28107855D01*
X48992998Y28155640D01*
X48993341Y28208469D01*
X48992597Y28274836D01*
X48989518Y28319111D01*
X48982831Y28348208D01*
X48971266Y28369044D01*
X48961783Y28380110D01*
X48917730Y28408019D01*
X48866994Y28411374D01*
X48818566Y28390058D01*
X48809220Y28382144D01*
X48793310Y28364570D01*
X48783380Y28343630D01*
X48778048Y28312435D01*
X48775933Y28264095D01*
X48775627Y28214570D01*
X48674228Y28214570D01*
X48677580Y28301649D01*
X48689496Y28370131D01*
X48711905Y28421617D01*
X48746894Y28461774D01*
X48774145Y28482356D01*
X48823677Y28504592D01*
X48881086Y28514913D01*
X48934452Y28512150D01*
X48964313Y28501005D01*
X48976031Y28497834D01*
X48983807Y28509660D01*
X48989235Y28541351D01*
X48993341Y28589624D01*
X48997837Y28643388D01*
X49004083Y28675735D01*
X49015446Y28694232D01*
X49035298Y28706447D01*
X49047770Y28711855D01*
X49094941Y28731616D01*
X49094887Y28394859D01*
G37*
X49094887Y28394859D02*
X49094703Y28286380D01*
X49093989Y28202930D01*
X49092445Y28140513D01*
X49089771Y28095132D01*
X49085664Y28062788D01*
X49079825Y28039484D01*
X49071952Y28021222D01*
X49065991Y28010799D01*
X49016625Y27954272D01*
X48954034Y27918840D01*
X48884783Y27906127D01*
X48815438Y27917754D01*
X48774145Y27938649D01*
X48730795Y27974795D01*
X48701251Y28018941D01*
X48683425Y28076755D01*
X48675233Y28153904D01*
X48674072Y28210503D01*
X48674228Y28214570D01*
X48775627Y28214570D01*
X48776246Y28149667D01*
X48779084Y28106703D01*
X48785610Y28078595D01*
X48797293Y28058264D01*
X48811253Y28042929D01*
X48858135Y28013327D01*
X48908471Y28010798D01*
X48956046Y28035512D01*
X48959749Y28038861D01*
X48975553Y28056282D01*
X48985463Y28077008D01*
X48990828Y28107855D01*
X48992998Y28155640D01*
X48993341Y28208469D01*
X48992597Y28274836D01*
X48989518Y28319111D01*
X48982831Y28348208D01*
X48971266Y28369044D01*
X48961783Y28380110D01*
X48917730Y28408019D01*
X48866994Y28411374D01*
X48818566Y28390058D01*
X48809220Y28382144D01*
X48793310Y28364570D01*
X48783380Y28343630D01*
X48778048Y28312435D01*
X48775933Y28264095D01*
X48775627Y28214570D01*
X48674228Y28214570D01*
X48677580Y28301649D01*
X48689496Y28370131D01*
X48711905Y28421617D01*
X48746894Y28461774D01*
X48774145Y28482356D01*
X48823677Y28504592D01*
X48881086Y28514913D01*
X48934452Y28512150D01*
X48964313Y28501005D01*
X48976031Y28497834D01*
X48983807Y28509660D01*
X48989235Y28541351D01*
X48993341Y28589624D01*
X48997837Y28643388D01*
X49004083Y28675735D01*
X49015446Y28694232D01*
X49035298Y28706447D01*
X49047770Y28711855D01*
X49094941Y28731616D01*
X49094887Y28394859D01*
G36*
X48434696Y28510462D02*
G01*
X48500628Y28486133D01*
X48554043Y28443100D01*
X48574934Y28412808D01*
X48597709Y28357223D01*
X48597236Y28317031D01*
X48573332Y28290000D01*
X48564487Y28285404D01*
X48526300Y28271073D01*
X48506798Y28274745D01*
X48500192Y28298810D01*
X48499856Y28312103D01*
X48487762Y28361007D01*
X48456241Y28395218D01*
X48412429Y28411741D01*
X48363465Y28407583D01*
X48323664Y28385990D01*
X48310220Y28373673D01*
X48300691Y28358730D01*
X48294255Y28336142D01*
X48290087Y28300889D01*
X48287367Y28247951D01*
X48285272Y28172310D01*
X48284730Y28148360D01*
X48282751Y28066427D01*
X48280501Y28008762D01*
X48277127Y27970609D01*
X48271776Y27947213D01*
X48263594Y27933819D01*
X48251729Y27925672D01*
X48244132Y27922073D01*
X48211872Y27909765D01*
X48192881Y27905703D01*
X48186606Y27919269D01*
X48182776Y27960283D01*
X48181370Y28029218D01*
X48182368Y28126548D01*
X48182678Y28141560D01*
X48184871Y28230358D01*
X48187463Y28295198D01*
X48191152Y28341150D01*
X48196634Y28373282D01*
X48204605Y28396664D01*
X48215763Y28416365D01*
X48221600Y28424807D01*
X48255066Y28462160D01*
X48292497Y28491214D01*
X48297079Y28493750D01*
X48364196Y28513774D01*
X48434696Y28510462D01*
G37*
X48434696Y28510462D02*
X48500628Y28486133D01*
X48554043Y28443100D01*
X48574934Y28412808D01*
X48597709Y28357223D01*
X48597236Y28317031D01*
X48573332Y28290000D01*
X48564487Y28285404D01*
X48526300Y28271073D01*
X48506798Y28274745D01*
X48500192Y28298810D01*
X48499856Y28312103D01*
X48487762Y28361007D01*
X48456241Y28395218D01*
X48412429Y28411741D01*
X48363465Y28407583D01*
X48323664Y28385990D01*
X48310220Y28373673D01*
X48300691Y28358730D01*
X48294255Y28336142D01*
X48290087Y28300889D01*
X48287367Y28247951D01*
X48285272Y28172310D01*
X48284730Y28148360D01*
X48282751Y28066427D01*
X48280501Y28008762D01*
X48277127Y27970609D01*
X48271776Y27947213D01*
X48263594Y27933819D01*
X48251729Y27925672D01*
X48244132Y27922073D01*
X48211872Y27909765D01*
X48192881Y27905703D01*
X48186606Y27919269D01*
X48182776Y27960283D01*
X48181370Y28029218D01*
X48182368Y28126548D01*
X48182678Y28141560D01*
X48184871Y28230358D01*
X48187463Y28295198D01*
X48191152Y28341150D01*
X48196634Y28373282D01*
X48204605Y28396664D01*
X48215763Y28416365D01*
X48221600Y28424807D01*
X48255066Y28462160D01*
X48292497Y28491214D01*
X48297079Y28493750D01*
X48364196Y28513774D01*
X48434696Y28510462D01*
G36*
X47944514Y28509249D02*
G01*
X48001386Y28488130D01*
X48002037Y28487724D01*
X48037210Y28461837D01*
X48063177Y28431584D01*
X48081440Y28392159D01*
X48093502Y28338755D01*
X48100866Y28266566D01*
X48105034Y28170785D01*
X48105399Y28157139D01*
X48110646Y27951375D01*
X48066486Y27928539D01*
X48034533Y27913107D01*
X48015240Y27905794D01*
X48014348Y27905703D01*
X48011009Y27919195D01*
X48008357Y27955591D01*
X48006726Y28008765D01*
X48006370Y28051824D01*
X48006362Y28121576D01*
X48003173Y28165380D01*
X47992058Y28186273D01*
X47968271Y28187292D01*
X47927066Y28171476D01*
X47864856Y28142402D01*
X47819111Y28118254D01*
X47795583Y28097304D01*
X47788666Y28074470D01*
X47788656Y28073340D01*
X47800069Y28034005D01*
X47833862Y28012755D01*
X47885579Y28009678D01*
X47922831Y28010211D01*
X47942473Y27999482D01*
X47954722Y27973712D01*
X47961772Y27940880D01*
X47951612Y27922251D01*
X47947787Y27919585D01*
X47911771Y27908877D01*
X47861336Y27907361D01*
X47809396Y27914458D01*
X47772592Y27927429D01*
X47721708Y27970632D01*
X47692784Y28030771D01*
X47687056Y28077755D01*
X47691427Y28120135D01*
X47707245Y28154729D01*
X47738567Y28185454D01*
X47789448Y28216227D01*
X47863946Y28250965D01*
X47868484Y28252929D01*
X47935591Y28283930D01*
X47977002Y28309355D01*
X47994751Y28332203D01*
X47990877Y28355472D01*
X47967413Y28382161D01*
X47960397Y28388303D01*
X47913400Y28412117D01*
X47864703Y28411114D01*
X47822292Y28387766D01*
X47794154Y28344542D01*
X47791539Y28336057D01*
X47766078Y28294909D01*
X47733771Y28275089D01*
X47687056Y28255447D01*
X47687056Y28306267D01*
X47701266Y28380135D01*
X47743445Y28447890D01*
X47765394Y28470556D01*
X47815287Y28499648D01*
X47878737Y28512817D01*
X47944514Y28509249D01*
G37*
X47944514Y28509249D02*
X48001386Y28488130D01*
X48002037Y28487724D01*
X48037210Y28461837D01*
X48063177Y28431584D01*
X48081440Y28392159D01*
X48093502Y28338755D01*
X48100866Y28266566D01*
X48105034Y28170785D01*
X48105399Y28157139D01*
X48110646Y27951375D01*
X48066486Y27928539D01*
X48034533Y27913107D01*
X48015240Y27905794D01*
X48014348Y27905703D01*
X48011009Y27919195D01*
X48008357Y27955591D01*
X48006726Y28008765D01*
X48006370Y28051824D01*
X48006362Y28121576D01*
X48003173Y28165380D01*
X47992058Y28186273D01*
X47968271Y28187292D01*
X47927066Y28171476D01*
X47864856Y28142402D01*
X47819111Y28118254D01*
X47795583Y28097304D01*
X47788666Y28074470D01*
X47788656Y28073340D01*
X47800069Y28034005D01*
X47833862Y28012755D01*
X47885579Y28009678D01*
X47922831Y28010211D01*
X47942473Y27999482D01*
X47954722Y27973712D01*
X47961772Y27940880D01*
X47951612Y27922251D01*
X47947787Y27919585D01*
X47911771Y27908877D01*
X47861336Y27907361D01*
X47809396Y27914458D01*
X47772592Y27927429D01*
X47721708Y27970632D01*
X47692784Y28030771D01*
X47687056Y28077755D01*
X47691427Y28120135D01*
X47707245Y28154729D01*
X47738567Y28185454D01*
X47789448Y28216227D01*
X47863946Y28250965D01*
X47868484Y28252929D01*
X47935591Y28283930D01*
X47977002Y28309355D01*
X47994751Y28332203D01*
X47990877Y28355472D01*
X47967413Y28382161D01*
X47960397Y28388303D01*
X47913400Y28412117D01*
X47864703Y28411114D01*
X47822292Y28387766D01*
X47794154Y28344542D01*
X47791539Y28336057D01*
X47766078Y28294909D01*
X47733771Y28275089D01*
X47687056Y28255447D01*
X47687056Y28306267D01*
X47701266Y28380135D01*
X47743445Y28447890D01*
X47765394Y28470556D01*
X47815287Y28499648D01*
X47878737Y28512817D01*
X47944514Y28509249D01*
G36*
X47280656Y28608928D02*
G01*
X47284909Y28549604D01*
X47289795Y28514645D01*
X47296565Y28499397D01*
X47306472Y28499202D01*
X47309684Y28501022D01*
X47352414Y28514202D01*
X47407997Y28513432D01*
X47464507Y28499884D01*
X47499852Y28482356D01*
X47536091Y28454356D01*
X47562583Y28422668D01*
X47580769Y28382404D01*
X47592092Y28328674D01*
X47597992Y28256591D01*
X47599913Y28161266D01*
X47599947Y28142980D01*
X47599970Y27937571D01*
X47554261Y27921637D01*
X47521797Y27910797D01*
X47503985Y27905749D01*
X47503461Y27905703D01*
X47501707Y27919389D01*
X47500214Y27957141D01*
X47499096Y28013993D01*
X47498467Y28084983D01*
X47498370Y28128144D01*
X47498168Y28213244D01*
X47497128Y28274236D01*
X47494601Y28316040D01*
X47489934Y28343575D01*
X47482477Y28361761D01*
X47471581Y28375519D01*
X47464777Y28382144D01*
X47418042Y28408842D01*
X47367042Y28410842D01*
X47320771Y28388262D01*
X47312214Y28380110D01*
X47299663Y28364781D01*
X47290958Y28346599D01*
X47285401Y28320308D01*
X47282296Y28280655D01*
X47280946Y28222385D01*
X47280656Y28142044D01*
X47280656Y27937571D01*
X47234947Y27921637D01*
X47202483Y27910797D01*
X47184671Y27905749D01*
X47184147Y27905703D01*
X47182807Y27919594D01*
X47181598Y27958778D01*
X47180571Y28019517D01*
X47179772Y28098076D01*
X47179251Y28190719D01*
X47179056Y28293708D01*
X47179056Y28690875D01*
X47226227Y28710773D01*
X47273399Y28730670D01*
X47280656Y28608928D01*
G37*
X47280656Y28608928D02*
X47284909Y28549604D01*
X47289795Y28514645D01*
X47296565Y28499397D01*
X47306472Y28499202D01*
X47309684Y28501022D01*
X47352414Y28514202D01*
X47407997Y28513432D01*
X47464507Y28499884D01*
X47499852Y28482356D01*
X47536091Y28454356D01*
X47562583Y28422668D01*
X47580769Y28382404D01*
X47592092Y28328674D01*
X47597992Y28256591D01*
X47599913Y28161266D01*
X47599947Y28142980D01*
X47599970Y27937571D01*
X47554261Y27921637D01*
X47521797Y27910797D01*
X47503985Y27905749D01*
X47503461Y27905703D01*
X47501707Y27919389D01*
X47500214Y27957141D01*
X47499096Y28013993D01*
X47498467Y28084983D01*
X47498370Y28128144D01*
X47498168Y28213244D01*
X47497128Y28274236D01*
X47494601Y28316040D01*
X47489934Y28343575D01*
X47482477Y28361761D01*
X47471581Y28375519D01*
X47464777Y28382144D01*
X47418042Y28408842D01*
X47367042Y28410842D01*
X47320771Y28388262D01*
X47312214Y28380110D01*
X47299663Y28364781D01*
X47290958Y28346599D01*
X47285401Y28320308D01*
X47282296Y28280655D01*
X47280946Y28222385D01*
X47280656Y28142044D01*
X47280656Y27937571D01*
X47234947Y27921637D01*
X47202483Y27910797D01*
X47184671Y27905749D01*
X47184147Y27905703D01*
X47182807Y27919594D01*
X47181598Y27958778D01*
X47180571Y28019517D01*
X47179772Y28098076D01*
X47179251Y28190719D01*
X47179056Y28293708D01*
X47179056Y28690875D01*
X47226227Y28710773D01*
X47273399Y28730670D01*
X47280656Y28608928D01*
G36*
X46073073Y28528978D02*
G01*
X46130297Y28490482D01*
X46174519Y28434882D01*
X46200937Y28364131D01*
X46206280Y28312055D01*
X46205673Y28290324D01*
X46200592Y28273686D01*
X46186625Y28258780D01*
X46159359Y28242244D01*
X46114382Y28220719D01*
X46047281Y28190843D01*
X46046941Y28190693D01*
X45985177Y28162404D01*
X45934529Y28137284D01*
X45900174Y28118038D01*
X45887288Y28107369D01*
X45887284Y28107283D01*
X45898642Y28084051D01*
X45925201Y28058443D01*
X45955693Y28039996D01*
X45971140Y28036331D01*
X46013285Y28049005D01*
X46049578Y28080746D01*
X46067287Y28115645D01*
X46084322Y28141372D01*
X46117692Y28170671D01*
X46156919Y28195982D01*
X46191526Y28209746D01*
X46198763Y28210503D01*
X46206909Y28198057D01*
X46207400Y28166245D01*
X46201413Y28123351D01*
X46190127Y28077659D01*
X46174720Y28037456D01*
X46173941Y28035895D01*
X46127574Y27971155D01*
X46067481Y27927120D01*
X45999235Y27905506D01*
X45928408Y27908032D01*
X45860574Y27936413D01*
X45857558Y27938409D01*
X45804197Y27986769D01*
X45769110Y28049865D01*
X45749692Y28132830D01*
X45747086Y28156139D01*
X45742471Y28266162D01*
X45748003Y28317469D01*
X45887284Y28317469D01*
X45889094Y28285464D01*
X45898992Y28276124D01*
X45923668Y28283112D01*
X45962565Y28299630D01*
X46006045Y28320336D01*
X46007126Y28320884D01*
X46043979Y28340268D01*
X46058770Y28353204D01*
X46055123Y28366766D01*
X46039765Y28384585D01*
X46000693Y28410372D01*
X45958616Y28412267D01*
X45920873Y28393500D01*
X45894804Y28357302D01*
X45887284Y28317469D01*
X45748003Y28317469D01*
X45751964Y28354190D01*
X45776320Y28424005D01*
X45810226Y28472915D01*
X45871423Y28522339D01*
X45938833Y28546858D01*
X46007650Y28548420D01*
X46073073Y28528978D01*
G37*
X46073073Y28528978D02*
X46130297Y28490482D01*
X46174519Y28434882D01*
X46200937Y28364131D01*
X46206280Y28312055D01*
X46205673Y28290324D01*
X46200592Y28273686D01*
X46186625Y28258780D01*
X46159359Y28242244D01*
X46114382Y28220719D01*
X46047281Y28190843D01*
X46046941Y28190693D01*
X45985177Y28162404D01*
X45934529Y28137284D01*
X45900174Y28118038D01*
X45887288Y28107369D01*
X45887284Y28107283D01*
X45898642Y28084051D01*
X45925201Y28058443D01*
X45955693Y28039996D01*
X45971140Y28036331D01*
X46013285Y28049005D01*
X46049578Y28080746D01*
X46067287Y28115645D01*
X46084322Y28141372D01*
X46117692Y28170671D01*
X46156919Y28195982D01*
X46191526Y28209746D01*
X46198763Y28210503D01*
X46206909Y28198057D01*
X46207400Y28166245D01*
X46201413Y28123351D01*
X46190127Y28077659D01*
X46174720Y28037456D01*
X46173941Y28035895D01*
X46127574Y27971155D01*
X46067481Y27927120D01*
X45999235Y27905506D01*
X45928408Y27908032D01*
X45860574Y27936413D01*
X45857558Y27938409D01*
X45804197Y27986769D01*
X45769110Y28049865D01*
X45749692Y28132830D01*
X45747086Y28156139D01*
X45742471Y28266162D01*
X45748003Y28317469D01*
X45887284Y28317469D01*
X45889094Y28285464D01*
X45898992Y28276124D01*
X45923668Y28283112D01*
X45962565Y28299630D01*
X46006045Y28320336D01*
X46007126Y28320884D01*
X46043979Y28340268D01*
X46058770Y28353204D01*
X46055123Y28366766D01*
X46039765Y28384585D01*
X46000693Y28410372D01*
X45958616Y28412267D01*
X45920873Y28393500D01*
X45894804Y28357302D01*
X45887284Y28317469D01*
X45748003Y28317469D01*
X45751964Y28354190D01*
X45776320Y28424005D01*
X45810226Y28472915D01*
X45871423Y28522339D01*
X45938833Y28546858D01*
X46007650Y28548420D01*
X46073073Y28528978D01*
G36*
X44945885Y28538255D02*
G01*
X45013915Y28502484D01*
X45064121Y28444916D01*
X45081955Y28407905D01*
X45095833Y28352335D01*
X45102937Y28282121D01*
X45103610Y28205490D01*
X45098197Y28130665D01*
X45087040Y28065875D01*
X45070484Y28019344D01*
X45065396Y28011330D01*
X45005125Y27951510D01*
X44933539Y27915682D01*
X44855862Y27905197D01*
X44777318Y27921407D01*
X44755459Y27931125D01*
X44712892Y27961074D01*
X44675533Y28000784D01*
X44672002Y28005820D01*
X44657651Y28030093D01*
X44648164Y28056039D01*
X44642560Y28090195D01*
X44639856Y28139098D01*
X44639069Y28209282D01*
X44639056Y28225017D01*
X44639092Y28230025D01*
X44784199Y28230025D01*
X44785043Y28163787D01*
X44788366Y28119831D01*
X44795353Y28091438D01*
X44807186Y28071892D01*
X44813227Y28065360D01*
X44847956Y28040537D01*
X44881673Y28041669D01*
X44915765Y28063201D01*
X44936099Y28086188D01*
X44948141Y28119739D01*
X44954904Y28172648D01*
X44955368Y28178818D01*
X44956522Y28274704D01*
X44944458Y28345918D01*
X44919340Y28392023D01*
X44881330Y28412582D01*
X44867762Y28413703D01*
X44832134Y28408065D01*
X44807764Y28388531D01*
X44792863Y28351175D01*
X44785645Y28292067D01*
X44784199Y28230025D01*
X44639092Y28230025D01*
X44639596Y28299804D01*
X44641866Y28352058D01*
X44646838Y28388268D01*
X44655483Y28414918D01*
X44668775Y28438495D01*
X44671713Y28442879D01*
X44721083Y28501968D01*
X44774879Y28536270D01*
X44840372Y28549886D01*
X44862612Y28550552D01*
X44945885Y28538255D01*
G37*
X44945885Y28538255D02*
X45013915Y28502484D01*
X45064121Y28444916D01*
X45081955Y28407905D01*
X45095833Y28352335D01*
X45102937Y28282121D01*
X45103610Y28205490D01*
X45098197Y28130665D01*
X45087040Y28065875D01*
X45070484Y28019344D01*
X45065396Y28011330D01*
X45005125Y27951510D01*
X44933539Y27915682D01*
X44855862Y27905197D01*
X44777318Y27921407D01*
X44755459Y27931125D01*
X44712892Y27961074D01*
X44675533Y28000784D01*
X44672002Y28005820D01*
X44657651Y28030093D01*
X44648164Y28056039D01*
X44642560Y28090195D01*
X44639856Y28139098D01*
X44639069Y28209282D01*
X44639056Y28225017D01*
X44639092Y28230025D01*
X44784199Y28230025D01*
X44785043Y28163787D01*
X44788366Y28119831D01*
X44795353Y28091438D01*
X44807186Y28071892D01*
X44813227Y28065360D01*
X44847956Y28040537D01*
X44881673Y28041669D01*
X44915765Y28063201D01*
X44936099Y28086188D01*
X44948141Y28119739D01*
X44954904Y28172648D01*
X44955368Y28178818D01*
X44956522Y28274704D01*
X44944458Y28345918D01*
X44919340Y28392023D01*
X44881330Y28412582D01*
X44867762Y28413703D01*
X44832134Y28408065D01*
X44807764Y28388531D01*
X44792863Y28351175D01*
X44785645Y28292067D01*
X44784199Y28230025D01*
X44639092Y28230025D01*
X44639596Y28299804D01*
X44641866Y28352058D01*
X44646838Y28388268D01*
X44655483Y28414918D01*
X44668775Y28438495D01*
X44671713Y28442879D01*
X44721083Y28501968D01*
X44774879Y28536270D01*
X44840372Y28549886D01*
X44862612Y28550552D01*
X44945885Y28538255D01*
G36*
X46620863Y28532437D02*
G01*
X46667442Y28505494D01*
X46699827Y28478751D01*
X46723512Y28450733D01*
X46739829Y28416469D01*
X46750109Y28370990D01*
X46755684Y28309325D01*
X46757886Y28226506D01*
X46758141Y28166971D01*
X46758141Y27947826D01*
X46696456Y27920173D01*
X46634770Y27892520D01*
X46627513Y28132547D01*
X46624514Y28222189D01*
X46621368Y28287255D01*
X46617471Y28332191D01*
X46612217Y28361447D01*
X46605001Y28379469D01*
X46595220Y28390706D01*
X46592082Y28393138D01*
X46544531Y28412134D01*
X46496467Y28404617D01*
X46467856Y28384674D01*
X46456217Y28370542D01*
X46448161Y28351997D01*
X46443041Y28323883D01*
X46440211Y28281044D01*
X46439026Y28218322D01*
X46438827Y28152956D01*
X46438788Y28070949D01*
X46437384Y28012901D01*
X46432684Y27973752D01*
X46422757Y27948437D01*
X46405673Y27931894D01*
X46379502Y27919061D01*
X46344545Y27905726D01*
X46306366Y27891210D01*
X46310911Y28148828D01*
X46312741Y28241698D01*
X46314882Y28310328D01*
X46317951Y28359506D01*
X46322564Y28394019D01*
X46329338Y28418655D01*
X46338889Y28438201D01*
X46350404Y28455447D01*
X46405960Y28510537D01*
X46473750Y28542395D01*
X46547483Y28550026D01*
X46620863Y28532437D01*
G37*
X46620863Y28532437D02*
X46667442Y28505494D01*
X46699827Y28478751D01*
X46723512Y28450733D01*
X46739829Y28416469D01*
X46750109Y28370990D01*
X46755684Y28309325D01*
X46757886Y28226506D01*
X46758141Y28166971D01*
X46758141Y27947826D01*
X46696456Y27920173D01*
X46634770Y27892520D01*
X46627513Y28132547D01*
X46624514Y28222189D01*
X46621368Y28287255D01*
X46617471Y28332191D01*
X46612217Y28361447D01*
X46605001Y28379469D01*
X46595220Y28390706D01*
X46592082Y28393138D01*
X46544531Y28412134D01*
X46496467Y28404617D01*
X46467856Y28384674D01*
X46456217Y28370542D01*
X46448161Y28351997D01*
X46443041Y28323883D01*
X46440211Y28281044D01*
X46439026Y28218322D01*
X46438827Y28152956D01*
X46438788Y28070949D01*
X46437384Y28012901D01*
X46432684Y27973752D01*
X46422757Y27948437D01*
X46405673Y27931894D01*
X46379502Y27919061D01*
X46344545Y27905726D01*
X46306366Y27891210D01*
X46310911Y28148828D01*
X46312741Y28241698D01*
X46314882Y28310328D01*
X46317951Y28359506D01*
X46322564Y28394019D01*
X46329338Y28418655D01*
X46338889Y28438201D01*
X46350404Y28455447D01*
X46405960Y28510537D01*
X46473750Y28542395D01*
X46547483Y28550026D01*
X46620863Y28532437D01*
G36*
X45504514Y28540299D02*
G01*
X45559971Y28512649D01*
X45608918Y28461737D01*
X45622399Y28442879D01*
X45637084Y28418202D01*
X45646612Y28391401D01*
X45652063Y28355630D01*
X45654517Y28304048D01*
X45655056Y28235950D01*
X45652622Y28142629D01*
X45644164Y28072560D01*
X45627944Y28020286D01*
X45602224Y27980348D01*
X45565267Y27947288D01*
X45562552Y27945331D01*
X45526130Y27925309D01*
X45482272Y27915402D01*
X45426494Y27912960D01*
X45335818Y27912960D01*
X45335780Y27824934D01*
X45334936Y27775909D01*
X45329794Y27747152D01*
X45316357Y27729906D01*
X45290628Y27715409D01*
X45284449Y27712448D01*
X45255534Y27698569D01*
X45233146Y27689803D01*
X45216499Y27689046D01*
X45204806Y27699194D01*
X45197280Y27723144D01*
X45193136Y27763791D01*
X45191585Y27824031D01*
X45191841Y27906762D01*
X45193119Y28014878D01*
X45193518Y28047217D01*
X45194955Y28158693D01*
X45196242Y28231614D01*
X45335741Y28231614D01*
X45336525Y28169718D01*
X45340010Y28129220D01*
X45347894Y28102509D01*
X45361875Y28081973D01*
X45371367Y28071957D01*
X45410174Y28042650D01*
X45444533Y28040265D01*
X45479986Y28064467D01*
X45480884Y28065360D01*
X45495309Y28084064D01*
X45504083Y28109485D01*
X45508509Y28148633D01*
X45509888Y28208520D01*
X45509913Y28221787D01*
X45506582Y28304316D01*
X45495739Y28361526D01*
X45476110Y28396451D01*
X45446420Y28412123D01*
X45429261Y28413703D01*
X45388536Y28406291D01*
X45360602Y28381887D01*
X45343787Y28337237D01*
X45336420Y28269087D01*
X45335741Y28231614D01*
X45196242Y28231614D01*
X45196478Y28244972D01*
X45198447Y28309884D01*
X45201220Y28357259D01*
X45205158Y28390927D01*
X45210619Y28414719D01*
X45217962Y28432464D01*
X45227547Y28447993D01*
X45231657Y28453836D01*
X45286175Y28509032D01*
X45355106Y28540327D01*
X45434842Y28549052D01*
X45504514Y28540299D01*
G37*
X45504514Y28540299D02*
X45559971Y28512649D01*
X45608918Y28461737D01*
X45622399Y28442879D01*
X45637084Y28418202D01*
X45646612Y28391401D01*
X45652063Y28355630D01*
X45654517Y28304048D01*
X45655056Y28235950D01*
X45652622Y28142629D01*
X45644164Y28072560D01*
X45627944Y28020286D01*
X45602224Y27980348D01*
X45565267Y27947288D01*
X45562552Y27945331D01*
X45526130Y27925309D01*
X45482272Y27915402D01*
X45426494Y27912960D01*
X45335818Y27912960D01*
X45335780Y27824934D01*
X45334936Y27775909D01*
X45329794Y27747152D01*
X45316357Y27729906D01*
X45290628Y27715409D01*
X45284449Y27712448D01*
X45255534Y27698569D01*
X45233146Y27689803D01*
X45216499Y27689046D01*
X45204806Y27699194D01*
X45197280Y27723144D01*
X45193136Y27763791D01*
X45191585Y27824031D01*
X45191841Y27906762D01*
X45193119Y28014878D01*
X45193518Y28047217D01*
X45194955Y28158693D01*
X45196242Y28231614D01*
X45335741Y28231614D01*
X45336525Y28169718D01*
X45340010Y28129220D01*
X45347894Y28102509D01*
X45361875Y28081973D01*
X45371367Y28071957D01*
X45410174Y28042650D01*
X45444533Y28040265D01*
X45479986Y28064467D01*
X45480884Y28065360D01*
X45495309Y28084064D01*
X45504083Y28109485D01*
X45508509Y28148633D01*
X45509888Y28208520D01*
X45509913Y28221787D01*
X45506582Y28304316D01*
X45495739Y28361526D01*
X45476110Y28396451D01*
X45446420Y28412123D01*
X45429261Y28413703D01*
X45388536Y28406291D01*
X45360602Y28381887D01*
X45343787Y28337237D01*
X45336420Y28269087D01*
X45335741Y28231614D01*
X45196242Y28231614D01*
X45196478Y28244972D01*
X45198447Y28309884D01*
X45201220Y28357259D01*
X45205158Y28390927D01*
X45210619Y28414719D01*
X45217962Y28432464D01*
X45227547Y28447993D01*
X45231657Y28453836D01*
X45286175Y28509032D01*
X45355106Y28540327D01*
X45434842Y28549052D01*
X45504514Y28540299D01*
D13*
%TO.C,J1*%
X-450000Y26910000D02*
X1500000Y26910000D01*
X3720000Y26910000D02*
X6950000Y26910000D01*
X8870000Y26190000D02*
X8870000Y25110000D01*
X8870000Y20890000D02*
X8870000Y19810000D01*
X3720000Y19090000D02*
X6950000Y19090000D01*
X-450000Y19090000D02*
X1500000Y19090000D01*
X8870000Y25110000D02*
X9300000Y25110000D01*
X-450000Y19090000D02*
X-450000Y26910000D01*
%TO.C,U4*%
X23367000Y31456000D02*
X19917000Y31456000D01*
X23367000Y31456000D02*
X25317000Y31456000D01*
X23367000Y26336000D02*
X21417000Y26336000D01*
X23367000Y26336000D02*
X25317000Y26336000D01*
%TO.C,C2*%
X28620500Y17585748D02*
X28620500Y18108252D01*
X27200500Y17585748D02*
X27200500Y18108252D01*
%TO.C,R3*%
X14276000Y3554252D02*
X14276000Y3031748D01*
X15696000Y3554252D02*
X15696000Y3031748D01*
%TO.C,Y1*%
X51297000Y25944000D02*
X51297000Y13344000D01*
X56397000Y25944000D02*
X51297000Y25944000D01*
X56397000Y13344000D02*
X56397000Y25944000D01*
%TO.C,U3*%
X7469500Y12460500D02*
X7469500Y9510500D01*
X10689500Y10660500D02*
X10689500Y12460500D01*
%TO.C,U2*%
X25645500Y18226000D02*
X25645500Y16766000D01*
X22485500Y18226000D02*
X22485500Y16066000D01*
X22485500Y18226000D02*
X23415500Y18226000D01*
X25645500Y18226000D02*
X24715500Y18226000D01*
%TO.C,U1*%
X44630000Y17840000D02*
X45920000Y17840000D01*
X44630000Y17390000D02*
X44630000Y17840000D01*
X44180000Y17390000D02*
X44630000Y17390000D01*
X37410000Y17390000D02*
X37410000Y17840000D01*
X37860000Y17390000D02*
X37410000Y17390000D01*
X44630000Y24610000D02*
X44630000Y24160000D01*
X44180000Y24610000D02*
X44630000Y24610000D01*
X37410000Y24610000D02*
X37410000Y24160000D01*
X37860000Y24610000D02*
X37410000Y24610000D01*
%TO.C,R24*%
X75258000Y6291748D02*
X75258000Y6814252D01*
X73838000Y6291748D02*
X73838000Y6814252D01*
%TO.C,R23*%
X72464000Y6273748D02*
X72464000Y6796252D01*
X71044000Y6273748D02*
X71044000Y6796252D01*
%TO.C,R22*%
X72464000Y18991748D02*
X72464000Y19514252D01*
X71044000Y18991748D02*
X71044000Y19514252D01*
%TO.C,R21*%
X69670000Y6291748D02*
X69670000Y6814252D01*
X68250000Y6291748D02*
X68250000Y6814252D01*
%TO.C,R20*%
X72464000Y14673748D02*
X72464000Y15196252D01*
X71044000Y14673748D02*
X71044000Y15196252D01*
%TO.C,R19*%
X60086252Y32908000D02*
X59563748Y32908000D01*
X60086252Y31488000D02*
X59563748Y31488000D01*
%TO.C,R18*%
X55958752Y32908000D02*
X55436248Y32908000D01*
X55958752Y31488000D02*
X55436248Y31488000D01*
%TO.C,R17*%
X61102252Y29161500D02*
X60579748Y29161500D01*
X61102252Y27741500D02*
X60579748Y27741500D01*
%TO.C,R16*%
X56974752Y29161500D02*
X56452248Y29161500D01*
X56974752Y27741500D02*
X56452248Y27741500D01*
%TO.C,R15*%
X32182000Y30418252D02*
X32182000Y29895748D01*
X33602000Y30418252D02*
X33602000Y29895748D01*
%TO.C,R14*%
X32182000Y26100252D02*
X32182000Y25577748D01*
X33602000Y26100252D02*
X33602000Y25577748D01*
%TO.C,R13*%
X28626000Y27388252D02*
X28626000Y26865748D01*
X30046000Y27388252D02*
X30046000Y26865748D01*
%TO.C,R12*%
X12878000Y29656252D02*
X12878000Y29133748D01*
X14298000Y29656252D02*
X14298000Y29133748D01*
%TO.C,R11*%
X12878000Y25102252D02*
X12878000Y24579748D01*
X14298000Y25102252D02*
X14298000Y24579748D01*
%TO.C,R10*%
X16434000Y28386252D02*
X16434000Y27863748D01*
X17854000Y28386252D02*
X17854000Y27863748D01*
%TO.C,R9*%
X20937748Y11930000D02*
X21460252Y11930000D01*
X20937748Y13350000D02*
X21460252Y13350000D01*
%TO.C,R8*%
X55989748Y6596000D02*
X56512252Y6596000D01*
X55989748Y8016000D02*
X56512252Y8016000D01*
%TO.C,R7*%
X51671748Y6596000D02*
X52194252Y6596000D01*
X51671748Y8016000D02*
X52194252Y8016000D01*
%TO.C,R6*%
X47607748Y6596000D02*
X48130252Y6596000D01*
X47607748Y8016000D02*
X48130252Y8016000D01*
%TO.C,R5*%
X35811252Y7000000D02*
X35288748Y7000000D01*
X35811252Y5580000D02*
X35288748Y5580000D01*
%TO.C,R4*%
X11174252Y2936000D02*
X10651748Y2936000D01*
X11174252Y1516000D02*
X10651748Y1516000D01*
%TO.C,L1*%
X3212000Y12126064D02*
X3212000Y10921936D01*
X5932000Y12126064D02*
X5932000Y10921936D01*
%TO.C,J5*%
X37778000Y11430000D02*
X37778000Y10100000D01*
X36448000Y11430000D02*
X37778000Y11430000D01*
X35178000Y11430000D02*
X35178000Y8770000D01*
X35178000Y8770000D02*
X32578000Y8770000D01*
X35178000Y11430000D02*
X32578000Y11430000D01*
X32578000Y11430000D02*
X32578000Y8770000D01*
%TO.C,J2*%
X26482000Y13462000D02*
X27812000Y13462000D01*
X26482000Y12132000D02*
X26482000Y13462000D01*
X26482000Y10862000D02*
X29142000Y10862000D01*
X29142000Y10862000D02*
X29142000Y3182000D01*
X26482000Y10862000D02*
X26482000Y3182000D01*
X26482000Y3182000D02*
X29142000Y3182000D01*
%TO.C,D4*%
X54391000Y8632000D02*
X57251000Y8632000D01*
X54391000Y10552000D02*
X54391000Y8632000D01*
X57251000Y10552000D02*
X54391000Y10552000D01*
%TO.C,D3*%
X50091000Y8632000D02*
X52951000Y8632000D01*
X50091000Y10552000D02*
X50091000Y8632000D01*
X52951000Y10552000D02*
X50091000Y10552000D01*
%TO.C,D2*%
X46009000Y8632000D02*
X48869000Y8632000D01*
X46009000Y10552000D02*
X46009000Y8632000D01*
X48869000Y10552000D02*
X46009000Y10552000D01*
%TO.C,C6-2*%
X21488192Y10116580D02*
X20965688Y10116580D01*
X21488192Y8696580D02*
X20965688Y8696580D01*
%TO.C,C6-1*%
X21640592Y6238000D02*
X21118088Y6238000D01*
X21640592Y4818000D02*
X21118088Y4818000D01*
%TO.C,C17*%
X64844000Y13131748D02*
X64844000Y13654252D01*
X63424000Y13131748D02*
X63424000Y13654252D01*
%TO.C,C16*%
X63424000Y19006252D02*
X63424000Y18483748D01*
X64844000Y19006252D02*
X64844000Y18483748D01*
%TO.C,C15*%
X28049748Y23106000D02*
X28572252Y23106000D01*
X28049748Y24526000D02*
X28572252Y24526000D01*
%TO.C,C14*%
X23746252Y24526000D02*
X23223748Y24526000D01*
X23746252Y23106000D02*
X23223748Y23106000D01*
%TO.C,C13*%
X48692000Y23433252D02*
X48692000Y22910748D01*
X50112000Y23433252D02*
X50112000Y22910748D01*
%TO.C,C12*%
X38336748Y28313000D02*
X38859252Y28313000D01*
X38336748Y29733000D02*
X38859252Y29733000D01*
%TO.C,C11*%
X34237000Y17068748D02*
X34237000Y17591252D01*
X32817000Y17068748D02*
X32817000Y17591252D01*
%TO.C,C10*%
X43939252Y13350000D02*
X43416748Y13350000D01*
X43939252Y11930000D02*
X43416748Y11930000D01*
%TO.C,C9*%
X58494000Y22974248D02*
X58494000Y23496752D01*
X57074000Y22974248D02*
X57074000Y23496752D01*
%TO.C,C8*%
X57074000Y15894752D02*
X57074000Y15372248D01*
X58494000Y15894752D02*
X58494000Y15372248D01*
%TO.C,C7*%
X49019252Y15953500D02*
X48496748Y15953500D01*
X49019252Y14533500D02*
X48496748Y14533500D01*
%TO.C,C5*%
X18490000Y4259748D02*
X18490000Y4782252D01*
X17070000Y4259748D02*
X17070000Y4782252D01*
%TO.C,C4*%
X13020240Y10687752D02*
X13020240Y10165248D01*
X14440240Y10687752D02*
X14440240Y10165248D01*
%TO.C,C3*%
X19291500Y17790752D02*
X19291500Y17268248D01*
X20711500Y17790752D02*
X20711500Y17268248D01*
%TO.C,C1*%
X16373040Y10679912D02*
X16373040Y10157408D01*
X17793040Y10679912D02*
X17793040Y10157408D01*
%TO.C,D1*%
D12*
X3071904Y2341620D02*
X3071904Y3341620D01*
X3310000Y3341620D01*
X3452857Y3294000D01*
X3548095Y3198762D01*
X3595714Y3103524D01*
X3643333Y2913048D01*
X3643333Y2770191D01*
X3595714Y2579715D01*
X3548095Y2484477D01*
X3452857Y2389239D01*
X3310000Y2341620D01*
X3071904Y2341620D01*
X4595714Y2341620D02*
X4024285Y2341620D01*
X4310000Y2341620D02*
X4310000Y3341620D01*
X4214761Y3198762D01*
X4119523Y3103524D01*
X4024285Y3055905D01*
%TO.C,F1*%
X15761666Y16821429D02*
X15428333Y16821429D01*
X15428333Y16297620D02*
X15428333Y17297620D01*
X15904523Y17297620D01*
X16809285Y16297620D02*
X16237857Y16297620D01*
X16523571Y16297620D02*
X16523571Y17297620D01*
X16428333Y17154762D01*
X16333095Y17059524D01*
X16237857Y17011905D01*
%TO.C,R1*%
X41107333Y7860620D02*
X40774000Y8336810D01*
X40535904Y7860620D02*
X40535904Y8860620D01*
X40916857Y8860620D01*
X41012095Y8813000D01*
X41059714Y8765381D01*
X41107333Y8670143D01*
X41107333Y8527286D01*
X41059714Y8432048D01*
X41012095Y8384429D01*
X40916857Y8336810D01*
X40535904Y8336810D01*
X42059714Y7860620D02*
X41488285Y7860620D01*
X41774000Y7860620D02*
X41774000Y8860620D01*
X41678761Y8717762D01*
X41583523Y8622524D01*
X41488285Y8574905D01*
%TO.C,J4*%
X75982666Y33317620D02*
X75982666Y32603334D01*
X75935047Y32460477D01*
X75839809Y32365239D01*
X75696952Y32317620D01*
X75601714Y32317620D01*
X76887428Y32984286D02*
X76887428Y32317620D01*
X76649333Y33365239D02*
X76411238Y32650953D01*
X77030285Y32650953D01*
%TO.C,J3*%
X68372666Y33317620D02*
X68372666Y32603334D01*
X68325047Y32460477D01*
X68229809Y32365239D01*
X68086952Y32317620D01*
X67991714Y32317620D01*
X68753619Y33317620D02*
X69372666Y33317620D01*
X69039333Y32936667D01*
X69182190Y32936667D01*
X69277428Y32889048D01*
X69325047Y32841429D01*
X69372666Y32746191D01*
X69372666Y32508096D01*
X69325047Y32412858D01*
X69277428Y32365239D01*
X69182190Y32317620D01*
X68896476Y32317620D01*
X68801238Y32365239D01*
X68753619Y32412858D01*
%TO.C,J1*%
X6016666Y30265620D02*
X6016666Y29551334D01*
X5969047Y29408477D01*
X5873809Y29313239D01*
X5730952Y29265620D01*
X5635714Y29265620D01*
X7016666Y29265620D02*
X6445238Y29265620D01*
X6730952Y29265620D02*
X6730952Y30265620D01*
X6635714Y30122762D01*
X6540476Y30027524D01*
X6445238Y29979905D01*
%TO.C,U4*%
X23114095Y32843620D02*
X23114095Y32034096D01*
X23161714Y31938858D01*
X23209333Y31891239D01*
X23304571Y31843620D01*
X23495047Y31843620D01*
X23590285Y31891239D01*
X23637904Y31938858D01*
X23685523Y32034096D01*
X23685523Y32843620D01*
X24590285Y32510286D02*
X24590285Y31843620D01*
X24352190Y32891239D02*
X24114095Y32176953D01*
X24733142Y32176953D01*
%TO.C,C2*%
X29677333Y18124858D02*
X29629714Y18077239D01*
X29486857Y18029620D01*
X29391619Y18029620D01*
X29248761Y18077239D01*
X29153523Y18172477D01*
X29105904Y18267715D01*
X29058285Y18458191D01*
X29058285Y18601048D01*
X29105904Y18791524D01*
X29153523Y18886762D01*
X29248761Y18982000D01*
X29391619Y19029620D01*
X29486857Y19029620D01*
X29629714Y18982000D01*
X29677333Y18934381D01*
X30058285Y18934381D02*
X30105904Y18982000D01*
X30201142Y19029620D01*
X30439238Y19029620D01*
X30534476Y18982000D01*
X30582095Y18934381D01*
X30629714Y18839143D01*
X30629714Y18743905D01*
X30582095Y18601048D01*
X30010666Y18029620D01*
X30629714Y18029620D01*
%TO.C,R3*%
X14819333Y5643620D02*
X14486000Y6119810D01*
X14247904Y5643620D02*
X14247904Y6643620D01*
X14628857Y6643620D01*
X14724095Y6596000D01*
X14771714Y6548381D01*
X14819333Y6453143D01*
X14819333Y6310286D01*
X14771714Y6215048D01*
X14724095Y6167429D01*
X14628857Y6119810D01*
X14247904Y6119810D01*
X15152666Y6643620D02*
X15771714Y6643620D01*
X15438380Y6262667D01*
X15581238Y6262667D01*
X15676476Y6215048D01*
X15724095Y6167429D01*
X15771714Y6072191D01*
X15771714Y5834096D01*
X15724095Y5738858D01*
X15676476Y5691239D01*
X15581238Y5643620D01*
X15295523Y5643620D01*
X15200285Y5691239D01*
X15152666Y5738858D01*
%TO.C,Y1*%
X56990309Y19458310D02*
X56990309Y18982120D01*
X56656976Y19982120D02*
X56990309Y19458310D01*
X57323642Y19982120D01*
X58180785Y18982120D02*
X57609357Y18982120D01*
X57895071Y18982120D02*
X57895071Y19982120D01*
X57799833Y19839262D01*
X57704595Y19744024D01*
X57609357Y19696405D01*
%TO.C,U3*%
X7746095Y15219620D02*
X7746095Y14410096D01*
X7793714Y14314858D01*
X7841333Y14267239D01*
X7936571Y14219620D01*
X8127047Y14219620D01*
X8222285Y14267239D01*
X8269904Y14314858D01*
X8317523Y14410096D01*
X8317523Y15219620D01*
X8698476Y15219620D02*
X9317523Y15219620D01*
X8984190Y14838667D01*
X9127047Y14838667D01*
X9222285Y14791048D01*
X9269904Y14743429D01*
X9317523Y14648191D01*
X9317523Y14410096D01*
X9269904Y14314858D01*
X9222285Y14267239D01*
X9127047Y14219620D01*
X8841333Y14219620D01*
X8746095Y14267239D01*
X8698476Y14314858D01*
%TO.C,U2*%
X24002095Y20299620D02*
X24002095Y19490096D01*
X24049714Y19394858D01*
X24097333Y19347239D01*
X24192571Y19299620D01*
X24383047Y19299620D01*
X24478285Y19347239D01*
X24525904Y19394858D01*
X24573523Y19490096D01*
X24573523Y20299620D01*
X25002095Y20204381D02*
X25049714Y20252000D01*
X25144952Y20299620D01*
X25383047Y20299620D01*
X25478285Y20252000D01*
X25525904Y20204381D01*
X25573523Y20109143D01*
X25573523Y20013905D01*
X25525904Y19871048D01*
X24954476Y19299620D01*
X25573523Y19299620D01*
%TO.C,U1*%
X40258095Y15092620D02*
X40258095Y14283096D01*
X40305714Y14187858D01*
X40353333Y14140239D01*
X40448571Y14092620D01*
X40639047Y14092620D01*
X40734285Y14140239D01*
X40781904Y14187858D01*
X40829523Y14283096D01*
X40829523Y15092620D01*
X41829523Y14092620D02*
X41258095Y14092620D01*
X41543809Y14092620D02*
X41543809Y15092620D01*
X41448571Y14949762D01*
X41353333Y14854524D01*
X41258095Y14806905D01*
%TO.C,R24*%
X74159142Y3061620D02*
X73825809Y3537810D01*
X73587714Y3061620D02*
X73587714Y4061620D01*
X73968666Y4061620D01*
X74063904Y4014000D01*
X74111523Y3966381D01*
X74159142Y3871143D01*
X74159142Y3728286D01*
X74111523Y3633048D01*
X74063904Y3585429D01*
X73968666Y3537810D01*
X73587714Y3537810D01*
X74540095Y3966381D02*
X74587714Y4014000D01*
X74682952Y4061620D01*
X74921047Y4061620D01*
X75016285Y4014000D01*
X75063904Y3966381D01*
X75111523Y3871143D01*
X75111523Y3775905D01*
X75063904Y3633048D01*
X74492476Y3061620D01*
X75111523Y3061620D01*
X75968666Y3728286D02*
X75968666Y3061620D01*
X75730571Y4109239D02*
X75492476Y3394953D01*
X76111523Y3394953D01*
%TO.C,R23*%
X71365142Y8885620D02*
X71031809Y9361810D01*
X70793714Y8885620D02*
X70793714Y9885620D01*
X71174666Y9885620D01*
X71269904Y9838000D01*
X71317523Y9790381D01*
X71365142Y9695143D01*
X71365142Y9552286D01*
X71317523Y9457048D01*
X71269904Y9409429D01*
X71174666Y9361810D01*
X70793714Y9361810D01*
X71746095Y9790381D02*
X71793714Y9838000D01*
X71888952Y9885620D01*
X72127047Y9885620D01*
X72222285Y9838000D01*
X72269904Y9790381D01*
X72317523Y9695143D01*
X72317523Y9599905D01*
X72269904Y9457048D01*
X71698476Y8885620D01*
X72317523Y8885620D01*
X72650857Y9885620D02*
X73269904Y9885620D01*
X72936571Y9504667D01*
X73079428Y9504667D01*
X73174666Y9457048D01*
X73222285Y9409429D01*
X73269904Y9314191D01*
X73269904Y9076096D01*
X73222285Y8980858D01*
X73174666Y8933239D01*
X73079428Y8885620D01*
X72793714Y8885620D01*
X72698476Y8933239D01*
X72650857Y8980858D01*
%TO.C,R22*%
X71357142Y21547620D02*
X71023809Y22023810D01*
X70785714Y21547620D02*
X70785714Y22547620D01*
X71166666Y22547620D01*
X71261904Y22500000D01*
X71309523Y22452381D01*
X71357142Y22357143D01*
X71357142Y22214286D01*
X71309523Y22119048D01*
X71261904Y22071429D01*
X71166666Y22023810D01*
X70785714Y22023810D01*
X71738095Y22452381D02*
X71785714Y22500000D01*
X71880952Y22547620D01*
X72119047Y22547620D01*
X72214285Y22500000D01*
X72261904Y22452381D01*
X72309523Y22357143D01*
X72309523Y22261905D01*
X72261904Y22119048D01*
X71690476Y21547620D01*
X72309523Y21547620D01*
X72690476Y22452381D02*
X72738095Y22500000D01*
X72833333Y22547620D01*
X73071428Y22547620D01*
X73166666Y22500000D01*
X73214285Y22452381D01*
X73261904Y22357143D01*
X73261904Y22261905D01*
X73214285Y22119048D01*
X72642857Y21547620D01*
X73261904Y21547620D01*
%TO.C,R21*%
X68317142Y3297620D02*
X67983809Y3773810D01*
X67745714Y3297620D02*
X67745714Y4297620D01*
X68126666Y4297620D01*
X68221904Y4250000D01*
X68269523Y4202381D01*
X68317142Y4107143D01*
X68317142Y3964286D01*
X68269523Y3869048D01*
X68221904Y3821429D01*
X68126666Y3773810D01*
X67745714Y3773810D01*
X68698095Y4202381D02*
X68745714Y4250000D01*
X68840952Y4297620D01*
X69079047Y4297620D01*
X69174285Y4250000D01*
X69221904Y4202381D01*
X69269523Y4107143D01*
X69269523Y4011905D01*
X69221904Y3869048D01*
X68650476Y3297620D01*
X69269523Y3297620D01*
X70221904Y3297620D02*
X69650476Y3297620D01*
X69936190Y3297620D02*
X69936190Y4297620D01*
X69840952Y4154762D01*
X69745714Y4059524D01*
X69650476Y4011905D01*
%TO.C,R20*%
X71492142Y11552620D02*
X71158809Y12028810D01*
X70920714Y11552620D02*
X70920714Y12552620D01*
X71301666Y12552620D01*
X71396904Y12505000D01*
X71444523Y12457381D01*
X71492142Y12362143D01*
X71492142Y12219286D01*
X71444523Y12124048D01*
X71396904Y12076429D01*
X71301666Y12028810D01*
X70920714Y12028810D01*
X71873095Y12457381D02*
X71920714Y12505000D01*
X72015952Y12552620D01*
X72254047Y12552620D01*
X72349285Y12505000D01*
X72396904Y12457381D01*
X72444523Y12362143D01*
X72444523Y12266905D01*
X72396904Y12124048D01*
X71825476Y11552620D01*
X72444523Y11552620D01*
X73063571Y12552620D02*
X73158809Y12552620D01*
X73254047Y12505000D01*
X73301666Y12457381D01*
X73349285Y12362143D01*
X73396904Y12171667D01*
X73396904Y11933572D01*
X73349285Y11743096D01*
X73301666Y11647858D01*
X73254047Y11600239D01*
X73158809Y11552620D01*
X73063571Y11552620D01*
X72968333Y11600239D01*
X72920714Y11647858D01*
X72873095Y11743096D01*
X72825476Y11933572D01*
X72825476Y12171667D01*
X72873095Y12362143D01*
X72920714Y12457381D01*
X72968333Y12505000D01*
X73063571Y12552620D01*
%TO.C,R19*%
X59182142Y30095620D02*
X58848809Y30571810D01*
X58610714Y30095620D02*
X58610714Y31095620D01*
X58991666Y31095620D01*
X59086904Y31048000D01*
X59134523Y31000381D01*
X59182142Y30905143D01*
X59182142Y30762286D01*
X59134523Y30667048D01*
X59086904Y30619429D01*
X58991666Y30571810D01*
X58610714Y30571810D01*
X60134523Y30095620D02*
X59563095Y30095620D01*
X59848809Y30095620D02*
X59848809Y31095620D01*
X59753571Y30952762D01*
X59658333Y30857524D01*
X59563095Y30809905D01*
X60610714Y30095620D02*
X60801190Y30095620D01*
X60896428Y30143239D01*
X60944047Y30190858D01*
X61039285Y30333715D01*
X61086904Y30524191D01*
X61086904Y30905143D01*
X61039285Y31000381D01*
X60991666Y31048000D01*
X60896428Y31095620D01*
X60705952Y31095620D01*
X60610714Y31048000D01*
X60563095Y31000381D01*
X60515476Y30905143D01*
X60515476Y30667048D01*
X60563095Y30571810D01*
X60610714Y30524191D01*
X60705952Y30476572D01*
X60896428Y30476572D01*
X60991666Y30524191D01*
X61039285Y30571810D01*
X61086904Y30667048D01*
%TO.C,R18*%
X55054642Y30095620D02*
X54721309Y30571810D01*
X54483214Y30095620D02*
X54483214Y31095620D01*
X54864166Y31095620D01*
X54959404Y31048000D01*
X55007023Y31000381D01*
X55054642Y30905143D01*
X55054642Y30762286D01*
X55007023Y30667048D01*
X54959404Y30619429D01*
X54864166Y30571810D01*
X54483214Y30571810D01*
X56007023Y30095620D02*
X55435595Y30095620D01*
X55721309Y30095620D02*
X55721309Y31095620D01*
X55626071Y30952762D01*
X55530833Y30857524D01*
X55435595Y30809905D01*
X56578452Y30667048D02*
X56483214Y30714667D01*
X56435595Y30762286D01*
X56387976Y30857524D01*
X56387976Y30905143D01*
X56435595Y31000381D01*
X56483214Y31048000D01*
X56578452Y31095620D01*
X56768928Y31095620D01*
X56864166Y31048000D01*
X56911785Y31000381D01*
X56959404Y30905143D01*
X56959404Y30857524D01*
X56911785Y30762286D01*
X56864166Y30714667D01*
X56768928Y30667048D01*
X56578452Y30667048D01*
X56483214Y30619429D01*
X56435595Y30571810D01*
X56387976Y30476572D01*
X56387976Y30286096D01*
X56435595Y30190858D01*
X56483214Y30143239D01*
X56578452Y30095620D01*
X56768928Y30095620D01*
X56864166Y30143239D01*
X56911785Y30190858D01*
X56959404Y30286096D01*
X56959404Y30476572D01*
X56911785Y30571810D01*
X56864166Y30619429D01*
X56768928Y30667048D01*
%TO.C,R17*%
X60825142Y26349120D02*
X60491809Y26825310D01*
X60253714Y26349120D02*
X60253714Y27349120D01*
X60634666Y27349120D01*
X60729904Y27301500D01*
X60777523Y27253881D01*
X60825142Y27158643D01*
X60825142Y27015786D01*
X60777523Y26920548D01*
X60729904Y26872929D01*
X60634666Y26825310D01*
X60253714Y26825310D01*
X61777523Y26349120D02*
X61206095Y26349120D01*
X61491809Y26349120D02*
X61491809Y27349120D01*
X61396571Y27206262D01*
X61301333Y27111024D01*
X61206095Y27063405D01*
X62110857Y27349120D02*
X62777523Y27349120D01*
X62348952Y26349120D01*
%TO.C,R16*%
X56070642Y26349120D02*
X55737309Y26825310D01*
X55499214Y26349120D02*
X55499214Y27349120D01*
X55880166Y27349120D01*
X55975404Y27301500D01*
X56023023Y27253881D01*
X56070642Y27158643D01*
X56070642Y27015786D01*
X56023023Y26920548D01*
X55975404Y26872929D01*
X55880166Y26825310D01*
X55499214Y26825310D01*
X57023023Y26349120D02*
X56451595Y26349120D01*
X56737309Y26349120D02*
X56737309Y27349120D01*
X56642071Y27206262D01*
X56546833Y27111024D01*
X56451595Y27063405D01*
X57880166Y27349120D02*
X57689690Y27349120D01*
X57594452Y27301500D01*
X57546833Y27253881D01*
X57451595Y27111024D01*
X57403976Y26920548D01*
X57403976Y26539596D01*
X57451595Y26444358D01*
X57499214Y26396739D01*
X57594452Y26349120D01*
X57784928Y26349120D01*
X57880166Y26396739D01*
X57927785Y26444358D01*
X57975404Y26539596D01*
X57975404Y26777691D01*
X57927785Y26872929D01*
X57880166Y26920548D01*
X57784928Y26968167D01*
X57594452Y26968167D01*
X57499214Y26920548D01*
X57451595Y26872929D01*
X57403976Y26777691D01*
%TO.C,R15*%
X34662142Y30602620D02*
X34328809Y31078810D01*
X34090714Y30602620D02*
X34090714Y31602620D01*
X34471666Y31602620D01*
X34566904Y31555000D01*
X34614523Y31507381D01*
X34662142Y31412143D01*
X34662142Y31269286D01*
X34614523Y31174048D01*
X34566904Y31126429D01*
X34471666Y31078810D01*
X34090714Y31078810D01*
X35614523Y30602620D02*
X35043095Y30602620D01*
X35328809Y30602620D02*
X35328809Y31602620D01*
X35233571Y31459762D01*
X35138333Y31364524D01*
X35043095Y31316905D01*
X36519285Y31602620D02*
X36043095Y31602620D01*
X35995476Y31126429D01*
X36043095Y31174048D01*
X36138333Y31221667D01*
X36376428Y31221667D01*
X36471666Y31174048D01*
X36519285Y31126429D01*
X36566904Y31031191D01*
X36566904Y30793096D01*
X36519285Y30697858D01*
X36471666Y30650239D01*
X36376428Y30602620D01*
X36138333Y30602620D01*
X36043095Y30650239D01*
X35995476Y30697858D01*
%TO.C,R14*%
X34662142Y25386620D02*
X34328809Y25862810D01*
X34090714Y25386620D02*
X34090714Y26386620D01*
X34471666Y26386620D01*
X34566904Y26339000D01*
X34614523Y26291381D01*
X34662142Y26196143D01*
X34662142Y26053286D01*
X34614523Y25958048D01*
X34566904Y25910429D01*
X34471666Y25862810D01*
X34090714Y25862810D01*
X35614523Y25386620D02*
X35043095Y25386620D01*
X35328809Y25386620D02*
X35328809Y26386620D01*
X35233571Y26243762D01*
X35138333Y26148524D01*
X35043095Y26100905D01*
X36471666Y26053286D02*
X36471666Y25386620D01*
X36233571Y26434239D02*
X35995476Y25719953D01*
X36614523Y25719953D01*
%TO.C,R13*%
X28567142Y30535620D02*
X28233809Y31011810D01*
X27995714Y30535620D02*
X27995714Y31535620D01*
X28376666Y31535620D01*
X28471904Y31488000D01*
X28519523Y31440381D01*
X28567142Y31345143D01*
X28567142Y31202286D01*
X28519523Y31107048D01*
X28471904Y31059429D01*
X28376666Y31011810D01*
X27995714Y31011810D01*
X29519523Y30535620D02*
X28948095Y30535620D01*
X29233809Y30535620D02*
X29233809Y31535620D01*
X29138571Y31392762D01*
X29043333Y31297524D01*
X28948095Y31249905D01*
X29852857Y31535620D02*
X30471904Y31535620D01*
X30138571Y31154667D01*
X30281428Y31154667D01*
X30376666Y31107048D01*
X30424285Y31059429D01*
X30471904Y30964191D01*
X30471904Y30726096D01*
X30424285Y30630858D01*
X30376666Y30583239D01*
X30281428Y30535620D01*
X29995714Y30535620D01*
X29900476Y30583239D01*
X29852857Y30630858D01*
%TO.C,R12*%
X10405142Y29459620D02*
X10071809Y29935810D01*
X9833714Y29459620D02*
X9833714Y30459620D01*
X10214666Y30459620D01*
X10309904Y30412000D01*
X10357523Y30364381D01*
X10405142Y30269143D01*
X10405142Y30126286D01*
X10357523Y30031048D01*
X10309904Y29983429D01*
X10214666Y29935810D01*
X9833714Y29935810D01*
X11357523Y29459620D02*
X10786095Y29459620D01*
X11071809Y29459620D02*
X11071809Y30459620D01*
X10976571Y30316762D01*
X10881333Y30221524D01*
X10786095Y30173905D01*
X11738476Y30364381D02*
X11786095Y30412000D01*
X11881333Y30459620D01*
X12119428Y30459620D01*
X12214666Y30412000D01*
X12262285Y30364381D01*
X12309904Y30269143D01*
X12309904Y30173905D01*
X12262285Y30031048D01*
X11690857Y29459620D01*
X12309904Y29459620D01*
%TO.C,R11*%
X14851142Y21645620D02*
X14517809Y22121810D01*
X14279714Y21645620D02*
X14279714Y22645620D01*
X14660666Y22645620D01*
X14755904Y22598000D01*
X14803523Y22550381D01*
X14851142Y22455143D01*
X14851142Y22312286D01*
X14803523Y22217048D01*
X14755904Y22169429D01*
X14660666Y22121810D01*
X14279714Y22121810D01*
X15803523Y21645620D02*
X15232095Y21645620D01*
X15517809Y21645620D02*
X15517809Y22645620D01*
X15422571Y22502762D01*
X15327333Y22407524D01*
X15232095Y22359905D01*
X16755904Y21645620D02*
X16184476Y21645620D01*
X16470190Y21645620D02*
X16470190Y22645620D01*
X16374952Y22502762D01*
X16279714Y22407524D01*
X16184476Y22359905D01*
%TO.C,R10*%
X16882142Y30602620D02*
X16548809Y31078810D01*
X16310714Y30602620D02*
X16310714Y31602620D01*
X16691666Y31602620D01*
X16786904Y31555000D01*
X16834523Y31507381D01*
X16882142Y31412143D01*
X16882142Y31269286D01*
X16834523Y31174048D01*
X16786904Y31126429D01*
X16691666Y31078810D01*
X16310714Y31078810D01*
X17834523Y30602620D02*
X17263095Y30602620D01*
X17548809Y30602620D02*
X17548809Y31602620D01*
X17453571Y31459762D01*
X17358333Y31364524D01*
X17263095Y31316905D01*
X18453571Y31602620D02*
X18548809Y31602620D01*
X18644047Y31555000D01*
X18691666Y31507381D01*
X18739285Y31412143D01*
X18786904Y31221667D01*
X18786904Y30983572D01*
X18739285Y30793096D01*
X18691666Y30697858D01*
X18644047Y30650239D01*
X18548809Y30602620D01*
X18453571Y30602620D01*
X18358333Y30650239D01*
X18310714Y30697858D01*
X18263095Y30793096D01*
X18215476Y30983572D01*
X18215476Y31221667D01*
X18263095Y31412143D01*
X18310714Y31507381D01*
X18358333Y31555000D01*
X18453571Y31602620D01*
%TO.C,R9*%
X21423333Y13837620D02*
X21090000Y14313810D01*
X20851904Y13837620D02*
X20851904Y14837620D01*
X21232857Y14837620D01*
X21328095Y14790000D01*
X21375714Y14742381D01*
X21423333Y14647143D01*
X21423333Y14504286D01*
X21375714Y14409048D01*
X21328095Y14361429D01*
X21232857Y14313810D01*
X20851904Y14313810D01*
X21899523Y13837620D02*
X22090000Y13837620D01*
X22185238Y13885239D01*
X22232857Y13932858D01*
X22328095Y14075715D01*
X22375714Y14266191D01*
X22375714Y14647143D01*
X22328095Y14742381D01*
X22280476Y14790000D01*
X22185238Y14837620D01*
X21994761Y14837620D01*
X21899523Y14790000D01*
X21851904Y14742381D01*
X21804285Y14647143D01*
X21804285Y14409048D01*
X21851904Y14313810D01*
X21899523Y14266191D01*
X21994761Y14218572D01*
X22185238Y14218572D01*
X22280476Y14266191D01*
X22328095Y14313810D01*
X22375714Y14409048D01*
%TO.C,R8*%
X56093333Y4567620D02*
X55760000Y5043810D01*
X55521904Y4567620D02*
X55521904Y5567620D01*
X55902857Y5567620D01*
X55998095Y5520000D01*
X56045714Y5472381D01*
X56093333Y5377143D01*
X56093333Y5234286D01*
X56045714Y5139048D01*
X55998095Y5091429D01*
X55902857Y5043810D01*
X55521904Y5043810D01*
X56664761Y5139048D02*
X56569523Y5186667D01*
X56521904Y5234286D01*
X56474285Y5329524D01*
X56474285Y5377143D01*
X56521904Y5472381D01*
X56569523Y5520000D01*
X56664761Y5567620D01*
X56855238Y5567620D01*
X56950476Y5520000D01*
X56998095Y5472381D01*
X57045714Y5377143D01*
X57045714Y5329524D01*
X56998095Y5234286D01*
X56950476Y5186667D01*
X56855238Y5139048D01*
X56664761Y5139048D01*
X56569523Y5091429D01*
X56521904Y5043810D01*
X56474285Y4948572D01*
X56474285Y4758096D01*
X56521904Y4662858D01*
X56569523Y4615239D01*
X56664761Y4567620D01*
X56855238Y4567620D01*
X56950476Y4615239D01*
X56998095Y4662858D01*
X57045714Y4758096D01*
X57045714Y4948572D01*
X56998095Y5043810D01*
X56950476Y5091429D01*
X56855238Y5139048D01*
%TO.C,R7*%
X51766333Y4567620D02*
X51433000Y5043810D01*
X51194904Y4567620D02*
X51194904Y5567620D01*
X51575857Y5567620D01*
X51671095Y5520000D01*
X51718714Y5472381D01*
X51766333Y5377143D01*
X51766333Y5234286D01*
X51718714Y5139048D01*
X51671095Y5091429D01*
X51575857Y5043810D01*
X51194904Y5043810D01*
X52099666Y5567620D02*
X52766333Y5567620D01*
X52337761Y4567620D01*
%TO.C,R6*%
X47702333Y4567620D02*
X47369000Y5043810D01*
X47130904Y4567620D02*
X47130904Y5567620D01*
X47511857Y5567620D01*
X47607095Y5520000D01*
X47654714Y5472381D01*
X47702333Y5377143D01*
X47702333Y5234286D01*
X47654714Y5139048D01*
X47607095Y5091429D01*
X47511857Y5043810D01*
X47130904Y5043810D01*
X48559476Y5567620D02*
X48369000Y5567620D01*
X48273761Y5520000D01*
X48226142Y5472381D01*
X48130904Y5329524D01*
X48083285Y5139048D01*
X48083285Y4758096D01*
X48130904Y4662858D01*
X48178523Y4615239D01*
X48273761Y4567620D01*
X48464238Y4567620D01*
X48559476Y4615239D01*
X48607095Y4662858D01*
X48654714Y4758096D01*
X48654714Y4996191D01*
X48607095Y5091429D01*
X48559476Y5139048D01*
X48464238Y5186667D01*
X48273761Y5186667D01*
X48178523Y5139048D01*
X48130904Y5091429D01*
X48083285Y4996191D01*
%TO.C,R5*%
X38313333Y5837620D02*
X37980000Y6313810D01*
X37741904Y5837620D02*
X37741904Y6837620D01*
X38122857Y6837620D01*
X38218095Y6790000D01*
X38265714Y6742381D01*
X38313333Y6647143D01*
X38313333Y6504286D01*
X38265714Y6409048D01*
X38218095Y6361429D01*
X38122857Y6313810D01*
X37741904Y6313810D01*
X39218095Y6837620D02*
X38741904Y6837620D01*
X38694285Y6361429D01*
X38741904Y6409048D01*
X38837142Y6456667D01*
X39075238Y6456667D01*
X39170476Y6409048D01*
X39218095Y6361429D01*
X39265714Y6266191D01*
X39265714Y6028096D01*
X39218095Y5932858D01*
X39170476Y5885239D01*
X39075238Y5837620D01*
X38837142Y5837620D01*
X38741904Y5885239D01*
X38694285Y5932858D01*
%TO.C,R4*%
X7961333Y563620D02*
X7628000Y1039810D01*
X7389904Y563620D02*
X7389904Y1563620D01*
X7770857Y1563620D01*
X7866095Y1516000D01*
X7913714Y1468381D01*
X7961333Y1373143D01*
X7961333Y1230286D01*
X7913714Y1135048D01*
X7866095Y1087429D01*
X7770857Y1039810D01*
X7389904Y1039810D01*
X8818476Y1230286D02*
X8818476Y563620D01*
X8580380Y1611239D02*
X8342285Y896953D01*
X8961333Y896953D01*
%TO.C,L1*%
X4405333Y14219620D02*
X3929142Y14219620D01*
X3929142Y15219620D01*
X5262476Y14219620D02*
X4691047Y14219620D01*
X4976761Y14219620D02*
X4976761Y15219620D01*
X4881523Y15076762D01*
X4786285Y14981524D01*
X4691047Y14933905D01*
%TO.C,J5*%
X38908666Y10139620D02*
X38908666Y9425334D01*
X38861047Y9282477D01*
X38765809Y9187239D01*
X38622952Y9139620D01*
X38527714Y9139620D01*
X39861047Y10139620D02*
X39384857Y10139620D01*
X39337238Y9663429D01*
X39384857Y9711048D01*
X39480095Y9758667D01*
X39718190Y9758667D01*
X39813428Y9711048D01*
X39861047Y9663429D01*
X39908666Y9568191D01*
X39908666Y9330096D01*
X39861047Y9234858D01*
X39813428Y9187239D01*
X39718190Y9139620D01*
X39480095Y9139620D01*
X39384857Y9187239D01*
X39337238Y9234858D01*
%TO.C,J2*%
X30780666Y14203620D02*
X30780666Y13489334D01*
X30733047Y13346477D01*
X30637809Y13251239D01*
X30494952Y13203620D01*
X30399714Y13203620D01*
X31209238Y14108381D02*
X31256857Y14156000D01*
X31352095Y14203620D01*
X31590190Y14203620D01*
X31685428Y14156000D01*
X31733047Y14108381D01*
X31780666Y14013143D01*
X31780666Y13917905D01*
X31733047Y13775048D01*
X31161619Y13203620D01*
X31780666Y13203620D01*
%TO.C,D4*%
X55512904Y10789620D02*
X55512904Y11789620D01*
X55751000Y11789620D01*
X55893857Y11742000D01*
X55989095Y11646762D01*
X56036714Y11551524D01*
X56084333Y11361048D01*
X56084333Y11218191D01*
X56036714Y11027715D01*
X55989095Y10932477D01*
X55893857Y10837239D01*
X55751000Y10789620D01*
X55512904Y10789620D01*
X56941476Y11456286D02*
X56941476Y10789620D01*
X56703380Y11837239D02*
X56465285Y11122953D01*
X57084333Y11122953D01*
%TO.C,D3*%
X51212904Y10789620D02*
X51212904Y11789620D01*
X51451000Y11789620D01*
X51593857Y11742000D01*
X51689095Y11646762D01*
X51736714Y11551524D01*
X51784333Y11361048D01*
X51784333Y11218191D01*
X51736714Y11027715D01*
X51689095Y10932477D01*
X51593857Y10837239D01*
X51451000Y10789620D01*
X51212904Y10789620D01*
X52117666Y11789620D02*
X52736714Y11789620D01*
X52403380Y11408667D01*
X52546238Y11408667D01*
X52641476Y11361048D01*
X52689095Y11313429D01*
X52736714Y11218191D01*
X52736714Y10980096D01*
X52689095Y10884858D01*
X52641476Y10837239D01*
X52546238Y10789620D01*
X52260523Y10789620D01*
X52165285Y10837239D01*
X52117666Y10884858D01*
%TO.C,D2*%
X47130904Y10789620D02*
X47130904Y11789620D01*
X47369000Y11789620D01*
X47511857Y11742000D01*
X47607095Y11646762D01*
X47654714Y11551524D01*
X47702333Y11361048D01*
X47702333Y11218191D01*
X47654714Y11027715D01*
X47607095Y10932477D01*
X47511857Y10837239D01*
X47369000Y10789620D01*
X47130904Y10789620D01*
X48083285Y11694381D02*
X48130904Y11742000D01*
X48226142Y11789620D01*
X48464238Y11789620D01*
X48559476Y11742000D01*
X48607095Y11694381D01*
X48654714Y11599143D01*
X48654714Y11503905D01*
X48607095Y11361048D01*
X48035666Y10789620D01*
X48654714Y10789620D01*
%TO.C,C6-2*%
X19692095Y7399438D02*
X19644476Y7351819D01*
X19501619Y7304200D01*
X19406380Y7304200D01*
X19263523Y7351819D01*
X19168285Y7447057D01*
X19120666Y7542295D01*
X19073047Y7732771D01*
X19073047Y7875628D01*
X19120666Y8066104D01*
X19168285Y8161342D01*
X19263523Y8256580D01*
X19406380Y8304200D01*
X19501619Y8304200D01*
X19644476Y8256580D01*
X19692095Y8208961D01*
X20549238Y8304200D02*
X20358761Y8304200D01*
X20263523Y8256580D01*
X20215904Y8208961D01*
X20120666Y8066104D01*
X20073047Y7875628D01*
X20073047Y7494676D01*
X20120666Y7399438D01*
X20168285Y7351819D01*
X20263523Y7304200D01*
X20454000Y7304200D01*
X20549238Y7351819D01*
X20596857Y7399438D01*
X20644476Y7494676D01*
X20644476Y7732771D01*
X20596857Y7828009D01*
X20549238Y7875628D01*
X20454000Y7923247D01*
X20263523Y7923247D01*
X20168285Y7875628D01*
X20120666Y7828009D01*
X20073047Y7732771D01*
X21073047Y7685152D02*
X21834952Y7685152D01*
X22263523Y8208961D02*
X22311142Y8256580D01*
X22406380Y8304200D01*
X22644476Y8304200D01*
X22739714Y8256580D01*
X22787333Y8208961D01*
X22834952Y8113723D01*
X22834952Y8018485D01*
X22787333Y7875628D01*
X22215904Y7304200D01*
X22834952Y7304200D01*
%TO.C,C6-1*%
X19946095Y3520858D02*
X19898476Y3473239D01*
X19755619Y3425620D01*
X19660380Y3425620D01*
X19517523Y3473239D01*
X19422285Y3568477D01*
X19374666Y3663715D01*
X19327047Y3854191D01*
X19327047Y3997048D01*
X19374666Y4187524D01*
X19422285Y4282762D01*
X19517523Y4378000D01*
X19660380Y4425620D01*
X19755619Y4425620D01*
X19898476Y4378000D01*
X19946095Y4330381D01*
X20803238Y4425620D02*
X20612761Y4425620D01*
X20517523Y4378000D01*
X20469904Y4330381D01*
X20374666Y4187524D01*
X20327047Y3997048D01*
X20327047Y3616096D01*
X20374666Y3520858D01*
X20422285Y3473239D01*
X20517523Y3425620D01*
X20708000Y3425620D01*
X20803238Y3473239D01*
X20850857Y3520858D01*
X20898476Y3616096D01*
X20898476Y3854191D01*
X20850857Y3949429D01*
X20803238Y3997048D01*
X20708000Y4044667D01*
X20517523Y4044667D01*
X20422285Y3997048D01*
X20374666Y3949429D01*
X20327047Y3854191D01*
X21327047Y3806572D02*
X22088952Y3806572D01*
X23088952Y3425620D02*
X22517523Y3425620D01*
X22803238Y3425620D02*
X22803238Y4425620D01*
X22708000Y4282762D01*
X22612761Y4187524D01*
X22517523Y4139905D01*
%TO.C,C17*%
X63237142Y10377858D02*
X63189523Y10330239D01*
X63046666Y10282620D01*
X62951428Y10282620D01*
X62808571Y10330239D01*
X62713333Y10425477D01*
X62665714Y10520715D01*
X62618095Y10711191D01*
X62618095Y10854048D01*
X62665714Y11044524D01*
X62713333Y11139762D01*
X62808571Y11235000D01*
X62951428Y11282620D01*
X63046666Y11282620D01*
X63189523Y11235000D01*
X63237142Y11187381D01*
X64189523Y10282620D02*
X63618095Y10282620D01*
X63903809Y10282620D02*
X63903809Y11282620D01*
X63808571Y11139762D01*
X63713333Y11044524D01*
X63618095Y10996905D01*
X64522857Y11282620D02*
X65189523Y11282620D01*
X64760952Y10282620D01*
%TO.C,C16*%
X63237142Y21172858D02*
X63189523Y21125239D01*
X63046666Y21077620D01*
X62951428Y21077620D01*
X62808571Y21125239D01*
X62713333Y21220477D01*
X62665714Y21315715D01*
X62618095Y21506191D01*
X62618095Y21649048D01*
X62665714Y21839524D01*
X62713333Y21934762D01*
X62808571Y22030000D01*
X62951428Y22077620D01*
X63046666Y22077620D01*
X63189523Y22030000D01*
X63237142Y21982381D01*
X64189523Y21077620D02*
X63618095Y21077620D01*
X63903809Y21077620D02*
X63903809Y22077620D01*
X63808571Y21934762D01*
X63713333Y21839524D01*
X63618095Y21791905D01*
X65046666Y22077620D02*
X64856190Y22077620D01*
X64760952Y22030000D01*
X64713333Y21982381D01*
X64618095Y21839524D01*
X64570476Y21649048D01*
X64570476Y21268096D01*
X64618095Y21172858D01*
X64665714Y21125239D01*
X64760952Y21077620D01*
X64951428Y21077620D01*
X65046666Y21125239D01*
X65094285Y21172858D01*
X65141904Y21268096D01*
X65141904Y21506191D01*
X65094285Y21601429D01*
X65046666Y21649048D01*
X64951428Y21696667D01*
X64760952Y21696667D01*
X64665714Y21649048D01*
X64618095Y21601429D01*
X64570476Y21506191D01*
%TO.C,C15*%
X28947142Y21680858D02*
X28899523Y21633239D01*
X28756666Y21585620D01*
X28661428Y21585620D01*
X28518571Y21633239D01*
X28423333Y21728477D01*
X28375714Y21823715D01*
X28328095Y22014191D01*
X28328095Y22157048D01*
X28375714Y22347524D01*
X28423333Y22442762D01*
X28518571Y22538000D01*
X28661428Y22585620D01*
X28756666Y22585620D01*
X28899523Y22538000D01*
X28947142Y22490381D01*
X29899523Y21585620D02*
X29328095Y21585620D01*
X29613809Y21585620D02*
X29613809Y22585620D01*
X29518571Y22442762D01*
X29423333Y22347524D01*
X29328095Y22299905D01*
X30804285Y22585620D02*
X30328095Y22585620D01*
X30280476Y22109429D01*
X30328095Y22157048D01*
X30423333Y22204667D01*
X30661428Y22204667D01*
X30756666Y22157048D01*
X30804285Y22109429D01*
X30851904Y22014191D01*
X30851904Y21776096D01*
X30804285Y21680858D01*
X30756666Y21633239D01*
X30661428Y21585620D01*
X30423333Y21585620D01*
X30328095Y21633239D01*
X30280476Y21680858D01*
%TO.C,C14*%
X19295142Y23458858D02*
X19247523Y23411239D01*
X19104666Y23363620D01*
X19009428Y23363620D01*
X18866571Y23411239D01*
X18771333Y23506477D01*
X18723714Y23601715D01*
X18676095Y23792191D01*
X18676095Y23935048D01*
X18723714Y24125524D01*
X18771333Y24220762D01*
X18866571Y24316000D01*
X19009428Y24363620D01*
X19104666Y24363620D01*
X19247523Y24316000D01*
X19295142Y24268381D01*
X20247523Y23363620D02*
X19676095Y23363620D01*
X19961809Y23363620D02*
X19961809Y24363620D01*
X19866571Y24220762D01*
X19771333Y24125524D01*
X19676095Y24077905D01*
X21104666Y24030286D02*
X21104666Y23363620D01*
X20866571Y24411239D02*
X20628476Y23696953D01*
X21247523Y23696953D01*
%TO.C,C13*%
X48632142Y26252858D02*
X48584523Y26205239D01*
X48441666Y26157620D01*
X48346428Y26157620D01*
X48203571Y26205239D01*
X48108333Y26300477D01*
X48060714Y26395715D01*
X48013095Y26586191D01*
X48013095Y26729048D01*
X48060714Y26919524D01*
X48108333Y27014762D01*
X48203571Y27110000D01*
X48346428Y27157620D01*
X48441666Y27157620D01*
X48584523Y27110000D01*
X48632142Y27062381D01*
X49584523Y26157620D02*
X49013095Y26157620D01*
X49298809Y26157620D02*
X49298809Y27157620D01*
X49203571Y27014762D01*
X49108333Y26919524D01*
X49013095Y26871905D01*
X49917857Y27157620D02*
X50536904Y27157620D01*
X50203571Y26776667D01*
X50346428Y26776667D01*
X50441666Y26729048D01*
X50489285Y26681429D01*
X50536904Y26586191D01*
X50536904Y26348096D01*
X50489285Y26252858D01*
X50441666Y26205239D01*
X50346428Y26157620D01*
X50060714Y26157620D01*
X49965476Y26205239D01*
X49917857Y26252858D01*
%TO.C,C12*%
X38711142Y30853143D02*
X38758761Y30805524D01*
X38806380Y30662667D01*
X38806380Y30567429D01*
X38758761Y30424572D01*
X38663523Y30329334D01*
X38568285Y30281715D01*
X38377809Y30234096D01*
X38234952Y30234096D01*
X38044476Y30281715D01*
X37949238Y30329334D01*
X37854000Y30424572D01*
X37806380Y30567429D01*
X37806380Y30662667D01*
X37854000Y30805524D01*
X37901619Y30853143D01*
X38806380Y31805524D02*
X38806380Y31234096D01*
X38806380Y31519810D02*
X37806380Y31519810D01*
X37949238Y31424572D01*
X38044476Y31329334D01*
X38092095Y31234096D01*
X37901619Y32186477D02*
X37854000Y32234096D01*
X37806380Y32329334D01*
X37806380Y32567429D01*
X37854000Y32662667D01*
X37901619Y32710286D01*
X37996857Y32757905D01*
X38092095Y32757905D01*
X38234952Y32710286D01*
X38806380Y32138858D01*
X38806380Y32757905D01*
%TO.C,C11*%
X32249142Y19394858D02*
X32201523Y19347239D01*
X32058666Y19299620D01*
X31963428Y19299620D01*
X31820571Y19347239D01*
X31725333Y19442477D01*
X31677714Y19537715D01*
X31630095Y19728191D01*
X31630095Y19871048D01*
X31677714Y20061524D01*
X31725333Y20156762D01*
X31820571Y20252000D01*
X31963428Y20299620D01*
X32058666Y20299620D01*
X32201523Y20252000D01*
X32249142Y20204381D01*
X33201523Y19299620D02*
X32630095Y19299620D01*
X32915809Y19299620D02*
X32915809Y20299620D01*
X32820571Y20156762D01*
X32725333Y20061524D01*
X32630095Y20013905D01*
X34153904Y19299620D02*
X33582476Y19299620D01*
X33868190Y19299620D02*
X33868190Y20299620D01*
X33772952Y20156762D01*
X33677714Y20061524D01*
X33582476Y20013905D01*
%TO.C,C10*%
X43035142Y10632858D02*
X42987523Y10585239D01*
X42844666Y10537620D01*
X42749428Y10537620D01*
X42606571Y10585239D01*
X42511333Y10680477D01*
X42463714Y10775715D01*
X42416095Y10966191D01*
X42416095Y11109048D01*
X42463714Y11299524D01*
X42511333Y11394762D01*
X42606571Y11490000D01*
X42749428Y11537620D01*
X42844666Y11537620D01*
X42987523Y11490000D01*
X43035142Y11442381D01*
X43987523Y10537620D02*
X43416095Y10537620D01*
X43701809Y10537620D02*
X43701809Y11537620D01*
X43606571Y11394762D01*
X43511333Y11299524D01*
X43416095Y11251905D01*
X44606571Y11537620D02*
X44701809Y11537620D01*
X44797047Y11490000D01*
X44844666Y11442381D01*
X44892285Y11347143D01*
X44939904Y11156667D01*
X44939904Y10918572D01*
X44892285Y10728096D01*
X44844666Y10632858D01*
X44797047Y10585239D01*
X44701809Y10537620D01*
X44606571Y10537620D01*
X44511333Y10585239D01*
X44463714Y10632858D01*
X44416095Y10728096D01*
X44368476Y10918572D01*
X44368476Y11156667D01*
X44416095Y11347143D01*
X44463714Y11442381D01*
X44511333Y11490000D01*
X44606571Y11537620D01*
%TO.C,C9*%
X59649333Y22950858D02*
X59601714Y22903239D01*
X59458857Y22855620D01*
X59363619Y22855620D01*
X59220761Y22903239D01*
X59125523Y22998477D01*
X59077904Y23093715D01*
X59030285Y23284191D01*
X59030285Y23427048D01*
X59077904Y23617524D01*
X59125523Y23712762D01*
X59220761Y23808000D01*
X59363619Y23855620D01*
X59458857Y23855620D01*
X59601714Y23808000D01*
X59649333Y23760381D01*
X60125523Y22855620D02*
X60316000Y22855620D01*
X60411238Y22903239D01*
X60458857Y22950858D01*
X60554095Y23093715D01*
X60601714Y23284191D01*
X60601714Y23665143D01*
X60554095Y23760381D01*
X60506476Y23808000D01*
X60411238Y23855620D01*
X60220761Y23855620D01*
X60125523Y23808000D01*
X60077904Y23760381D01*
X60030285Y23665143D01*
X60030285Y23427048D01*
X60077904Y23331810D01*
X60125523Y23284191D01*
X60220761Y23236572D01*
X60411238Y23236572D01*
X60506476Y23284191D01*
X60554095Y23331810D01*
X60601714Y23427048D01*
%TO.C,C8*%
X59903333Y14822858D02*
X59855714Y14775239D01*
X59712857Y14727620D01*
X59617619Y14727620D01*
X59474761Y14775239D01*
X59379523Y14870477D01*
X59331904Y14965715D01*
X59284285Y15156191D01*
X59284285Y15299048D01*
X59331904Y15489524D01*
X59379523Y15584762D01*
X59474761Y15680000D01*
X59617619Y15727620D01*
X59712857Y15727620D01*
X59855714Y15680000D01*
X59903333Y15632381D01*
X60474761Y15299048D02*
X60379523Y15346667D01*
X60331904Y15394286D01*
X60284285Y15489524D01*
X60284285Y15537143D01*
X60331904Y15632381D01*
X60379523Y15680000D01*
X60474761Y15727620D01*
X60665238Y15727620D01*
X60760476Y15680000D01*
X60808095Y15632381D01*
X60855714Y15537143D01*
X60855714Y15489524D01*
X60808095Y15394286D01*
X60760476Y15346667D01*
X60665238Y15299048D01*
X60474761Y15299048D01*
X60379523Y15251429D01*
X60331904Y15203810D01*
X60284285Y15108572D01*
X60284285Y14918096D01*
X60331904Y14822858D01*
X60379523Y14775239D01*
X60474761Y14727620D01*
X60665238Y14727620D01*
X60760476Y14775239D01*
X60808095Y14822858D01*
X60855714Y14918096D01*
X60855714Y15108572D01*
X60808095Y15203810D01*
X60760476Y15251429D01*
X60665238Y15299048D01*
%TO.C,C7*%
X48591333Y13236358D02*
X48543714Y13188739D01*
X48400857Y13141120D01*
X48305619Y13141120D01*
X48162761Y13188739D01*
X48067523Y13283977D01*
X48019904Y13379215D01*
X47972285Y13569691D01*
X47972285Y13712548D01*
X48019904Y13903024D01*
X48067523Y13998262D01*
X48162761Y14093500D01*
X48305619Y14141120D01*
X48400857Y14141120D01*
X48543714Y14093500D01*
X48591333Y14045881D01*
X48924666Y14141120D02*
X49591333Y14141120D01*
X49162761Y13141120D01*
%TO.C,C5*%
X18121333Y1614858D02*
X18073714Y1567239D01*
X17930857Y1519620D01*
X17835619Y1519620D01*
X17692761Y1567239D01*
X17597523Y1662477D01*
X17549904Y1757715D01*
X17502285Y1948191D01*
X17502285Y2091048D01*
X17549904Y2281524D01*
X17597523Y2376762D01*
X17692761Y2472000D01*
X17835619Y2519620D01*
X17930857Y2519620D01*
X18073714Y2472000D01*
X18121333Y2424381D01*
X19026095Y2519620D02*
X18549904Y2519620D01*
X18502285Y2043429D01*
X18549904Y2091048D01*
X18645142Y2138667D01*
X18883238Y2138667D01*
X18978476Y2091048D01*
X19026095Y2043429D01*
X19073714Y1948191D01*
X19073714Y1710096D01*
X19026095Y1614858D01*
X18978476Y1567239D01*
X18883238Y1519620D01*
X18645142Y1519620D01*
X18549904Y1567239D01*
X18502285Y1614858D01*
%TO.C,C4*%
X12913333Y13298858D02*
X12865714Y13251239D01*
X12722857Y13203620D01*
X12627619Y13203620D01*
X12484761Y13251239D01*
X12389523Y13346477D01*
X12341904Y13441715D01*
X12294285Y13632191D01*
X12294285Y13775048D01*
X12341904Y13965524D01*
X12389523Y14060762D01*
X12484761Y14156000D01*
X12627619Y14203620D01*
X12722857Y14203620D01*
X12865714Y14156000D01*
X12913333Y14108381D01*
X13770476Y13870286D02*
X13770476Y13203620D01*
X13532380Y14251239D02*
X13294285Y13536953D01*
X13913333Y13536953D01*
%TO.C,C3*%
X19517333Y19902858D02*
X19469714Y19855239D01*
X19326857Y19807620D01*
X19231619Y19807620D01*
X19088761Y19855239D01*
X18993523Y19950477D01*
X18945904Y20045715D01*
X18898285Y20236191D01*
X18898285Y20379048D01*
X18945904Y20569524D01*
X18993523Y20664762D01*
X19088761Y20760000D01*
X19231619Y20807620D01*
X19326857Y20807620D01*
X19469714Y20760000D01*
X19517333Y20712381D01*
X19850666Y20807620D02*
X20469714Y20807620D01*
X20136380Y20426667D01*
X20279238Y20426667D01*
X20374476Y20379048D01*
X20422095Y20331429D01*
X20469714Y20236191D01*
X20469714Y19998096D01*
X20422095Y19902858D01*
X20374476Y19855239D01*
X20279238Y19807620D01*
X19993523Y19807620D01*
X19898285Y19855239D01*
X19850666Y19902858D01*
%TO.C,C1*%
X16977333Y12790858D02*
X16929714Y12743239D01*
X16786857Y12695620D01*
X16691619Y12695620D01*
X16548761Y12743239D01*
X16453523Y12838477D01*
X16405904Y12933715D01*
X16358285Y13124191D01*
X16358285Y13267048D01*
X16405904Y13457524D01*
X16453523Y13552762D01*
X16548761Y13648000D01*
X16691619Y13695620D01*
X16786857Y13695620D01*
X16929714Y13648000D01*
X16977333Y13600381D01*
X17929714Y12695620D02*
X17358285Y12695620D01*
X17644000Y12695620D02*
X17644000Y13695620D01*
X17548761Y13552762D01*
X17453523Y13457524D01*
X17358285Y13409905D01*
%TD*%
M02*
