%TF.GenerationSoftware,KiCad,Pcbnew,(5.1.6)-1*%
%TF.CreationDate,2020-09-08T21:42:59+03:00*%
%TF.ProjectId,freepdk,66726565-7064-46b2-9e6b-696361645f70,3*%
%TF.SameCoordinates,PX3c51298PY447eab0*%
%TF.FileFunction,Paste,Top*%
%TF.FilePolarity,Positive*%
%FSLAX46Y46*%
G04 Gerber Fmt 4.6, Leading zero omitted, Abs format (unit mm)*
G04 Created by KiCad (PCBNEW (5.1.6)-1) date 2020-09-08 21:42:59*
%MOMM*%
%LPD*%
G01*
G04 APERTURE LIST*
%ADD10R,3.500000X1.800000*%
%ADD11R,1.700000X2.000000*%
%ADD12R,2.000000X0.500000*%
%ADD13R,2.000000X4.500000*%
%ADD14R,0.650000X1.560000*%
%ADD15R,0.800000X0.900000*%
G04 APERTURE END LIST*
D10*
%TO.C,D1*%
X5160000Y5274000D03*
X10160000Y5274000D03*
%TD*%
%TO.C,F1*%
G36*
G01*
X15645000Y18850001D02*
X15645000Y17949999D01*
G75*
G02*
X15395001Y17700000I-249999J0D01*
G01*
X14744999Y17700000D01*
G75*
G02*
X14495000Y17949999I0J249999D01*
G01*
X14495000Y18850001D01*
G75*
G02*
X14744999Y19100000I249999J0D01*
G01*
X15395001Y19100000D01*
G75*
G02*
X15645000Y18850001I0J-249999D01*
G01*
G37*
G36*
G01*
X17695000Y18850001D02*
X17695000Y17949999D01*
G75*
G02*
X17445001Y17700000I-249999J0D01*
G01*
X16794999Y17700000D01*
G75*
G02*
X16545000Y17949999I0J249999D01*
G01*
X16545000Y18850001D01*
G75*
G02*
X16794999Y19100000I249999J0D01*
G01*
X17445001Y19100000D01*
G75*
G02*
X17695000Y18850001I0J-249999D01*
G01*
G37*
%TD*%
%TO.C,R1*%
G36*
G01*
X42601999Y7863000D02*
X43502001Y7863000D01*
G75*
G02*
X43752000Y7613001I0J-249999D01*
G01*
X43752000Y6962999D01*
G75*
G02*
X43502001Y6713000I-249999J0D01*
G01*
X42601999Y6713000D01*
G75*
G02*
X42352000Y6962999I0J249999D01*
G01*
X42352000Y7613001D01*
G75*
G02*
X42601999Y7863000I249999J0D01*
G01*
G37*
G36*
G01*
X42601999Y9913000D02*
X43502001Y9913000D01*
G75*
G02*
X43752000Y9663001I0J-249999D01*
G01*
X43752000Y9012999D01*
G75*
G02*
X43502001Y8763000I-249999J0D01*
G01*
X42601999Y8763000D01*
G75*
G02*
X42352000Y9012999I0J249999D01*
G01*
X42352000Y9663001D01*
G75*
G02*
X42601999Y9913000I249999J0D01*
G01*
G37*
%TD*%
D11*
%TO.C,J1*%
X2610000Y18550000D03*
X8060000Y18550000D03*
X2610000Y27450000D03*
X8060000Y27450000D03*
D12*
X8160000Y21400000D03*
X8160000Y22200000D03*
X8160000Y23000000D03*
X8160000Y23800000D03*
X8160000Y24600000D03*
%TD*%
%TO.C,U4*%
G36*
G01*
X24867000Y30651000D02*
X24867000Y30951000D01*
G75*
G02*
X25017000Y31101000I150000J0D01*
G01*
X26667000Y31101000D01*
G75*
G02*
X26817000Y30951000I0J-150000D01*
G01*
X26817000Y30651000D01*
G75*
G02*
X26667000Y30501000I-150000J0D01*
G01*
X25017000Y30501000D01*
G75*
G02*
X24867000Y30651000I0J150000D01*
G01*
G37*
G36*
G01*
X24867000Y29381000D02*
X24867000Y29681000D01*
G75*
G02*
X25017000Y29831000I150000J0D01*
G01*
X26667000Y29831000D01*
G75*
G02*
X26817000Y29681000I0J-150000D01*
G01*
X26817000Y29381000D01*
G75*
G02*
X26667000Y29231000I-150000J0D01*
G01*
X25017000Y29231000D01*
G75*
G02*
X24867000Y29381000I0J150000D01*
G01*
G37*
G36*
G01*
X24867000Y28111000D02*
X24867000Y28411000D01*
G75*
G02*
X25017000Y28561000I150000J0D01*
G01*
X26667000Y28561000D01*
G75*
G02*
X26817000Y28411000I0J-150000D01*
G01*
X26817000Y28111000D01*
G75*
G02*
X26667000Y27961000I-150000J0D01*
G01*
X25017000Y27961000D01*
G75*
G02*
X24867000Y28111000I0J150000D01*
G01*
G37*
G36*
G01*
X24867000Y26841000D02*
X24867000Y27141000D01*
G75*
G02*
X25017000Y27291000I150000J0D01*
G01*
X26667000Y27291000D01*
G75*
G02*
X26817000Y27141000I0J-150000D01*
G01*
X26817000Y26841000D01*
G75*
G02*
X26667000Y26691000I-150000J0D01*
G01*
X25017000Y26691000D01*
G75*
G02*
X24867000Y26841000I0J150000D01*
G01*
G37*
G36*
G01*
X19917000Y26841000D02*
X19917000Y27141000D01*
G75*
G02*
X20067000Y27291000I150000J0D01*
G01*
X21717000Y27291000D01*
G75*
G02*
X21867000Y27141000I0J-150000D01*
G01*
X21867000Y26841000D01*
G75*
G02*
X21717000Y26691000I-150000J0D01*
G01*
X20067000Y26691000D01*
G75*
G02*
X19917000Y26841000I0J150000D01*
G01*
G37*
G36*
G01*
X19917000Y28111000D02*
X19917000Y28411000D01*
G75*
G02*
X20067000Y28561000I150000J0D01*
G01*
X21717000Y28561000D01*
G75*
G02*
X21867000Y28411000I0J-150000D01*
G01*
X21867000Y28111000D01*
G75*
G02*
X21717000Y27961000I-150000J0D01*
G01*
X20067000Y27961000D01*
G75*
G02*
X19917000Y28111000I0J150000D01*
G01*
G37*
G36*
G01*
X19917000Y29381000D02*
X19917000Y29681000D01*
G75*
G02*
X20067000Y29831000I150000J0D01*
G01*
X21717000Y29831000D01*
G75*
G02*
X21867000Y29681000I0J-150000D01*
G01*
X21867000Y29381000D01*
G75*
G02*
X21717000Y29231000I-150000J0D01*
G01*
X20067000Y29231000D01*
G75*
G02*
X19917000Y29381000I0J150000D01*
G01*
G37*
G36*
G01*
X19917000Y30651000D02*
X19917000Y30951000D01*
G75*
G02*
X20067000Y31101000I150000J0D01*
G01*
X21717000Y31101000D01*
G75*
G02*
X21867000Y30951000I0J-150000D01*
G01*
X21867000Y30651000D01*
G75*
G02*
X21717000Y30501000I-150000J0D01*
G01*
X20067000Y30501000D01*
G75*
G02*
X19917000Y30651000I0J150000D01*
G01*
G37*
%TD*%
%TO.C,C2*%
G36*
G01*
X28360501Y18297000D02*
X27460499Y18297000D01*
G75*
G02*
X27210500Y18546999I0J249999D01*
G01*
X27210500Y19197001D01*
G75*
G02*
X27460499Y19447000I249999J0D01*
G01*
X28360501Y19447000D01*
G75*
G02*
X28610500Y19197001I0J-249999D01*
G01*
X28610500Y18546999D01*
G75*
G02*
X28360501Y18297000I-249999J0D01*
G01*
G37*
G36*
G01*
X28360501Y16247000D02*
X27460499Y16247000D01*
G75*
G02*
X27210500Y16496999I0J249999D01*
G01*
X27210500Y17147001D01*
G75*
G02*
X27460499Y17397000I249999J0D01*
G01*
X28360501Y17397000D01*
G75*
G02*
X28610500Y17147001I0J-249999D01*
G01*
X28610500Y16496999D01*
G75*
G02*
X28360501Y16247000I-249999J0D01*
G01*
G37*
%TD*%
%TO.C,R3*%
G36*
G01*
X14535999Y2843000D02*
X15436001Y2843000D01*
G75*
G02*
X15686000Y2593001I0J-249999D01*
G01*
X15686000Y1942999D01*
G75*
G02*
X15436001Y1693000I-249999J0D01*
G01*
X14535999Y1693000D01*
G75*
G02*
X14286000Y1942999I0J249999D01*
G01*
X14286000Y2593001D01*
G75*
G02*
X14535999Y2843000I249999J0D01*
G01*
G37*
G36*
G01*
X14535999Y4893000D02*
X15436001Y4893000D01*
G75*
G02*
X15686000Y4643001I0J-249999D01*
G01*
X15686000Y3992999D01*
G75*
G02*
X15436001Y3743000I-249999J0D01*
G01*
X14535999Y3743000D01*
G75*
G02*
X14286000Y3992999I0J249999D01*
G01*
X14286000Y4643001D01*
G75*
G02*
X14535999Y4893000I249999J0D01*
G01*
G37*
%TD*%
D13*
%TO.C,Y1*%
X53847000Y14994000D03*
X53847000Y23494000D03*
%TD*%
D14*
%TO.C,U3*%
X9079500Y12910500D03*
X8129500Y12910500D03*
X10029500Y12910500D03*
X10029500Y10210500D03*
X9079500Y10210500D03*
X8129500Y10210500D03*
%TD*%
D15*
%TO.C,U2*%
X24065500Y18466000D03*
X25015500Y16466000D03*
X23115500Y16466000D03*
%TD*%
%TO.C,U1*%
G36*
G01*
X43920000Y17500000D02*
X43920000Y16175000D01*
G75*
G02*
X43845000Y16100000I-75000J0D01*
G01*
X43695000Y16100000D01*
G75*
G02*
X43620000Y16175000I0J75000D01*
G01*
X43620000Y17500000D01*
G75*
G02*
X43695000Y17575000I75000J0D01*
G01*
X43845000Y17575000D01*
G75*
G02*
X43920000Y17500000I0J-75000D01*
G01*
G37*
G36*
G01*
X43420000Y17500000D02*
X43420000Y16175000D01*
G75*
G02*
X43345000Y16100000I-75000J0D01*
G01*
X43195000Y16100000D01*
G75*
G02*
X43120000Y16175000I0J75000D01*
G01*
X43120000Y17500000D01*
G75*
G02*
X43195000Y17575000I75000J0D01*
G01*
X43345000Y17575000D01*
G75*
G02*
X43420000Y17500000I0J-75000D01*
G01*
G37*
G36*
G01*
X42920000Y17500000D02*
X42920000Y16175000D01*
G75*
G02*
X42845000Y16100000I-75000J0D01*
G01*
X42695000Y16100000D01*
G75*
G02*
X42620000Y16175000I0J75000D01*
G01*
X42620000Y17500000D01*
G75*
G02*
X42695000Y17575000I75000J0D01*
G01*
X42845000Y17575000D01*
G75*
G02*
X42920000Y17500000I0J-75000D01*
G01*
G37*
G36*
G01*
X42420000Y17500000D02*
X42420000Y16175000D01*
G75*
G02*
X42345000Y16100000I-75000J0D01*
G01*
X42195000Y16100000D01*
G75*
G02*
X42120000Y16175000I0J75000D01*
G01*
X42120000Y17500000D01*
G75*
G02*
X42195000Y17575000I75000J0D01*
G01*
X42345000Y17575000D01*
G75*
G02*
X42420000Y17500000I0J-75000D01*
G01*
G37*
G36*
G01*
X41920000Y17500000D02*
X41920000Y16175000D01*
G75*
G02*
X41845000Y16100000I-75000J0D01*
G01*
X41695000Y16100000D01*
G75*
G02*
X41620000Y16175000I0J75000D01*
G01*
X41620000Y17500000D01*
G75*
G02*
X41695000Y17575000I75000J0D01*
G01*
X41845000Y17575000D01*
G75*
G02*
X41920000Y17500000I0J-75000D01*
G01*
G37*
G36*
G01*
X41420000Y17500000D02*
X41420000Y16175000D01*
G75*
G02*
X41345000Y16100000I-75000J0D01*
G01*
X41195000Y16100000D01*
G75*
G02*
X41120000Y16175000I0J75000D01*
G01*
X41120000Y17500000D01*
G75*
G02*
X41195000Y17575000I75000J0D01*
G01*
X41345000Y17575000D01*
G75*
G02*
X41420000Y17500000I0J-75000D01*
G01*
G37*
G36*
G01*
X40920000Y17500000D02*
X40920000Y16175000D01*
G75*
G02*
X40845000Y16100000I-75000J0D01*
G01*
X40695000Y16100000D01*
G75*
G02*
X40620000Y16175000I0J75000D01*
G01*
X40620000Y17500000D01*
G75*
G02*
X40695000Y17575000I75000J0D01*
G01*
X40845000Y17575000D01*
G75*
G02*
X40920000Y17500000I0J-75000D01*
G01*
G37*
G36*
G01*
X40420000Y17500000D02*
X40420000Y16175000D01*
G75*
G02*
X40345000Y16100000I-75000J0D01*
G01*
X40195000Y16100000D01*
G75*
G02*
X40120000Y16175000I0J75000D01*
G01*
X40120000Y17500000D01*
G75*
G02*
X40195000Y17575000I75000J0D01*
G01*
X40345000Y17575000D01*
G75*
G02*
X40420000Y17500000I0J-75000D01*
G01*
G37*
G36*
G01*
X39920000Y17500000D02*
X39920000Y16175000D01*
G75*
G02*
X39845000Y16100000I-75000J0D01*
G01*
X39695000Y16100000D01*
G75*
G02*
X39620000Y16175000I0J75000D01*
G01*
X39620000Y17500000D01*
G75*
G02*
X39695000Y17575000I75000J0D01*
G01*
X39845000Y17575000D01*
G75*
G02*
X39920000Y17500000I0J-75000D01*
G01*
G37*
G36*
G01*
X39420000Y17500000D02*
X39420000Y16175000D01*
G75*
G02*
X39345000Y16100000I-75000J0D01*
G01*
X39195000Y16100000D01*
G75*
G02*
X39120000Y16175000I0J75000D01*
G01*
X39120000Y17500000D01*
G75*
G02*
X39195000Y17575000I75000J0D01*
G01*
X39345000Y17575000D01*
G75*
G02*
X39420000Y17500000I0J-75000D01*
G01*
G37*
G36*
G01*
X38920000Y17500000D02*
X38920000Y16175000D01*
G75*
G02*
X38845000Y16100000I-75000J0D01*
G01*
X38695000Y16100000D01*
G75*
G02*
X38620000Y16175000I0J75000D01*
G01*
X38620000Y17500000D01*
G75*
G02*
X38695000Y17575000I75000J0D01*
G01*
X38845000Y17575000D01*
G75*
G02*
X38920000Y17500000I0J-75000D01*
G01*
G37*
G36*
G01*
X38420000Y17500000D02*
X38420000Y16175000D01*
G75*
G02*
X38345000Y16100000I-75000J0D01*
G01*
X38195000Y16100000D01*
G75*
G02*
X38120000Y16175000I0J75000D01*
G01*
X38120000Y17500000D01*
G75*
G02*
X38195000Y17575000I75000J0D01*
G01*
X38345000Y17575000D01*
G75*
G02*
X38420000Y17500000I0J-75000D01*
G01*
G37*
G36*
G01*
X37595000Y18325000D02*
X37595000Y18175000D01*
G75*
G02*
X37520000Y18100000I-75000J0D01*
G01*
X36195000Y18100000D01*
G75*
G02*
X36120000Y18175000I0J75000D01*
G01*
X36120000Y18325000D01*
G75*
G02*
X36195000Y18400000I75000J0D01*
G01*
X37520000Y18400000D01*
G75*
G02*
X37595000Y18325000I0J-75000D01*
G01*
G37*
G36*
G01*
X37595000Y18825000D02*
X37595000Y18675000D01*
G75*
G02*
X37520000Y18600000I-75000J0D01*
G01*
X36195000Y18600000D01*
G75*
G02*
X36120000Y18675000I0J75000D01*
G01*
X36120000Y18825000D01*
G75*
G02*
X36195000Y18900000I75000J0D01*
G01*
X37520000Y18900000D01*
G75*
G02*
X37595000Y18825000I0J-75000D01*
G01*
G37*
G36*
G01*
X37595000Y19325000D02*
X37595000Y19175000D01*
G75*
G02*
X37520000Y19100000I-75000J0D01*
G01*
X36195000Y19100000D01*
G75*
G02*
X36120000Y19175000I0J75000D01*
G01*
X36120000Y19325000D01*
G75*
G02*
X36195000Y19400000I75000J0D01*
G01*
X37520000Y19400000D01*
G75*
G02*
X37595000Y19325000I0J-75000D01*
G01*
G37*
G36*
G01*
X37595000Y19825000D02*
X37595000Y19675000D01*
G75*
G02*
X37520000Y19600000I-75000J0D01*
G01*
X36195000Y19600000D01*
G75*
G02*
X36120000Y19675000I0J75000D01*
G01*
X36120000Y19825000D01*
G75*
G02*
X36195000Y19900000I75000J0D01*
G01*
X37520000Y19900000D01*
G75*
G02*
X37595000Y19825000I0J-75000D01*
G01*
G37*
G36*
G01*
X37595000Y20325000D02*
X37595000Y20175000D01*
G75*
G02*
X37520000Y20100000I-75000J0D01*
G01*
X36195000Y20100000D01*
G75*
G02*
X36120000Y20175000I0J75000D01*
G01*
X36120000Y20325000D01*
G75*
G02*
X36195000Y20400000I75000J0D01*
G01*
X37520000Y20400000D01*
G75*
G02*
X37595000Y20325000I0J-75000D01*
G01*
G37*
G36*
G01*
X37595000Y20825000D02*
X37595000Y20675000D01*
G75*
G02*
X37520000Y20600000I-75000J0D01*
G01*
X36195000Y20600000D01*
G75*
G02*
X36120000Y20675000I0J75000D01*
G01*
X36120000Y20825000D01*
G75*
G02*
X36195000Y20900000I75000J0D01*
G01*
X37520000Y20900000D01*
G75*
G02*
X37595000Y20825000I0J-75000D01*
G01*
G37*
G36*
G01*
X37595000Y21325000D02*
X37595000Y21175000D01*
G75*
G02*
X37520000Y21100000I-75000J0D01*
G01*
X36195000Y21100000D01*
G75*
G02*
X36120000Y21175000I0J75000D01*
G01*
X36120000Y21325000D01*
G75*
G02*
X36195000Y21400000I75000J0D01*
G01*
X37520000Y21400000D01*
G75*
G02*
X37595000Y21325000I0J-75000D01*
G01*
G37*
G36*
G01*
X37595000Y21825000D02*
X37595000Y21675000D01*
G75*
G02*
X37520000Y21600000I-75000J0D01*
G01*
X36195000Y21600000D01*
G75*
G02*
X36120000Y21675000I0J75000D01*
G01*
X36120000Y21825000D01*
G75*
G02*
X36195000Y21900000I75000J0D01*
G01*
X37520000Y21900000D01*
G75*
G02*
X37595000Y21825000I0J-75000D01*
G01*
G37*
G36*
G01*
X37595000Y22325000D02*
X37595000Y22175000D01*
G75*
G02*
X37520000Y22100000I-75000J0D01*
G01*
X36195000Y22100000D01*
G75*
G02*
X36120000Y22175000I0J75000D01*
G01*
X36120000Y22325000D01*
G75*
G02*
X36195000Y22400000I75000J0D01*
G01*
X37520000Y22400000D01*
G75*
G02*
X37595000Y22325000I0J-75000D01*
G01*
G37*
G36*
G01*
X37595000Y22825000D02*
X37595000Y22675000D01*
G75*
G02*
X37520000Y22600000I-75000J0D01*
G01*
X36195000Y22600000D01*
G75*
G02*
X36120000Y22675000I0J75000D01*
G01*
X36120000Y22825000D01*
G75*
G02*
X36195000Y22900000I75000J0D01*
G01*
X37520000Y22900000D01*
G75*
G02*
X37595000Y22825000I0J-75000D01*
G01*
G37*
G36*
G01*
X37595000Y23325000D02*
X37595000Y23175000D01*
G75*
G02*
X37520000Y23100000I-75000J0D01*
G01*
X36195000Y23100000D01*
G75*
G02*
X36120000Y23175000I0J75000D01*
G01*
X36120000Y23325000D01*
G75*
G02*
X36195000Y23400000I75000J0D01*
G01*
X37520000Y23400000D01*
G75*
G02*
X37595000Y23325000I0J-75000D01*
G01*
G37*
G36*
G01*
X37595000Y23825000D02*
X37595000Y23675000D01*
G75*
G02*
X37520000Y23600000I-75000J0D01*
G01*
X36195000Y23600000D01*
G75*
G02*
X36120000Y23675000I0J75000D01*
G01*
X36120000Y23825000D01*
G75*
G02*
X36195000Y23900000I75000J0D01*
G01*
X37520000Y23900000D01*
G75*
G02*
X37595000Y23825000I0J-75000D01*
G01*
G37*
G36*
G01*
X38420000Y25825000D02*
X38420000Y24500000D01*
G75*
G02*
X38345000Y24425000I-75000J0D01*
G01*
X38195000Y24425000D01*
G75*
G02*
X38120000Y24500000I0J75000D01*
G01*
X38120000Y25825000D01*
G75*
G02*
X38195000Y25900000I75000J0D01*
G01*
X38345000Y25900000D01*
G75*
G02*
X38420000Y25825000I0J-75000D01*
G01*
G37*
G36*
G01*
X38920000Y25825000D02*
X38920000Y24500000D01*
G75*
G02*
X38845000Y24425000I-75000J0D01*
G01*
X38695000Y24425000D01*
G75*
G02*
X38620000Y24500000I0J75000D01*
G01*
X38620000Y25825000D01*
G75*
G02*
X38695000Y25900000I75000J0D01*
G01*
X38845000Y25900000D01*
G75*
G02*
X38920000Y25825000I0J-75000D01*
G01*
G37*
G36*
G01*
X39420000Y25825000D02*
X39420000Y24500000D01*
G75*
G02*
X39345000Y24425000I-75000J0D01*
G01*
X39195000Y24425000D01*
G75*
G02*
X39120000Y24500000I0J75000D01*
G01*
X39120000Y25825000D01*
G75*
G02*
X39195000Y25900000I75000J0D01*
G01*
X39345000Y25900000D01*
G75*
G02*
X39420000Y25825000I0J-75000D01*
G01*
G37*
G36*
G01*
X39920000Y25825000D02*
X39920000Y24500000D01*
G75*
G02*
X39845000Y24425000I-75000J0D01*
G01*
X39695000Y24425000D01*
G75*
G02*
X39620000Y24500000I0J75000D01*
G01*
X39620000Y25825000D01*
G75*
G02*
X39695000Y25900000I75000J0D01*
G01*
X39845000Y25900000D01*
G75*
G02*
X39920000Y25825000I0J-75000D01*
G01*
G37*
G36*
G01*
X40420000Y25825000D02*
X40420000Y24500000D01*
G75*
G02*
X40345000Y24425000I-75000J0D01*
G01*
X40195000Y24425000D01*
G75*
G02*
X40120000Y24500000I0J75000D01*
G01*
X40120000Y25825000D01*
G75*
G02*
X40195000Y25900000I75000J0D01*
G01*
X40345000Y25900000D01*
G75*
G02*
X40420000Y25825000I0J-75000D01*
G01*
G37*
G36*
G01*
X40920000Y25825000D02*
X40920000Y24500000D01*
G75*
G02*
X40845000Y24425000I-75000J0D01*
G01*
X40695000Y24425000D01*
G75*
G02*
X40620000Y24500000I0J75000D01*
G01*
X40620000Y25825000D01*
G75*
G02*
X40695000Y25900000I75000J0D01*
G01*
X40845000Y25900000D01*
G75*
G02*
X40920000Y25825000I0J-75000D01*
G01*
G37*
G36*
G01*
X41420000Y25825000D02*
X41420000Y24500000D01*
G75*
G02*
X41345000Y24425000I-75000J0D01*
G01*
X41195000Y24425000D01*
G75*
G02*
X41120000Y24500000I0J75000D01*
G01*
X41120000Y25825000D01*
G75*
G02*
X41195000Y25900000I75000J0D01*
G01*
X41345000Y25900000D01*
G75*
G02*
X41420000Y25825000I0J-75000D01*
G01*
G37*
G36*
G01*
X41920000Y25825000D02*
X41920000Y24500000D01*
G75*
G02*
X41845000Y24425000I-75000J0D01*
G01*
X41695000Y24425000D01*
G75*
G02*
X41620000Y24500000I0J75000D01*
G01*
X41620000Y25825000D01*
G75*
G02*
X41695000Y25900000I75000J0D01*
G01*
X41845000Y25900000D01*
G75*
G02*
X41920000Y25825000I0J-75000D01*
G01*
G37*
G36*
G01*
X42420000Y25825000D02*
X42420000Y24500000D01*
G75*
G02*
X42345000Y24425000I-75000J0D01*
G01*
X42195000Y24425000D01*
G75*
G02*
X42120000Y24500000I0J75000D01*
G01*
X42120000Y25825000D01*
G75*
G02*
X42195000Y25900000I75000J0D01*
G01*
X42345000Y25900000D01*
G75*
G02*
X42420000Y25825000I0J-75000D01*
G01*
G37*
G36*
G01*
X42920000Y25825000D02*
X42920000Y24500000D01*
G75*
G02*
X42845000Y24425000I-75000J0D01*
G01*
X42695000Y24425000D01*
G75*
G02*
X42620000Y24500000I0J75000D01*
G01*
X42620000Y25825000D01*
G75*
G02*
X42695000Y25900000I75000J0D01*
G01*
X42845000Y25900000D01*
G75*
G02*
X42920000Y25825000I0J-75000D01*
G01*
G37*
G36*
G01*
X43420000Y25825000D02*
X43420000Y24500000D01*
G75*
G02*
X43345000Y24425000I-75000J0D01*
G01*
X43195000Y24425000D01*
G75*
G02*
X43120000Y24500000I0J75000D01*
G01*
X43120000Y25825000D01*
G75*
G02*
X43195000Y25900000I75000J0D01*
G01*
X43345000Y25900000D01*
G75*
G02*
X43420000Y25825000I0J-75000D01*
G01*
G37*
G36*
G01*
X43920000Y25825000D02*
X43920000Y24500000D01*
G75*
G02*
X43845000Y24425000I-75000J0D01*
G01*
X43695000Y24425000D01*
G75*
G02*
X43620000Y24500000I0J75000D01*
G01*
X43620000Y25825000D01*
G75*
G02*
X43695000Y25900000I75000J0D01*
G01*
X43845000Y25900000D01*
G75*
G02*
X43920000Y25825000I0J-75000D01*
G01*
G37*
G36*
G01*
X45920000Y23825000D02*
X45920000Y23675000D01*
G75*
G02*
X45845000Y23600000I-75000J0D01*
G01*
X44520000Y23600000D01*
G75*
G02*
X44445000Y23675000I0J75000D01*
G01*
X44445000Y23825000D01*
G75*
G02*
X44520000Y23900000I75000J0D01*
G01*
X45845000Y23900000D01*
G75*
G02*
X45920000Y23825000I0J-75000D01*
G01*
G37*
G36*
G01*
X45920000Y23325000D02*
X45920000Y23175000D01*
G75*
G02*
X45845000Y23100000I-75000J0D01*
G01*
X44520000Y23100000D01*
G75*
G02*
X44445000Y23175000I0J75000D01*
G01*
X44445000Y23325000D01*
G75*
G02*
X44520000Y23400000I75000J0D01*
G01*
X45845000Y23400000D01*
G75*
G02*
X45920000Y23325000I0J-75000D01*
G01*
G37*
G36*
G01*
X45920000Y22825000D02*
X45920000Y22675000D01*
G75*
G02*
X45845000Y22600000I-75000J0D01*
G01*
X44520000Y22600000D01*
G75*
G02*
X44445000Y22675000I0J75000D01*
G01*
X44445000Y22825000D01*
G75*
G02*
X44520000Y22900000I75000J0D01*
G01*
X45845000Y22900000D01*
G75*
G02*
X45920000Y22825000I0J-75000D01*
G01*
G37*
G36*
G01*
X45920000Y22325000D02*
X45920000Y22175000D01*
G75*
G02*
X45845000Y22100000I-75000J0D01*
G01*
X44520000Y22100000D01*
G75*
G02*
X44445000Y22175000I0J75000D01*
G01*
X44445000Y22325000D01*
G75*
G02*
X44520000Y22400000I75000J0D01*
G01*
X45845000Y22400000D01*
G75*
G02*
X45920000Y22325000I0J-75000D01*
G01*
G37*
G36*
G01*
X45920000Y21825000D02*
X45920000Y21675000D01*
G75*
G02*
X45845000Y21600000I-75000J0D01*
G01*
X44520000Y21600000D01*
G75*
G02*
X44445000Y21675000I0J75000D01*
G01*
X44445000Y21825000D01*
G75*
G02*
X44520000Y21900000I75000J0D01*
G01*
X45845000Y21900000D01*
G75*
G02*
X45920000Y21825000I0J-75000D01*
G01*
G37*
G36*
G01*
X45920000Y21325000D02*
X45920000Y21175000D01*
G75*
G02*
X45845000Y21100000I-75000J0D01*
G01*
X44520000Y21100000D01*
G75*
G02*
X44445000Y21175000I0J75000D01*
G01*
X44445000Y21325000D01*
G75*
G02*
X44520000Y21400000I75000J0D01*
G01*
X45845000Y21400000D01*
G75*
G02*
X45920000Y21325000I0J-75000D01*
G01*
G37*
G36*
G01*
X45920000Y20825000D02*
X45920000Y20675000D01*
G75*
G02*
X45845000Y20600000I-75000J0D01*
G01*
X44520000Y20600000D01*
G75*
G02*
X44445000Y20675000I0J75000D01*
G01*
X44445000Y20825000D01*
G75*
G02*
X44520000Y20900000I75000J0D01*
G01*
X45845000Y20900000D01*
G75*
G02*
X45920000Y20825000I0J-75000D01*
G01*
G37*
G36*
G01*
X45920000Y20325000D02*
X45920000Y20175000D01*
G75*
G02*
X45845000Y20100000I-75000J0D01*
G01*
X44520000Y20100000D01*
G75*
G02*
X44445000Y20175000I0J75000D01*
G01*
X44445000Y20325000D01*
G75*
G02*
X44520000Y20400000I75000J0D01*
G01*
X45845000Y20400000D01*
G75*
G02*
X45920000Y20325000I0J-75000D01*
G01*
G37*
G36*
G01*
X45920000Y19825000D02*
X45920000Y19675000D01*
G75*
G02*
X45845000Y19600000I-75000J0D01*
G01*
X44520000Y19600000D01*
G75*
G02*
X44445000Y19675000I0J75000D01*
G01*
X44445000Y19825000D01*
G75*
G02*
X44520000Y19900000I75000J0D01*
G01*
X45845000Y19900000D01*
G75*
G02*
X45920000Y19825000I0J-75000D01*
G01*
G37*
G36*
G01*
X45920000Y19325000D02*
X45920000Y19175000D01*
G75*
G02*
X45845000Y19100000I-75000J0D01*
G01*
X44520000Y19100000D01*
G75*
G02*
X44445000Y19175000I0J75000D01*
G01*
X44445000Y19325000D01*
G75*
G02*
X44520000Y19400000I75000J0D01*
G01*
X45845000Y19400000D01*
G75*
G02*
X45920000Y19325000I0J-75000D01*
G01*
G37*
G36*
G01*
X45920000Y18825000D02*
X45920000Y18675000D01*
G75*
G02*
X45845000Y18600000I-75000J0D01*
G01*
X44520000Y18600000D01*
G75*
G02*
X44445000Y18675000I0J75000D01*
G01*
X44445000Y18825000D01*
G75*
G02*
X44520000Y18900000I75000J0D01*
G01*
X45845000Y18900000D01*
G75*
G02*
X45920000Y18825000I0J-75000D01*
G01*
G37*
G36*
G01*
X45920000Y18325000D02*
X45920000Y18175000D01*
G75*
G02*
X45845000Y18100000I-75000J0D01*
G01*
X44520000Y18100000D01*
G75*
G02*
X44445000Y18175000I0J75000D01*
G01*
X44445000Y18325000D01*
G75*
G02*
X44520000Y18400000I75000J0D01*
G01*
X45845000Y18400000D01*
G75*
G02*
X45920000Y18325000I0J-75000D01*
G01*
G37*
%TD*%
%TO.C,R24*%
G36*
G01*
X74998001Y7003000D02*
X74097999Y7003000D01*
G75*
G02*
X73848000Y7252999I0J249999D01*
G01*
X73848000Y7903001D01*
G75*
G02*
X74097999Y8153000I249999J0D01*
G01*
X74998001Y8153000D01*
G75*
G02*
X75248000Y7903001I0J-249999D01*
G01*
X75248000Y7252999D01*
G75*
G02*
X74998001Y7003000I-249999J0D01*
G01*
G37*
G36*
G01*
X74998001Y4953000D02*
X74097999Y4953000D01*
G75*
G02*
X73848000Y5202999I0J249999D01*
G01*
X73848000Y5853001D01*
G75*
G02*
X74097999Y6103000I249999J0D01*
G01*
X74998001Y6103000D01*
G75*
G02*
X75248000Y5853001I0J-249999D01*
G01*
X75248000Y5202999D01*
G75*
G02*
X74998001Y4953000I-249999J0D01*
G01*
G37*
%TD*%
%TO.C,R23*%
G36*
G01*
X72204001Y6985000D02*
X71303999Y6985000D01*
G75*
G02*
X71054000Y7234999I0J249999D01*
G01*
X71054000Y7885001D01*
G75*
G02*
X71303999Y8135000I249999J0D01*
G01*
X72204001Y8135000D01*
G75*
G02*
X72454000Y7885001I0J-249999D01*
G01*
X72454000Y7234999D01*
G75*
G02*
X72204001Y6985000I-249999J0D01*
G01*
G37*
G36*
G01*
X72204001Y4935000D02*
X71303999Y4935000D01*
G75*
G02*
X71054000Y5184999I0J249999D01*
G01*
X71054000Y5835001D01*
G75*
G02*
X71303999Y6085000I249999J0D01*
G01*
X72204001Y6085000D01*
G75*
G02*
X72454000Y5835001I0J-249999D01*
G01*
X72454000Y5184999D01*
G75*
G02*
X72204001Y4935000I-249999J0D01*
G01*
G37*
%TD*%
%TO.C,R22*%
G36*
G01*
X72204001Y19703000D02*
X71303999Y19703000D01*
G75*
G02*
X71054000Y19952999I0J249999D01*
G01*
X71054000Y20603001D01*
G75*
G02*
X71303999Y20853000I249999J0D01*
G01*
X72204001Y20853000D01*
G75*
G02*
X72454000Y20603001I0J-249999D01*
G01*
X72454000Y19952999D01*
G75*
G02*
X72204001Y19703000I-249999J0D01*
G01*
G37*
G36*
G01*
X72204001Y17653000D02*
X71303999Y17653000D01*
G75*
G02*
X71054000Y17902999I0J249999D01*
G01*
X71054000Y18553001D01*
G75*
G02*
X71303999Y18803000I249999J0D01*
G01*
X72204001Y18803000D01*
G75*
G02*
X72454000Y18553001I0J-249999D01*
G01*
X72454000Y17902999D01*
G75*
G02*
X72204001Y17653000I-249999J0D01*
G01*
G37*
%TD*%
%TO.C,R21*%
G36*
G01*
X69410001Y7003000D02*
X68509999Y7003000D01*
G75*
G02*
X68260000Y7252999I0J249999D01*
G01*
X68260000Y7903001D01*
G75*
G02*
X68509999Y8153000I249999J0D01*
G01*
X69410001Y8153000D01*
G75*
G02*
X69660000Y7903001I0J-249999D01*
G01*
X69660000Y7252999D01*
G75*
G02*
X69410001Y7003000I-249999J0D01*
G01*
G37*
G36*
G01*
X69410001Y4953000D02*
X68509999Y4953000D01*
G75*
G02*
X68260000Y5202999I0J249999D01*
G01*
X68260000Y5853001D01*
G75*
G02*
X68509999Y6103000I249999J0D01*
G01*
X69410001Y6103000D01*
G75*
G02*
X69660000Y5853001I0J-249999D01*
G01*
X69660000Y5202999D01*
G75*
G02*
X69410001Y4953000I-249999J0D01*
G01*
G37*
%TD*%
%TO.C,R20*%
G36*
G01*
X72204001Y15385000D02*
X71303999Y15385000D01*
G75*
G02*
X71054000Y15634999I0J249999D01*
G01*
X71054000Y16285001D01*
G75*
G02*
X71303999Y16535000I249999J0D01*
G01*
X72204001Y16535000D01*
G75*
G02*
X72454000Y16285001I0J-249999D01*
G01*
X72454000Y15634999D01*
G75*
G02*
X72204001Y15385000I-249999J0D01*
G01*
G37*
G36*
G01*
X72204001Y13335000D02*
X71303999Y13335000D01*
G75*
G02*
X71054000Y13584999I0J249999D01*
G01*
X71054000Y14235001D01*
G75*
G02*
X71303999Y14485000I249999J0D01*
G01*
X72204001Y14485000D01*
G75*
G02*
X72454000Y14235001I0J-249999D01*
G01*
X72454000Y13584999D01*
G75*
G02*
X72204001Y13335000I-249999J0D01*
G01*
G37*
%TD*%
%TO.C,R19*%
G36*
G01*
X59375000Y32648001D02*
X59375000Y31747999D01*
G75*
G02*
X59125001Y31498000I-249999J0D01*
G01*
X58474999Y31498000D01*
G75*
G02*
X58225000Y31747999I0J249999D01*
G01*
X58225000Y32648001D01*
G75*
G02*
X58474999Y32898000I249999J0D01*
G01*
X59125001Y32898000D01*
G75*
G02*
X59375000Y32648001I0J-249999D01*
G01*
G37*
G36*
G01*
X61425000Y32648001D02*
X61425000Y31747999D01*
G75*
G02*
X61175001Y31498000I-249999J0D01*
G01*
X60524999Y31498000D01*
G75*
G02*
X60275000Y31747999I0J249999D01*
G01*
X60275000Y32648001D01*
G75*
G02*
X60524999Y32898000I249999J0D01*
G01*
X61175001Y32898000D01*
G75*
G02*
X61425000Y32648001I0J-249999D01*
G01*
G37*
%TD*%
%TO.C,R18*%
G36*
G01*
X55247500Y32648001D02*
X55247500Y31747999D01*
G75*
G02*
X54997501Y31498000I-249999J0D01*
G01*
X54347499Y31498000D01*
G75*
G02*
X54097500Y31747999I0J249999D01*
G01*
X54097500Y32648001D01*
G75*
G02*
X54347499Y32898000I249999J0D01*
G01*
X54997501Y32898000D01*
G75*
G02*
X55247500Y32648001I0J-249999D01*
G01*
G37*
G36*
G01*
X57297500Y32648001D02*
X57297500Y31747999D01*
G75*
G02*
X57047501Y31498000I-249999J0D01*
G01*
X56397499Y31498000D01*
G75*
G02*
X56147500Y31747999I0J249999D01*
G01*
X56147500Y32648001D01*
G75*
G02*
X56397499Y32898000I249999J0D01*
G01*
X57047501Y32898000D01*
G75*
G02*
X57297500Y32648001I0J-249999D01*
G01*
G37*
%TD*%
%TO.C,R17*%
G36*
G01*
X60391000Y28901501D02*
X60391000Y28001499D01*
G75*
G02*
X60141001Y27751500I-249999J0D01*
G01*
X59490999Y27751500D01*
G75*
G02*
X59241000Y28001499I0J249999D01*
G01*
X59241000Y28901501D01*
G75*
G02*
X59490999Y29151500I249999J0D01*
G01*
X60141001Y29151500D01*
G75*
G02*
X60391000Y28901501I0J-249999D01*
G01*
G37*
G36*
G01*
X62441000Y28901501D02*
X62441000Y28001499D01*
G75*
G02*
X62191001Y27751500I-249999J0D01*
G01*
X61540999Y27751500D01*
G75*
G02*
X61291000Y28001499I0J249999D01*
G01*
X61291000Y28901501D01*
G75*
G02*
X61540999Y29151500I249999J0D01*
G01*
X62191001Y29151500D01*
G75*
G02*
X62441000Y28901501I0J-249999D01*
G01*
G37*
%TD*%
%TO.C,R16*%
G36*
G01*
X56263500Y28901501D02*
X56263500Y28001499D01*
G75*
G02*
X56013501Y27751500I-249999J0D01*
G01*
X55363499Y27751500D01*
G75*
G02*
X55113500Y28001499I0J249999D01*
G01*
X55113500Y28901501D01*
G75*
G02*
X55363499Y29151500I249999J0D01*
G01*
X56013501Y29151500D01*
G75*
G02*
X56263500Y28901501I0J-249999D01*
G01*
G37*
G36*
G01*
X58313500Y28901501D02*
X58313500Y28001499D01*
G75*
G02*
X58063501Y27751500I-249999J0D01*
G01*
X57413499Y27751500D01*
G75*
G02*
X57163500Y28001499I0J249999D01*
G01*
X57163500Y28901501D01*
G75*
G02*
X57413499Y29151500I249999J0D01*
G01*
X58063501Y29151500D01*
G75*
G02*
X58313500Y28901501I0J-249999D01*
G01*
G37*
%TD*%
%TO.C,R15*%
G36*
G01*
X32441999Y29707000D02*
X33342001Y29707000D01*
G75*
G02*
X33592000Y29457001I0J-249999D01*
G01*
X33592000Y28806999D01*
G75*
G02*
X33342001Y28557000I-249999J0D01*
G01*
X32441999Y28557000D01*
G75*
G02*
X32192000Y28806999I0J249999D01*
G01*
X32192000Y29457001D01*
G75*
G02*
X32441999Y29707000I249999J0D01*
G01*
G37*
G36*
G01*
X32441999Y31757000D02*
X33342001Y31757000D01*
G75*
G02*
X33592000Y31507001I0J-249999D01*
G01*
X33592000Y30856999D01*
G75*
G02*
X33342001Y30607000I-249999J0D01*
G01*
X32441999Y30607000D01*
G75*
G02*
X32192000Y30856999I0J249999D01*
G01*
X32192000Y31507001D01*
G75*
G02*
X32441999Y31757000I249999J0D01*
G01*
G37*
%TD*%
%TO.C,R14*%
G36*
G01*
X32441999Y25389000D02*
X33342001Y25389000D01*
G75*
G02*
X33592000Y25139001I0J-249999D01*
G01*
X33592000Y24488999D01*
G75*
G02*
X33342001Y24239000I-249999J0D01*
G01*
X32441999Y24239000D01*
G75*
G02*
X32192000Y24488999I0J249999D01*
G01*
X32192000Y25139001D01*
G75*
G02*
X32441999Y25389000I249999J0D01*
G01*
G37*
G36*
G01*
X32441999Y27439000D02*
X33342001Y27439000D01*
G75*
G02*
X33592000Y27189001I0J-249999D01*
G01*
X33592000Y26538999D01*
G75*
G02*
X33342001Y26289000I-249999J0D01*
G01*
X32441999Y26289000D01*
G75*
G02*
X32192000Y26538999I0J249999D01*
G01*
X32192000Y27189001D01*
G75*
G02*
X32441999Y27439000I249999J0D01*
G01*
G37*
%TD*%
%TO.C,R13*%
G36*
G01*
X28885999Y26677000D02*
X29786001Y26677000D01*
G75*
G02*
X30036000Y26427001I0J-249999D01*
G01*
X30036000Y25776999D01*
G75*
G02*
X29786001Y25527000I-249999J0D01*
G01*
X28885999Y25527000D01*
G75*
G02*
X28636000Y25776999I0J249999D01*
G01*
X28636000Y26427001D01*
G75*
G02*
X28885999Y26677000I249999J0D01*
G01*
G37*
G36*
G01*
X28885999Y28727000D02*
X29786001Y28727000D01*
G75*
G02*
X30036000Y28477001I0J-249999D01*
G01*
X30036000Y27826999D01*
G75*
G02*
X29786001Y27577000I-249999J0D01*
G01*
X28885999Y27577000D01*
G75*
G02*
X28636000Y27826999I0J249999D01*
G01*
X28636000Y28477001D01*
G75*
G02*
X28885999Y28727000I249999J0D01*
G01*
G37*
%TD*%
%TO.C,R12*%
G36*
G01*
X13137999Y28945000D02*
X14038001Y28945000D01*
G75*
G02*
X14288000Y28695001I0J-249999D01*
G01*
X14288000Y28044999D01*
G75*
G02*
X14038001Y27795000I-249999J0D01*
G01*
X13137999Y27795000D01*
G75*
G02*
X12888000Y28044999I0J249999D01*
G01*
X12888000Y28695001D01*
G75*
G02*
X13137999Y28945000I249999J0D01*
G01*
G37*
G36*
G01*
X13137999Y30995000D02*
X14038001Y30995000D01*
G75*
G02*
X14288000Y30745001I0J-249999D01*
G01*
X14288000Y30094999D01*
G75*
G02*
X14038001Y29845000I-249999J0D01*
G01*
X13137999Y29845000D01*
G75*
G02*
X12888000Y30094999I0J249999D01*
G01*
X12888000Y30745001D01*
G75*
G02*
X13137999Y30995000I249999J0D01*
G01*
G37*
%TD*%
%TO.C,R11*%
G36*
G01*
X13137999Y24391000D02*
X14038001Y24391000D01*
G75*
G02*
X14288000Y24141001I0J-249999D01*
G01*
X14288000Y23490999D01*
G75*
G02*
X14038001Y23241000I-249999J0D01*
G01*
X13137999Y23241000D01*
G75*
G02*
X12888000Y23490999I0J249999D01*
G01*
X12888000Y24141001D01*
G75*
G02*
X13137999Y24391000I249999J0D01*
G01*
G37*
G36*
G01*
X13137999Y26441000D02*
X14038001Y26441000D01*
G75*
G02*
X14288000Y26191001I0J-249999D01*
G01*
X14288000Y25540999D01*
G75*
G02*
X14038001Y25291000I-249999J0D01*
G01*
X13137999Y25291000D01*
G75*
G02*
X12888000Y25540999I0J249999D01*
G01*
X12888000Y26191001D01*
G75*
G02*
X13137999Y26441000I249999J0D01*
G01*
G37*
%TD*%
%TO.C,R10*%
G36*
G01*
X16693999Y27675000D02*
X17594001Y27675000D01*
G75*
G02*
X17844000Y27425001I0J-249999D01*
G01*
X17844000Y26774999D01*
G75*
G02*
X17594001Y26525000I-249999J0D01*
G01*
X16693999Y26525000D01*
G75*
G02*
X16444000Y26774999I0J249999D01*
G01*
X16444000Y27425001D01*
G75*
G02*
X16693999Y27675000I249999J0D01*
G01*
G37*
G36*
G01*
X16693999Y29725000D02*
X17594001Y29725000D01*
G75*
G02*
X17844000Y29475001I0J-249999D01*
G01*
X17844000Y28824999D01*
G75*
G02*
X17594001Y28575000I-249999J0D01*
G01*
X16693999Y28575000D01*
G75*
G02*
X16444000Y28824999I0J249999D01*
G01*
X16444000Y29475001D01*
G75*
G02*
X16693999Y29725000I249999J0D01*
G01*
G37*
%TD*%
%TO.C,R9*%
G36*
G01*
X21649000Y12189999D02*
X21649000Y13090001D01*
G75*
G02*
X21898999Y13340000I249999J0D01*
G01*
X22549001Y13340000D01*
G75*
G02*
X22799000Y13090001I0J-249999D01*
G01*
X22799000Y12189999D01*
G75*
G02*
X22549001Y11940000I-249999J0D01*
G01*
X21898999Y11940000D01*
G75*
G02*
X21649000Y12189999I0J249999D01*
G01*
G37*
G36*
G01*
X19599000Y12189999D02*
X19599000Y13090001D01*
G75*
G02*
X19848999Y13340000I249999J0D01*
G01*
X20499001Y13340000D01*
G75*
G02*
X20749000Y13090001I0J-249999D01*
G01*
X20749000Y12189999D01*
G75*
G02*
X20499001Y11940000I-249999J0D01*
G01*
X19848999Y11940000D01*
G75*
G02*
X19599000Y12189999I0J249999D01*
G01*
G37*
%TD*%
%TO.C,R8*%
G36*
G01*
X56701000Y6855999D02*
X56701000Y7756001D01*
G75*
G02*
X56950999Y8006000I249999J0D01*
G01*
X57601001Y8006000D01*
G75*
G02*
X57851000Y7756001I0J-249999D01*
G01*
X57851000Y6855999D01*
G75*
G02*
X57601001Y6606000I-249999J0D01*
G01*
X56950999Y6606000D01*
G75*
G02*
X56701000Y6855999I0J249999D01*
G01*
G37*
G36*
G01*
X54651000Y6855999D02*
X54651000Y7756001D01*
G75*
G02*
X54900999Y8006000I249999J0D01*
G01*
X55551001Y8006000D01*
G75*
G02*
X55801000Y7756001I0J-249999D01*
G01*
X55801000Y6855999D01*
G75*
G02*
X55551001Y6606000I-249999J0D01*
G01*
X54900999Y6606000D01*
G75*
G02*
X54651000Y6855999I0J249999D01*
G01*
G37*
%TD*%
%TO.C,R7*%
G36*
G01*
X52383000Y6855999D02*
X52383000Y7756001D01*
G75*
G02*
X52632999Y8006000I249999J0D01*
G01*
X53283001Y8006000D01*
G75*
G02*
X53533000Y7756001I0J-249999D01*
G01*
X53533000Y6855999D01*
G75*
G02*
X53283001Y6606000I-249999J0D01*
G01*
X52632999Y6606000D01*
G75*
G02*
X52383000Y6855999I0J249999D01*
G01*
G37*
G36*
G01*
X50333000Y6855999D02*
X50333000Y7756001D01*
G75*
G02*
X50582999Y8006000I249999J0D01*
G01*
X51233001Y8006000D01*
G75*
G02*
X51483000Y7756001I0J-249999D01*
G01*
X51483000Y6855999D01*
G75*
G02*
X51233001Y6606000I-249999J0D01*
G01*
X50582999Y6606000D01*
G75*
G02*
X50333000Y6855999I0J249999D01*
G01*
G37*
%TD*%
%TO.C,R6*%
G36*
G01*
X48319000Y6855999D02*
X48319000Y7756001D01*
G75*
G02*
X48568999Y8006000I249999J0D01*
G01*
X49219001Y8006000D01*
G75*
G02*
X49469000Y7756001I0J-249999D01*
G01*
X49469000Y6855999D01*
G75*
G02*
X49219001Y6606000I-249999J0D01*
G01*
X48568999Y6606000D01*
G75*
G02*
X48319000Y6855999I0J249999D01*
G01*
G37*
G36*
G01*
X46269000Y6855999D02*
X46269000Y7756001D01*
G75*
G02*
X46518999Y8006000I249999J0D01*
G01*
X47169001Y8006000D01*
G75*
G02*
X47419000Y7756001I0J-249999D01*
G01*
X47419000Y6855999D01*
G75*
G02*
X47169001Y6606000I-249999J0D01*
G01*
X46518999Y6606000D01*
G75*
G02*
X46269000Y6855999I0J249999D01*
G01*
G37*
%TD*%
%TO.C,R5*%
G36*
G01*
X35100000Y6740001D02*
X35100000Y5839999D01*
G75*
G02*
X34850001Y5590000I-249999J0D01*
G01*
X34199999Y5590000D01*
G75*
G02*
X33950000Y5839999I0J249999D01*
G01*
X33950000Y6740001D01*
G75*
G02*
X34199999Y6990000I249999J0D01*
G01*
X34850001Y6990000D01*
G75*
G02*
X35100000Y6740001I0J-249999D01*
G01*
G37*
G36*
G01*
X37150000Y6740001D02*
X37150000Y5839999D01*
G75*
G02*
X36900001Y5590000I-249999J0D01*
G01*
X36249999Y5590000D01*
G75*
G02*
X36000000Y5839999I0J249999D01*
G01*
X36000000Y6740001D01*
G75*
G02*
X36249999Y6990000I249999J0D01*
G01*
X36900001Y6990000D01*
G75*
G02*
X37150000Y6740001I0J-249999D01*
G01*
G37*
%TD*%
%TO.C,R4*%
G36*
G01*
X10463000Y2676001D02*
X10463000Y1775999D01*
G75*
G02*
X10213001Y1526000I-249999J0D01*
G01*
X9562999Y1526000D01*
G75*
G02*
X9313000Y1775999I0J249999D01*
G01*
X9313000Y2676001D01*
G75*
G02*
X9562999Y2926000I249999J0D01*
G01*
X10213001Y2926000D01*
G75*
G02*
X10463000Y2676001I0J-249999D01*
G01*
G37*
G36*
G01*
X12513000Y2676001D02*
X12513000Y1775999D01*
G75*
G02*
X12263001Y1526000I-249999J0D01*
G01*
X11612999Y1526000D01*
G75*
G02*
X11363000Y1775999I0J249999D01*
G01*
X11363000Y2676001D01*
G75*
G02*
X11612999Y2926000I249999J0D01*
G01*
X12263001Y2926000D01*
G75*
G02*
X12513000Y2676001I0J-249999D01*
G01*
G37*
%TD*%
%TO.C,L1*%
G36*
G01*
X3497000Y10749000D02*
X5647000Y10749000D01*
G75*
G02*
X5897000Y10499000I0J-250000D01*
G01*
X5897000Y9574000D01*
G75*
G02*
X5647000Y9324000I-250000J0D01*
G01*
X3497000Y9324000D01*
G75*
G02*
X3247000Y9574000I0J250000D01*
G01*
X3247000Y10499000D01*
G75*
G02*
X3497000Y10749000I250000J0D01*
G01*
G37*
G36*
G01*
X3497000Y13724000D02*
X5647000Y13724000D01*
G75*
G02*
X5897000Y13474000I0J-250000D01*
G01*
X5897000Y12549000D01*
G75*
G02*
X5647000Y12299000I-250000J0D01*
G01*
X3497000Y12299000D01*
G75*
G02*
X3247000Y12549000I0J250000D01*
G01*
X3247000Y13474000D01*
G75*
G02*
X3497000Y13724000I250000J0D01*
G01*
G37*
%TD*%
%TO.C,D4*%
G36*
G01*
X56701000Y9141999D02*
X56701000Y10042001D01*
G75*
G02*
X56950999Y10292000I249999J0D01*
G01*
X57601001Y10292000D01*
G75*
G02*
X57851000Y10042001I0J-249999D01*
G01*
X57851000Y9141999D01*
G75*
G02*
X57601001Y8892000I-249999J0D01*
G01*
X56950999Y8892000D01*
G75*
G02*
X56701000Y9141999I0J249999D01*
G01*
G37*
G36*
G01*
X54651000Y9141999D02*
X54651000Y10042001D01*
G75*
G02*
X54900999Y10292000I249999J0D01*
G01*
X55551001Y10292000D01*
G75*
G02*
X55801000Y10042001I0J-249999D01*
G01*
X55801000Y9141999D01*
G75*
G02*
X55551001Y8892000I-249999J0D01*
G01*
X54900999Y8892000D01*
G75*
G02*
X54651000Y9141999I0J249999D01*
G01*
G37*
%TD*%
%TO.C,D3*%
G36*
G01*
X52401000Y9141999D02*
X52401000Y10042001D01*
G75*
G02*
X52650999Y10292000I249999J0D01*
G01*
X53301001Y10292000D01*
G75*
G02*
X53551000Y10042001I0J-249999D01*
G01*
X53551000Y9141999D01*
G75*
G02*
X53301001Y8892000I-249999J0D01*
G01*
X52650999Y8892000D01*
G75*
G02*
X52401000Y9141999I0J249999D01*
G01*
G37*
G36*
G01*
X50351000Y9141999D02*
X50351000Y10042001D01*
G75*
G02*
X50600999Y10292000I249999J0D01*
G01*
X51251001Y10292000D01*
G75*
G02*
X51501000Y10042001I0J-249999D01*
G01*
X51501000Y9141999D01*
G75*
G02*
X51251001Y8892000I-249999J0D01*
G01*
X50600999Y8892000D01*
G75*
G02*
X50351000Y9141999I0J249999D01*
G01*
G37*
%TD*%
%TO.C,D2*%
G36*
G01*
X48319000Y9141999D02*
X48319000Y10042001D01*
G75*
G02*
X48568999Y10292000I249999J0D01*
G01*
X49219001Y10292000D01*
G75*
G02*
X49469000Y10042001I0J-249999D01*
G01*
X49469000Y9141999D01*
G75*
G02*
X49219001Y8892000I-249999J0D01*
G01*
X48568999Y8892000D01*
G75*
G02*
X48319000Y9141999I0J249999D01*
G01*
G37*
G36*
G01*
X46269000Y9141999D02*
X46269000Y10042001D01*
G75*
G02*
X46518999Y10292000I249999J0D01*
G01*
X47169001Y10292000D01*
G75*
G02*
X47419000Y10042001I0J-249999D01*
G01*
X47419000Y9141999D01*
G75*
G02*
X47169001Y8892000I-249999J0D01*
G01*
X46518999Y8892000D01*
G75*
G02*
X46269000Y9141999I0J249999D01*
G01*
G37*
%TD*%
%TO.C,C6-2*%
G36*
G01*
X20776940Y9856581D02*
X20776940Y8956579D01*
G75*
G02*
X20526941Y8706580I-249999J0D01*
G01*
X19876939Y8706580D01*
G75*
G02*
X19626940Y8956579I0J249999D01*
G01*
X19626940Y9856581D01*
G75*
G02*
X19876939Y10106580I249999J0D01*
G01*
X20526941Y10106580D01*
G75*
G02*
X20776940Y9856581I0J-249999D01*
G01*
G37*
G36*
G01*
X22826940Y9856581D02*
X22826940Y8956579D01*
G75*
G02*
X22576941Y8706580I-249999J0D01*
G01*
X21926939Y8706580D01*
G75*
G02*
X21676940Y8956579I0J249999D01*
G01*
X21676940Y9856581D01*
G75*
G02*
X21926939Y10106580I249999J0D01*
G01*
X22576941Y10106580D01*
G75*
G02*
X22826940Y9856581I0J-249999D01*
G01*
G37*
%TD*%
%TO.C,C6-1*%
G36*
G01*
X20929340Y5978001D02*
X20929340Y5077999D01*
G75*
G02*
X20679341Y4828000I-249999J0D01*
G01*
X20029339Y4828000D01*
G75*
G02*
X19779340Y5077999I0J249999D01*
G01*
X19779340Y5978001D01*
G75*
G02*
X20029339Y6228000I249999J0D01*
G01*
X20679341Y6228000D01*
G75*
G02*
X20929340Y5978001I0J-249999D01*
G01*
G37*
G36*
G01*
X22979340Y5978001D02*
X22979340Y5077999D01*
G75*
G02*
X22729341Y4828000I-249999J0D01*
G01*
X22079339Y4828000D01*
G75*
G02*
X21829340Y5077999I0J249999D01*
G01*
X21829340Y5978001D01*
G75*
G02*
X22079339Y6228000I249999J0D01*
G01*
X22729341Y6228000D01*
G75*
G02*
X22979340Y5978001I0J-249999D01*
G01*
G37*
%TD*%
%TO.C,C17*%
G36*
G01*
X64584001Y13843000D02*
X63683999Y13843000D01*
G75*
G02*
X63434000Y14092999I0J249999D01*
G01*
X63434000Y14743001D01*
G75*
G02*
X63683999Y14993000I249999J0D01*
G01*
X64584001Y14993000D01*
G75*
G02*
X64834000Y14743001I0J-249999D01*
G01*
X64834000Y14092999D01*
G75*
G02*
X64584001Y13843000I-249999J0D01*
G01*
G37*
G36*
G01*
X64584001Y11793000D02*
X63683999Y11793000D01*
G75*
G02*
X63434000Y12042999I0J249999D01*
G01*
X63434000Y12693001D01*
G75*
G02*
X63683999Y12943000I249999J0D01*
G01*
X64584001Y12943000D01*
G75*
G02*
X64834000Y12693001I0J-249999D01*
G01*
X64834000Y12042999D01*
G75*
G02*
X64584001Y11793000I-249999J0D01*
G01*
G37*
%TD*%
%TO.C,C16*%
G36*
G01*
X63683999Y18295000D02*
X64584001Y18295000D01*
G75*
G02*
X64834000Y18045001I0J-249999D01*
G01*
X64834000Y17394999D01*
G75*
G02*
X64584001Y17145000I-249999J0D01*
G01*
X63683999Y17145000D01*
G75*
G02*
X63434000Y17394999I0J249999D01*
G01*
X63434000Y18045001D01*
G75*
G02*
X63683999Y18295000I249999J0D01*
G01*
G37*
G36*
G01*
X63683999Y20345000D02*
X64584001Y20345000D01*
G75*
G02*
X64834000Y20095001I0J-249999D01*
G01*
X64834000Y19444999D01*
G75*
G02*
X64584001Y19195000I-249999J0D01*
G01*
X63683999Y19195000D01*
G75*
G02*
X63434000Y19444999I0J249999D01*
G01*
X63434000Y20095001D01*
G75*
G02*
X63683999Y20345000I249999J0D01*
G01*
G37*
%TD*%
%TO.C,C15*%
G36*
G01*
X28761000Y23365999D02*
X28761000Y24266001D01*
G75*
G02*
X29010999Y24516000I249999J0D01*
G01*
X29661001Y24516000D01*
G75*
G02*
X29911000Y24266001I0J-249999D01*
G01*
X29911000Y23365999D01*
G75*
G02*
X29661001Y23116000I-249999J0D01*
G01*
X29010999Y23116000D01*
G75*
G02*
X28761000Y23365999I0J249999D01*
G01*
G37*
G36*
G01*
X26711000Y23365999D02*
X26711000Y24266001D01*
G75*
G02*
X26960999Y24516000I249999J0D01*
G01*
X27611001Y24516000D01*
G75*
G02*
X27861000Y24266001I0J-249999D01*
G01*
X27861000Y23365999D01*
G75*
G02*
X27611001Y23116000I-249999J0D01*
G01*
X26960999Y23116000D01*
G75*
G02*
X26711000Y23365999I0J249999D01*
G01*
G37*
%TD*%
%TO.C,C14*%
G36*
G01*
X23035000Y24266001D02*
X23035000Y23365999D01*
G75*
G02*
X22785001Y23116000I-249999J0D01*
G01*
X22134999Y23116000D01*
G75*
G02*
X21885000Y23365999I0J249999D01*
G01*
X21885000Y24266001D01*
G75*
G02*
X22134999Y24516000I249999J0D01*
G01*
X22785001Y24516000D01*
G75*
G02*
X23035000Y24266001I0J-249999D01*
G01*
G37*
G36*
G01*
X25085000Y24266001D02*
X25085000Y23365999D01*
G75*
G02*
X24835001Y23116000I-249999J0D01*
G01*
X24184999Y23116000D01*
G75*
G02*
X23935000Y23365999I0J249999D01*
G01*
X23935000Y24266001D01*
G75*
G02*
X24184999Y24516000I249999J0D01*
G01*
X24835001Y24516000D01*
G75*
G02*
X25085000Y24266001I0J-249999D01*
G01*
G37*
%TD*%
%TO.C,C13*%
G36*
G01*
X48951999Y22722000D02*
X49852001Y22722000D01*
G75*
G02*
X50102000Y22472001I0J-249999D01*
G01*
X50102000Y21821999D01*
G75*
G02*
X49852001Y21572000I-249999J0D01*
G01*
X48951999Y21572000D01*
G75*
G02*
X48702000Y21821999I0J249999D01*
G01*
X48702000Y22472001D01*
G75*
G02*
X48951999Y22722000I249999J0D01*
G01*
G37*
G36*
G01*
X48951999Y24772000D02*
X49852001Y24772000D01*
G75*
G02*
X50102000Y24522001I0J-249999D01*
G01*
X50102000Y23871999D01*
G75*
G02*
X49852001Y23622000I-249999J0D01*
G01*
X48951999Y23622000D01*
G75*
G02*
X48702000Y23871999I0J249999D01*
G01*
X48702000Y24522001D01*
G75*
G02*
X48951999Y24772000I249999J0D01*
G01*
G37*
%TD*%
%TO.C,C12*%
G36*
G01*
X39048000Y28572999D02*
X39048000Y29473001D01*
G75*
G02*
X39297999Y29723000I249999J0D01*
G01*
X39948001Y29723000D01*
G75*
G02*
X40198000Y29473001I0J-249999D01*
G01*
X40198000Y28572999D01*
G75*
G02*
X39948001Y28323000I-249999J0D01*
G01*
X39297999Y28323000D01*
G75*
G02*
X39048000Y28572999I0J249999D01*
G01*
G37*
G36*
G01*
X36998000Y28572999D02*
X36998000Y29473001D01*
G75*
G02*
X37247999Y29723000I249999J0D01*
G01*
X37898001Y29723000D01*
G75*
G02*
X38148000Y29473001I0J-249999D01*
G01*
X38148000Y28572999D01*
G75*
G02*
X37898001Y28323000I-249999J0D01*
G01*
X37247999Y28323000D01*
G75*
G02*
X36998000Y28572999I0J249999D01*
G01*
G37*
%TD*%
%TO.C,C11*%
G36*
G01*
X33977001Y17780000D02*
X33076999Y17780000D01*
G75*
G02*
X32827000Y18029999I0J249999D01*
G01*
X32827000Y18680001D01*
G75*
G02*
X33076999Y18930000I249999J0D01*
G01*
X33977001Y18930000D01*
G75*
G02*
X34227000Y18680001I0J-249999D01*
G01*
X34227000Y18029999D01*
G75*
G02*
X33977001Y17780000I-249999J0D01*
G01*
G37*
G36*
G01*
X33977001Y15730000D02*
X33076999Y15730000D01*
G75*
G02*
X32827000Y15979999I0J249999D01*
G01*
X32827000Y16630001D01*
G75*
G02*
X33076999Y16880000I249999J0D01*
G01*
X33977001Y16880000D01*
G75*
G02*
X34227000Y16630001I0J-249999D01*
G01*
X34227000Y15979999D01*
G75*
G02*
X33977001Y15730000I-249999J0D01*
G01*
G37*
%TD*%
%TO.C,C10*%
G36*
G01*
X43228000Y13090001D02*
X43228000Y12189999D01*
G75*
G02*
X42978001Y11940000I-249999J0D01*
G01*
X42327999Y11940000D01*
G75*
G02*
X42078000Y12189999I0J249999D01*
G01*
X42078000Y13090001D01*
G75*
G02*
X42327999Y13340000I249999J0D01*
G01*
X42978001Y13340000D01*
G75*
G02*
X43228000Y13090001I0J-249999D01*
G01*
G37*
G36*
G01*
X45278000Y13090001D02*
X45278000Y12189999D01*
G75*
G02*
X45028001Y11940000I-249999J0D01*
G01*
X44377999Y11940000D01*
G75*
G02*
X44128000Y12189999I0J249999D01*
G01*
X44128000Y13090001D01*
G75*
G02*
X44377999Y13340000I249999J0D01*
G01*
X45028001Y13340000D01*
G75*
G02*
X45278000Y13090001I0J-249999D01*
G01*
G37*
%TD*%
%TO.C,C9*%
G36*
G01*
X58234001Y23685500D02*
X57333999Y23685500D01*
G75*
G02*
X57084000Y23935499I0J249999D01*
G01*
X57084000Y24585501D01*
G75*
G02*
X57333999Y24835500I249999J0D01*
G01*
X58234001Y24835500D01*
G75*
G02*
X58484000Y24585501I0J-249999D01*
G01*
X58484000Y23935499D01*
G75*
G02*
X58234001Y23685500I-249999J0D01*
G01*
G37*
G36*
G01*
X58234001Y21635500D02*
X57333999Y21635500D01*
G75*
G02*
X57084000Y21885499I0J249999D01*
G01*
X57084000Y22535501D01*
G75*
G02*
X57333999Y22785500I249999J0D01*
G01*
X58234001Y22785500D01*
G75*
G02*
X58484000Y22535501I0J-249999D01*
G01*
X58484000Y21885499D01*
G75*
G02*
X58234001Y21635500I-249999J0D01*
G01*
G37*
%TD*%
%TO.C,C8*%
G36*
G01*
X57333999Y15183500D02*
X58234001Y15183500D01*
G75*
G02*
X58484000Y14933501I0J-249999D01*
G01*
X58484000Y14283499D01*
G75*
G02*
X58234001Y14033500I-249999J0D01*
G01*
X57333999Y14033500D01*
G75*
G02*
X57084000Y14283499I0J249999D01*
G01*
X57084000Y14933501D01*
G75*
G02*
X57333999Y15183500I249999J0D01*
G01*
G37*
G36*
G01*
X57333999Y17233500D02*
X58234001Y17233500D01*
G75*
G02*
X58484000Y16983501I0J-249999D01*
G01*
X58484000Y16333499D01*
G75*
G02*
X58234001Y16083500I-249999J0D01*
G01*
X57333999Y16083500D01*
G75*
G02*
X57084000Y16333499I0J249999D01*
G01*
X57084000Y16983501D01*
G75*
G02*
X57333999Y17233500I249999J0D01*
G01*
G37*
%TD*%
%TO.C,C7*%
G36*
G01*
X48308000Y15693501D02*
X48308000Y14793499D01*
G75*
G02*
X48058001Y14543500I-249999J0D01*
G01*
X47407999Y14543500D01*
G75*
G02*
X47158000Y14793499I0J249999D01*
G01*
X47158000Y15693501D01*
G75*
G02*
X47407999Y15943500I249999J0D01*
G01*
X48058001Y15943500D01*
G75*
G02*
X48308000Y15693501I0J-249999D01*
G01*
G37*
G36*
G01*
X50358000Y15693501D02*
X50358000Y14793499D01*
G75*
G02*
X50108001Y14543500I-249999J0D01*
G01*
X49457999Y14543500D01*
G75*
G02*
X49208000Y14793499I0J249999D01*
G01*
X49208000Y15693501D01*
G75*
G02*
X49457999Y15943500I249999J0D01*
G01*
X50108001Y15943500D01*
G75*
G02*
X50358000Y15693501I0J-249999D01*
G01*
G37*
%TD*%
%TO.C,C5*%
G36*
G01*
X18230001Y4971000D02*
X17329999Y4971000D01*
G75*
G02*
X17080000Y5220999I0J249999D01*
G01*
X17080000Y5871001D01*
G75*
G02*
X17329999Y6121000I249999J0D01*
G01*
X18230001Y6121000D01*
G75*
G02*
X18480000Y5871001I0J-249999D01*
G01*
X18480000Y5220999D01*
G75*
G02*
X18230001Y4971000I-249999J0D01*
G01*
G37*
G36*
G01*
X18230001Y2921000D02*
X17329999Y2921000D01*
G75*
G02*
X17080000Y3170999I0J249999D01*
G01*
X17080000Y3821001D01*
G75*
G02*
X17329999Y4071000I249999J0D01*
G01*
X18230001Y4071000D01*
G75*
G02*
X18480000Y3821001I0J-249999D01*
G01*
X18480000Y3170999D01*
G75*
G02*
X18230001Y2921000I-249999J0D01*
G01*
G37*
%TD*%
%TO.C,C4*%
G36*
G01*
X13280239Y9976500D02*
X14180241Y9976500D01*
G75*
G02*
X14430240Y9726501I0J-249999D01*
G01*
X14430240Y9076499D01*
G75*
G02*
X14180241Y8826500I-249999J0D01*
G01*
X13280239Y8826500D01*
G75*
G02*
X13030240Y9076499I0J249999D01*
G01*
X13030240Y9726501D01*
G75*
G02*
X13280239Y9976500I249999J0D01*
G01*
G37*
G36*
G01*
X13280239Y12026500D02*
X14180241Y12026500D01*
G75*
G02*
X14430240Y11776501I0J-249999D01*
G01*
X14430240Y11126499D01*
G75*
G02*
X14180241Y10876500I-249999J0D01*
G01*
X13280239Y10876500D01*
G75*
G02*
X13030240Y11126499I0J249999D01*
G01*
X13030240Y11776501D01*
G75*
G02*
X13280239Y12026500I249999J0D01*
G01*
G37*
%TD*%
%TO.C,C3*%
G36*
G01*
X19551499Y17079500D02*
X20451501Y17079500D01*
G75*
G02*
X20701500Y16829501I0J-249999D01*
G01*
X20701500Y16179499D01*
G75*
G02*
X20451501Y15929500I-249999J0D01*
G01*
X19551499Y15929500D01*
G75*
G02*
X19301500Y16179499I0J249999D01*
G01*
X19301500Y16829501D01*
G75*
G02*
X19551499Y17079500I249999J0D01*
G01*
G37*
G36*
G01*
X19551499Y19129500D02*
X20451501Y19129500D01*
G75*
G02*
X20701500Y18879501I0J-249999D01*
G01*
X20701500Y18229499D01*
G75*
G02*
X20451501Y17979500I-249999J0D01*
G01*
X19551499Y17979500D01*
G75*
G02*
X19301500Y18229499I0J249999D01*
G01*
X19301500Y18879501D01*
G75*
G02*
X19551499Y19129500I249999J0D01*
G01*
G37*
%TD*%
%TO.C,C1*%
G36*
G01*
X16633039Y9968660D02*
X17533041Y9968660D01*
G75*
G02*
X17783040Y9718661I0J-249999D01*
G01*
X17783040Y9068659D01*
G75*
G02*
X17533041Y8818660I-249999J0D01*
G01*
X16633039Y8818660D01*
G75*
G02*
X16383040Y9068659I0J249999D01*
G01*
X16383040Y9718661D01*
G75*
G02*
X16633039Y9968660I249999J0D01*
G01*
G37*
G36*
G01*
X16633039Y12018660D02*
X17533041Y12018660D01*
G75*
G02*
X17783040Y11768661I0J-249999D01*
G01*
X17783040Y11118659D01*
G75*
G02*
X17533041Y10868660I-249999J0D01*
G01*
X16633039Y10868660D01*
G75*
G02*
X16383040Y11118659I0J249999D01*
G01*
X16383040Y11768661D01*
G75*
G02*
X16633039Y12018660I249999J0D01*
G01*
G37*
%TD*%
M02*
