%TF.GenerationSoftware,KiCad,Pcbnew,(5.1.6)-1*%
%TF.CreationDate,2020-09-24T00:50:10+03:00*%
%TF.ProjectId,freepdk,66726565-7064-46b2-9e6b-696361645f70,1.1.1*%
%TF.SameCoordinates,PX3c51298PY447eab0*%
%TF.FileFunction,Legend,Bot*%
%TF.FilePolarity,Positive*%
%FSLAX46Y46*%
G04 Gerber Fmt 4.6, Leading zero omitted, Abs format (unit mm)*
G04 Created by KiCad (PCBNEW (5.1.6)-1) date 2020-09-24 00:50:10*
%MOMM*%
%LPD*%
G01*
G04 APERTURE LIST*
%ADD10C,0.150000*%
%ADD11C,0.200000*%
%ADD12C,0.010000*%
G04 APERTURE END LIST*
D10*
X74571714Y29459620D02*
X74571714Y30459620D01*
X74000285Y29459620D01*
X74000285Y30459620D01*
X72952666Y29554858D02*
X73000285Y29507239D01*
X73143142Y29459620D01*
X73238380Y29459620D01*
X73381238Y29507239D01*
X73476476Y29602477D01*
X73524095Y29697715D01*
X73571714Y29888191D01*
X73571714Y30031048D01*
X73524095Y30221524D01*
X73476476Y30316762D01*
X73381238Y30412000D01*
X73238380Y30459620D01*
X73143142Y30459620D01*
X73000285Y30412000D01*
X72952666Y30364381D01*
X66951714Y29459620D02*
X66951714Y30459620D01*
X66380285Y29459620D01*
X66380285Y30459620D01*
X65332666Y29554858D02*
X65380285Y29507239D01*
X65523142Y29459620D01*
X65618380Y29459620D01*
X65761238Y29507239D01*
X65856476Y29602477D01*
X65904095Y29697715D01*
X65951714Y29888191D01*
X65951714Y30031048D01*
X65904095Y30221524D01*
X65856476Y30316762D01*
X65761238Y30412000D01*
X65618380Y30459620D01*
X65523142Y30459620D01*
X65380285Y30412000D01*
X65332666Y30364381D01*
X66951714Y26919620D02*
X66951714Y27919620D01*
X66380285Y26919620D01*
X66380285Y27919620D01*
X65332666Y27014858D02*
X65380285Y26967239D01*
X65523142Y26919620D01*
X65618380Y26919620D01*
X65761238Y26967239D01*
X65856476Y27062477D01*
X65904095Y27157715D01*
X65951714Y27348191D01*
X65951714Y27491048D01*
X65904095Y27681524D01*
X65856476Y27776762D01*
X65761238Y27872000D01*
X65618380Y27919620D01*
X65523142Y27919620D01*
X65380285Y27872000D01*
X65332666Y27824381D01*
D11*
X20930000Y33574000D02*
X20396666Y33574000D01*
X20730000Y32640667D02*
X20730000Y33840667D01*
X20663333Y33974000D01*
X20530000Y34040667D01*
X20396666Y34040667D01*
X19930000Y32640667D02*
X19930000Y33574000D01*
X19930000Y33307334D02*
X19863333Y33440667D01*
X19796666Y33507334D01*
X19663333Y33574000D01*
X19530000Y33574000D01*
X18530000Y32707334D02*
X18663333Y32640667D01*
X18930000Y32640667D01*
X19063333Y32707334D01*
X19130000Y32840667D01*
X19130000Y33374000D01*
X19063333Y33507334D01*
X18930000Y33574000D01*
X18663333Y33574000D01*
X18530000Y33507334D01*
X18463333Y33374000D01*
X18463333Y33240667D01*
X19130000Y33107334D01*
X17330000Y32707334D02*
X17463333Y32640667D01*
X17730000Y32640667D01*
X17863333Y32707334D01*
X17930000Y32840667D01*
X17930000Y33374000D01*
X17863333Y33507334D01*
X17730000Y33574000D01*
X17463333Y33574000D01*
X17330000Y33507334D01*
X17263333Y33374000D01*
X17263333Y33240667D01*
X17930000Y33107334D01*
X16663333Y33174000D02*
X15596666Y33174000D01*
X14930000Y33574000D02*
X14930000Y32174000D01*
X14930000Y33507334D02*
X14796666Y33574000D01*
X14530000Y33574000D01*
X14396666Y33507334D01*
X14330000Y33440667D01*
X14263333Y33307334D01*
X14263333Y32907334D01*
X14330000Y32774000D01*
X14396666Y32707334D01*
X14530000Y32640667D01*
X14796666Y32640667D01*
X14930000Y32707334D01*
X13063333Y32640667D02*
X13063333Y34040667D01*
X13063333Y32707334D02*
X13196666Y32640667D01*
X13463333Y32640667D01*
X13596666Y32707334D01*
X13663333Y32774000D01*
X13730000Y32907334D01*
X13730000Y33307334D01*
X13663333Y33440667D01*
X13596666Y33507334D01*
X13463333Y33574000D01*
X13196666Y33574000D01*
X13063333Y33507334D01*
X12396666Y32640667D02*
X12396666Y34040667D01*
X12263333Y33174000D02*
X11863333Y32640667D01*
X11863333Y33574000D02*
X12396666Y33040667D01*
X11263333Y32774000D02*
X11196666Y32707334D01*
X11263333Y32640667D01*
X11330000Y32707334D01*
X11263333Y32774000D01*
X11263333Y32640667D01*
X9996666Y33574000D02*
X9996666Y32440667D01*
X10063333Y32307334D01*
X10130000Y32240667D01*
X10263333Y32174000D01*
X10463333Y32174000D01*
X10596666Y32240667D01*
X9996666Y32707334D02*
X10130000Y32640667D01*
X10396666Y32640667D01*
X10530000Y32707334D01*
X10596666Y32774000D01*
X10663333Y32907334D01*
X10663333Y33307334D01*
X10596666Y33440667D01*
X10530000Y33507334D01*
X10396666Y33574000D01*
X10130000Y33574000D01*
X9996666Y33507334D01*
X9330000Y32640667D02*
X9330000Y33574000D01*
X9330000Y34040667D02*
X9396666Y33974000D01*
X9330000Y33907334D01*
X9263333Y33974000D01*
X9330000Y34040667D01*
X9330000Y33907334D01*
X8863333Y33574000D02*
X8330000Y33574000D01*
X8663333Y34040667D02*
X8663333Y32840667D01*
X8596666Y32707334D01*
X8463333Y32640667D01*
X8330000Y32640667D01*
X7863333Y32640667D02*
X7863333Y34040667D01*
X7263333Y32640667D02*
X7263333Y33374000D01*
X7330000Y33507334D01*
X7463333Y33574000D01*
X7663333Y33574000D01*
X7796666Y33507334D01*
X7863333Y33440667D01*
X5996666Y33574000D02*
X5996666Y32640667D01*
X6596666Y33574000D02*
X6596666Y32840667D01*
X6530000Y32707334D01*
X6396666Y32640667D01*
X6196666Y32640667D01*
X6063333Y32707334D01*
X5996666Y32774000D01*
X5330000Y32640667D02*
X5330000Y34040667D01*
X5330000Y33507334D02*
X5196666Y33574000D01*
X4930000Y33574000D01*
X4796666Y33507334D01*
X4730000Y33440667D01*
X4663333Y33307334D01*
X4663333Y32907334D01*
X4730000Y32774000D01*
X4796666Y32707334D01*
X4930000Y32640667D01*
X5196666Y32640667D01*
X5330000Y32707334D01*
X4063333Y32774000D02*
X3996666Y32707334D01*
X4063333Y32640667D01*
X4130000Y32707334D01*
X4063333Y32774000D01*
X4063333Y32640667D01*
X3396666Y32640667D02*
X3396666Y33574000D01*
X3396666Y34040667D02*
X3463333Y33974000D01*
X3396666Y33907334D01*
X3330000Y33974000D01*
X3396666Y34040667D01*
X3396666Y33907334D01*
X2530000Y32640667D02*
X2663333Y32707334D01*
X2730000Y32774000D01*
X2796666Y32907334D01*
X2796666Y33307334D01*
X2730000Y33440667D01*
X2663333Y33507334D01*
X2530000Y33574000D01*
X2330000Y33574000D01*
X2196666Y33507334D01*
X2130000Y33440667D01*
X2063333Y33307334D01*
X2063333Y32907334D01*
X2130000Y32774000D01*
X2196666Y32707334D01*
X2330000Y32640667D01*
X2530000Y32640667D01*
D10*
X74571714Y26919620D02*
X74571714Y27919620D01*
X74000285Y26919620D01*
X74000285Y27919620D01*
X72952666Y27014858D02*
X73000285Y26967239D01*
X73143142Y26919620D01*
X73238380Y26919620D01*
X73381238Y26967239D01*
X73476476Y27062477D01*
X73524095Y27157715D01*
X73571714Y27348191D01*
X73571714Y27491048D01*
X73524095Y27681524D01*
X73476476Y27776762D01*
X73381238Y27872000D01*
X73238380Y27919620D01*
X73143142Y27919620D01*
X73000285Y27872000D01*
X72952666Y27824381D01*
X74571714Y24379620D02*
X74571714Y25379620D01*
X74000285Y24379620D01*
X74000285Y25379620D01*
X72952666Y24474858D02*
X73000285Y24427239D01*
X73143142Y24379620D01*
X73238380Y24379620D01*
X73381238Y24427239D01*
X73476476Y24522477D01*
X73524095Y24617715D01*
X73571714Y24808191D01*
X73571714Y24951048D01*
X73524095Y25141524D01*
X73476476Y25236762D01*
X73381238Y25332000D01*
X73238380Y25379620D01*
X73143142Y25379620D01*
X73000285Y25332000D01*
X72952666Y25284381D01*
X74571714Y21839620D02*
X74571714Y22839620D01*
X74000285Y21839620D01*
X74000285Y22839620D01*
X72952666Y21934858D02*
X73000285Y21887239D01*
X73143142Y21839620D01*
X73238380Y21839620D01*
X73381238Y21887239D01*
X73476476Y21982477D01*
X73524095Y22077715D01*
X73571714Y22268191D01*
X73571714Y22411048D01*
X73524095Y22601524D01*
X73476476Y22696762D01*
X73381238Y22792000D01*
X73238380Y22839620D01*
X73143142Y22839620D01*
X73000285Y22792000D01*
X72952666Y22744381D01*
X66951714Y26919620D02*
X66951714Y27919620D01*
X66380285Y26919620D01*
X66380285Y27919620D01*
X65332666Y27014858D02*
X65380285Y26967239D01*
X65523142Y26919620D01*
X65618380Y26919620D01*
X65761238Y26967239D01*
X65856476Y27062477D01*
X65904095Y27157715D01*
X65951714Y27348191D01*
X65951714Y27491048D01*
X65904095Y27681524D01*
X65856476Y27776762D01*
X65761238Y27872000D01*
X65618380Y27919620D01*
X65523142Y27919620D01*
X65380285Y27872000D01*
X65332666Y27824381D01*
X66951714Y24379620D02*
X66951714Y25379620D01*
X66380285Y24379620D01*
X66380285Y25379620D01*
X65332666Y24474858D02*
X65380285Y24427239D01*
X65523142Y24379620D01*
X65618380Y24379620D01*
X65761238Y24427239D01*
X65856476Y24522477D01*
X65904095Y24617715D01*
X65951714Y24808191D01*
X65951714Y24951048D01*
X65904095Y25141524D01*
X65856476Y25236762D01*
X65761238Y25332000D01*
X65618380Y25379620D01*
X65523142Y25379620D01*
X65380285Y25332000D01*
X65332666Y25284381D01*
X66951714Y21839620D02*
X66951714Y22839620D01*
X66380285Y21839620D01*
X66380285Y22839620D01*
X65332666Y21934858D02*
X65380285Y21887239D01*
X65523142Y21839620D01*
X65618380Y21839620D01*
X65761238Y21887239D01*
X65856476Y21982477D01*
X65904095Y22077715D01*
X65951714Y22268191D01*
X65951714Y22411048D01*
X65904095Y22601524D01*
X65856476Y22696762D01*
X65761238Y22792000D01*
X65618380Y22839620D01*
X65523142Y22839620D01*
X65380285Y22792000D01*
X65332666Y22744381D01*
X74190666Y11679620D02*
X74190666Y12679620D01*
X73809714Y12679620D01*
X73714476Y12632000D01*
X73666857Y12584381D01*
X73619238Y12489143D01*
X73619238Y12346286D01*
X73666857Y12251048D01*
X73714476Y12203429D01*
X73809714Y12155810D01*
X74190666Y12155810D01*
X73238285Y11965334D02*
X72762095Y11965334D01*
X73333523Y11679620D02*
X73000190Y12679620D01*
X72666857Y11679620D01*
X72428761Y12679620D02*
X71809714Y12679620D01*
X72143047Y12298667D01*
X72000190Y12298667D01*
X71904952Y12251048D01*
X71857333Y12203429D01*
X71809714Y12108191D01*
X71809714Y11870096D01*
X71857333Y11774858D01*
X71904952Y11727239D01*
X72000190Y11679620D01*
X72285904Y11679620D01*
X72381142Y11727239D01*
X72428761Y11774858D01*
X74190666Y14219620D02*
X74190666Y15219620D01*
X73809714Y15219620D01*
X73714476Y15172000D01*
X73666857Y15124381D01*
X73619238Y15029143D01*
X73619238Y14886286D01*
X73666857Y14791048D01*
X73714476Y14743429D01*
X73809714Y14695810D01*
X74190666Y14695810D01*
X73238285Y14505334D02*
X72762095Y14505334D01*
X73333523Y14219620D02*
X73000190Y15219620D01*
X72666857Y14219620D01*
X71904952Y14886286D02*
X71904952Y14219620D01*
X72143047Y15267239D02*
X72381142Y14552953D01*
X71762095Y14552953D01*
X74444666Y16759620D02*
X74444666Y17759620D01*
X74063714Y17759620D01*
X73968476Y17712000D01*
X73920857Y17664381D01*
X73873238Y17569143D01*
X73873238Y17426286D01*
X73920857Y17331048D01*
X73968476Y17283429D01*
X74063714Y17235810D01*
X74444666Y17235810D01*
X73492285Y17045334D02*
X73016095Y17045334D01*
X73587523Y16759620D02*
X73254190Y17759620D01*
X72920857Y16759620D01*
X72397047Y17759620D02*
X72301809Y17759620D01*
X72206571Y17712000D01*
X72158952Y17664381D01*
X72111333Y17569143D01*
X72063714Y17378667D01*
X72063714Y17140572D01*
X72111333Y16950096D01*
X72158952Y16854858D01*
X72206571Y16807239D01*
X72301809Y16759620D01*
X72397047Y16759620D01*
X72492285Y16807239D01*
X72539904Y16854858D01*
X72587523Y16950096D01*
X72635142Y17140572D01*
X72635142Y17378667D01*
X72587523Y17569143D01*
X72539904Y17664381D01*
X72492285Y17712000D01*
X72397047Y17759620D01*
X74039904Y20252000D02*
X74135142Y20299620D01*
X74278000Y20299620D01*
X74420857Y20252000D01*
X74516095Y20156762D01*
X74563714Y20061524D01*
X74611333Y19871048D01*
X74611333Y19728191D01*
X74563714Y19537715D01*
X74516095Y19442477D01*
X74420857Y19347239D01*
X74278000Y19299620D01*
X74182761Y19299620D01*
X74039904Y19347239D01*
X73992285Y19394858D01*
X73992285Y19728191D01*
X74182761Y19728191D01*
X73563714Y19299620D02*
X73563714Y20299620D01*
X72992285Y19299620D01*
X72992285Y20299620D01*
X72516095Y19299620D02*
X72516095Y20299620D01*
X72278000Y20299620D01*
X72135142Y20252000D01*
X72039904Y20156762D01*
X71992285Y20061524D01*
X71944666Y19871048D01*
X71944666Y19728191D01*
X71992285Y19537715D01*
X72039904Y19442477D01*
X72135142Y19347239D01*
X72278000Y19299620D01*
X72516095Y19299620D01*
X66824666Y11933620D02*
X66824666Y12933620D01*
X66443714Y12933620D01*
X66348476Y12886000D01*
X66300857Y12838381D01*
X66253238Y12743143D01*
X66253238Y12600286D01*
X66300857Y12505048D01*
X66348476Y12457429D01*
X66443714Y12409810D01*
X66824666Y12409810D01*
X65872285Y12219334D02*
X65396095Y12219334D01*
X65967523Y11933620D02*
X65634190Y12933620D01*
X65300857Y11933620D01*
X64491333Y12933620D02*
X64967523Y12933620D01*
X65015142Y12457429D01*
X64967523Y12505048D01*
X64872285Y12552667D01*
X64634190Y12552667D01*
X64538952Y12505048D01*
X64491333Y12457429D01*
X64443714Y12362191D01*
X64443714Y12124096D01*
X64491333Y12028858D01*
X64538952Y11981239D01*
X64634190Y11933620D01*
X64872285Y11933620D01*
X64967523Y11981239D01*
X65015142Y12028858D01*
X66824666Y14219620D02*
X66824666Y15219620D01*
X66443714Y15219620D01*
X66348476Y15172000D01*
X66300857Y15124381D01*
X66253238Y15029143D01*
X66253238Y14886286D01*
X66300857Y14791048D01*
X66348476Y14743429D01*
X66443714Y14695810D01*
X66824666Y14695810D01*
X65872285Y14505334D02*
X65396095Y14505334D01*
X65967523Y14219620D02*
X65634190Y15219620D01*
X65300857Y14219620D01*
X64538952Y15219620D02*
X64729428Y15219620D01*
X64824666Y15172000D01*
X64872285Y15124381D01*
X64967523Y14981524D01*
X65015142Y14791048D01*
X65015142Y14410096D01*
X64967523Y14314858D01*
X64919904Y14267239D01*
X64824666Y14219620D01*
X64634190Y14219620D01*
X64538952Y14267239D01*
X64491333Y14314858D01*
X64443714Y14410096D01*
X64443714Y14648191D01*
X64491333Y14743429D01*
X64538952Y14791048D01*
X64634190Y14838667D01*
X64824666Y14838667D01*
X64919904Y14791048D01*
X64967523Y14743429D01*
X65015142Y14648191D01*
X66824666Y16759620D02*
X66824666Y17759620D01*
X66443714Y17759620D01*
X66348476Y17712000D01*
X66300857Y17664381D01*
X66253238Y17569143D01*
X66253238Y17426286D01*
X66300857Y17331048D01*
X66348476Y17283429D01*
X66443714Y17235810D01*
X66824666Y17235810D01*
X65872285Y17045334D02*
X65396095Y17045334D01*
X65967523Y16759620D02*
X65634190Y17759620D01*
X65300857Y16759620D01*
X65062761Y17759620D02*
X64396095Y17759620D01*
X64824666Y16759620D01*
X66991333Y20299620D02*
X66658000Y19299620D01*
X66324666Y20299620D01*
X65991333Y19299620D02*
X65991333Y20299620D01*
X65753238Y20299620D01*
X65610380Y20252000D01*
X65515142Y20156762D01*
X65467523Y20061524D01*
X65419904Y19871048D01*
X65419904Y19728191D01*
X65467523Y19537715D01*
X65515142Y19442477D01*
X65610380Y19347239D01*
X65753238Y19299620D01*
X65991333Y19299620D01*
X64991333Y19299620D02*
X64991333Y20299620D01*
X64753238Y20299620D01*
X64610380Y20252000D01*
X64515142Y20156762D01*
X64467523Y20061524D01*
X64419904Y19871048D01*
X64419904Y19728191D01*
X64467523Y19537715D01*
X64515142Y19442477D01*
X64610380Y19347239D01*
X64753238Y19299620D01*
X64991333Y19299620D01*
D12*
%TO.C,G\u002A\u002A\u002A*%
G36*
X32639000Y17272000D02*
G01*
X32639000Y13123334D01*
X36195000Y13123334D01*
X36195000Y13716000D01*
X33231666Y13716000D01*
X33231666Y16679334D01*
X36195000Y16679334D01*
X36195000Y13716000D01*
X36195000Y13123334D01*
X36787666Y13123334D01*
X36787666Y17272000D01*
X32639000Y17272000D01*
G37*
X32639000Y17272000D02*
X32639000Y13123334D01*
X36195000Y13123334D01*
X36195000Y13716000D01*
X33231666Y13716000D01*
X33231666Y16679334D01*
X36195000Y16679334D01*
X36195000Y13716000D01*
X36195000Y13123334D01*
X36787666Y13123334D01*
X36787666Y17272000D01*
X32639000Y17272000D01*
G36*
X34417000Y20235334D02*
G01*
X34417000Y20531667D01*
X34430106Y20730279D01*
X34504053Y20811731D01*
X34690778Y20827963D01*
X34713333Y20828000D01*
X34911945Y20841107D01*
X34993397Y20915053D01*
X35009630Y21101778D01*
X35009666Y21124334D01*
X35009666Y21420667D01*
X33231666Y21420667D01*
X33231666Y21717000D01*
X33244773Y21915612D01*
X33318719Y21997064D01*
X33505444Y22013297D01*
X33528000Y22013334D01*
X33726612Y22026440D01*
X33808064Y22100386D01*
X33824296Y22287111D01*
X33824333Y22309667D01*
X33811227Y22508279D01*
X33737280Y22589731D01*
X33550555Y22605963D01*
X33528000Y22606000D01*
X33329388Y22592894D01*
X33247936Y22518947D01*
X33231703Y22332222D01*
X33231666Y22309667D01*
X33218560Y22111055D01*
X33144614Y22029603D01*
X32957889Y22013370D01*
X32935333Y22013334D01*
X32639000Y22013334D01*
X32639000Y19050000D01*
X32935333Y19050000D01*
X33133945Y19036894D01*
X33215397Y18962947D01*
X33231630Y18776222D01*
X33231666Y18753667D01*
X33218560Y18555055D01*
X33144614Y18473603D01*
X32957889Y18457370D01*
X32935333Y18457334D01*
X32736721Y18444227D01*
X32655269Y18370281D01*
X32639037Y18183556D01*
X32639000Y18161000D01*
X32639000Y17864667D01*
X35009666Y17864667D01*
X35009666Y18161000D01*
X35009666Y18457334D01*
X34713333Y18457334D01*
X34514721Y18470440D01*
X34433269Y18544386D01*
X34417037Y18731111D01*
X34417000Y18753667D01*
X34403893Y18952279D01*
X34329947Y19033731D01*
X34143222Y19049963D01*
X34120666Y19050000D01*
X33922055Y19063107D01*
X33840602Y19137053D01*
X33824370Y19323778D01*
X33824333Y19346334D01*
X33811227Y19544945D01*
X33737280Y19626398D01*
X33550555Y19642630D01*
X33528000Y19642667D01*
X33231666Y19642667D01*
X33231666Y20828000D01*
X33824333Y20828000D01*
X33824333Y19642667D01*
X35009666Y19642667D01*
X35009666Y18457334D01*
X35009666Y18161000D01*
X35022773Y18359612D01*
X35096719Y18441064D01*
X35283444Y18457297D01*
X35306000Y18457334D01*
X35602333Y18457334D01*
X35602333Y20235334D01*
X34417000Y20235334D01*
G37*
X34417000Y20235334D02*
X34417000Y20531667D01*
X34430106Y20730279D01*
X34504053Y20811731D01*
X34690778Y20827963D01*
X34713333Y20828000D01*
X34911945Y20841107D01*
X34993397Y20915053D01*
X35009630Y21101778D01*
X35009666Y21124334D01*
X35009666Y21420667D01*
X33231666Y21420667D01*
X33231666Y21717000D01*
X33244773Y21915612D01*
X33318719Y21997064D01*
X33505444Y22013297D01*
X33528000Y22013334D01*
X33726612Y22026440D01*
X33808064Y22100386D01*
X33824296Y22287111D01*
X33824333Y22309667D01*
X33811227Y22508279D01*
X33737280Y22589731D01*
X33550555Y22605963D01*
X33528000Y22606000D01*
X33329388Y22592894D01*
X33247936Y22518947D01*
X33231703Y22332222D01*
X33231666Y22309667D01*
X33218560Y22111055D01*
X33144614Y22029603D01*
X32957889Y22013370D01*
X32935333Y22013334D01*
X32639000Y22013334D01*
X32639000Y19050000D01*
X32935333Y19050000D01*
X33133945Y19036894D01*
X33215397Y18962947D01*
X33231630Y18776222D01*
X33231666Y18753667D01*
X33218560Y18555055D01*
X33144614Y18473603D01*
X32957889Y18457370D01*
X32935333Y18457334D01*
X32736721Y18444227D01*
X32655269Y18370281D01*
X32639037Y18183556D01*
X32639000Y18161000D01*
X32639000Y17864667D01*
X35009666Y17864667D01*
X35009666Y18161000D01*
X35009666Y18457334D01*
X34713333Y18457334D01*
X34514721Y18470440D01*
X34433269Y18544386D01*
X34417037Y18731111D01*
X34417000Y18753667D01*
X34403893Y18952279D01*
X34329947Y19033731D01*
X34143222Y19049963D01*
X34120666Y19050000D01*
X33922055Y19063107D01*
X33840602Y19137053D01*
X33824370Y19323778D01*
X33824333Y19346334D01*
X33811227Y19544945D01*
X33737280Y19626398D01*
X33550555Y19642630D01*
X33528000Y19642667D01*
X33231666Y19642667D01*
X33231666Y20828000D01*
X33824333Y20828000D01*
X33824333Y19642667D01*
X35009666Y19642667D01*
X35009666Y18457334D01*
X35009666Y18161000D01*
X35022773Y18359612D01*
X35096719Y18441064D01*
X35283444Y18457297D01*
X35306000Y18457334D01*
X35602333Y18457334D01*
X35602333Y20235334D01*
X34417000Y20235334D01*
G36*
X47455666Y22606000D02*
G01*
X47455666Y23198667D01*
X46270333Y23198667D01*
X46270333Y22606000D01*
X47455666Y22606000D01*
G37*
X47455666Y22606000D02*
X47455666Y23198667D01*
X46270333Y23198667D01*
X46270333Y22606000D01*
X47455666Y22606000D01*
G36*
X45085000Y22606000D02*
G01*
X45085000Y23198667D01*
X42714333Y23198667D01*
X42714333Y23495000D01*
X42701227Y23693612D01*
X42627280Y23775064D01*
X42440555Y23791297D01*
X42418000Y23791334D01*
X42121666Y23791334D01*
X42121666Y21420667D01*
X41825333Y21420667D01*
X41626721Y21433773D01*
X41545269Y21507720D01*
X41529037Y21694445D01*
X41529000Y21717000D01*
X41515893Y21915612D01*
X41441947Y21997064D01*
X41255222Y22013297D01*
X41232666Y22013334D01*
X41034055Y22026440D01*
X40952602Y22100386D01*
X40936370Y22287111D01*
X40936333Y22309667D01*
X40949440Y22508279D01*
X41023386Y22589731D01*
X41210111Y22605963D01*
X41232666Y22606000D01*
X41431278Y22619107D01*
X41512731Y22693053D01*
X41528963Y22879778D01*
X41529000Y22902334D01*
X41515893Y23100945D01*
X41441947Y23182398D01*
X41255222Y23198630D01*
X41232666Y23198667D01*
X41034055Y23211773D01*
X40952602Y23285720D01*
X40936370Y23472445D01*
X40936333Y23495000D01*
X40923227Y23693612D01*
X40849280Y23775064D01*
X40662555Y23791297D01*
X40640000Y23791334D01*
X40441388Y23804440D01*
X40359936Y23878386D01*
X40343703Y24065111D01*
X40343666Y24087667D01*
X40356773Y24286279D01*
X40430719Y24367731D01*
X40617444Y24383963D01*
X40640000Y24384000D01*
X40838612Y24397107D01*
X40920064Y24471053D01*
X40936296Y24657778D01*
X40936333Y24680334D01*
X40923227Y24878945D01*
X40849280Y24960398D01*
X40662555Y24976630D01*
X40640000Y24976667D01*
X40441388Y24989773D01*
X40359936Y25063720D01*
X40343703Y25250445D01*
X40343666Y25273000D01*
X40356773Y25471612D01*
X40430719Y25553064D01*
X40617444Y25569297D01*
X40640000Y25569334D01*
X40936333Y25569334D01*
X40936333Y26754667D01*
X40343666Y26754667D01*
X40343666Y27940000D01*
X39158333Y27940000D01*
X39158333Y27643667D01*
X39145227Y27445055D01*
X39071280Y27363603D01*
X38884555Y27347370D01*
X38862000Y27347334D01*
X38663388Y27360440D01*
X38581936Y27434386D01*
X38565703Y27621111D01*
X38565666Y27643667D01*
X38565666Y27940000D01*
X36195000Y27940000D01*
X36195000Y25569334D01*
X34417000Y25569334D01*
X34417000Y25865667D01*
X34430106Y26064279D01*
X34504053Y26145731D01*
X34690778Y26161963D01*
X34713333Y26162000D01*
X35009666Y26162000D01*
X35009666Y27347334D01*
X35306000Y27347334D01*
X35504612Y27360440D01*
X35586064Y27434386D01*
X35602296Y27621111D01*
X35602333Y27643667D01*
X35602333Y27940000D01*
X34417000Y27940000D01*
X34417000Y27643667D01*
X34403893Y27445055D01*
X34329947Y27363603D01*
X34143222Y27347370D01*
X34120666Y27347334D01*
X33922055Y27334227D01*
X33840602Y27260281D01*
X33824370Y27073556D01*
X33824333Y27051000D01*
X33811227Y26852388D01*
X33737280Y26770936D01*
X33550555Y26754704D01*
X33528000Y26754667D01*
X33231666Y26754667D01*
X33231666Y27940000D01*
X32639000Y27940000D01*
X32639000Y23198667D01*
X33528000Y23198667D01*
X33528000Y24384000D01*
X33329388Y24397107D01*
X33247936Y24471053D01*
X33231703Y24657778D01*
X33231666Y24680334D01*
X33244773Y24878945D01*
X33318719Y24960398D01*
X33505444Y24976630D01*
X33528000Y24976667D01*
X33528000Y25569334D01*
X33329388Y25582440D01*
X33247936Y25656386D01*
X33231703Y25843111D01*
X33231666Y25865667D01*
X33244773Y26064279D01*
X33318719Y26145731D01*
X33505444Y26161963D01*
X33528000Y26162000D01*
X33726612Y26148894D01*
X33808064Y26074947D01*
X33824296Y25888222D01*
X33824333Y25865667D01*
X33811227Y25667055D01*
X33737280Y25585603D01*
X33550555Y25569370D01*
X33528000Y25569334D01*
X33528000Y24976667D01*
X33726612Y24963560D01*
X33808064Y24889614D01*
X33824296Y24702889D01*
X33824333Y24680334D01*
X33811227Y24481722D01*
X33737280Y24400269D01*
X33550555Y24384037D01*
X33528000Y24384000D01*
X33528000Y23198667D01*
X34417000Y23198667D01*
X34417000Y23495000D01*
X34430106Y23693612D01*
X34504053Y23775064D01*
X34690778Y23791297D01*
X34713333Y23791334D01*
X34713333Y24384000D01*
X34514721Y24397107D01*
X34433269Y24471053D01*
X34417037Y24657778D01*
X34417000Y24680334D01*
X34430106Y24878945D01*
X34504053Y24960398D01*
X34690778Y24976630D01*
X34713333Y24976667D01*
X34911945Y24963560D01*
X34993397Y24889614D01*
X35009630Y24702889D01*
X35009666Y24680334D01*
X34996560Y24481722D01*
X34922614Y24400269D01*
X34735889Y24384037D01*
X34713333Y24384000D01*
X34713333Y23791334D01*
X35009666Y23791334D01*
X35009666Y22606000D01*
X34713333Y22606000D01*
X34514721Y22592894D01*
X34433269Y22518947D01*
X34417037Y22332222D01*
X34417000Y22309667D01*
X34430106Y22111055D01*
X34504053Y22029603D01*
X34690778Y22013370D01*
X34713333Y22013334D01*
X34911945Y22026440D01*
X34993397Y22100386D01*
X35009630Y22287111D01*
X35009666Y22309667D01*
X35022773Y22508279D01*
X35096719Y22589731D01*
X35283444Y22605963D01*
X35306000Y22606000D01*
X35602333Y22606000D01*
X35602333Y21420667D01*
X35898666Y21420667D01*
X36097278Y21407560D01*
X36178731Y21333614D01*
X36194963Y21146889D01*
X36195000Y21124334D01*
X36181893Y20925722D01*
X36107947Y20844269D01*
X35921222Y20828037D01*
X35898666Y20828000D01*
X35700055Y20814894D01*
X35618602Y20740947D01*
X35602370Y20554222D01*
X35602333Y20531667D01*
X35602333Y20235334D01*
X35898666Y20235334D01*
X36097278Y20248440D01*
X36178731Y20322386D01*
X36194963Y20509111D01*
X36195000Y20531667D01*
X36195000Y20828000D01*
X37973000Y20828000D01*
X37973000Y21124334D01*
X37973000Y21420667D01*
X36195000Y21420667D01*
X36195000Y22606000D01*
X37380333Y22606000D01*
X37380333Y23198667D01*
X35602333Y23198667D01*
X35602333Y24976667D01*
X37380333Y24976667D01*
X37380333Y25569334D01*
X36787666Y25569334D01*
X36787666Y27347334D01*
X37380333Y27347334D01*
X37380333Y25569334D01*
X37380333Y24976667D01*
X37380333Y23198667D01*
X37380333Y22606000D01*
X37973000Y22606000D01*
X37973000Y21420667D01*
X37973000Y21124334D01*
X37986106Y21322945D01*
X38060053Y21404398D01*
X38246778Y21420630D01*
X38269333Y21420667D01*
X38269333Y24976667D01*
X38070721Y24989773D01*
X37989269Y25063720D01*
X37973037Y25250445D01*
X37973000Y25273000D01*
X37986106Y25471612D01*
X38060053Y25553064D01*
X38246778Y25569297D01*
X38269333Y25569334D01*
X38467945Y25582440D01*
X38549397Y25656386D01*
X38565630Y25843111D01*
X38565666Y25865667D01*
X38552560Y26064279D01*
X38478614Y26145731D01*
X38291889Y26161963D01*
X38269333Y26162000D01*
X37973000Y26162000D01*
X37973000Y27347334D01*
X38565666Y27347334D01*
X38565666Y26162000D01*
X39158333Y26162000D01*
X39158333Y27347334D01*
X39751000Y27347334D01*
X39751000Y26162000D01*
X40047333Y26162000D01*
X40245945Y26148894D01*
X40327397Y26074947D01*
X40343630Y25888222D01*
X40343666Y25865667D01*
X40343666Y25569334D01*
X38565666Y25569334D01*
X38565666Y25273000D01*
X38552560Y25074388D01*
X38478614Y24992936D01*
X38291889Y24976704D01*
X38269333Y24976667D01*
X38269333Y21420667D01*
X38467945Y21407560D01*
X38549397Y21333614D01*
X38565630Y21146889D01*
X38565666Y21124334D01*
X38578773Y20925722D01*
X38652719Y20844269D01*
X38839444Y20828037D01*
X38862000Y20828000D01*
X39060612Y20814894D01*
X39142064Y20740947D01*
X39158296Y20554222D01*
X39158333Y20531667D01*
X39158333Y20235334D01*
X37973000Y20235334D01*
X37973000Y19939000D01*
X37959893Y19740388D01*
X37885947Y19658936D01*
X37699222Y19642704D01*
X37676666Y19642667D01*
X37380333Y19642667D01*
X37380333Y18457334D01*
X36787666Y18457334D01*
X36787666Y19642667D01*
X36195000Y19642667D01*
X36195000Y18457334D01*
X36491333Y18457334D01*
X36689945Y18444227D01*
X36771397Y18370281D01*
X36787630Y18183556D01*
X36787666Y18161000D01*
X36800773Y17962388D01*
X36874719Y17880936D01*
X37061444Y17864704D01*
X37084000Y17864667D01*
X37380333Y17864667D01*
X37380333Y16679334D01*
X37973000Y16679334D01*
X37973000Y19050000D01*
X38269333Y19050000D01*
X38467945Y19036894D01*
X38549397Y18962947D01*
X38565630Y18776222D01*
X38565666Y18753667D01*
X38578773Y18555055D01*
X38652719Y18473603D01*
X38839444Y18457370D01*
X38862000Y18457334D01*
X39158333Y18457334D01*
X39158333Y19642667D01*
X39751000Y19642667D01*
X39751000Y17864667D01*
X38565666Y17864667D01*
X38565666Y16679334D01*
X38862000Y16679334D01*
X39060612Y16692440D01*
X39142064Y16766386D01*
X39158296Y16953111D01*
X39158333Y16975667D01*
X39171440Y17174279D01*
X39245386Y17255731D01*
X39432111Y17271963D01*
X39454666Y17272000D01*
X39751000Y17272000D01*
X39751000Y16086667D01*
X40936333Y16086667D01*
X40936333Y16383000D01*
X40936333Y16679334D01*
X40640000Y16679334D01*
X40441388Y16692440D01*
X40359936Y16766386D01*
X40343703Y16953111D01*
X40343666Y16975667D01*
X40330560Y17174279D01*
X40256614Y17255731D01*
X40069889Y17271963D01*
X40047333Y17272000D01*
X39848721Y17285107D01*
X39767269Y17359053D01*
X39751037Y17545778D01*
X39751000Y17568334D01*
X39751000Y17864667D01*
X40936333Y17864667D01*
X40936333Y16679334D01*
X40936333Y16383000D01*
X40949440Y16581612D01*
X41023386Y16663064D01*
X41210111Y16679297D01*
X41232666Y16679334D01*
X41431278Y16692440D01*
X41512731Y16766386D01*
X41528963Y16953111D01*
X41529000Y16975667D01*
X41542106Y17174279D01*
X41616053Y17255731D01*
X41802778Y17271963D01*
X41825333Y17272000D01*
X42023945Y17258894D01*
X42105397Y17184947D01*
X42121630Y16998222D01*
X42121666Y16975667D01*
X42134773Y16777055D01*
X42208719Y16695603D01*
X42395444Y16679370D01*
X42418000Y16679334D01*
X42616612Y16692440D01*
X42698064Y16766386D01*
X42714296Y16953111D01*
X42714333Y16975667D01*
X42701227Y17174279D01*
X42627280Y17255731D01*
X42440555Y17271963D01*
X42418000Y17272000D01*
X42219388Y17285107D01*
X42137936Y17359053D01*
X42121703Y17545778D01*
X42121666Y17568334D01*
X42134773Y17766945D01*
X42208719Y17848398D01*
X42395444Y17864630D01*
X42418000Y17864667D01*
X42616612Y17877773D01*
X42698064Y17951720D01*
X42714296Y18138445D01*
X42714333Y18161000D01*
X42701227Y18359612D01*
X42627280Y18441064D01*
X42440555Y18457297D01*
X42418000Y18457334D01*
X42219388Y18444227D01*
X42137936Y18370281D01*
X42121703Y18183556D01*
X42121666Y18161000D01*
X42121666Y17864667D01*
X40936333Y17864667D01*
X40936333Y18161000D01*
X40936333Y19642667D01*
X39751000Y19642667D01*
X39751000Y19939000D01*
X39751000Y20828000D01*
X39158333Y20828000D01*
X39158333Y22013334D01*
X38862000Y22013334D01*
X38663388Y22026440D01*
X38581936Y22100386D01*
X38565703Y22287111D01*
X38565666Y22309667D01*
X38578773Y22508279D01*
X38652719Y22589731D01*
X38839444Y22605963D01*
X38862000Y22606000D01*
X38862000Y23791334D01*
X38663388Y23804440D01*
X38581936Y23878386D01*
X38565703Y24065111D01*
X38565666Y24087667D01*
X38578773Y24286279D01*
X38652719Y24367731D01*
X38839444Y24383963D01*
X38862000Y24384000D01*
X39060612Y24370894D01*
X39142064Y24296947D01*
X39158296Y24110222D01*
X39158333Y24087667D01*
X39145227Y23889055D01*
X39071280Y23807603D01*
X38884555Y23791370D01*
X38862000Y23791334D01*
X38862000Y22606000D01*
X39060612Y22592894D01*
X39142064Y22518947D01*
X39158296Y22332222D01*
X39158333Y22309667D01*
X39171440Y22111055D01*
X39245386Y22029603D01*
X39432111Y22013370D01*
X39454666Y22013334D01*
X39751000Y22013334D01*
X39751000Y20828000D01*
X39751000Y19939000D01*
X39764106Y20137612D01*
X39838053Y20219064D01*
X40024778Y20235297D01*
X40047333Y20235334D01*
X40245945Y20248440D01*
X40327397Y20322386D01*
X40343630Y20509111D01*
X40343666Y20531667D01*
X40356773Y20730279D01*
X40430719Y20811731D01*
X40617444Y20827963D01*
X40640000Y20828000D01*
X40838612Y20841107D01*
X40920064Y20915053D01*
X40936296Y21101778D01*
X40936333Y21124334D01*
X40923227Y21322945D01*
X40849280Y21404398D01*
X40662555Y21420630D01*
X40640000Y21420667D01*
X40441388Y21433773D01*
X40359936Y21507720D01*
X40343703Y21694445D01*
X40343666Y21717000D01*
X40330560Y21915612D01*
X40256614Y21997064D01*
X40069889Y22013297D01*
X40047333Y22013334D01*
X39751000Y22013334D01*
X39751000Y23198667D01*
X40343666Y23198667D01*
X40343666Y22013334D01*
X40640000Y22013334D01*
X40838612Y22000227D01*
X40920064Y21926281D01*
X40936296Y21739556D01*
X40936333Y21717000D01*
X40949440Y21518388D01*
X41023386Y21436936D01*
X41210111Y21420704D01*
X41232666Y21420667D01*
X41431278Y21407560D01*
X41512731Y21333614D01*
X41528963Y21146889D01*
X41529000Y21124334D01*
X41515893Y20925722D01*
X41441947Y20844269D01*
X41255222Y20828037D01*
X41232666Y20828000D01*
X40936333Y20828000D01*
X40936333Y19642667D01*
X40936333Y18161000D01*
X40949440Y18359612D01*
X41023386Y18441064D01*
X41210111Y18457297D01*
X41232666Y18457334D01*
X41431278Y18470440D01*
X41512731Y18544386D01*
X41528963Y18731111D01*
X41529000Y18753667D01*
X41529000Y19050000D01*
X41825333Y19050000D01*
X41825333Y19642667D01*
X41626721Y19655773D01*
X41545269Y19729720D01*
X41529037Y19916445D01*
X41529000Y19939000D01*
X41542106Y20137612D01*
X41616053Y20219064D01*
X41802778Y20235297D01*
X41825333Y20235334D01*
X42023945Y20222227D01*
X42105397Y20148281D01*
X42121630Y19961556D01*
X42121666Y19939000D01*
X42108560Y19740388D01*
X42034614Y19658936D01*
X41847889Y19642704D01*
X41825333Y19642667D01*
X41825333Y19050000D01*
X43899666Y19050000D01*
X43899666Y19642667D01*
X42714333Y19642667D01*
X42714333Y20235334D01*
X43899666Y20235334D01*
X43899666Y20828000D01*
X42121666Y20828000D01*
X42121666Y21420667D01*
X43899666Y21420667D01*
X43899666Y21124334D01*
X43912773Y20925722D01*
X43986719Y20844269D01*
X44173444Y20828037D01*
X44196000Y20828000D01*
X44492333Y20828000D01*
X44492333Y22013334D01*
X43307000Y22013334D01*
X43307000Y22606000D01*
X44492333Y22606000D01*
X44492333Y22309667D01*
X44505440Y22111055D01*
X44579386Y22029603D01*
X44766111Y22013370D01*
X44788666Y22013334D01*
X45085000Y22013334D01*
X45085000Y20828000D01*
X44788666Y20828000D01*
X44590055Y20814894D01*
X44508602Y20740947D01*
X44492370Y20554222D01*
X44492333Y20531667D01*
X44479227Y20333055D01*
X44405280Y20251603D01*
X44218555Y20235370D01*
X44196000Y20235334D01*
X43997388Y20222227D01*
X43915936Y20148281D01*
X43899703Y19961556D01*
X43899666Y19939000D01*
X43899666Y19642667D01*
X43899666Y19050000D01*
X44492333Y19050000D01*
X44492333Y19346334D01*
X44505440Y19544945D01*
X44579386Y19626398D01*
X44766111Y19642630D01*
X44788666Y19642667D01*
X45085000Y19642667D01*
X45085000Y18457334D01*
X44788666Y18457334D01*
X44590055Y18444227D01*
X44508602Y18370281D01*
X44492370Y18183556D01*
X44492333Y18161000D01*
X44492333Y17864667D01*
X46270333Y17864667D01*
X46270333Y18161000D01*
X46270333Y19642667D01*
X45085000Y19642667D01*
X45085000Y19939000D01*
X45098106Y20137612D01*
X45172053Y20219064D01*
X45358778Y20235297D01*
X45381333Y20235334D01*
X45579945Y20248440D01*
X45661397Y20322386D01*
X45677630Y20509111D01*
X45677666Y20531667D01*
X45690773Y20730279D01*
X45764719Y20811731D01*
X45951444Y20827963D01*
X45974000Y20828000D01*
X46172612Y20841107D01*
X46254064Y20915053D01*
X46270296Y21101778D01*
X46270333Y21124334D01*
X46283440Y21322945D01*
X46357386Y21404398D01*
X46544111Y21420630D01*
X46566666Y21420667D01*
X46765278Y21407560D01*
X46846731Y21333614D01*
X46862963Y21146889D01*
X46863000Y21124334D01*
X46849893Y20925722D01*
X46775947Y20844269D01*
X46589222Y20828037D01*
X46566666Y20828000D01*
X46270333Y20828000D01*
X46270333Y19642667D01*
X46270333Y18161000D01*
X46283440Y18359612D01*
X46357386Y18441064D01*
X46544111Y18457297D01*
X46566666Y18457334D01*
X46765278Y18444227D01*
X46846731Y18370281D01*
X46862963Y18183556D01*
X46863000Y18161000D01*
X46876106Y17962388D01*
X46950053Y17880936D01*
X47136778Y17864704D01*
X47159333Y17864667D01*
X47357945Y17877773D01*
X47439397Y17951720D01*
X47455630Y18138445D01*
X47455666Y18161000D01*
X47442560Y18359612D01*
X47368614Y18441064D01*
X47181889Y18457297D01*
X47159333Y18457334D01*
X46960721Y18470440D01*
X46879269Y18544386D01*
X46863037Y18731111D01*
X46863000Y18753667D01*
X46876106Y18952279D01*
X46950053Y19033731D01*
X47136778Y19049963D01*
X47159333Y19050000D01*
X47357945Y19063107D01*
X47439397Y19137053D01*
X47455630Y19323778D01*
X47455666Y19346334D01*
X47442560Y19544945D01*
X47368614Y19626398D01*
X47181889Y19642630D01*
X47159333Y19642667D01*
X46960721Y19655773D01*
X46879269Y19729720D01*
X46863037Y19916445D01*
X46863000Y19939000D01*
X46876106Y20137612D01*
X46950053Y20219064D01*
X47136778Y20235297D01*
X47159333Y20235334D01*
X47455666Y20235334D01*
X47455666Y21420667D01*
X47159333Y21420667D01*
X46960721Y21433773D01*
X46879269Y21507720D01*
X46863037Y21694445D01*
X46863000Y21717000D01*
X46849893Y21915612D01*
X46775947Y21997064D01*
X46589222Y22013297D01*
X46566666Y22013334D01*
X46368055Y22026440D01*
X46286602Y22100386D01*
X46270370Y22287111D01*
X46270333Y22309667D01*
X46270333Y22606000D01*
X45085000Y22606000D01*
G37*
X45085000Y22606000D02*
X45085000Y23198667D01*
X42714333Y23198667D01*
X42714333Y23495000D01*
X42701227Y23693612D01*
X42627280Y23775064D01*
X42440555Y23791297D01*
X42418000Y23791334D01*
X42121666Y23791334D01*
X42121666Y21420667D01*
X41825333Y21420667D01*
X41626721Y21433773D01*
X41545269Y21507720D01*
X41529037Y21694445D01*
X41529000Y21717000D01*
X41515893Y21915612D01*
X41441947Y21997064D01*
X41255222Y22013297D01*
X41232666Y22013334D01*
X41034055Y22026440D01*
X40952602Y22100386D01*
X40936370Y22287111D01*
X40936333Y22309667D01*
X40949440Y22508279D01*
X41023386Y22589731D01*
X41210111Y22605963D01*
X41232666Y22606000D01*
X41431278Y22619107D01*
X41512731Y22693053D01*
X41528963Y22879778D01*
X41529000Y22902334D01*
X41515893Y23100945D01*
X41441947Y23182398D01*
X41255222Y23198630D01*
X41232666Y23198667D01*
X41034055Y23211773D01*
X40952602Y23285720D01*
X40936370Y23472445D01*
X40936333Y23495000D01*
X40923227Y23693612D01*
X40849280Y23775064D01*
X40662555Y23791297D01*
X40640000Y23791334D01*
X40441388Y23804440D01*
X40359936Y23878386D01*
X40343703Y24065111D01*
X40343666Y24087667D01*
X40356773Y24286279D01*
X40430719Y24367731D01*
X40617444Y24383963D01*
X40640000Y24384000D01*
X40838612Y24397107D01*
X40920064Y24471053D01*
X40936296Y24657778D01*
X40936333Y24680334D01*
X40923227Y24878945D01*
X40849280Y24960398D01*
X40662555Y24976630D01*
X40640000Y24976667D01*
X40441388Y24989773D01*
X40359936Y25063720D01*
X40343703Y25250445D01*
X40343666Y25273000D01*
X40356773Y25471612D01*
X40430719Y25553064D01*
X40617444Y25569297D01*
X40640000Y25569334D01*
X40936333Y25569334D01*
X40936333Y26754667D01*
X40343666Y26754667D01*
X40343666Y27940000D01*
X39158333Y27940000D01*
X39158333Y27643667D01*
X39145227Y27445055D01*
X39071280Y27363603D01*
X38884555Y27347370D01*
X38862000Y27347334D01*
X38663388Y27360440D01*
X38581936Y27434386D01*
X38565703Y27621111D01*
X38565666Y27643667D01*
X38565666Y27940000D01*
X36195000Y27940000D01*
X36195000Y25569334D01*
X34417000Y25569334D01*
X34417000Y25865667D01*
X34430106Y26064279D01*
X34504053Y26145731D01*
X34690778Y26161963D01*
X34713333Y26162000D01*
X35009666Y26162000D01*
X35009666Y27347334D01*
X35306000Y27347334D01*
X35504612Y27360440D01*
X35586064Y27434386D01*
X35602296Y27621111D01*
X35602333Y27643667D01*
X35602333Y27940000D01*
X34417000Y27940000D01*
X34417000Y27643667D01*
X34403893Y27445055D01*
X34329947Y27363603D01*
X34143222Y27347370D01*
X34120666Y27347334D01*
X33922055Y27334227D01*
X33840602Y27260281D01*
X33824370Y27073556D01*
X33824333Y27051000D01*
X33811227Y26852388D01*
X33737280Y26770936D01*
X33550555Y26754704D01*
X33528000Y26754667D01*
X33231666Y26754667D01*
X33231666Y27940000D01*
X32639000Y27940000D01*
X32639000Y23198667D01*
X33528000Y23198667D01*
X33528000Y24384000D01*
X33329388Y24397107D01*
X33247936Y24471053D01*
X33231703Y24657778D01*
X33231666Y24680334D01*
X33244773Y24878945D01*
X33318719Y24960398D01*
X33505444Y24976630D01*
X33528000Y24976667D01*
X33528000Y25569334D01*
X33329388Y25582440D01*
X33247936Y25656386D01*
X33231703Y25843111D01*
X33231666Y25865667D01*
X33244773Y26064279D01*
X33318719Y26145731D01*
X33505444Y26161963D01*
X33528000Y26162000D01*
X33726612Y26148894D01*
X33808064Y26074947D01*
X33824296Y25888222D01*
X33824333Y25865667D01*
X33811227Y25667055D01*
X33737280Y25585603D01*
X33550555Y25569370D01*
X33528000Y25569334D01*
X33528000Y24976667D01*
X33726612Y24963560D01*
X33808064Y24889614D01*
X33824296Y24702889D01*
X33824333Y24680334D01*
X33811227Y24481722D01*
X33737280Y24400269D01*
X33550555Y24384037D01*
X33528000Y24384000D01*
X33528000Y23198667D01*
X34417000Y23198667D01*
X34417000Y23495000D01*
X34430106Y23693612D01*
X34504053Y23775064D01*
X34690778Y23791297D01*
X34713333Y23791334D01*
X34713333Y24384000D01*
X34514721Y24397107D01*
X34433269Y24471053D01*
X34417037Y24657778D01*
X34417000Y24680334D01*
X34430106Y24878945D01*
X34504053Y24960398D01*
X34690778Y24976630D01*
X34713333Y24976667D01*
X34911945Y24963560D01*
X34993397Y24889614D01*
X35009630Y24702889D01*
X35009666Y24680334D01*
X34996560Y24481722D01*
X34922614Y24400269D01*
X34735889Y24384037D01*
X34713333Y24384000D01*
X34713333Y23791334D01*
X35009666Y23791334D01*
X35009666Y22606000D01*
X34713333Y22606000D01*
X34514721Y22592894D01*
X34433269Y22518947D01*
X34417037Y22332222D01*
X34417000Y22309667D01*
X34430106Y22111055D01*
X34504053Y22029603D01*
X34690778Y22013370D01*
X34713333Y22013334D01*
X34911945Y22026440D01*
X34993397Y22100386D01*
X35009630Y22287111D01*
X35009666Y22309667D01*
X35022773Y22508279D01*
X35096719Y22589731D01*
X35283444Y22605963D01*
X35306000Y22606000D01*
X35602333Y22606000D01*
X35602333Y21420667D01*
X35898666Y21420667D01*
X36097278Y21407560D01*
X36178731Y21333614D01*
X36194963Y21146889D01*
X36195000Y21124334D01*
X36181893Y20925722D01*
X36107947Y20844269D01*
X35921222Y20828037D01*
X35898666Y20828000D01*
X35700055Y20814894D01*
X35618602Y20740947D01*
X35602370Y20554222D01*
X35602333Y20531667D01*
X35602333Y20235334D01*
X35898666Y20235334D01*
X36097278Y20248440D01*
X36178731Y20322386D01*
X36194963Y20509111D01*
X36195000Y20531667D01*
X36195000Y20828000D01*
X37973000Y20828000D01*
X37973000Y21124334D01*
X37973000Y21420667D01*
X36195000Y21420667D01*
X36195000Y22606000D01*
X37380333Y22606000D01*
X37380333Y23198667D01*
X35602333Y23198667D01*
X35602333Y24976667D01*
X37380333Y24976667D01*
X37380333Y25569334D01*
X36787666Y25569334D01*
X36787666Y27347334D01*
X37380333Y27347334D01*
X37380333Y25569334D01*
X37380333Y24976667D01*
X37380333Y23198667D01*
X37380333Y22606000D01*
X37973000Y22606000D01*
X37973000Y21420667D01*
X37973000Y21124334D01*
X37986106Y21322945D01*
X38060053Y21404398D01*
X38246778Y21420630D01*
X38269333Y21420667D01*
X38269333Y24976667D01*
X38070721Y24989773D01*
X37989269Y25063720D01*
X37973037Y25250445D01*
X37973000Y25273000D01*
X37986106Y25471612D01*
X38060053Y25553064D01*
X38246778Y25569297D01*
X38269333Y25569334D01*
X38467945Y25582440D01*
X38549397Y25656386D01*
X38565630Y25843111D01*
X38565666Y25865667D01*
X38552560Y26064279D01*
X38478614Y26145731D01*
X38291889Y26161963D01*
X38269333Y26162000D01*
X37973000Y26162000D01*
X37973000Y27347334D01*
X38565666Y27347334D01*
X38565666Y26162000D01*
X39158333Y26162000D01*
X39158333Y27347334D01*
X39751000Y27347334D01*
X39751000Y26162000D01*
X40047333Y26162000D01*
X40245945Y26148894D01*
X40327397Y26074947D01*
X40343630Y25888222D01*
X40343666Y25865667D01*
X40343666Y25569334D01*
X38565666Y25569334D01*
X38565666Y25273000D01*
X38552560Y25074388D01*
X38478614Y24992936D01*
X38291889Y24976704D01*
X38269333Y24976667D01*
X38269333Y21420667D01*
X38467945Y21407560D01*
X38549397Y21333614D01*
X38565630Y21146889D01*
X38565666Y21124334D01*
X38578773Y20925722D01*
X38652719Y20844269D01*
X38839444Y20828037D01*
X38862000Y20828000D01*
X39060612Y20814894D01*
X39142064Y20740947D01*
X39158296Y20554222D01*
X39158333Y20531667D01*
X39158333Y20235334D01*
X37973000Y20235334D01*
X37973000Y19939000D01*
X37959893Y19740388D01*
X37885947Y19658936D01*
X37699222Y19642704D01*
X37676666Y19642667D01*
X37380333Y19642667D01*
X37380333Y18457334D01*
X36787666Y18457334D01*
X36787666Y19642667D01*
X36195000Y19642667D01*
X36195000Y18457334D01*
X36491333Y18457334D01*
X36689945Y18444227D01*
X36771397Y18370281D01*
X36787630Y18183556D01*
X36787666Y18161000D01*
X36800773Y17962388D01*
X36874719Y17880936D01*
X37061444Y17864704D01*
X37084000Y17864667D01*
X37380333Y17864667D01*
X37380333Y16679334D01*
X37973000Y16679334D01*
X37973000Y19050000D01*
X38269333Y19050000D01*
X38467945Y19036894D01*
X38549397Y18962947D01*
X38565630Y18776222D01*
X38565666Y18753667D01*
X38578773Y18555055D01*
X38652719Y18473603D01*
X38839444Y18457370D01*
X38862000Y18457334D01*
X39158333Y18457334D01*
X39158333Y19642667D01*
X39751000Y19642667D01*
X39751000Y17864667D01*
X38565666Y17864667D01*
X38565666Y16679334D01*
X38862000Y16679334D01*
X39060612Y16692440D01*
X39142064Y16766386D01*
X39158296Y16953111D01*
X39158333Y16975667D01*
X39171440Y17174279D01*
X39245386Y17255731D01*
X39432111Y17271963D01*
X39454666Y17272000D01*
X39751000Y17272000D01*
X39751000Y16086667D01*
X40936333Y16086667D01*
X40936333Y16383000D01*
X40936333Y16679334D01*
X40640000Y16679334D01*
X40441388Y16692440D01*
X40359936Y16766386D01*
X40343703Y16953111D01*
X40343666Y16975667D01*
X40330560Y17174279D01*
X40256614Y17255731D01*
X40069889Y17271963D01*
X40047333Y17272000D01*
X39848721Y17285107D01*
X39767269Y17359053D01*
X39751037Y17545778D01*
X39751000Y17568334D01*
X39751000Y17864667D01*
X40936333Y17864667D01*
X40936333Y16679334D01*
X40936333Y16383000D01*
X40949440Y16581612D01*
X41023386Y16663064D01*
X41210111Y16679297D01*
X41232666Y16679334D01*
X41431278Y16692440D01*
X41512731Y16766386D01*
X41528963Y16953111D01*
X41529000Y16975667D01*
X41542106Y17174279D01*
X41616053Y17255731D01*
X41802778Y17271963D01*
X41825333Y17272000D01*
X42023945Y17258894D01*
X42105397Y17184947D01*
X42121630Y16998222D01*
X42121666Y16975667D01*
X42134773Y16777055D01*
X42208719Y16695603D01*
X42395444Y16679370D01*
X42418000Y16679334D01*
X42616612Y16692440D01*
X42698064Y16766386D01*
X42714296Y16953111D01*
X42714333Y16975667D01*
X42701227Y17174279D01*
X42627280Y17255731D01*
X42440555Y17271963D01*
X42418000Y17272000D01*
X42219388Y17285107D01*
X42137936Y17359053D01*
X42121703Y17545778D01*
X42121666Y17568334D01*
X42134773Y17766945D01*
X42208719Y17848398D01*
X42395444Y17864630D01*
X42418000Y17864667D01*
X42616612Y17877773D01*
X42698064Y17951720D01*
X42714296Y18138445D01*
X42714333Y18161000D01*
X42701227Y18359612D01*
X42627280Y18441064D01*
X42440555Y18457297D01*
X42418000Y18457334D01*
X42219388Y18444227D01*
X42137936Y18370281D01*
X42121703Y18183556D01*
X42121666Y18161000D01*
X42121666Y17864667D01*
X40936333Y17864667D01*
X40936333Y18161000D01*
X40936333Y19642667D01*
X39751000Y19642667D01*
X39751000Y19939000D01*
X39751000Y20828000D01*
X39158333Y20828000D01*
X39158333Y22013334D01*
X38862000Y22013334D01*
X38663388Y22026440D01*
X38581936Y22100386D01*
X38565703Y22287111D01*
X38565666Y22309667D01*
X38578773Y22508279D01*
X38652719Y22589731D01*
X38839444Y22605963D01*
X38862000Y22606000D01*
X38862000Y23791334D01*
X38663388Y23804440D01*
X38581936Y23878386D01*
X38565703Y24065111D01*
X38565666Y24087667D01*
X38578773Y24286279D01*
X38652719Y24367731D01*
X38839444Y24383963D01*
X38862000Y24384000D01*
X39060612Y24370894D01*
X39142064Y24296947D01*
X39158296Y24110222D01*
X39158333Y24087667D01*
X39145227Y23889055D01*
X39071280Y23807603D01*
X38884555Y23791370D01*
X38862000Y23791334D01*
X38862000Y22606000D01*
X39060612Y22592894D01*
X39142064Y22518947D01*
X39158296Y22332222D01*
X39158333Y22309667D01*
X39171440Y22111055D01*
X39245386Y22029603D01*
X39432111Y22013370D01*
X39454666Y22013334D01*
X39751000Y22013334D01*
X39751000Y20828000D01*
X39751000Y19939000D01*
X39764106Y20137612D01*
X39838053Y20219064D01*
X40024778Y20235297D01*
X40047333Y20235334D01*
X40245945Y20248440D01*
X40327397Y20322386D01*
X40343630Y20509111D01*
X40343666Y20531667D01*
X40356773Y20730279D01*
X40430719Y20811731D01*
X40617444Y20827963D01*
X40640000Y20828000D01*
X40838612Y20841107D01*
X40920064Y20915053D01*
X40936296Y21101778D01*
X40936333Y21124334D01*
X40923227Y21322945D01*
X40849280Y21404398D01*
X40662555Y21420630D01*
X40640000Y21420667D01*
X40441388Y21433773D01*
X40359936Y21507720D01*
X40343703Y21694445D01*
X40343666Y21717000D01*
X40330560Y21915612D01*
X40256614Y21997064D01*
X40069889Y22013297D01*
X40047333Y22013334D01*
X39751000Y22013334D01*
X39751000Y23198667D01*
X40343666Y23198667D01*
X40343666Y22013334D01*
X40640000Y22013334D01*
X40838612Y22000227D01*
X40920064Y21926281D01*
X40936296Y21739556D01*
X40936333Y21717000D01*
X40949440Y21518388D01*
X41023386Y21436936D01*
X41210111Y21420704D01*
X41232666Y21420667D01*
X41431278Y21407560D01*
X41512731Y21333614D01*
X41528963Y21146889D01*
X41529000Y21124334D01*
X41515893Y20925722D01*
X41441947Y20844269D01*
X41255222Y20828037D01*
X41232666Y20828000D01*
X40936333Y20828000D01*
X40936333Y19642667D01*
X40936333Y18161000D01*
X40949440Y18359612D01*
X41023386Y18441064D01*
X41210111Y18457297D01*
X41232666Y18457334D01*
X41431278Y18470440D01*
X41512731Y18544386D01*
X41528963Y18731111D01*
X41529000Y18753667D01*
X41529000Y19050000D01*
X41825333Y19050000D01*
X41825333Y19642667D01*
X41626721Y19655773D01*
X41545269Y19729720D01*
X41529037Y19916445D01*
X41529000Y19939000D01*
X41542106Y20137612D01*
X41616053Y20219064D01*
X41802778Y20235297D01*
X41825333Y20235334D01*
X42023945Y20222227D01*
X42105397Y20148281D01*
X42121630Y19961556D01*
X42121666Y19939000D01*
X42108560Y19740388D01*
X42034614Y19658936D01*
X41847889Y19642704D01*
X41825333Y19642667D01*
X41825333Y19050000D01*
X43899666Y19050000D01*
X43899666Y19642667D01*
X42714333Y19642667D01*
X42714333Y20235334D01*
X43899666Y20235334D01*
X43899666Y20828000D01*
X42121666Y20828000D01*
X42121666Y21420667D01*
X43899666Y21420667D01*
X43899666Y21124334D01*
X43912773Y20925722D01*
X43986719Y20844269D01*
X44173444Y20828037D01*
X44196000Y20828000D01*
X44492333Y20828000D01*
X44492333Y22013334D01*
X43307000Y22013334D01*
X43307000Y22606000D01*
X44492333Y22606000D01*
X44492333Y22309667D01*
X44505440Y22111055D01*
X44579386Y22029603D01*
X44766111Y22013370D01*
X44788666Y22013334D01*
X45085000Y22013334D01*
X45085000Y20828000D01*
X44788666Y20828000D01*
X44590055Y20814894D01*
X44508602Y20740947D01*
X44492370Y20554222D01*
X44492333Y20531667D01*
X44479227Y20333055D01*
X44405280Y20251603D01*
X44218555Y20235370D01*
X44196000Y20235334D01*
X43997388Y20222227D01*
X43915936Y20148281D01*
X43899703Y19961556D01*
X43899666Y19939000D01*
X43899666Y19642667D01*
X43899666Y19050000D01*
X44492333Y19050000D01*
X44492333Y19346334D01*
X44505440Y19544945D01*
X44579386Y19626398D01*
X44766111Y19642630D01*
X44788666Y19642667D01*
X45085000Y19642667D01*
X45085000Y18457334D01*
X44788666Y18457334D01*
X44590055Y18444227D01*
X44508602Y18370281D01*
X44492370Y18183556D01*
X44492333Y18161000D01*
X44492333Y17864667D01*
X46270333Y17864667D01*
X46270333Y18161000D01*
X46270333Y19642667D01*
X45085000Y19642667D01*
X45085000Y19939000D01*
X45098106Y20137612D01*
X45172053Y20219064D01*
X45358778Y20235297D01*
X45381333Y20235334D01*
X45579945Y20248440D01*
X45661397Y20322386D01*
X45677630Y20509111D01*
X45677666Y20531667D01*
X45690773Y20730279D01*
X45764719Y20811731D01*
X45951444Y20827963D01*
X45974000Y20828000D01*
X46172612Y20841107D01*
X46254064Y20915053D01*
X46270296Y21101778D01*
X46270333Y21124334D01*
X46283440Y21322945D01*
X46357386Y21404398D01*
X46544111Y21420630D01*
X46566666Y21420667D01*
X46765278Y21407560D01*
X46846731Y21333614D01*
X46862963Y21146889D01*
X46863000Y21124334D01*
X46849893Y20925722D01*
X46775947Y20844269D01*
X46589222Y20828037D01*
X46566666Y20828000D01*
X46270333Y20828000D01*
X46270333Y19642667D01*
X46270333Y18161000D01*
X46283440Y18359612D01*
X46357386Y18441064D01*
X46544111Y18457297D01*
X46566666Y18457334D01*
X46765278Y18444227D01*
X46846731Y18370281D01*
X46862963Y18183556D01*
X46863000Y18161000D01*
X46876106Y17962388D01*
X46950053Y17880936D01*
X47136778Y17864704D01*
X47159333Y17864667D01*
X47357945Y17877773D01*
X47439397Y17951720D01*
X47455630Y18138445D01*
X47455666Y18161000D01*
X47442560Y18359612D01*
X47368614Y18441064D01*
X47181889Y18457297D01*
X47159333Y18457334D01*
X46960721Y18470440D01*
X46879269Y18544386D01*
X46863037Y18731111D01*
X46863000Y18753667D01*
X46876106Y18952279D01*
X46950053Y19033731D01*
X47136778Y19049963D01*
X47159333Y19050000D01*
X47357945Y19063107D01*
X47439397Y19137053D01*
X47455630Y19323778D01*
X47455666Y19346334D01*
X47442560Y19544945D01*
X47368614Y19626398D01*
X47181889Y19642630D01*
X47159333Y19642667D01*
X46960721Y19655773D01*
X46879269Y19729720D01*
X46863037Y19916445D01*
X46863000Y19939000D01*
X46876106Y20137612D01*
X46950053Y20219064D01*
X47136778Y20235297D01*
X47159333Y20235334D01*
X47455666Y20235334D01*
X47455666Y21420667D01*
X47159333Y21420667D01*
X46960721Y21433773D01*
X46879269Y21507720D01*
X46863037Y21694445D01*
X46863000Y21717000D01*
X46849893Y21915612D01*
X46775947Y21997064D01*
X46589222Y22013297D01*
X46566666Y22013334D01*
X46368055Y22026440D01*
X46286602Y22100386D01*
X46270370Y22287111D01*
X46270333Y22309667D01*
X46270333Y22606000D01*
X45085000Y22606000D01*
G36*
X40936333Y15494000D02*
G01*
X40936333Y14901334D01*
X39158333Y14901334D01*
X39158333Y16086667D01*
X37380333Y16086667D01*
X37380333Y14308667D01*
X38565666Y14308667D01*
X38565666Y14012334D01*
X38552560Y13813722D01*
X38478614Y13732269D01*
X38291889Y13716037D01*
X38269333Y13716000D01*
X38070721Y13702894D01*
X37989269Y13628947D01*
X37973037Y13442222D01*
X37973000Y13419667D01*
X37986106Y13221055D01*
X38060053Y13139603D01*
X38246778Y13123370D01*
X38269333Y13123334D01*
X38467945Y13136440D01*
X38549397Y13210386D01*
X38565630Y13397111D01*
X38565666Y13419667D01*
X38578773Y13618279D01*
X38652719Y13699731D01*
X38839444Y13715963D01*
X38862000Y13716000D01*
X38862000Y14308667D01*
X38663388Y14321773D01*
X38581936Y14395720D01*
X38565703Y14582445D01*
X38565666Y14605000D01*
X38578773Y14803612D01*
X38652719Y14885064D01*
X38839444Y14901297D01*
X38862000Y14901334D01*
X39060612Y14888227D01*
X39142064Y14814281D01*
X39158296Y14627556D01*
X39158333Y14605000D01*
X39145227Y14406388D01*
X39071280Y14324936D01*
X38884555Y14308704D01*
X38862000Y14308667D01*
X38862000Y13716000D01*
X39060612Y13729107D01*
X39142064Y13803053D01*
X39158296Y13989778D01*
X39158333Y14012334D01*
X39158333Y14308667D01*
X40343666Y14308667D01*
X40343666Y13123334D01*
X40640000Y13123334D01*
X40838612Y13136440D01*
X40920064Y13210386D01*
X40936296Y13397111D01*
X40936333Y13419667D01*
X40949440Y13618279D01*
X41023386Y13699731D01*
X41210111Y13715963D01*
X41232666Y13716000D01*
X41431278Y13702894D01*
X41512731Y13628947D01*
X41528963Y13442222D01*
X41529000Y13419667D01*
X41529000Y13123334D01*
X41825333Y13123334D01*
X41825333Y14308667D01*
X41626721Y14321773D01*
X41545269Y14395720D01*
X41529037Y14582445D01*
X41529000Y14605000D01*
X41542106Y14803612D01*
X41616053Y14885064D01*
X41802778Y14901297D01*
X41825333Y14901334D01*
X42023945Y14888227D01*
X42105397Y14814281D01*
X42121630Y14627556D01*
X42121666Y14605000D01*
X42108560Y14406388D01*
X42034614Y14324936D01*
X41847889Y14308704D01*
X41825333Y14308667D01*
X41825333Y13123334D01*
X42714333Y13123334D01*
X42714333Y15494000D01*
X40936333Y15494000D01*
G37*
X40936333Y15494000D02*
X40936333Y14901334D01*
X39158333Y14901334D01*
X39158333Y16086667D01*
X37380333Y16086667D01*
X37380333Y14308667D01*
X38565666Y14308667D01*
X38565666Y14012334D01*
X38552560Y13813722D01*
X38478614Y13732269D01*
X38291889Y13716037D01*
X38269333Y13716000D01*
X38070721Y13702894D01*
X37989269Y13628947D01*
X37973037Y13442222D01*
X37973000Y13419667D01*
X37986106Y13221055D01*
X38060053Y13139603D01*
X38246778Y13123370D01*
X38269333Y13123334D01*
X38467945Y13136440D01*
X38549397Y13210386D01*
X38565630Y13397111D01*
X38565666Y13419667D01*
X38578773Y13618279D01*
X38652719Y13699731D01*
X38839444Y13715963D01*
X38862000Y13716000D01*
X38862000Y14308667D01*
X38663388Y14321773D01*
X38581936Y14395720D01*
X38565703Y14582445D01*
X38565666Y14605000D01*
X38578773Y14803612D01*
X38652719Y14885064D01*
X38839444Y14901297D01*
X38862000Y14901334D01*
X39060612Y14888227D01*
X39142064Y14814281D01*
X39158296Y14627556D01*
X39158333Y14605000D01*
X39145227Y14406388D01*
X39071280Y14324936D01*
X38884555Y14308704D01*
X38862000Y14308667D01*
X38862000Y13716000D01*
X39060612Y13729107D01*
X39142064Y13803053D01*
X39158296Y13989778D01*
X39158333Y14012334D01*
X39158333Y14308667D01*
X40343666Y14308667D01*
X40343666Y13123334D01*
X40640000Y13123334D01*
X40838612Y13136440D01*
X40920064Y13210386D01*
X40936296Y13397111D01*
X40936333Y13419667D01*
X40949440Y13618279D01*
X41023386Y13699731D01*
X41210111Y13715963D01*
X41232666Y13716000D01*
X41431278Y13702894D01*
X41512731Y13628947D01*
X41528963Y13442222D01*
X41529000Y13419667D01*
X41529000Y13123334D01*
X41825333Y13123334D01*
X41825333Y14308667D01*
X41626721Y14321773D01*
X41545269Y14395720D01*
X41529037Y14582445D01*
X41529000Y14605000D01*
X41542106Y14803612D01*
X41616053Y14885064D01*
X41802778Y14901297D01*
X41825333Y14901334D01*
X42023945Y14888227D01*
X42105397Y14814281D01*
X42121630Y14627556D01*
X42121666Y14605000D01*
X42108560Y14406388D01*
X42034614Y14324936D01*
X41847889Y14308704D01*
X41825333Y14308667D01*
X41825333Y13123334D01*
X42714333Y13123334D01*
X42714333Y15494000D01*
X40936333Y15494000D01*
G36*
X42418000Y26754667D02*
G01*
X42219388Y26767773D01*
X42137936Y26841720D01*
X42121703Y27028445D01*
X42121666Y27051000D01*
X42134773Y27249612D01*
X42208719Y27331064D01*
X42395444Y27347297D01*
X42418000Y27347334D01*
X42616612Y27360440D01*
X42698064Y27434386D01*
X42714296Y27621111D01*
X42714333Y27643667D01*
X42701227Y27842279D01*
X42627280Y27923731D01*
X42440555Y27939963D01*
X42418000Y27940000D01*
X42219388Y27926894D01*
X42137936Y27852947D01*
X42121703Y27666222D01*
X42121666Y27643667D01*
X42108560Y27445055D01*
X42034614Y27363603D01*
X41847889Y27347370D01*
X41825333Y27347334D01*
X41626721Y27334227D01*
X41545269Y27260281D01*
X41529037Y27073556D01*
X41529000Y27051000D01*
X41542106Y26852388D01*
X41616053Y26770936D01*
X41802778Y26754704D01*
X41825333Y26754667D01*
X42121666Y26754667D01*
X42121666Y24976667D01*
X41825333Y24976667D01*
X41626721Y24963560D01*
X41545269Y24889614D01*
X41529037Y24702889D01*
X41529000Y24680334D01*
X41542106Y24481722D01*
X41616053Y24400269D01*
X41802778Y24384037D01*
X41825333Y24384000D01*
X42023945Y24397107D01*
X42105397Y24471053D01*
X42121630Y24657778D01*
X42121666Y24680334D01*
X42134773Y24878945D01*
X42208719Y24960398D01*
X42395444Y24976630D01*
X42418000Y24976667D01*
X42714333Y24976667D01*
X42714333Y26754667D01*
X42418000Y26754667D01*
G37*
X42418000Y26754667D02*
X42219388Y26767773D01*
X42137936Y26841720D01*
X42121703Y27028445D01*
X42121666Y27051000D01*
X42134773Y27249612D01*
X42208719Y27331064D01*
X42395444Y27347297D01*
X42418000Y27347334D01*
X42616612Y27360440D01*
X42698064Y27434386D01*
X42714296Y27621111D01*
X42714333Y27643667D01*
X42701227Y27842279D01*
X42627280Y27923731D01*
X42440555Y27939963D01*
X42418000Y27940000D01*
X42219388Y27926894D01*
X42137936Y27852947D01*
X42121703Y27666222D01*
X42121666Y27643667D01*
X42108560Y27445055D01*
X42034614Y27363603D01*
X41847889Y27347370D01*
X41825333Y27347334D01*
X41626721Y27334227D01*
X41545269Y27260281D01*
X41529037Y27073556D01*
X41529000Y27051000D01*
X41542106Y26852388D01*
X41616053Y26770936D01*
X41802778Y26754704D01*
X41825333Y26754667D01*
X42121666Y26754667D01*
X42121666Y24976667D01*
X41825333Y24976667D01*
X41626721Y24963560D01*
X41545269Y24889614D01*
X41529037Y24702889D01*
X41529000Y24680334D01*
X41542106Y24481722D01*
X41616053Y24400269D01*
X41802778Y24384037D01*
X41825333Y24384000D01*
X42023945Y24397107D01*
X42105397Y24471053D01*
X42121630Y24657778D01*
X42121666Y24680334D01*
X42134773Y24878945D01*
X42208719Y24960398D01*
X42395444Y24976630D01*
X42418000Y24976667D01*
X42714333Y24976667D01*
X42714333Y26754667D01*
X42418000Y26754667D01*
G36*
X43307000Y17272000D02*
G01*
X43307000Y13123334D01*
X46863000Y13123334D01*
X46863000Y13716000D01*
X43899666Y13716000D01*
X43899666Y16679334D01*
X46863000Y16679334D01*
X46863000Y13716000D01*
X46863000Y13123334D01*
X47455666Y13123334D01*
X47455666Y17272000D01*
X43307000Y17272000D01*
G37*
X43307000Y17272000D02*
X43307000Y13123334D01*
X46863000Y13123334D01*
X46863000Y13716000D01*
X43899666Y13716000D01*
X43899666Y16679334D01*
X46863000Y16679334D01*
X46863000Y13716000D01*
X46863000Y13123334D01*
X47455666Y13123334D01*
X47455666Y17272000D01*
X43307000Y17272000D01*
G36*
X43886560Y18359612D02*
G01*
X43812614Y18441064D01*
X43625889Y18457297D01*
X43603333Y18457334D01*
X43404721Y18444227D01*
X43323269Y18370281D01*
X43307037Y18183556D01*
X43307000Y18161000D01*
X43320106Y17962388D01*
X43394053Y17880936D01*
X43580778Y17864704D01*
X43603333Y17864667D01*
X43801945Y17877773D01*
X43883397Y17951720D01*
X43899630Y18138445D01*
X43899666Y18161000D01*
X43886560Y18359612D01*
G37*
X43886560Y18359612D02*
X43812614Y18441064D01*
X43625889Y18457297D01*
X43603333Y18457334D01*
X43404721Y18444227D01*
X43323269Y18370281D01*
X43307037Y18183556D01*
X43307000Y18161000D01*
X43320106Y17962388D01*
X43394053Y17880936D01*
X43580778Y17864704D01*
X43603333Y17864667D01*
X43801945Y17877773D01*
X43883397Y17951720D01*
X43899630Y18138445D01*
X43899666Y18161000D01*
X43886560Y18359612D01*
G36*
X43307000Y27940000D02*
G01*
X43307000Y23791334D01*
X46863000Y23791334D01*
X46863000Y24384000D01*
X43899666Y24384000D01*
X43899666Y27347334D01*
X46863000Y27347334D01*
X46863000Y24384000D01*
X46863000Y23791334D01*
X47455666Y23791334D01*
X47455666Y27940000D01*
X43307000Y27940000D01*
G37*
X43307000Y27940000D02*
X43307000Y23791334D01*
X46863000Y23791334D01*
X46863000Y24384000D01*
X43899666Y24384000D01*
X43899666Y27347334D01*
X46863000Y27347334D01*
X46863000Y24384000D01*
X46863000Y23791334D01*
X47455666Y23791334D01*
X47455666Y27940000D01*
X43307000Y27940000D01*
G36*
X33824333Y16086667D02*
G01*
X33824333Y14308667D01*
X35602333Y14308667D01*
X35602333Y16086667D01*
X33824333Y16086667D01*
G37*
X33824333Y16086667D02*
X33824333Y14308667D01*
X35602333Y14308667D01*
X35602333Y16086667D01*
X33824333Y16086667D01*
G36*
X36774560Y24286279D02*
G01*
X36700614Y24367731D01*
X36513889Y24383963D01*
X36491333Y24384000D01*
X36292721Y24370894D01*
X36211269Y24296947D01*
X36195037Y24110222D01*
X36195000Y24087667D01*
X36208106Y23889055D01*
X36282053Y23807603D01*
X36468778Y23791370D01*
X36491333Y23791334D01*
X36689945Y23804440D01*
X36771397Y23878386D01*
X36787630Y24065111D01*
X36787666Y24087667D01*
X36774560Y24286279D01*
G37*
X36774560Y24286279D02*
X36700614Y24367731D01*
X36513889Y24383963D01*
X36491333Y24384000D01*
X36292721Y24370894D01*
X36211269Y24296947D01*
X36195037Y24110222D01*
X36195000Y24087667D01*
X36208106Y23889055D01*
X36282053Y23807603D01*
X36468778Y23791370D01*
X36491333Y23791334D01*
X36689945Y23804440D01*
X36771397Y23878386D01*
X36787630Y24065111D01*
X36787666Y24087667D01*
X36774560Y24286279D01*
G36*
X44492333Y16086667D02*
G01*
X44492333Y14308667D01*
X46270333Y14308667D01*
X46270333Y16086667D01*
X44492333Y16086667D01*
G37*
X44492333Y16086667D02*
X44492333Y14308667D01*
X46270333Y14308667D01*
X46270333Y16086667D01*
X44492333Y16086667D01*
G36*
X44492333Y26754667D02*
G01*
X44492333Y24976667D01*
X46270333Y24976667D01*
X46270333Y26754667D01*
X44492333Y26754667D01*
G37*
X44492333Y26754667D02*
X44492333Y24976667D01*
X46270333Y24976667D01*
X46270333Y26754667D01*
X44492333Y26754667D01*
%TO.C,*%
G36*
X72922400Y8292946D02*
G01*
X72911535Y8179007D01*
X72879918Y8071384D01*
X72829015Y7972385D01*
X72760293Y7884316D01*
X72675219Y7809484D01*
X72578232Y7751616D01*
X72471964Y7711995D01*
X72364950Y7693427D01*
X72259300Y7694566D01*
X72157125Y7714070D01*
X72060534Y7750594D01*
X71971638Y7802795D01*
X71892546Y7869327D01*
X71825369Y7948848D01*
X71772217Y8040013D01*
X71735199Y8141477D01*
X71716427Y8251898D01*
X71714489Y8301794D01*
X71714489Y8389733D01*
X71662560Y8389733D01*
X71626253Y8386889D01*
X71599355Y8375089D01*
X71572249Y8351351D01*
X71533867Y8312969D01*
X71533867Y6121398D01*
X71533876Y5859261D01*
X71533908Y5618759D01*
X71533972Y5398952D01*
X71534076Y5198899D01*
X71534227Y5017656D01*
X71534434Y4854284D01*
X71534706Y4707840D01*
X71535050Y4577383D01*
X71535474Y4461971D01*
X71535987Y4360662D01*
X71536597Y4272516D01*
X71537312Y4196590D01*
X71538140Y4131943D01*
X71539089Y4077633D01*
X71540167Y4032720D01*
X71541383Y3996260D01*
X71542745Y3967313D01*
X71544261Y3944937D01*
X71545938Y3928191D01*
X71547786Y3916132D01*
X71549813Y3907820D01*
X71552025Y3902313D01*
X71553108Y3900463D01*
X71557271Y3893451D01*
X71560805Y3887004D01*
X71564635Y3881100D01*
X71569682Y3875714D01*
X71576871Y3870822D01*
X71587123Y3866402D01*
X71601364Y3862428D01*
X71620514Y3858879D01*
X71645499Y3855730D01*
X71677240Y3852958D01*
X71716662Y3850539D01*
X71764686Y3848449D01*
X71822237Y3846665D01*
X71890237Y3845163D01*
X71969610Y3843920D01*
X72061279Y3842911D01*
X72166166Y3842115D01*
X72285196Y3841506D01*
X72419290Y3841061D01*
X72569373Y3840757D01*
X72736367Y3840570D01*
X72921196Y3840476D01*
X73124783Y3840452D01*
X73348050Y3840475D01*
X73591922Y3840520D01*
X73857321Y3840563D01*
X73895704Y3840568D01*
X74162682Y3840611D01*
X74408002Y3840682D01*
X74632583Y3840787D01*
X74837345Y3840934D01*
X75023206Y3841131D01*
X75191088Y3841384D01*
X75341908Y3841700D01*
X75476587Y3842087D01*
X75596044Y3842553D01*
X75701199Y3843103D01*
X75792971Y3843747D01*
X75872279Y3844489D01*
X75940043Y3845339D01*
X75997182Y3846303D01*
X76044617Y3847389D01*
X76083266Y3848603D01*
X76114049Y3849953D01*
X76137885Y3851445D01*
X76155694Y3853089D01*
X76168395Y3854889D01*
X76176908Y3856855D01*
X76181266Y3858523D01*
X76189728Y3862094D01*
X76197497Y3864730D01*
X76204602Y3867366D01*
X76211073Y3870938D01*
X76216939Y3876379D01*
X76222229Y3884625D01*
X76226974Y3896610D01*
X76231202Y3913269D01*
X76234943Y3935537D01*
X76238227Y3964348D01*
X76241083Y4000637D01*
X76243540Y4045339D01*
X76245629Y4099389D01*
X76247378Y4163721D01*
X76248817Y4239270D01*
X76249976Y4326970D01*
X76250883Y4427757D01*
X76251569Y4542566D01*
X76252063Y4672330D01*
X76252395Y4817985D01*
X76252593Y4980465D01*
X76252687Y5160705D01*
X76252708Y5359640D01*
X76252685Y5578204D01*
X76252646Y5817332D01*
X76252622Y6077960D01*
X76252622Y6120111D01*
X76252636Y6383008D01*
X76252661Y6624268D01*
X76252671Y6844835D01*
X76252642Y7045648D01*
X76252548Y7227651D01*
X76252362Y7391784D01*
X76252059Y7538989D01*
X76251614Y7670208D01*
X76251034Y7780133D01*
X75948197Y7780133D01*
X75908407Y7722289D01*
X75897236Y7706521D01*
X75887166Y7692559D01*
X75878138Y7679216D01*
X75870097Y7665307D01*
X75862986Y7649644D01*
X75856747Y7631042D01*
X75851325Y7608314D01*
X75846662Y7580273D01*
X75842701Y7545733D01*
X75839385Y7503508D01*
X75836659Y7452411D01*
X75834464Y7391256D01*
X75832745Y7318856D01*
X75831444Y7234025D01*
X75830505Y7135578D01*
X75829870Y7022326D01*
X75829484Y6893084D01*
X75829288Y6746666D01*
X75829227Y6581884D01*
X75829243Y6397553D01*
X75829280Y6192487D01*
X75829289Y6069867D01*
X75829265Y5852918D01*
X75829231Y5657358D01*
X75829243Y5482001D01*
X75829358Y5325659D01*
X75829630Y5187143D01*
X75830118Y5065266D01*
X75830876Y4958840D01*
X75831962Y4866678D01*
X75833431Y4787591D01*
X75835340Y4720392D01*
X75837744Y4663893D01*
X75840701Y4616907D01*
X75844266Y4578245D01*
X75848495Y4546720D01*
X75853446Y4521145D01*
X75859173Y4500330D01*
X75865733Y4483089D01*
X75873183Y4468235D01*
X75881579Y4454578D01*
X75890976Y4440931D01*
X75901432Y4426107D01*
X75907523Y4417217D01*
X75946296Y4359600D01*
X75414732Y4359600D01*
X75291483Y4359635D01*
X75188987Y4359785D01*
X75105420Y4360122D01*
X75038956Y4360714D01*
X74987771Y4361633D01*
X74950041Y4362949D01*
X74923940Y4364731D01*
X74907644Y4367049D01*
X74899328Y4369974D01*
X74897168Y4373576D01*
X74899339Y4377925D01*
X74900535Y4379355D01*
X74925685Y4416427D01*
X74951583Y4469228D01*
X74975192Y4531230D01*
X74983461Y4557643D01*
X74988078Y4575584D01*
X74991979Y4596645D01*
X74995248Y4622911D01*
X74997966Y4656468D01*
X75000215Y4699401D01*
X75002077Y4753796D01*
X75003636Y4821738D01*
X75004972Y4905312D01*
X75006169Y5006605D01*
X75007308Y5127700D01*
X75007685Y5172400D01*
X75008702Y5297551D01*
X75009460Y5401918D01*
X75009903Y5487293D01*
X75009970Y5555467D01*
X75009605Y5608235D01*
X75008748Y5647386D01*
X75007341Y5674715D01*
X75005325Y5692014D01*
X75002643Y5701074D01*
X74999236Y5703688D01*
X74995044Y5701649D01*
X74990571Y5697333D01*
X74980216Y5684398D01*
X74958158Y5655324D01*
X74925957Y5612241D01*
X74885174Y5557282D01*
X74837370Y5492577D01*
X74784105Y5420258D01*
X74726940Y5342456D01*
X74667437Y5261302D01*
X74607155Y5178928D01*
X74547655Y5097464D01*
X74490498Y5019043D01*
X74437245Y4945796D01*
X74389457Y4879853D01*
X74348693Y4823346D01*
X74316516Y4778407D01*
X74294485Y4747166D01*
X74289917Y4740534D01*
X74266996Y4703631D01*
X74240188Y4655641D01*
X74214789Y4606103D01*
X74211568Y4599423D01*
X74189890Y4551228D01*
X74177304Y4513666D01*
X74171574Y4477840D01*
X74170456Y4435800D01*
X74171090Y4359600D01*
X73016651Y4359600D01*
X73107815Y4453331D01*
X73154612Y4503225D01*
X73204899Y4559705D01*
X73250944Y4613974D01*
X73271369Y4639327D01*
X73301807Y4678872D01*
X73341862Y4732084D01*
X73390361Y4797333D01*
X73446135Y4872989D01*
X73508011Y4957423D01*
X73574819Y5049006D01*
X73645387Y5146108D01*
X73718545Y5247099D01*
X73793121Y5350350D01*
X73867944Y5454232D01*
X73941843Y5557115D01*
X74013646Y5657369D01*
X74082184Y5753364D01*
X74146284Y5843473D01*
X74204775Y5926064D01*
X74256486Y5999508D01*
X74300247Y6062176D01*
X74334885Y6112439D01*
X74359230Y6148666D01*
X74372111Y6169229D01*
X74373869Y6173332D01*
X74365910Y6184658D01*
X74345115Y6211838D01*
X74312847Y6253171D01*
X74270470Y6306956D01*
X74219347Y6371494D01*
X74160841Y6445082D01*
X74096314Y6526022D01*
X74027131Y6612612D01*
X73954653Y6703152D01*
X73880246Y6795940D01*
X73820517Y6870298D01*
X72809511Y6870298D01*
X72803602Y6857341D01*
X72789272Y6835092D01*
X72788225Y6833609D01*
X72769438Y6803456D01*
X72749791Y6766625D01*
X72745892Y6758489D01*
X72742356Y6750060D01*
X72739230Y6739941D01*
X72736486Y6726740D01*
X72734092Y6709062D01*
X72732019Y6685516D01*
X72730235Y6654707D01*
X72728712Y6615243D01*
X72727419Y6565731D01*
X72726326Y6504777D01*
X72725403Y6430989D01*
X72724619Y6342972D01*
X72723945Y6239335D01*
X72723350Y6118684D01*
X72722805Y5979626D01*
X72722279Y5820768D01*
X72721745Y5641911D01*
X72721206Y5456793D01*
X72720772Y5292855D01*
X72720509Y5148697D01*
X72720484Y5022921D01*
X72720765Y4914129D01*
X72721419Y4820923D01*
X72722514Y4741903D01*
X72724118Y4675672D01*
X72726297Y4620830D01*
X72729119Y4575979D01*
X72732651Y4539722D01*
X72736961Y4510659D01*
X72742117Y4487391D01*
X72748185Y4468521D01*
X72755233Y4452649D01*
X72763329Y4438378D01*
X72772540Y4424309D01*
X72781040Y4411842D01*
X72798176Y4385548D01*
X72808322Y4367963D01*
X72809511Y4364743D01*
X72798604Y4363666D01*
X72767411Y4362665D01*
X72718223Y4361765D01*
X72653333Y4360990D01*
X72575030Y4360363D01*
X72485607Y4359909D01*
X72387356Y4359651D01*
X72318445Y4359600D01*
X72213452Y4359820D01*
X72116610Y4360452D01*
X72030107Y4361451D01*
X71956132Y4362773D01*
X71896874Y4364374D01*
X71854520Y4366209D01*
X71831260Y4368235D01*
X71827378Y4369507D01*
X71835076Y4384409D01*
X71843074Y4392440D01*
X71856246Y4409566D01*
X71873485Y4439817D01*
X71885407Y4464378D01*
X71912045Y4523289D01*
X71915120Y5700155D01*
X71918195Y6877022D01*
X72363853Y6877022D01*
X72461670Y6876858D01*
X72552064Y6876389D01*
X72632630Y6875653D01*
X72700962Y6874684D01*
X72754656Y6873520D01*
X72791305Y6872197D01*
X72808504Y6870751D01*
X72809511Y6870298D01*
X73820517Y6870298D01*
X73805270Y6889278D01*
X73731090Y6981463D01*
X73659069Y7070796D01*
X73590569Y7155576D01*
X73526955Y7234102D01*
X73469588Y7304674D01*
X73419833Y7365591D01*
X73379052Y7415153D01*
X73361888Y7435822D01*
X73275596Y7536484D01*
X73198997Y7619741D01*
X73130183Y7687562D01*
X73067248Y7741911D01*
X73057867Y7749278D01*
X73018356Y7779883D01*
X74150116Y7780133D01*
X74144827Y7732156D01*
X74148130Y7674812D01*
X74169661Y7606537D01*
X74209635Y7526788D01*
X74254943Y7454505D01*
X74271161Y7431860D01*
X74299214Y7394304D01*
X74337430Y7343979D01*
X74384137Y7283027D01*
X74437661Y7213589D01*
X74496331Y7137806D01*
X74558475Y7057820D01*
X74622421Y6975772D01*
X74686495Y6893804D01*
X74749027Y6814057D01*
X74808343Y6738673D01*
X74862771Y6669793D01*
X74910639Y6609558D01*
X74950275Y6560111D01*
X74980006Y6523592D01*
X74998161Y6502142D01*
X75001220Y6498844D01*
X75004079Y6506851D01*
X75006293Y6537145D01*
X75007857Y6589444D01*
X75008767Y6663469D01*
X75009020Y6758937D01*
X75008613Y6875566D01*
X75007704Y6995555D01*
X75006382Y7127667D01*
X75004857Y7239406D01*
X75002881Y7332975D01*
X75000206Y7410581D01*
X74996582Y7474426D01*
X74991761Y7526717D01*
X74985494Y7569656D01*
X74977532Y7605449D01*
X74967627Y7636300D01*
X74955531Y7664414D01*
X74940993Y7691995D01*
X74926311Y7717034D01*
X74888314Y7780133D01*
X75948197Y7780133D01*
X76251034Y7780133D01*
X76251001Y7786383D01*
X76250195Y7888456D01*
X76249170Y7977367D01*
X76247900Y8054059D01*
X76246360Y8119473D01*
X76244524Y8174551D01*
X76242367Y8220235D01*
X76239863Y8257466D01*
X76236987Y8287187D01*
X76233713Y8310338D01*
X76230015Y8327861D01*
X76225869Y8340699D01*
X76221247Y8349792D01*
X76216126Y8356082D01*
X76210478Y8360512D01*
X76204279Y8364022D01*
X76197504Y8367555D01*
X76191508Y8371124D01*
X76186275Y8373700D01*
X76178099Y8376028D01*
X76165886Y8378122D01*
X76148541Y8379993D01*
X76124969Y8381653D01*
X76094077Y8383116D01*
X76054768Y8384392D01*
X76005950Y8385496D01*
X75946527Y8386439D01*
X75875404Y8387233D01*
X75791488Y8387891D01*
X75693683Y8388425D01*
X75580894Y8388847D01*
X75452029Y8389171D01*
X75305991Y8389408D01*
X75141686Y8389570D01*
X74958020Y8389670D01*
X74753897Y8389720D01*
X74542753Y8389733D01*
X72922400Y8389733D01*
X72922400Y8292946D01*
G37*
X72922400Y8292946D02*
X72911535Y8179007D01*
X72879918Y8071384D01*
X72829015Y7972385D01*
X72760293Y7884316D01*
X72675219Y7809484D01*
X72578232Y7751616D01*
X72471964Y7711995D01*
X72364950Y7693427D01*
X72259300Y7694566D01*
X72157125Y7714070D01*
X72060534Y7750594D01*
X71971638Y7802795D01*
X71892546Y7869327D01*
X71825369Y7948848D01*
X71772217Y8040013D01*
X71735199Y8141477D01*
X71716427Y8251898D01*
X71714489Y8301794D01*
X71714489Y8389733D01*
X71662560Y8389733D01*
X71626253Y8386889D01*
X71599355Y8375089D01*
X71572249Y8351351D01*
X71533867Y8312969D01*
X71533867Y6121398D01*
X71533876Y5859261D01*
X71533908Y5618759D01*
X71533972Y5398952D01*
X71534076Y5198899D01*
X71534227Y5017656D01*
X71534434Y4854284D01*
X71534706Y4707840D01*
X71535050Y4577383D01*
X71535474Y4461971D01*
X71535987Y4360662D01*
X71536597Y4272516D01*
X71537312Y4196590D01*
X71538140Y4131943D01*
X71539089Y4077633D01*
X71540167Y4032720D01*
X71541383Y3996260D01*
X71542745Y3967313D01*
X71544261Y3944937D01*
X71545938Y3928191D01*
X71547786Y3916132D01*
X71549813Y3907820D01*
X71552025Y3902313D01*
X71553108Y3900463D01*
X71557271Y3893451D01*
X71560805Y3887004D01*
X71564635Y3881100D01*
X71569682Y3875714D01*
X71576871Y3870822D01*
X71587123Y3866402D01*
X71601364Y3862428D01*
X71620514Y3858879D01*
X71645499Y3855730D01*
X71677240Y3852958D01*
X71716662Y3850539D01*
X71764686Y3848449D01*
X71822237Y3846665D01*
X71890237Y3845163D01*
X71969610Y3843920D01*
X72061279Y3842911D01*
X72166166Y3842115D01*
X72285196Y3841506D01*
X72419290Y3841061D01*
X72569373Y3840757D01*
X72736367Y3840570D01*
X72921196Y3840476D01*
X73124783Y3840452D01*
X73348050Y3840475D01*
X73591922Y3840520D01*
X73857321Y3840563D01*
X73895704Y3840568D01*
X74162682Y3840611D01*
X74408002Y3840682D01*
X74632583Y3840787D01*
X74837345Y3840934D01*
X75023206Y3841131D01*
X75191088Y3841384D01*
X75341908Y3841700D01*
X75476587Y3842087D01*
X75596044Y3842553D01*
X75701199Y3843103D01*
X75792971Y3843747D01*
X75872279Y3844489D01*
X75940043Y3845339D01*
X75997182Y3846303D01*
X76044617Y3847389D01*
X76083266Y3848603D01*
X76114049Y3849953D01*
X76137885Y3851445D01*
X76155694Y3853089D01*
X76168395Y3854889D01*
X76176908Y3856855D01*
X76181266Y3858523D01*
X76189728Y3862094D01*
X76197497Y3864730D01*
X76204602Y3867366D01*
X76211073Y3870938D01*
X76216939Y3876379D01*
X76222229Y3884625D01*
X76226974Y3896610D01*
X76231202Y3913269D01*
X76234943Y3935537D01*
X76238227Y3964348D01*
X76241083Y4000637D01*
X76243540Y4045339D01*
X76245629Y4099389D01*
X76247378Y4163721D01*
X76248817Y4239270D01*
X76249976Y4326970D01*
X76250883Y4427757D01*
X76251569Y4542566D01*
X76252063Y4672330D01*
X76252395Y4817985D01*
X76252593Y4980465D01*
X76252687Y5160705D01*
X76252708Y5359640D01*
X76252685Y5578204D01*
X76252646Y5817332D01*
X76252622Y6077960D01*
X76252622Y6120111D01*
X76252636Y6383008D01*
X76252661Y6624268D01*
X76252671Y6844835D01*
X76252642Y7045648D01*
X76252548Y7227651D01*
X76252362Y7391784D01*
X76252059Y7538989D01*
X76251614Y7670208D01*
X76251034Y7780133D01*
X75948197Y7780133D01*
X75908407Y7722289D01*
X75897236Y7706521D01*
X75887166Y7692559D01*
X75878138Y7679216D01*
X75870097Y7665307D01*
X75862986Y7649644D01*
X75856747Y7631042D01*
X75851325Y7608314D01*
X75846662Y7580273D01*
X75842701Y7545733D01*
X75839385Y7503508D01*
X75836659Y7452411D01*
X75834464Y7391256D01*
X75832745Y7318856D01*
X75831444Y7234025D01*
X75830505Y7135578D01*
X75829870Y7022326D01*
X75829484Y6893084D01*
X75829288Y6746666D01*
X75829227Y6581884D01*
X75829243Y6397553D01*
X75829280Y6192487D01*
X75829289Y6069867D01*
X75829265Y5852918D01*
X75829231Y5657358D01*
X75829243Y5482001D01*
X75829358Y5325659D01*
X75829630Y5187143D01*
X75830118Y5065266D01*
X75830876Y4958840D01*
X75831962Y4866678D01*
X75833431Y4787591D01*
X75835340Y4720392D01*
X75837744Y4663893D01*
X75840701Y4616907D01*
X75844266Y4578245D01*
X75848495Y4546720D01*
X75853446Y4521145D01*
X75859173Y4500330D01*
X75865733Y4483089D01*
X75873183Y4468235D01*
X75881579Y4454578D01*
X75890976Y4440931D01*
X75901432Y4426107D01*
X75907523Y4417217D01*
X75946296Y4359600D01*
X75414732Y4359600D01*
X75291483Y4359635D01*
X75188987Y4359785D01*
X75105420Y4360122D01*
X75038956Y4360714D01*
X74987771Y4361633D01*
X74950041Y4362949D01*
X74923940Y4364731D01*
X74907644Y4367049D01*
X74899328Y4369974D01*
X74897168Y4373576D01*
X74899339Y4377925D01*
X74900535Y4379355D01*
X74925685Y4416427D01*
X74951583Y4469228D01*
X74975192Y4531230D01*
X74983461Y4557643D01*
X74988078Y4575584D01*
X74991979Y4596645D01*
X74995248Y4622911D01*
X74997966Y4656468D01*
X75000215Y4699401D01*
X75002077Y4753796D01*
X75003636Y4821738D01*
X75004972Y4905312D01*
X75006169Y5006605D01*
X75007308Y5127700D01*
X75007685Y5172400D01*
X75008702Y5297551D01*
X75009460Y5401918D01*
X75009903Y5487293D01*
X75009970Y5555467D01*
X75009605Y5608235D01*
X75008748Y5647386D01*
X75007341Y5674715D01*
X75005325Y5692014D01*
X75002643Y5701074D01*
X74999236Y5703688D01*
X74995044Y5701649D01*
X74990571Y5697333D01*
X74980216Y5684398D01*
X74958158Y5655324D01*
X74925957Y5612241D01*
X74885174Y5557282D01*
X74837370Y5492577D01*
X74784105Y5420258D01*
X74726940Y5342456D01*
X74667437Y5261302D01*
X74607155Y5178928D01*
X74547655Y5097464D01*
X74490498Y5019043D01*
X74437245Y4945796D01*
X74389457Y4879853D01*
X74348693Y4823346D01*
X74316516Y4778407D01*
X74294485Y4747166D01*
X74289917Y4740534D01*
X74266996Y4703631D01*
X74240188Y4655641D01*
X74214789Y4606103D01*
X74211568Y4599423D01*
X74189890Y4551228D01*
X74177304Y4513666D01*
X74171574Y4477840D01*
X74170456Y4435800D01*
X74171090Y4359600D01*
X73016651Y4359600D01*
X73107815Y4453331D01*
X73154612Y4503225D01*
X73204899Y4559705D01*
X73250944Y4613974D01*
X73271369Y4639327D01*
X73301807Y4678872D01*
X73341862Y4732084D01*
X73390361Y4797333D01*
X73446135Y4872989D01*
X73508011Y4957423D01*
X73574819Y5049006D01*
X73645387Y5146108D01*
X73718545Y5247099D01*
X73793121Y5350350D01*
X73867944Y5454232D01*
X73941843Y5557115D01*
X74013646Y5657369D01*
X74082184Y5753364D01*
X74146284Y5843473D01*
X74204775Y5926064D01*
X74256486Y5999508D01*
X74300247Y6062176D01*
X74334885Y6112439D01*
X74359230Y6148666D01*
X74372111Y6169229D01*
X74373869Y6173332D01*
X74365910Y6184658D01*
X74345115Y6211838D01*
X74312847Y6253171D01*
X74270470Y6306956D01*
X74219347Y6371494D01*
X74160841Y6445082D01*
X74096314Y6526022D01*
X74027131Y6612612D01*
X73954653Y6703152D01*
X73880246Y6795940D01*
X73820517Y6870298D01*
X72809511Y6870298D01*
X72803602Y6857341D01*
X72789272Y6835092D01*
X72788225Y6833609D01*
X72769438Y6803456D01*
X72749791Y6766625D01*
X72745892Y6758489D01*
X72742356Y6750060D01*
X72739230Y6739941D01*
X72736486Y6726740D01*
X72734092Y6709062D01*
X72732019Y6685516D01*
X72730235Y6654707D01*
X72728712Y6615243D01*
X72727419Y6565731D01*
X72726326Y6504777D01*
X72725403Y6430989D01*
X72724619Y6342972D01*
X72723945Y6239335D01*
X72723350Y6118684D01*
X72722805Y5979626D01*
X72722279Y5820768D01*
X72721745Y5641911D01*
X72721206Y5456793D01*
X72720772Y5292855D01*
X72720509Y5148697D01*
X72720484Y5022921D01*
X72720765Y4914129D01*
X72721419Y4820923D01*
X72722514Y4741903D01*
X72724118Y4675672D01*
X72726297Y4620830D01*
X72729119Y4575979D01*
X72732651Y4539722D01*
X72736961Y4510659D01*
X72742117Y4487391D01*
X72748185Y4468521D01*
X72755233Y4452649D01*
X72763329Y4438378D01*
X72772540Y4424309D01*
X72781040Y4411842D01*
X72798176Y4385548D01*
X72808322Y4367963D01*
X72809511Y4364743D01*
X72798604Y4363666D01*
X72767411Y4362665D01*
X72718223Y4361765D01*
X72653333Y4360990D01*
X72575030Y4360363D01*
X72485607Y4359909D01*
X72387356Y4359651D01*
X72318445Y4359600D01*
X72213452Y4359820D01*
X72116610Y4360452D01*
X72030107Y4361451D01*
X71956132Y4362773D01*
X71896874Y4364374D01*
X71854520Y4366209D01*
X71831260Y4368235D01*
X71827378Y4369507D01*
X71835076Y4384409D01*
X71843074Y4392440D01*
X71856246Y4409566D01*
X71873485Y4439817D01*
X71885407Y4464378D01*
X71912045Y4523289D01*
X71915120Y5700155D01*
X71918195Y6877022D01*
X72363853Y6877022D01*
X72461670Y6876858D01*
X72552064Y6876389D01*
X72632630Y6875653D01*
X72700962Y6874684D01*
X72754656Y6873520D01*
X72791305Y6872197D01*
X72808504Y6870751D01*
X72809511Y6870298D01*
X73820517Y6870298D01*
X73805270Y6889278D01*
X73731090Y6981463D01*
X73659069Y7070796D01*
X73590569Y7155576D01*
X73526955Y7234102D01*
X73469588Y7304674D01*
X73419833Y7365591D01*
X73379052Y7415153D01*
X73361888Y7435822D01*
X73275596Y7536484D01*
X73198997Y7619741D01*
X73130183Y7687562D01*
X73067248Y7741911D01*
X73057867Y7749278D01*
X73018356Y7779883D01*
X74150116Y7780133D01*
X74144827Y7732156D01*
X74148130Y7674812D01*
X74169661Y7606537D01*
X74209635Y7526788D01*
X74254943Y7454505D01*
X74271161Y7431860D01*
X74299214Y7394304D01*
X74337430Y7343979D01*
X74384137Y7283027D01*
X74437661Y7213589D01*
X74496331Y7137806D01*
X74558475Y7057820D01*
X74622421Y6975772D01*
X74686495Y6893804D01*
X74749027Y6814057D01*
X74808343Y6738673D01*
X74862771Y6669793D01*
X74910639Y6609558D01*
X74950275Y6560111D01*
X74980006Y6523592D01*
X74998161Y6502142D01*
X75001220Y6498844D01*
X75004079Y6506851D01*
X75006293Y6537145D01*
X75007857Y6589444D01*
X75008767Y6663469D01*
X75009020Y6758937D01*
X75008613Y6875566D01*
X75007704Y6995555D01*
X75006382Y7127667D01*
X75004857Y7239406D01*
X75002881Y7332975D01*
X75000206Y7410581D01*
X74996582Y7474426D01*
X74991761Y7526717D01*
X74985494Y7569656D01*
X74977532Y7605449D01*
X74967627Y7636300D01*
X74955531Y7664414D01*
X74940993Y7691995D01*
X74926311Y7717034D01*
X74888314Y7780133D01*
X75948197Y7780133D01*
X76251034Y7780133D01*
X76251001Y7786383D01*
X76250195Y7888456D01*
X76249170Y7977367D01*
X76247900Y8054059D01*
X76246360Y8119473D01*
X76244524Y8174551D01*
X76242367Y8220235D01*
X76239863Y8257466D01*
X76236987Y8287187D01*
X76233713Y8310338D01*
X76230015Y8327861D01*
X76225869Y8340699D01*
X76221247Y8349792D01*
X76216126Y8356082D01*
X76210478Y8360512D01*
X76204279Y8364022D01*
X76197504Y8367555D01*
X76191508Y8371124D01*
X76186275Y8373700D01*
X76178099Y8376028D01*
X76165886Y8378122D01*
X76148541Y8379993D01*
X76124969Y8381653D01*
X76094077Y8383116D01*
X76054768Y8384392D01*
X76005950Y8385496D01*
X75946527Y8386439D01*
X75875404Y8387233D01*
X75791488Y8387891D01*
X75693683Y8388425D01*
X75580894Y8388847D01*
X75452029Y8389171D01*
X75305991Y8389408D01*
X75141686Y8389570D01*
X74958020Y8389670D01*
X74753897Y8389720D01*
X74542753Y8389733D01*
X72922400Y8389733D01*
X72922400Y8292946D01*
G36*
X69647571Y7832929D02*
G01*
X69487430Y7811755D01*
X69323490Y7771615D01*
X69153687Y7712111D01*
X68975957Y7632846D01*
X68964690Y7627301D01*
X68906995Y7599275D01*
X68855448Y7575198D01*
X68813809Y7556751D01*
X68785838Y7545614D01*
X68776267Y7543067D01*
X68757050Y7538059D01*
X68752439Y7533853D01*
X68757542Y7523420D01*
X68773582Y7497132D01*
X68798712Y7457743D01*
X68831086Y7408009D01*
X68868857Y7350685D01*
X68910178Y7288524D01*
X68953202Y7224282D01*
X68996083Y7160715D01*
X69036974Y7100575D01*
X69074029Y7046620D01*
X69105400Y7001603D01*
X69129241Y6968279D01*
X69143706Y6949403D01*
X69145691Y6947213D01*
X69155809Y6951862D01*
X69178150Y6969038D01*
X69208720Y6995560D01*
X69224464Y7010036D01*
X69320953Y7085318D01*
X69427664Y7140759D01*
X69543168Y7175859D01*
X69666038Y7190120D01*
X69735439Y7188949D01*
X69856577Y7171788D01*
X69965795Y7135906D01*
X70063418Y7081041D01*
X70149772Y7006930D01*
X70225185Y6913312D01*
X70289982Y6799924D01*
X70327399Y6713333D01*
X70371252Y6577634D01*
X70403572Y6430150D01*
X70424443Y6274686D01*
X70433949Y6115044D01*
X70432173Y5955027D01*
X70419197Y5798439D01*
X70395106Y5649082D01*
X70359982Y5510760D01*
X70313908Y5387276D01*
X70297627Y5353022D01*
X70229380Y5238936D01*
X70148921Y5142443D01*
X70057430Y5064330D01*
X69956089Y5005383D01*
X69846080Y4966388D01*
X69728585Y4948132D01*
X69687117Y4946789D01*
X69565559Y4957710D01*
X69445122Y4990526D01*
X69327334Y5044561D01*
X69213723Y5119135D01*
X69122315Y5197461D01*
X69075785Y5241992D01*
X68894517Y4944729D01*
X68849420Y4870567D01*
X68808181Y4802354D01*
X68772265Y4742541D01*
X68743134Y4693580D01*
X68722250Y4657921D01*
X68711076Y4638016D01*
X68709625Y4634921D01*
X68717854Y4625282D01*
X68743433Y4608001D01*
X68783127Y4584717D01*
X68833703Y4557066D01*
X68891926Y4526685D01*
X68954563Y4495210D01*
X69018379Y4464278D01*
X69080140Y4435527D01*
X69136612Y4410592D01*
X69184562Y4391111D01*
X69208014Y4382682D01*
X69341779Y4344867D01*
X69479673Y4319864D01*
X69627378Y4306860D01*
X69754167Y4304532D01*
X69822122Y4305627D01*
X69887723Y4307725D01*
X69945153Y4310566D01*
X69988597Y4313894D01*
X70002702Y4315578D01*
X70141716Y4344413D01*
X70283243Y4389532D01*
X70420725Y4448250D01*
X70547606Y4517880D01*
X70625111Y4570559D01*
X70752519Y4678761D01*
X70870822Y4805329D01*
X70977828Y4947134D01*
X71071348Y5101049D01*
X71149190Y5263947D01*
X71193044Y5381244D01*
X71243292Y5564872D01*
X71276791Y5759419D01*
X71293551Y5960675D01*
X71293584Y6164432D01*
X71276899Y6366479D01*
X71243507Y6562608D01*
X71193420Y6748609D01*
X71189603Y6760197D01*
X71126719Y6922250D01*
X71049972Y7070168D01*
X70956758Y7208135D01*
X70844473Y7340339D01*
X70800608Y7385601D01*
X70664466Y7509543D01*
X70524509Y7612085D01*
X70378589Y7694344D01*
X70224558Y7757436D01*
X70060268Y7802477D01*
X69964711Y7819967D01*
X69805977Y7835534D01*
X69647571Y7832929D01*
G37*
X69647571Y7832929D02*
X69487430Y7811755D01*
X69323490Y7771615D01*
X69153687Y7712111D01*
X68975957Y7632846D01*
X68964690Y7627301D01*
X68906995Y7599275D01*
X68855448Y7575198D01*
X68813809Y7556751D01*
X68785838Y7545614D01*
X68776267Y7543067D01*
X68757050Y7538059D01*
X68752439Y7533853D01*
X68757542Y7523420D01*
X68773582Y7497132D01*
X68798712Y7457743D01*
X68831086Y7408009D01*
X68868857Y7350685D01*
X68910178Y7288524D01*
X68953202Y7224282D01*
X68996083Y7160715D01*
X69036974Y7100575D01*
X69074029Y7046620D01*
X69105400Y7001603D01*
X69129241Y6968279D01*
X69143706Y6949403D01*
X69145691Y6947213D01*
X69155809Y6951862D01*
X69178150Y6969038D01*
X69208720Y6995560D01*
X69224464Y7010036D01*
X69320953Y7085318D01*
X69427664Y7140759D01*
X69543168Y7175859D01*
X69666038Y7190120D01*
X69735439Y7188949D01*
X69856577Y7171788D01*
X69965795Y7135906D01*
X70063418Y7081041D01*
X70149772Y7006930D01*
X70225185Y6913312D01*
X70289982Y6799924D01*
X70327399Y6713333D01*
X70371252Y6577634D01*
X70403572Y6430150D01*
X70424443Y6274686D01*
X70433949Y6115044D01*
X70432173Y5955027D01*
X70419197Y5798439D01*
X70395106Y5649082D01*
X70359982Y5510760D01*
X70313908Y5387276D01*
X70297627Y5353022D01*
X70229380Y5238936D01*
X70148921Y5142443D01*
X70057430Y5064330D01*
X69956089Y5005383D01*
X69846080Y4966388D01*
X69728585Y4948132D01*
X69687117Y4946789D01*
X69565559Y4957710D01*
X69445122Y4990526D01*
X69327334Y5044561D01*
X69213723Y5119135D01*
X69122315Y5197461D01*
X69075785Y5241992D01*
X68894517Y4944729D01*
X68849420Y4870567D01*
X68808181Y4802354D01*
X68772265Y4742541D01*
X68743134Y4693580D01*
X68722250Y4657921D01*
X68711076Y4638016D01*
X68709625Y4634921D01*
X68717854Y4625282D01*
X68743433Y4608001D01*
X68783127Y4584717D01*
X68833703Y4557066D01*
X68891926Y4526685D01*
X68954563Y4495210D01*
X69018379Y4464278D01*
X69080140Y4435527D01*
X69136612Y4410592D01*
X69184562Y4391111D01*
X69208014Y4382682D01*
X69341779Y4344867D01*
X69479673Y4319864D01*
X69627378Y4306860D01*
X69754167Y4304532D01*
X69822122Y4305627D01*
X69887723Y4307725D01*
X69945153Y4310566D01*
X69988597Y4313894D01*
X70002702Y4315578D01*
X70141716Y4344413D01*
X70283243Y4389532D01*
X70420725Y4448250D01*
X70547606Y4517880D01*
X70625111Y4570559D01*
X70752519Y4678761D01*
X70870822Y4805329D01*
X70977828Y4947134D01*
X71071348Y5101049D01*
X71149190Y5263947D01*
X71193044Y5381244D01*
X71243292Y5564872D01*
X71276791Y5759419D01*
X71293551Y5960675D01*
X71293584Y6164432D01*
X71276899Y6366479D01*
X71243507Y6562608D01*
X71193420Y6748609D01*
X71189603Y6760197D01*
X71126719Y6922250D01*
X71049972Y7070168D01*
X70956758Y7208135D01*
X70844473Y7340339D01*
X70800608Y7385601D01*
X70664466Y7509543D01*
X70524509Y7612085D01*
X70378589Y7694344D01*
X70224558Y7757436D01*
X70060268Y7802477D01*
X69964711Y7819967D01*
X69805977Y7835534D01*
X69647571Y7832929D01*
G36*
X67302426Y6915448D02*
G01*
X67150508Y6895433D01*
X67015244Y6861798D01*
X66895761Y6814275D01*
X66791185Y6752595D01*
X66713576Y6689035D01*
X66644735Y6614901D01*
X66590994Y6535129D01*
X66548090Y6442909D01*
X66532616Y6399839D01*
X66519756Y6360858D01*
X66508554Y6324711D01*
X66498880Y6289566D01*
X66490604Y6253590D01*
X66483597Y6214950D01*
X66477728Y6171815D01*
X66472869Y6122351D01*
X66468890Y6064727D01*
X66465660Y5997109D01*
X66463051Y5917666D01*
X66460933Y5824564D01*
X66459176Y5715973D01*
X66457651Y5590058D01*
X66456228Y5444988D01*
X66454975Y5302222D01*
X66453649Y5146032D01*
X66452444Y5010761D01*
X66451234Y4894754D01*
X66449894Y4796355D01*
X66448300Y4713907D01*
X66446325Y4645754D01*
X66443844Y4590240D01*
X66440731Y4545708D01*
X66436862Y4510502D01*
X66432111Y4482966D01*
X66426352Y4461444D01*
X66419461Y4444278D01*
X66411311Y4429814D01*
X66401777Y4416394D01*
X66390734Y4402362D01*
X66386434Y4396929D01*
X66370614Y4374090D01*
X66363578Y4358537D01*
X66363556Y4358078D01*
X66374433Y4355879D01*
X66405418Y4353853D01*
X66454043Y4352058D01*
X66517837Y4350549D01*
X66594331Y4349384D01*
X66681056Y4348620D01*
X66775543Y4348314D01*
X66786450Y4348311D01*
X67209343Y4348311D01*
X67212605Y4444378D01*
X67215867Y4540444D01*
X67277956Y4489457D01*
X67375286Y4421943D01*
X67485187Y4367251D01*
X67571651Y4337022D01*
X67640722Y4322334D01*
X67724075Y4312341D01*
X67813841Y4307354D01*
X67902155Y4307687D01*
X67981149Y4313649D01*
X68017378Y4319362D01*
X68157397Y4357224D01*
X68283822Y4412068D01*
X68395740Y4483076D01*
X68492238Y4569432D01*
X68572400Y4670321D01*
X68635313Y4784924D01*
X68679688Y4911016D01*
X68692022Y4967599D01*
X68699632Y5029798D01*
X68703261Y5104637D01*
X68703755Y5138533D01*
X68703690Y5141718D01*
X67943752Y5141718D01*
X67934459Y5066667D01*
X67906272Y5002840D01*
X67857803Y4947202D01*
X67852746Y4942789D01*
X67804452Y4907963D01*
X67752743Y4885380D01*
X67692011Y4873460D01*
X67616648Y4870617D01*
X67598541Y4871022D01*
X67544722Y4873675D01*
X67504692Y4879091D01*
X67469676Y4889255D01*
X67430897Y4906150D01*
X67420255Y4911328D01*
X67359604Y4947156D01*
X67312785Y4989788D01*
X67300048Y5005027D01*
X67255378Y5061538D01*
X67255378Y5257414D01*
X67255914Y5336061D01*
X67257604Y5394012D01*
X67260572Y5433125D01*
X67264943Y5455259D01*
X67269028Y5461726D01*
X67284953Y5464889D01*
X67318736Y5467512D01*
X67365660Y5469345D01*
X67421007Y5470143D01*
X67429894Y5470158D01*
X67550670Y5464904D01*
X67653340Y5448737D01*
X67739894Y5421039D01*
X67812319Y5381192D01*
X67867249Y5334242D01*
X67911796Y5276355D01*
X67936520Y5213307D01*
X67943752Y5141718D01*
X68703690Y5141718D01*
X68701822Y5232288D01*
X68693478Y5311188D01*
X68677232Y5382410D01*
X68651595Y5453136D01*
X68627599Y5505507D01*
X68568980Y5600804D01*
X68490883Y5688830D01*
X68395685Y5767983D01*
X68285762Y5836660D01*
X68163490Y5893259D01*
X68031245Y5936179D01*
X67966578Y5951118D01*
X67830396Y5973223D01*
X67681951Y5987806D01*
X67530495Y5994187D01*
X67403936Y5992555D01*
X67242050Y5985776D01*
X67249470Y6044755D01*
X67268762Y6143908D01*
X67299896Y6224628D01*
X67343731Y6287534D01*
X67401129Y6333244D01*
X67472952Y6362378D01*
X67560059Y6375553D01*
X67663314Y6373389D01*
X67701289Y6369388D01*
X67842480Y6344220D01*
X67979293Y6303186D01*
X68073822Y6265185D01*
X68118982Y6245810D01*
X68157415Y6230240D01*
X68183766Y6220595D01*
X68191454Y6218548D01*
X68201198Y6227626D01*
X68217917Y6256595D01*
X68241768Y6305783D01*
X68272907Y6375516D01*
X68311493Y6466121D01*
X68318090Y6481911D01*
X68348147Y6554228D01*
X68375126Y6619575D01*
X68397864Y6675094D01*
X68415194Y6717928D01*
X68425952Y6745219D01*
X68429059Y6754058D01*
X68419060Y6758813D01*
X68392783Y6764090D01*
X68364511Y6767769D01*
X68334354Y6772526D01*
X68286567Y6781972D01*
X68225388Y6795180D01*
X68155054Y6811224D01*
X68079806Y6829180D01*
X68051245Y6836203D01*
X67946184Y6861791D01*
X67858520Y6881853D01*
X67783932Y6897031D01*
X67718097Y6907965D01*
X67656693Y6915296D01*
X67595398Y6919665D01*
X67529890Y6921713D01*
X67471872Y6922111D01*
X67302426Y6915448D01*
G37*
X67302426Y6915448D02*
X67150508Y6895433D01*
X67015244Y6861798D01*
X66895761Y6814275D01*
X66791185Y6752595D01*
X66713576Y6689035D01*
X66644735Y6614901D01*
X66590994Y6535129D01*
X66548090Y6442909D01*
X66532616Y6399839D01*
X66519756Y6360858D01*
X66508554Y6324711D01*
X66498880Y6289566D01*
X66490604Y6253590D01*
X66483597Y6214950D01*
X66477728Y6171815D01*
X66472869Y6122351D01*
X66468890Y6064727D01*
X66465660Y5997109D01*
X66463051Y5917666D01*
X66460933Y5824564D01*
X66459176Y5715973D01*
X66457651Y5590058D01*
X66456228Y5444988D01*
X66454975Y5302222D01*
X66453649Y5146032D01*
X66452444Y5010761D01*
X66451234Y4894754D01*
X66449894Y4796355D01*
X66448300Y4713907D01*
X66446325Y4645754D01*
X66443844Y4590240D01*
X66440731Y4545708D01*
X66436862Y4510502D01*
X66432111Y4482966D01*
X66426352Y4461444D01*
X66419461Y4444278D01*
X66411311Y4429814D01*
X66401777Y4416394D01*
X66390734Y4402362D01*
X66386434Y4396929D01*
X66370614Y4374090D01*
X66363578Y4358537D01*
X66363556Y4358078D01*
X66374433Y4355879D01*
X66405418Y4353853D01*
X66454043Y4352058D01*
X66517837Y4350549D01*
X66594331Y4349384D01*
X66681056Y4348620D01*
X66775543Y4348314D01*
X66786450Y4348311D01*
X67209343Y4348311D01*
X67212605Y4444378D01*
X67215867Y4540444D01*
X67277956Y4489457D01*
X67375286Y4421943D01*
X67485187Y4367251D01*
X67571651Y4337022D01*
X67640722Y4322334D01*
X67724075Y4312341D01*
X67813841Y4307354D01*
X67902155Y4307687D01*
X67981149Y4313649D01*
X68017378Y4319362D01*
X68157397Y4357224D01*
X68283822Y4412068D01*
X68395740Y4483076D01*
X68492238Y4569432D01*
X68572400Y4670321D01*
X68635313Y4784924D01*
X68679688Y4911016D01*
X68692022Y4967599D01*
X68699632Y5029798D01*
X68703261Y5104637D01*
X68703755Y5138533D01*
X68703690Y5141718D01*
X67943752Y5141718D01*
X67934459Y5066667D01*
X67906272Y5002840D01*
X67857803Y4947202D01*
X67852746Y4942789D01*
X67804452Y4907963D01*
X67752743Y4885380D01*
X67692011Y4873460D01*
X67616648Y4870617D01*
X67598541Y4871022D01*
X67544722Y4873675D01*
X67504692Y4879091D01*
X67469676Y4889255D01*
X67430897Y4906150D01*
X67420255Y4911328D01*
X67359604Y4947156D01*
X67312785Y4989788D01*
X67300048Y5005027D01*
X67255378Y5061538D01*
X67255378Y5257414D01*
X67255914Y5336061D01*
X67257604Y5394012D01*
X67260572Y5433125D01*
X67264943Y5455259D01*
X67269028Y5461726D01*
X67284953Y5464889D01*
X67318736Y5467512D01*
X67365660Y5469345D01*
X67421007Y5470143D01*
X67429894Y5470158D01*
X67550670Y5464904D01*
X67653340Y5448737D01*
X67739894Y5421039D01*
X67812319Y5381192D01*
X67867249Y5334242D01*
X67911796Y5276355D01*
X67936520Y5213307D01*
X67943752Y5141718D01*
X68703690Y5141718D01*
X68701822Y5232288D01*
X68693478Y5311188D01*
X68677232Y5382410D01*
X68651595Y5453136D01*
X68627599Y5505507D01*
X68568980Y5600804D01*
X68490883Y5688830D01*
X68395685Y5767983D01*
X68285762Y5836660D01*
X68163490Y5893259D01*
X68031245Y5936179D01*
X67966578Y5951118D01*
X67830396Y5973223D01*
X67681951Y5987806D01*
X67530495Y5994187D01*
X67403936Y5992555D01*
X67242050Y5985776D01*
X67249470Y6044755D01*
X67268762Y6143908D01*
X67299896Y6224628D01*
X67343731Y6287534D01*
X67401129Y6333244D01*
X67472952Y6362378D01*
X67560059Y6375553D01*
X67663314Y6373389D01*
X67701289Y6369388D01*
X67842480Y6344220D01*
X67979293Y6303186D01*
X68073822Y6265185D01*
X68118982Y6245810D01*
X68157415Y6230240D01*
X68183766Y6220595D01*
X68191454Y6218548D01*
X68201198Y6227626D01*
X68217917Y6256595D01*
X68241768Y6305783D01*
X68272907Y6375516D01*
X68311493Y6466121D01*
X68318090Y6481911D01*
X68348147Y6554228D01*
X68375126Y6619575D01*
X68397864Y6675094D01*
X68415194Y6717928D01*
X68425952Y6745219D01*
X68429059Y6754058D01*
X68419060Y6758813D01*
X68392783Y6764090D01*
X68364511Y6767769D01*
X68334354Y6772526D01*
X68286567Y6781972D01*
X68225388Y6795180D01*
X68155054Y6811224D01*
X68079806Y6829180D01*
X68051245Y6836203D01*
X67946184Y6861791D01*
X67858520Y6881853D01*
X67783932Y6897031D01*
X67718097Y6907965D01*
X67656693Y6915296D01*
X67595398Y6919665D01*
X67529890Y6921713D01*
X67471872Y6922111D01*
X67302426Y6915448D01*
G36*
X63789493Y6309755D02*
G01*
X63789474Y6075338D01*
X63789448Y5862397D01*
X63789375Y5669832D01*
X63789218Y5496541D01*
X63788936Y5341424D01*
X63788491Y5203380D01*
X63787844Y5081308D01*
X63786955Y4974106D01*
X63785787Y4880674D01*
X63784299Y4799910D01*
X63782454Y4730714D01*
X63780211Y4671985D01*
X63777531Y4622621D01*
X63774377Y4581522D01*
X63770708Y4547587D01*
X63766487Y4519714D01*
X63761673Y4496802D01*
X63756227Y4477751D01*
X63750112Y4461460D01*
X63743288Y4446827D01*
X63735715Y4432751D01*
X63727355Y4418132D01*
X63722161Y4409026D01*
X63687896Y4348311D01*
X64546045Y4348311D01*
X64546045Y4444267D01*
X64546776Y4487630D01*
X64548728Y4520795D01*
X64551537Y4538576D01*
X64552779Y4540222D01*
X64564201Y4533338D01*
X64586916Y4515495D01*
X64609615Y4496121D01*
X64664200Y4455386D01*
X64733679Y4414383D01*
X64810730Y4376877D01*
X64888035Y4346636D01*
X64918887Y4336988D01*
X64987384Y4322422D01*
X65070236Y4312461D01*
X65159629Y4307417D01*
X65247752Y4307604D01*
X65326793Y4313334D01*
X65364489Y4319142D01*
X65502586Y4357203D01*
X65629887Y4414927D01*
X65745708Y4491789D01*
X65849363Y4587261D01*
X65940167Y4700821D01*
X66006969Y4811619D01*
X66061836Y4928375D01*
X66103837Y5047724D01*
X66133833Y5173717D01*
X66152689Y5310406D01*
X66161268Y5461842D01*
X66161994Y5539289D01*
X66159900Y5596066D01*
X65330783Y5596066D01*
X65330576Y5502998D01*
X65327663Y5415308D01*
X65322000Y5338228D01*
X65313545Y5276991D01*
X65310962Y5264650D01*
X65279160Y5157367D01*
X65237502Y5070342D01*
X65185637Y5003358D01*
X65123219Y4956195D01*
X65049900Y4928635D01*
X64965331Y4920459D01*
X64869165Y4931449D01*
X64805689Y4947171D01*
X64756546Y4965361D01*
X64702417Y4991209D01*
X64661756Y5014911D01*
X64591200Y5061279D01*
X64591200Y6211470D01*
X64658608Y6255038D01*
X64737133Y6295960D01*
X64821319Y6322611D01*
X64906443Y6334535D01*
X64987784Y6331278D01*
X65060620Y6312385D01*
X65092574Y6296816D01*
X65150499Y6253819D01*
X65199456Y6197047D01*
X65240610Y6124425D01*
X65275126Y6033879D01*
X65304167Y5923334D01*
X65305448Y5917467D01*
X65315619Y5855212D01*
X65323261Y5777406D01*
X65328330Y5689280D01*
X65330783Y5596066D01*
X66159900Y5596066D01*
X66154143Y5752105D01*
X66132198Y5947941D01*
X66096214Y6126668D01*
X66046241Y6288155D01*
X65982332Y6432274D01*
X65904538Y6558894D01*
X65812911Y6667885D01*
X65707503Y6759117D01*
X65662338Y6790068D01*
X65561389Y6846215D01*
X65458099Y6885826D01*
X65348011Y6909986D01*
X65226670Y6919781D01*
X65134164Y6918735D01*
X65004510Y6907769D01*
X64891916Y6885954D01*
X64793125Y6852286D01*
X64704879Y6805764D01*
X64656014Y6771552D01*
X64626647Y6749638D01*
X64604957Y6734667D01*
X64596747Y6730267D01*
X64595132Y6741096D01*
X64593841Y6771749D01*
X64592862Y6819474D01*
X64592183Y6881521D01*
X64591790Y6955138D01*
X64591670Y7037573D01*
X64591812Y7126075D01*
X64592203Y7217893D01*
X64592829Y7310276D01*
X64593680Y7400472D01*
X64594740Y7485729D01*
X64595999Y7563297D01*
X64597444Y7630424D01*
X64599062Y7684359D01*
X64600839Y7722350D01*
X64601331Y7729333D01*
X64608908Y7799749D01*
X64620469Y7854898D01*
X64638208Y7902019D01*
X64664318Y7948353D01*
X64670585Y7957933D01*
X64695017Y7994622D01*
X63789689Y7994622D01*
X63789493Y6309755D01*
G37*
X63789493Y6309755D02*
X63789474Y6075338D01*
X63789448Y5862397D01*
X63789375Y5669832D01*
X63789218Y5496541D01*
X63788936Y5341424D01*
X63788491Y5203380D01*
X63787844Y5081308D01*
X63786955Y4974106D01*
X63785787Y4880674D01*
X63784299Y4799910D01*
X63782454Y4730714D01*
X63780211Y4671985D01*
X63777531Y4622621D01*
X63774377Y4581522D01*
X63770708Y4547587D01*
X63766487Y4519714D01*
X63761673Y4496802D01*
X63756227Y4477751D01*
X63750112Y4461460D01*
X63743288Y4446827D01*
X63735715Y4432751D01*
X63727355Y4418132D01*
X63722161Y4409026D01*
X63687896Y4348311D01*
X64546045Y4348311D01*
X64546045Y4444267D01*
X64546776Y4487630D01*
X64548728Y4520795D01*
X64551537Y4538576D01*
X64552779Y4540222D01*
X64564201Y4533338D01*
X64586916Y4515495D01*
X64609615Y4496121D01*
X64664200Y4455386D01*
X64733679Y4414383D01*
X64810730Y4376877D01*
X64888035Y4346636D01*
X64918887Y4336988D01*
X64987384Y4322422D01*
X65070236Y4312461D01*
X65159629Y4307417D01*
X65247752Y4307604D01*
X65326793Y4313334D01*
X65364489Y4319142D01*
X65502586Y4357203D01*
X65629887Y4414927D01*
X65745708Y4491789D01*
X65849363Y4587261D01*
X65940167Y4700821D01*
X66006969Y4811619D01*
X66061836Y4928375D01*
X66103837Y5047724D01*
X66133833Y5173717D01*
X66152689Y5310406D01*
X66161268Y5461842D01*
X66161994Y5539289D01*
X66159900Y5596066D01*
X65330783Y5596066D01*
X65330576Y5502998D01*
X65327663Y5415308D01*
X65322000Y5338228D01*
X65313545Y5276991D01*
X65310962Y5264650D01*
X65279160Y5157367D01*
X65237502Y5070342D01*
X65185637Y5003358D01*
X65123219Y4956195D01*
X65049900Y4928635D01*
X64965331Y4920459D01*
X64869165Y4931449D01*
X64805689Y4947171D01*
X64756546Y4965361D01*
X64702417Y4991209D01*
X64661756Y5014911D01*
X64591200Y5061279D01*
X64591200Y6211470D01*
X64658608Y6255038D01*
X64737133Y6295960D01*
X64821319Y6322611D01*
X64906443Y6334535D01*
X64987784Y6331278D01*
X65060620Y6312385D01*
X65092574Y6296816D01*
X65150499Y6253819D01*
X65199456Y6197047D01*
X65240610Y6124425D01*
X65275126Y6033879D01*
X65304167Y5923334D01*
X65305448Y5917467D01*
X65315619Y5855212D01*
X65323261Y5777406D01*
X65328330Y5689280D01*
X65330783Y5596066D01*
X66159900Y5596066D01*
X66154143Y5752105D01*
X66132198Y5947941D01*
X66096214Y6126668D01*
X66046241Y6288155D01*
X65982332Y6432274D01*
X65904538Y6558894D01*
X65812911Y6667885D01*
X65707503Y6759117D01*
X65662338Y6790068D01*
X65561389Y6846215D01*
X65458099Y6885826D01*
X65348011Y6909986D01*
X65226670Y6919781D01*
X65134164Y6918735D01*
X65004510Y6907769D01*
X64891916Y6885954D01*
X64793125Y6852286D01*
X64704879Y6805764D01*
X64656014Y6771552D01*
X64626647Y6749638D01*
X64604957Y6734667D01*
X64596747Y6730267D01*
X64595132Y6741096D01*
X64593841Y6771749D01*
X64592862Y6819474D01*
X64592183Y6881521D01*
X64591790Y6955138D01*
X64591670Y7037573D01*
X64591812Y7126075D01*
X64592203Y7217893D01*
X64592829Y7310276D01*
X64593680Y7400472D01*
X64594740Y7485729D01*
X64595999Y7563297D01*
X64597444Y7630424D01*
X64599062Y7684359D01*
X64600839Y7722350D01*
X64601331Y7729333D01*
X64608908Y7799749D01*
X64620469Y7854898D01*
X64638208Y7902019D01*
X64664318Y7948353D01*
X64670585Y7957933D01*
X64695017Y7994622D01*
X63789689Y7994622D01*
X63789493Y6309755D01*
G36*
X72249043Y8755429D02*
G01*
X72152768Y8731191D01*
X72066184Y8688359D01*
X71991373Y8628581D01*
X71930418Y8553506D01*
X71885399Y8464780D01*
X71859136Y8368470D01*
X71853286Y8271205D01*
X71868140Y8177346D01*
X71901840Y8089489D01*
X71952528Y8010230D01*
X72018345Y7942164D01*
X72097434Y7887888D01*
X72187934Y7849998D01*
X72239200Y7837574D01*
X72283698Y7830053D01*
X72317999Y7827081D01*
X72350960Y7828906D01*
X72391434Y7835775D01*
X72424531Y7842750D01*
X72517947Y7874259D01*
X72601619Y7925383D01*
X72673665Y7994571D01*
X72732200Y8080272D01*
X72746148Y8107511D01*
X72762586Y8143878D01*
X72772894Y8174418D01*
X72778460Y8206550D01*
X72780669Y8247693D01*
X72780948Y8293778D01*
X72776861Y8378135D01*
X72763446Y8447414D01*
X72738256Y8508039D01*
X72698846Y8566433D01*
X72660298Y8610698D01*
X72588406Y8676516D01*
X72513313Y8721947D01*
X72430562Y8749150D01*
X72352928Y8759424D01*
X72249043Y8755429D01*
G37*
X72249043Y8755429D02*
X72152768Y8731191D01*
X72066184Y8688359D01*
X71991373Y8628581D01*
X71930418Y8553506D01*
X71885399Y8464780D01*
X71859136Y8368470D01*
X71853286Y8271205D01*
X71868140Y8177346D01*
X71901840Y8089489D01*
X71952528Y8010230D01*
X72018345Y7942164D01*
X72097434Y7887888D01*
X72187934Y7849998D01*
X72239200Y7837574D01*
X72283698Y7830053D01*
X72317999Y7827081D01*
X72350960Y7828906D01*
X72391434Y7835775D01*
X72424531Y7842750D01*
X72517947Y7874259D01*
X72601619Y7925383D01*
X72673665Y7994571D01*
X72732200Y8080272D01*
X72746148Y8107511D01*
X72762586Y8143878D01*
X72772894Y8174418D01*
X72778460Y8206550D01*
X72780669Y8247693D01*
X72780948Y8293778D01*
X72776861Y8378135D01*
X72763446Y8447414D01*
X72738256Y8508039D01*
X72698846Y8566433D01*
X72660298Y8610698D01*
X72588406Y8676516D01*
X72513313Y8721947D01*
X72430562Y8749150D01*
X72352928Y8759424D01*
X72249043Y8755429D01*
G36*
X76097371Y3512934D02*
G01*
X76057889Y3512533D01*
X75942200Y3509741D01*
X75845311Y3501450D01*
X75763919Y3486768D01*
X75694723Y3464807D01*
X75634420Y3434678D01*
X75579708Y3395490D01*
X75560167Y3378468D01*
X75527750Y3338637D01*
X75498520Y3284587D01*
X75475991Y3224677D01*
X75463679Y3167261D01*
X75462400Y3146044D01*
X75470417Y3087231D01*
X75491899Y3022987D01*
X75522999Y2962179D01*
X75559866Y2913670D01*
X75565854Y2907818D01*
X75616579Y2866679D01*
X75672125Y2834565D01*
X75735696Y2810635D01*
X75810494Y2794047D01*
X75899722Y2783959D01*
X76006582Y2779531D01*
X76055528Y2779155D01*
X76117762Y2779455D01*
X76161528Y2780708D01*
X76190931Y2783446D01*
X76210079Y2788199D01*
X76223077Y2795499D01*
X76230045Y2801733D01*
X76236626Y2809306D01*
X76241788Y2819076D01*
X76245703Y2833660D01*
X76248543Y2855674D01*
X76250480Y2887736D01*
X76251684Y2932464D01*
X76252328Y2992474D01*
X76252583Y3070383D01*
X76252622Y3146044D01*
X76252870Y3246959D01*
X76252817Y3327573D01*
X76251857Y3366178D01*
X76105867Y3366178D01*
X76105867Y2925911D01*
X76012734Y2925996D01*
X75956693Y2927604D01*
X75897999Y2931744D01*
X75849028Y2937536D01*
X75847538Y2937774D01*
X75768392Y2956910D01*
X75707002Y2986713D01*
X75660305Y3029122D01*
X75630635Y3075039D01*
X75612353Y3125974D01*
X75613771Y3173800D01*
X75634988Y3225067D01*
X75676489Y3278101D01*
X75733998Y3317400D01*
X75808750Y3343669D01*
X75858708Y3352965D01*
X75915416Y3359493D01*
X75975519Y3364218D01*
X76026639Y3366183D01*
X76029667Y3366192D01*
X76105867Y3366178D01*
X76251857Y3366178D01*
X76251260Y3390149D01*
X76246998Y3436945D01*
X76238830Y3470222D01*
X76225556Y3492241D01*
X76205974Y3505261D01*
X76178883Y3511543D01*
X76143082Y3513347D01*
X76097371Y3512934D01*
G37*
X76097371Y3512934D02*
X76057889Y3512533D01*
X75942200Y3509741D01*
X75845311Y3501450D01*
X75763919Y3486768D01*
X75694723Y3464807D01*
X75634420Y3434678D01*
X75579708Y3395490D01*
X75560167Y3378468D01*
X75527750Y3338637D01*
X75498520Y3284587D01*
X75475991Y3224677D01*
X75463679Y3167261D01*
X75462400Y3146044D01*
X75470417Y3087231D01*
X75491899Y3022987D01*
X75522999Y2962179D01*
X75559866Y2913670D01*
X75565854Y2907818D01*
X75616579Y2866679D01*
X75672125Y2834565D01*
X75735696Y2810635D01*
X75810494Y2794047D01*
X75899722Y2783959D01*
X76006582Y2779531D01*
X76055528Y2779155D01*
X76117762Y2779455D01*
X76161528Y2780708D01*
X76190931Y2783446D01*
X76210079Y2788199D01*
X76223077Y2795499D01*
X76230045Y2801733D01*
X76236626Y2809306D01*
X76241788Y2819076D01*
X76245703Y2833660D01*
X76248543Y2855674D01*
X76250480Y2887736D01*
X76251684Y2932464D01*
X76252328Y2992474D01*
X76252583Y3070383D01*
X76252622Y3146044D01*
X76252870Y3246959D01*
X76252817Y3327573D01*
X76251857Y3366178D01*
X76105867Y3366178D01*
X76105867Y2925911D01*
X76012734Y2925996D01*
X75956693Y2927604D01*
X75897999Y2931744D01*
X75849028Y2937536D01*
X75847538Y2937774D01*
X75768392Y2956910D01*
X75707002Y2986713D01*
X75660305Y3029122D01*
X75630635Y3075039D01*
X75612353Y3125974D01*
X75613771Y3173800D01*
X75634988Y3225067D01*
X75676489Y3278101D01*
X75733998Y3317400D01*
X75808750Y3343669D01*
X75858708Y3352965D01*
X75915416Y3359493D01*
X75975519Y3364218D01*
X76026639Y3366183D01*
X76029667Y3366192D01*
X76105867Y3366178D01*
X76251857Y3366178D01*
X76251260Y3390149D01*
X76246998Y3436945D01*
X76238830Y3470222D01*
X76225556Y3492241D01*
X76205974Y3505261D01*
X76178883Y3511543D01*
X76143082Y3513347D01*
X76097371Y3512934D01*
G36*
X74688794Y3512854D02*
G01*
X74619386Y3512482D01*
X74566997Y3511615D01*
X74528847Y3510054D01*
X74502159Y3507597D01*
X74484153Y3504043D01*
X74472049Y3499190D01*
X74463069Y3492839D01*
X74459818Y3489916D01*
X74440043Y3458858D01*
X74436482Y3423172D01*
X74449491Y3391490D01*
X74455506Y3385087D01*
X74465235Y3378879D01*
X74480901Y3374090D01*
X74505408Y3370486D01*
X74541661Y3367836D01*
X74592565Y3365905D01*
X74661026Y3364461D01*
X74723617Y3363582D01*
X74971334Y3360533D01*
X74974719Y3295622D01*
X74978105Y3230711D01*
X74809958Y3230711D01*
X74736959Y3230081D01*
X74683517Y3227447D01*
X74646628Y3221691D01*
X74623288Y3211696D01*
X74610494Y3196344D01*
X74605242Y3174518D01*
X74604445Y3154262D01*
X74606923Y3129408D01*
X74616277Y3111094D01*
X74635383Y3098363D01*
X74667118Y3090259D01*
X74714359Y3085824D01*
X74779983Y3084101D01*
X74815801Y3083955D01*
X74976978Y3083955D01*
X74976978Y2925911D01*
X74728622Y2925911D01*
X74647213Y2925798D01*
X74585342Y2925288D01*
X74539968Y2924130D01*
X74508054Y2922070D01*
X74486559Y2918854D01*
X74472443Y2914228D01*
X74462668Y2907941D01*
X74457689Y2903333D01*
X74440610Y2876440D01*
X74435111Y2852533D01*
X74442963Y2823333D01*
X74457689Y2801733D01*
X74465546Y2794934D01*
X74475688Y2789654D01*
X74490844Y2785702D01*
X74513741Y2782887D01*
X74547109Y2781018D01*
X74593675Y2779902D01*
X74656167Y2779349D01*
X74737314Y2779167D01*
X74779422Y2779155D01*
X74869598Y2779235D01*
X74939924Y2779602D01*
X74993129Y2780448D01*
X75031940Y2781964D01*
X75059087Y2784341D01*
X75077298Y2787771D01*
X75089300Y2792446D01*
X75097822Y2798556D01*
X75101156Y2801733D01*
X75107755Y2809330D01*
X75112927Y2819130D01*
X75116846Y2833761D01*
X75119684Y2855848D01*
X75121615Y2888018D01*
X75122812Y2932897D01*
X75123448Y2993111D01*
X75123697Y3071287D01*
X75123734Y3144077D01*
X75123700Y3237293D01*
X75123465Y3310569D01*
X75122830Y3366542D01*
X75121594Y3407849D01*
X75119556Y3437128D01*
X75116517Y3457016D01*
X75112277Y3470150D01*
X75106635Y3479168D01*
X75099391Y3486707D01*
X75097606Y3488388D01*
X75088945Y3495828D01*
X75078882Y3501591D01*
X75064625Y3505888D01*
X75043383Y3508936D01*
X75012364Y3510949D01*
X74968777Y3512140D01*
X74909831Y3512725D01*
X74832734Y3512917D01*
X74778001Y3512933D01*
X74688794Y3512854D01*
G37*
X74688794Y3512854D02*
X74619386Y3512482D01*
X74566997Y3511615D01*
X74528847Y3510054D01*
X74502159Y3507597D01*
X74484153Y3504043D01*
X74472049Y3499190D01*
X74463069Y3492839D01*
X74459818Y3489916D01*
X74440043Y3458858D01*
X74436482Y3423172D01*
X74449491Y3391490D01*
X74455506Y3385087D01*
X74465235Y3378879D01*
X74480901Y3374090D01*
X74505408Y3370486D01*
X74541661Y3367836D01*
X74592565Y3365905D01*
X74661026Y3364461D01*
X74723617Y3363582D01*
X74971334Y3360533D01*
X74974719Y3295622D01*
X74978105Y3230711D01*
X74809958Y3230711D01*
X74736959Y3230081D01*
X74683517Y3227447D01*
X74646628Y3221691D01*
X74623288Y3211696D01*
X74610494Y3196344D01*
X74605242Y3174518D01*
X74604445Y3154262D01*
X74606923Y3129408D01*
X74616277Y3111094D01*
X74635383Y3098363D01*
X74667118Y3090259D01*
X74714359Y3085824D01*
X74779983Y3084101D01*
X74815801Y3083955D01*
X74976978Y3083955D01*
X74976978Y2925911D01*
X74728622Y2925911D01*
X74647213Y2925798D01*
X74585342Y2925288D01*
X74539968Y2924130D01*
X74508054Y2922070D01*
X74486559Y2918854D01*
X74472443Y2914228D01*
X74462668Y2907941D01*
X74457689Y2903333D01*
X74440610Y2876440D01*
X74435111Y2852533D01*
X74442963Y2823333D01*
X74457689Y2801733D01*
X74465546Y2794934D01*
X74475688Y2789654D01*
X74490844Y2785702D01*
X74513741Y2782887D01*
X74547109Y2781018D01*
X74593675Y2779902D01*
X74656167Y2779349D01*
X74737314Y2779167D01*
X74779422Y2779155D01*
X74869598Y2779235D01*
X74939924Y2779602D01*
X74993129Y2780448D01*
X75031940Y2781964D01*
X75059087Y2784341D01*
X75077298Y2787771D01*
X75089300Y2792446D01*
X75097822Y2798556D01*
X75101156Y2801733D01*
X75107755Y2809330D01*
X75112927Y2819130D01*
X75116846Y2833761D01*
X75119684Y2855848D01*
X75121615Y2888018D01*
X75122812Y2932897D01*
X75123448Y2993111D01*
X75123697Y3071287D01*
X75123734Y3144077D01*
X75123700Y3237293D01*
X75123465Y3310569D01*
X75122830Y3366542D01*
X75121594Y3407849D01*
X75119556Y3437128D01*
X75116517Y3457016D01*
X75112277Y3470150D01*
X75106635Y3479168D01*
X75099391Y3486707D01*
X75097606Y3488388D01*
X75088945Y3495828D01*
X75078882Y3501591D01*
X75064625Y3505888D01*
X75043383Y3508936D01*
X75012364Y3510949D01*
X74968777Y3512140D01*
X74909831Y3512725D01*
X74832734Y3512917D01*
X74778001Y3512933D01*
X74688794Y3512854D01*
G36*
X73667703Y3511649D02*
G01*
X73592888Y3506419D01*
X73523306Y3498250D01*
X73463002Y3487450D01*
X73416020Y3474327D01*
X73386406Y3459187D01*
X73381860Y3454731D01*
X73366054Y3420150D01*
X73370847Y3384649D01*
X73395364Y3354275D01*
X73396534Y3353404D01*
X73410954Y3344046D01*
X73426008Y3339124D01*
X73447005Y3338527D01*
X73479257Y3342139D01*
X73528073Y3349846D01*
X73532000Y3350495D01*
X73604739Y3359431D01*
X73683217Y3363839D01*
X73761927Y3363881D01*
X73835361Y3359721D01*
X73898011Y3351521D01*
X73944370Y3339443D01*
X73947416Y3338229D01*
X73981048Y3319385D01*
X73992864Y3300315D01*
X73983614Y3281561D01*
X73954047Y3263663D01*
X73904911Y3247163D01*
X73836957Y3232604D01*
X73791645Y3225594D01*
X73697456Y3212111D01*
X73622544Y3199786D01*
X73563717Y3187551D01*
X73517785Y3174339D01*
X73481555Y3159083D01*
X73451838Y3140715D01*
X73425442Y3118169D01*
X73404230Y3096029D01*
X73379065Y3065181D01*
X73366681Y3038655D01*
X73362808Y3005974D01*
X73362667Y2994005D01*
X73365576Y2954288D01*
X73377202Y2924741D01*
X73397323Y2898514D01*
X73438216Y2858424D01*
X73483817Y2827851D01*
X73537513Y2805797D01*
X73602692Y2791265D01*
X73682744Y2783259D01*
X73781057Y2780782D01*
X73797289Y2780823D01*
X73862849Y2782182D01*
X73927866Y2785270D01*
X73985252Y2789644D01*
X74027922Y2794860D01*
X74031372Y2795459D01*
X74073796Y2805509D01*
X74109780Y2818204D01*
X74130150Y2829810D01*
X74149107Y2860428D01*
X74150427Y2896082D01*
X74134085Y2927856D01*
X74130429Y2931449D01*
X74115315Y2942124D01*
X74096415Y2946724D01*
X74067162Y2945941D01*
X74031651Y2941873D01*
X73991970Y2938238D01*
X73936345Y2935172D01*
X73871406Y2932947D01*
X73803785Y2931836D01*
X73786000Y2931763D01*
X73718128Y2932036D01*
X73668454Y2933354D01*
X73632610Y2936173D01*
X73606224Y2940950D01*
X73584926Y2948143D01*
X73572126Y2954133D01*
X73544000Y2970767D01*
X73526068Y2985832D01*
X73523447Y2990103D01*
X73528976Y3007737D01*
X73555260Y3024808D01*
X73600478Y3040542D01*
X73662808Y3054162D01*
X73681171Y3057196D01*
X73777090Y3072262D01*
X73853641Y3084854D01*
X73913780Y3095889D01*
X73960460Y3106280D01*
X73996637Y3116944D01*
X74025265Y3128795D01*
X74049298Y3142749D01*
X74071692Y3159719D01*
X74095402Y3180622D01*
X74103380Y3187951D01*
X74131353Y3215301D01*
X74146160Y3236971D01*
X74151952Y3261768D01*
X74152889Y3293017D01*
X74142575Y3354295D01*
X74111752Y3406360D01*
X74060595Y3449042D01*
X73989283Y3482175D01*
X73938400Y3497036D01*
X73883100Y3506634D01*
X73816853Y3512064D01*
X73743706Y3513633D01*
X73667703Y3511649D01*
G37*
X73667703Y3511649D02*
X73592888Y3506419D01*
X73523306Y3498250D01*
X73463002Y3487450D01*
X73416020Y3474327D01*
X73386406Y3459187D01*
X73381860Y3454731D01*
X73366054Y3420150D01*
X73370847Y3384649D01*
X73395364Y3354275D01*
X73396534Y3353404D01*
X73410954Y3344046D01*
X73426008Y3339124D01*
X73447005Y3338527D01*
X73479257Y3342139D01*
X73528073Y3349846D01*
X73532000Y3350495D01*
X73604739Y3359431D01*
X73683217Y3363839D01*
X73761927Y3363881D01*
X73835361Y3359721D01*
X73898011Y3351521D01*
X73944370Y3339443D01*
X73947416Y3338229D01*
X73981048Y3319385D01*
X73992864Y3300315D01*
X73983614Y3281561D01*
X73954047Y3263663D01*
X73904911Y3247163D01*
X73836957Y3232604D01*
X73791645Y3225594D01*
X73697456Y3212111D01*
X73622544Y3199786D01*
X73563717Y3187551D01*
X73517785Y3174339D01*
X73481555Y3159083D01*
X73451838Y3140715D01*
X73425442Y3118169D01*
X73404230Y3096029D01*
X73379065Y3065181D01*
X73366681Y3038655D01*
X73362808Y3005974D01*
X73362667Y2994005D01*
X73365576Y2954288D01*
X73377202Y2924741D01*
X73397323Y2898514D01*
X73438216Y2858424D01*
X73483817Y2827851D01*
X73537513Y2805797D01*
X73602692Y2791265D01*
X73682744Y2783259D01*
X73781057Y2780782D01*
X73797289Y2780823D01*
X73862849Y2782182D01*
X73927866Y2785270D01*
X73985252Y2789644D01*
X74027922Y2794860D01*
X74031372Y2795459D01*
X74073796Y2805509D01*
X74109780Y2818204D01*
X74130150Y2829810D01*
X74149107Y2860428D01*
X74150427Y2896082D01*
X74134085Y2927856D01*
X74130429Y2931449D01*
X74115315Y2942124D01*
X74096415Y2946724D01*
X74067162Y2945941D01*
X74031651Y2941873D01*
X73991970Y2938238D01*
X73936345Y2935172D01*
X73871406Y2932947D01*
X73803785Y2931836D01*
X73786000Y2931763D01*
X73718128Y2932036D01*
X73668454Y2933354D01*
X73632610Y2936173D01*
X73606224Y2940950D01*
X73584926Y2948143D01*
X73572126Y2954133D01*
X73544000Y2970767D01*
X73526068Y2985832D01*
X73523447Y2990103D01*
X73528976Y3007737D01*
X73555260Y3024808D01*
X73600478Y3040542D01*
X73662808Y3054162D01*
X73681171Y3057196D01*
X73777090Y3072262D01*
X73853641Y3084854D01*
X73913780Y3095889D01*
X73960460Y3106280D01*
X73996637Y3116944D01*
X74025265Y3128795D01*
X74049298Y3142749D01*
X74071692Y3159719D01*
X74095402Y3180622D01*
X74103380Y3187951D01*
X74131353Y3215301D01*
X74146160Y3236971D01*
X74151952Y3261768D01*
X74152889Y3293017D01*
X74142575Y3354295D01*
X74111752Y3406360D01*
X74060595Y3449042D01*
X73989283Y3482175D01*
X73938400Y3497036D01*
X73883100Y3506634D01*
X73816853Y3512064D01*
X73743706Y3513633D01*
X73667703Y3511649D01*
G36*
X72899822Y3490355D02*
G01*
X72893242Y3482782D01*
X72888079Y3473013D01*
X72884164Y3458429D01*
X72881324Y3436415D01*
X72879387Y3404352D01*
X72878183Y3359625D01*
X72877539Y3299615D01*
X72877284Y3221706D01*
X72877245Y3146044D01*
X72877314Y3052198D01*
X72877638Y2978311D01*
X72878386Y2921768D01*
X72879732Y2879951D01*
X72881846Y2850243D01*
X72884900Y2830027D01*
X72889066Y2816686D01*
X72894516Y2807602D01*
X72899822Y2801733D01*
X72932826Y2782053D01*
X72967991Y2783819D01*
X72999455Y2805283D01*
X73006684Y2813663D01*
X73012334Y2823386D01*
X73016599Y2837139D01*
X73019673Y2857611D01*
X73021752Y2887488D01*
X73023030Y2929459D01*
X73023701Y2986211D01*
X73023959Y3060433D01*
X73024000Y3144463D01*
X73024000Y3457515D01*
X72996291Y3485224D01*
X72962137Y3508537D01*
X72929006Y3509377D01*
X72899822Y3490355D01*
G37*
X72899822Y3490355D02*
X72893242Y3482782D01*
X72888079Y3473013D01*
X72884164Y3458429D01*
X72881324Y3436415D01*
X72879387Y3404352D01*
X72878183Y3359625D01*
X72877539Y3299615D01*
X72877284Y3221706D01*
X72877245Y3146044D01*
X72877314Y3052198D01*
X72877638Y2978311D01*
X72878386Y2921768D01*
X72879732Y2879951D01*
X72881846Y2850243D01*
X72884900Y2830027D01*
X72889066Y2816686D01*
X72894516Y2807602D01*
X72899822Y2801733D01*
X72932826Y2782053D01*
X72967991Y2783819D01*
X72999455Y2805283D01*
X73006684Y2813663D01*
X73012334Y2823386D01*
X73016599Y2837139D01*
X73019673Y2857611D01*
X73021752Y2887488D01*
X73023030Y2929459D01*
X73023701Y2986211D01*
X73023959Y3060433D01*
X73024000Y3144463D01*
X73024000Y3457515D01*
X72996291Y3485224D01*
X72962137Y3508537D01*
X72929006Y3509377D01*
X72899822Y3490355D01*
G36*
X71926081Y3507401D02*
G01*
X71857565Y3495905D01*
X71804943Y3478033D01*
X71770708Y3454501D01*
X71761379Y3441076D01*
X71751893Y3409852D01*
X71758277Y3381605D01*
X71778430Y3354818D01*
X71809745Y3342287D01*
X71855183Y3343304D01*
X71890326Y3350094D01*
X71968419Y3363029D01*
X72048226Y3364258D01*
X72137555Y3353759D01*
X72162229Y3349310D01*
X72245291Y3325892D01*
X72310273Y3291055D01*
X72356461Y3245396D01*
X72383145Y3189506D01*
X72388663Y3160612D01*
X72385051Y3101988D01*
X72361729Y3050121D01*
X72320824Y3006022D01*
X72264459Y2970701D01*
X72194760Y2945171D01*
X72113852Y2930441D01*
X72023860Y2927522D01*
X71926910Y2937425D01*
X71921436Y2938359D01*
X71882875Y2945541D01*
X71861494Y2952479D01*
X71852227Y2962773D01*
X71850006Y2980024D01*
X71849956Y2989159D01*
X71849956Y3027511D01*
X71918431Y3027511D01*
X71978900Y3031653D01*
X72020165Y3044853D01*
X72044175Y3068270D01*
X72052877Y3103064D01*
X72052983Y3107606D01*
X72047892Y3137346D01*
X72030433Y3158581D01*
X71997939Y3172634D01*
X71947743Y3180827D01*
X71899123Y3183839D01*
X71828456Y3185567D01*
X71777198Y3182930D01*
X71742239Y3173200D01*
X71720470Y3153647D01*
X71708780Y3121544D01*
X71704060Y3074162D01*
X71703200Y3011929D01*
X71704609Y2942465D01*
X71708848Y2895214D01*
X71715936Y2869988D01*
X71717311Y2868012D01*
X71756228Y2836492D01*
X71813286Y2811530D01*
X71884869Y2793660D01*
X71967358Y2783414D01*
X72057139Y2781327D01*
X72150592Y2787932D01*
X72205556Y2796044D01*
X72291766Y2820446D01*
X72371892Y2860338D01*
X72438977Y2912113D01*
X72449173Y2922461D01*
X72482302Y2965965D01*
X72512194Y3019882D01*
X72535357Y3076408D01*
X72548298Y3127741D01*
X72549858Y3147456D01*
X72543218Y3188581D01*
X72525568Y3239748D01*
X72500297Y3293606D01*
X72470789Y3342805D01*
X72444719Y3375666D01*
X72383765Y3424548D01*
X72304969Y3463455D01*
X72211157Y3491506D01*
X72105150Y3507821D01*
X72008000Y3511808D01*
X71926081Y3507401D01*
G37*
X71926081Y3507401D02*
X71857565Y3495905D01*
X71804943Y3478033D01*
X71770708Y3454501D01*
X71761379Y3441076D01*
X71751893Y3409852D01*
X71758277Y3381605D01*
X71778430Y3354818D01*
X71809745Y3342287D01*
X71855183Y3343304D01*
X71890326Y3350094D01*
X71968419Y3363029D01*
X72048226Y3364258D01*
X72137555Y3353759D01*
X72162229Y3349310D01*
X72245291Y3325892D01*
X72310273Y3291055D01*
X72356461Y3245396D01*
X72383145Y3189506D01*
X72388663Y3160612D01*
X72385051Y3101988D01*
X72361729Y3050121D01*
X72320824Y3006022D01*
X72264459Y2970701D01*
X72194760Y2945171D01*
X72113852Y2930441D01*
X72023860Y2927522D01*
X71926910Y2937425D01*
X71921436Y2938359D01*
X71882875Y2945541D01*
X71861494Y2952479D01*
X71852227Y2962773D01*
X71850006Y2980024D01*
X71849956Y2989159D01*
X71849956Y3027511D01*
X71918431Y3027511D01*
X71978900Y3031653D01*
X72020165Y3044853D01*
X72044175Y3068270D01*
X72052877Y3103064D01*
X72052983Y3107606D01*
X72047892Y3137346D01*
X72030433Y3158581D01*
X71997939Y3172634D01*
X71947743Y3180827D01*
X71899123Y3183839D01*
X71828456Y3185567D01*
X71777198Y3182930D01*
X71742239Y3173200D01*
X71720470Y3153647D01*
X71708780Y3121544D01*
X71704060Y3074162D01*
X71703200Y3011929D01*
X71704609Y2942465D01*
X71708848Y2895214D01*
X71715936Y2869988D01*
X71717311Y2868012D01*
X71756228Y2836492D01*
X71813286Y2811530D01*
X71884869Y2793660D01*
X71967358Y2783414D01*
X72057139Y2781327D01*
X72150592Y2787932D01*
X72205556Y2796044D01*
X72291766Y2820446D01*
X72371892Y2860338D01*
X72438977Y2912113D01*
X72449173Y2922461D01*
X72482302Y2965965D01*
X72512194Y3019882D01*
X72535357Y3076408D01*
X72548298Y3127741D01*
X72549858Y3147456D01*
X72543218Y3188581D01*
X72525568Y3239748D01*
X72500297Y3293606D01*
X72470789Y3342805D01*
X72444719Y3375666D01*
X72383765Y3424548D01*
X72304969Y3463455D01*
X72211157Y3491506D01*
X72105150Y3507821D01*
X72008000Y3511808D01*
X71926081Y3507401D01*
G36*
X71276114Y3508552D02*
G01*
X71252548Y3494727D01*
X71221735Y3472119D01*
X71182078Y3439662D01*
X71131980Y3396292D01*
X71069843Y3340942D01*
X70994072Y3272549D01*
X70907334Y3193916D01*
X70726711Y3030122D01*
X70721067Y3249971D01*
X70719029Y3325649D01*
X70717063Y3382006D01*
X70714734Y3422294D01*
X70711606Y3449765D01*
X70707245Y3467671D01*
X70701216Y3479263D01*
X70693084Y3487792D01*
X70688772Y3491377D01*
X70654241Y3510330D01*
X70621383Y3507559D01*
X70595318Y3491367D01*
X70568667Y3469801D01*
X70565352Y3154849D01*
X70564435Y3062221D01*
X70563968Y2989456D01*
X70564113Y2933839D01*
X70565032Y2892658D01*
X70566887Y2863197D01*
X70569839Y2842745D01*
X70574050Y2828587D01*
X70579682Y2818009D01*
X70585927Y2809526D01*
X70599439Y2793793D01*
X70612883Y2783364D01*
X70628124Y2779361D01*
X70647026Y2782906D01*
X70671455Y2795121D01*
X70703273Y2817129D01*
X70744348Y2850051D01*
X70796542Y2895009D01*
X70861722Y2953125D01*
X70935556Y3019901D01*
X71200845Y3260542D01*
X71206489Y3041411D01*
X71208531Y2965872D01*
X71210502Y2909646D01*
X71212839Y2869476D01*
X71215981Y2842104D01*
X71220364Y2824272D01*
X71226424Y2812721D01*
X71234600Y2804193D01*
X71238784Y2800718D01*
X71275765Y2781628D01*
X71310708Y2784507D01*
X71341136Y2808900D01*
X71348097Y2818714D01*
X71353523Y2830174D01*
X71357603Y2846032D01*
X71360529Y2869037D01*
X71362492Y2901938D01*
X71363683Y2947484D01*
X71364292Y3008427D01*
X71364511Y3087514D01*
X71364534Y3146044D01*
X71364460Y3237593D01*
X71364113Y3309313D01*
X71363301Y3363955D01*
X71361833Y3404268D01*
X71359519Y3433002D01*
X71356167Y3452907D01*
X71351588Y3466732D01*
X71345589Y3477228D01*
X71341136Y3483189D01*
X71329850Y3497309D01*
X71319301Y3507971D01*
X71307893Y3514108D01*
X71294030Y3514657D01*
X71276114Y3508552D01*
G37*
X71276114Y3508552D02*
X71252548Y3494727D01*
X71221735Y3472119D01*
X71182078Y3439662D01*
X71131980Y3396292D01*
X71069843Y3340942D01*
X70994072Y3272549D01*
X70907334Y3193916D01*
X70726711Y3030122D01*
X70721067Y3249971D01*
X70719029Y3325649D01*
X70717063Y3382006D01*
X70714734Y3422294D01*
X70711606Y3449765D01*
X70707245Y3467671D01*
X70701216Y3479263D01*
X70693084Y3487792D01*
X70688772Y3491377D01*
X70654241Y3510330D01*
X70621383Y3507559D01*
X70595318Y3491367D01*
X70568667Y3469801D01*
X70565352Y3154849D01*
X70564435Y3062221D01*
X70563968Y2989456D01*
X70564113Y2933839D01*
X70565032Y2892658D01*
X70566887Y2863197D01*
X70569839Y2842745D01*
X70574050Y2828587D01*
X70579682Y2818009D01*
X70585927Y2809526D01*
X70599439Y2793793D01*
X70612883Y2783364D01*
X70628124Y2779361D01*
X70647026Y2782906D01*
X70671455Y2795121D01*
X70703273Y2817129D01*
X70744348Y2850051D01*
X70796542Y2895009D01*
X70861722Y2953125D01*
X70935556Y3019901D01*
X71200845Y3260542D01*
X71206489Y3041411D01*
X71208531Y2965872D01*
X71210502Y2909646D01*
X71212839Y2869476D01*
X71215981Y2842104D01*
X71220364Y2824272D01*
X71226424Y2812721D01*
X71234600Y2804193D01*
X71238784Y2800718D01*
X71275765Y2781628D01*
X71310708Y2784507D01*
X71341136Y2808900D01*
X71348097Y2818714D01*
X71353523Y2830174D01*
X71357603Y2846032D01*
X71360529Y2869037D01*
X71362492Y2901938D01*
X71363683Y2947484D01*
X71364292Y3008427D01*
X71364511Y3087514D01*
X71364534Y3146044D01*
X71364460Y3237593D01*
X71364113Y3309313D01*
X71363301Y3363955D01*
X71361833Y3404268D01*
X71359519Y3433002D01*
X71356167Y3452907D01*
X71351588Y3466732D01*
X71345589Y3477228D01*
X71341136Y3483189D01*
X71329850Y3497309D01*
X71319301Y3507971D01*
X71307893Y3514108D01*
X71294030Y3514657D01*
X71276114Y3508552D01*
G36*
X69745657Y3512740D02*
G01*
X69669299Y3511826D01*
X69610783Y3509689D01*
X69567745Y3505825D01*
X69537817Y3499733D01*
X69518632Y3490910D01*
X69507824Y3478854D01*
X69503027Y3463061D01*
X69501873Y3443030D01*
X69501867Y3440665D01*
X69502869Y3418008D01*
X69507604Y3400497D01*
X69518667Y3387426D01*
X69538652Y3378087D01*
X69570154Y3371773D01*
X69615768Y3367778D01*
X69678087Y3365394D01*
X69759707Y3363914D01*
X69784723Y3363586D01*
X70026800Y3360533D01*
X70030186Y3295622D01*
X70033571Y3230711D01*
X69865424Y3230711D01*
X69799734Y3230469D01*
X69752828Y3229444D01*
X69720917Y3227189D01*
X69700209Y3223258D01*
X69686916Y3217202D01*
X69677245Y3208576D01*
X69677183Y3208507D01*
X69659644Y3174888D01*
X69660278Y3138552D01*
X69678686Y3107577D01*
X69682329Y3104393D01*
X69695259Y3096188D01*
X69712976Y3090479D01*
X69739430Y3086838D01*
X69778568Y3084833D01*
X69834338Y3084036D01*
X69870006Y3083955D01*
X70032445Y3083955D01*
X70032445Y2925911D01*
X69785839Y2925911D01*
X69704420Y2925769D01*
X69642590Y2925186D01*
X69597363Y2923932D01*
X69565752Y2921773D01*
X69544769Y2918477D01*
X69531427Y2913811D01*
X69522739Y2907543D01*
X69520550Y2905267D01*
X69504386Y2873720D01*
X69503203Y2837832D01*
X69516464Y2806715D01*
X69526957Y2796729D01*
X69537871Y2791231D01*
X69554783Y2786978D01*
X69580367Y2783820D01*
X69617299Y2781608D01*
X69668254Y2780194D01*
X69735906Y2779428D01*
X69822931Y2779162D01*
X69842606Y2779155D01*
X69931089Y2779213D01*
X69999773Y2779533D01*
X70051436Y2780333D01*
X70088855Y2781833D01*
X70114810Y2784251D01*
X70132078Y2787806D01*
X70143438Y2792718D01*
X70151668Y2799205D01*
X70156183Y2803862D01*
X70162979Y2812111D01*
X70168288Y2822331D01*
X70172294Y2837200D01*
X70175179Y2859398D01*
X70177126Y2891607D01*
X70178319Y2936504D01*
X70178939Y2996772D01*
X70179171Y3075089D01*
X70179200Y3141006D01*
X70179129Y3233372D01*
X70178792Y3305883D01*
X70178002Y3361263D01*
X70176574Y3402235D01*
X70174321Y3431522D01*
X70171057Y3451847D01*
X70166596Y3465934D01*
X70160752Y3476505D01*
X70155803Y3483189D01*
X70132406Y3512933D01*
X69842226Y3512933D01*
X69745657Y3512740D01*
G37*
X69745657Y3512740D02*
X69669299Y3511826D01*
X69610783Y3509689D01*
X69567745Y3505825D01*
X69537817Y3499733D01*
X69518632Y3490910D01*
X69507824Y3478854D01*
X69503027Y3463061D01*
X69501873Y3443030D01*
X69501867Y3440665D01*
X69502869Y3418008D01*
X69507604Y3400497D01*
X69518667Y3387426D01*
X69538652Y3378087D01*
X69570154Y3371773D01*
X69615768Y3367778D01*
X69678087Y3365394D01*
X69759707Y3363914D01*
X69784723Y3363586D01*
X70026800Y3360533D01*
X70030186Y3295622D01*
X70033571Y3230711D01*
X69865424Y3230711D01*
X69799734Y3230469D01*
X69752828Y3229444D01*
X69720917Y3227189D01*
X69700209Y3223258D01*
X69686916Y3217202D01*
X69677245Y3208576D01*
X69677183Y3208507D01*
X69659644Y3174888D01*
X69660278Y3138552D01*
X69678686Y3107577D01*
X69682329Y3104393D01*
X69695259Y3096188D01*
X69712976Y3090479D01*
X69739430Y3086838D01*
X69778568Y3084833D01*
X69834338Y3084036D01*
X69870006Y3083955D01*
X70032445Y3083955D01*
X70032445Y2925911D01*
X69785839Y2925911D01*
X69704420Y2925769D01*
X69642590Y2925186D01*
X69597363Y2923932D01*
X69565752Y2921773D01*
X69544769Y2918477D01*
X69531427Y2913811D01*
X69522739Y2907543D01*
X69520550Y2905267D01*
X69504386Y2873720D01*
X69503203Y2837832D01*
X69516464Y2806715D01*
X69526957Y2796729D01*
X69537871Y2791231D01*
X69554783Y2786978D01*
X69580367Y2783820D01*
X69617299Y2781608D01*
X69668254Y2780194D01*
X69735906Y2779428D01*
X69822931Y2779162D01*
X69842606Y2779155D01*
X69931089Y2779213D01*
X69999773Y2779533D01*
X70051436Y2780333D01*
X70088855Y2781833D01*
X70114810Y2784251D01*
X70132078Y2787806D01*
X70143438Y2792718D01*
X70151668Y2799205D01*
X70156183Y2803862D01*
X70162979Y2812111D01*
X70168288Y2822331D01*
X70172294Y2837200D01*
X70175179Y2859398D01*
X70177126Y2891607D01*
X70178319Y2936504D01*
X70178939Y2996772D01*
X70179171Y3075089D01*
X70179200Y3141006D01*
X70179129Y3233372D01*
X70178792Y3305883D01*
X70178002Y3361263D01*
X70176574Y3402235D01*
X70174321Y3431522D01*
X70171057Y3451847D01*
X70166596Y3465934D01*
X70160752Y3476505D01*
X70155803Y3483189D01*
X70132406Y3512933D01*
X69842226Y3512933D01*
X69745657Y3512740D01*
G36*
X68957691Y3512725D02*
G01*
X68828712Y3508364D01*
X68719009Y3495139D01*
X68626774Y3472259D01*
X68550198Y3438930D01*
X68487473Y3394362D01*
X68436788Y3337764D01*
X68396337Y3268342D01*
X68395541Y3266649D01*
X68371399Y3204517D01*
X68362797Y3149491D01*
X68369769Y3094113D01*
X68392346Y3030927D01*
X68396628Y3021311D01*
X68425828Y2965034D01*
X68458644Y2921549D01*
X68500998Y2884583D01*
X68558810Y2847865D01*
X68562169Y2845948D01*
X68612496Y2821773D01*
X68669379Y2803718D01*
X68736473Y2791161D01*
X68817435Y2783478D01*
X68915918Y2780047D01*
X68950714Y2779749D01*
X69116406Y2779155D01*
X69139803Y2808900D01*
X69146743Y2818681D01*
X69152158Y2830103D01*
X69156235Y2845905D01*
X69159163Y2868825D01*
X69161133Y2901604D01*
X69161775Y2925911D01*
X69005156Y2925911D01*
X68911274Y2925911D01*
X68856336Y2927517D01*
X68799940Y2931745D01*
X68753655Y2937708D01*
X68750861Y2938210D01*
X68668652Y2960264D01*
X68604886Y2993400D01*
X68557548Y3039153D01*
X68524618Y3099061D01*
X68518892Y3114939D01*
X68513279Y3139667D01*
X68515709Y3164098D01*
X68527533Y3196600D01*
X68534660Y3212566D01*
X68558000Y3254994D01*
X68586120Y3284760D01*
X68617060Y3305489D01*
X68679034Y3332463D01*
X68758349Y3352002D01*
X68850747Y3363254D01*
X68917667Y3365730D01*
X69005156Y3366178D01*
X69005156Y2925911D01*
X69161775Y2925911D01*
X69162332Y2946979D01*
X69162950Y3007689D01*
X69163175Y3086474D01*
X69163200Y3148080D01*
X69163200Y3457515D01*
X69135491Y3485224D01*
X69123194Y3496456D01*
X69109897Y3504147D01*
X69091328Y3508960D01*
X69063214Y3511554D01*
X69021283Y3512590D01*
X68961263Y3512730D01*
X68957691Y3512725D01*
G37*
X68957691Y3512725D02*
X68828712Y3508364D01*
X68719009Y3495139D01*
X68626774Y3472259D01*
X68550198Y3438930D01*
X68487473Y3394362D01*
X68436788Y3337764D01*
X68396337Y3268342D01*
X68395541Y3266649D01*
X68371399Y3204517D01*
X68362797Y3149491D01*
X68369769Y3094113D01*
X68392346Y3030927D01*
X68396628Y3021311D01*
X68425828Y2965034D01*
X68458644Y2921549D01*
X68500998Y2884583D01*
X68558810Y2847865D01*
X68562169Y2845948D01*
X68612496Y2821773D01*
X68669379Y2803718D01*
X68736473Y2791161D01*
X68817435Y2783478D01*
X68915918Y2780047D01*
X68950714Y2779749D01*
X69116406Y2779155D01*
X69139803Y2808900D01*
X69146743Y2818681D01*
X69152158Y2830103D01*
X69156235Y2845905D01*
X69159163Y2868825D01*
X69161133Y2901604D01*
X69161775Y2925911D01*
X69005156Y2925911D01*
X68911274Y2925911D01*
X68856336Y2927517D01*
X68799940Y2931745D01*
X68753655Y2937708D01*
X68750861Y2938210D01*
X68668652Y2960264D01*
X68604886Y2993400D01*
X68557548Y3039153D01*
X68524618Y3099061D01*
X68518892Y3114939D01*
X68513279Y3139667D01*
X68515709Y3164098D01*
X68527533Y3196600D01*
X68534660Y3212566D01*
X68558000Y3254994D01*
X68586120Y3284760D01*
X68617060Y3305489D01*
X68679034Y3332463D01*
X68758349Y3352002D01*
X68850747Y3363254D01*
X68917667Y3365730D01*
X69005156Y3366178D01*
X69005156Y2925911D01*
X69161775Y2925911D01*
X69162332Y2946979D01*
X69162950Y3007689D01*
X69163175Y3086474D01*
X69163200Y3148080D01*
X69163200Y3457515D01*
X69135491Y3485224D01*
X69123194Y3496456D01*
X69109897Y3504147D01*
X69091328Y3508960D01*
X69063214Y3511554D01*
X69021283Y3512590D01*
X68961263Y3512730D01*
X68957691Y3512725D01*
G36*
X66231335Y3510966D02*
G01*
X66211745Y3503965D01*
X66210990Y3503623D01*
X66184387Y3483322D01*
X66169730Y3462439D01*
X66166862Y3452648D01*
X66167004Y3439639D01*
X66171039Y3421105D01*
X66179854Y3394743D01*
X66194331Y3358248D01*
X66215355Y3309313D01*
X66243812Y3245635D01*
X66280585Y3164907D01*
X66300825Y3120784D01*
X66337375Y3042015D01*
X66371685Y2969577D01*
X66402448Y2906120D01*
X66428352Y2854292D01*
X66448090Y2816741D01*
X66460350Y2796116D01*
X66462776Y2793267D01*
X66493817Y2780698D01*
X66528879Y2782381D01*
X66557000Y2797668D01*
X66558146Y2798911D01*
X66569332Y2815846D01*
X66588096Y2848830D01*
X66612125Y2893620D01*
X66639103Y2945968D01*
X66648799Y2965258D01*
X66721986Y3111850D01*
X66801760Y2952607D01*
X66830233Y2897585D01*
X66856650Y2849868D01*
X66878852Y2813107D01*
X66894681Y2790956D01*
X66900046Y2786259D01*
X66941743Y2779898D01*
X66976151Y2793267D01*
X66986272Y2807554D01*
X67003786Y2839308D01*
X67027265Y2885403D01*
X67055280Y2942715D01*
X67086401Y3008120D01*
X67119201Y3078493D01*
X67152250Y3150709D01*
X67184119Y3221645D01*
X67213381Y3288175D01*
X67238605Y3347174D01*
X67258364Y3395519D01*
X67271228Y3430085D01*
X67275769Y3447747D01*
X67275723Y3448387D01*
X67264674Y3470612D01*
X67242590Y3493247D01*
X67241290Y3494232D01*
X67214147Y3509575D01*
X67189042Y3509426D01*
X67179632Y3506534D01*
X67168166Y3500282D01*
X67155990Y3487986D01*
X67141643Y3467092D01*
X67123664Y3435051D01*
X67100593Y3389312D01*
X67070970Y3327323D01*
X67044255Y3270102D01*
X67013520Y3203774D01*
X66985979Y3144126D01*
X66963062Y3094275D01*
X66946202Y3057336D01*
X66936827Y3036427D01*
X66935460Y3033155D01*
X66929311Y3038503D01*
X66915178Y3060891D01*
X66894943Y3097054D01*
X66870485Y3143723D01*
X66860752Y3162978D01*
X66827783Y3227996D01*
X66802357Y3275346D01*
X66782388Y3307781D01*
X66765790Y3328054D01*
X66750476Y3338918D01*
X66734360Y3343125D01*
X66723857Y3343600D01*
X66705330Y3341958D01*
X66689096Y3335169D01*
X66672965Y3320434D01*
X66654749Y3294956D01*
X66632261Y3255939D01*
X66603311Y3200586D01*
X66587338Y3169097D01*
X66561430Y3118913D01*
X66538833Y3077296D01*
X66521542Y3047758D01*
X66511550Y3033811D01*
X66510191Y3033230D01*
X66503739Y3044207D01*
X66489292Y3072710D01*
X66468297Y3115756D01*
X66442203Y3170362D01*
X66412454Y3233546D01*
X66397820Y3264929D01*
X66359750Y3345922D01*
X66329095Y3408244D01*
X66304263Y3453929D01*
X66283663Y3485011D01*
X66265702Y3503522D01*
X66248790Y3511496D01*
X66231335Y3510966D01*
G37*
X66231335Y3510966D02*
X66211745Y3503965D01*
X66210990Y3503623D01*
X66184387Y3483322D01*
X66169730Y3462439D01*
X66166862Y3452648D01*
X66167004Y3439639D01*
X66171039Y3421105D01*
X66179854Y3394743D01*
X66194331Y3358248D01*
X66215355Y3309313D01*
X66243812Y3245635D01*
X66280585Y3164907D01*
X66300825Y3120784D01*
X66337375Y3042015D01*
X66371685Y2969577D01*
X66402448Y2906120D01*
X66428352Y2854292D01*
X66448090Y2816741D01*
X66460350Y2796116D01*
X66462776Y2793267D01*
X66493817Y2780698D01*
X66528879Y2782381D01*
X66557000Y2797668D01*
X66558146Y2798911D01*
X66569332Y2815846D01*
X66588096Y2848830D01*
X66612125Y2893620D01*
X66639103Y2945968D01*
X66648799Y2965258D01*
X66721986Y3111850D01*
X66801760Y2952607D01*
X66830233Y2897585D01*
X66856650Y2849868D01*
X66878852Y2813107D01*
X66894681Y2790956D01*
X66900046Y2786259D01*
X66941743Y2779898D01*
X66976151Y2793267D01*
X66986272Y2807554D01*
X67003786Y2839308D01*
X67027265Y2885403D01*
X67055280Y2942715D01*
X67086401Y3008120D01*
X67119201Y3078493D01*
X67152250Y3150709D01*
X67184119Y3221645D01*
X67213381Y3288175D01*
X67238605Y3347174D01*
X67258364Y3395519D01*
X67271228Y3430085D01*
X67275769Y3447747D01*
X67275723Y3448387D01*
X67264674Y3470612D01*
X67242590Y3493247D01*
X67241290Y3494232D01*
X67214147Y3509575D01*
X67189042Y3509426D01*
X67179632Y3506534D01*
X67168166Y3500282D01*
X67155990Y3487986D01*
X67141643Y3467092D01*
X67123664Y3435051D01*
X67100593Y3389312D01*
X67070970Y3327323D01*
X67044255Y3270102D01*
X67013520Y3203774D01*
X66985979Y3144126D01*
X66963062Y3094275D01*
X66946202Y3057336D01*
X66936827Y3036427D01*
X66935460Y3033155D01*
X66929311Y3038503D01*
X66915178Y3060891D01*
X66894943Y3097054D01*
X66870485Y3143723D01*
X66860752Y3162978D01*
X66827783Y3227996D01*
X66802357Y3275346D01*
X66782388Y3307781D01*
X66765790Y3328054D01*
X66750476Y3338918D01*
X66734360Y3343125D01*
X66723857Y3343600D01*
X66705330Y3341958D01*
X66689096Y3335169D01*
X66672965Y3320434D01*
X66654749Y3294956D01*
X66632261Y3255939D01*
X66603311Y3200586D01*
X66587338Y3169097D01*
X66561430Y3118913D01*
X66538833Y3077296D01*
X66521542Y3047758D01*
X66511550Y3033811D01*
X66510191Y3033230D01*
X66503739Y3044207D01*
X66489292Y3072710D01*
X66468297Y3115756D01*
X66442203Y3170362D01*
X66412454Y3233546D01*
X66397820Y3264929D01*
X66359750Y3345922D01*
X66329095Y3408244D01*
X66304263Y3453929D01*
X66283663Y3485011D01*
X66265702Y3503522D01*
X66248790Y3511496D01*
X66231335Y3510966D01*
G36*
X65787386Y3506123D02*
G01*
X65763673Y3491353D01*
X65737022Y3469773D01*
X65737022Y3148227D01*
X65737107Y3054170D01*
X65737471Y2980068D01*
X65738276Y2923296D01*
X65739687Y2881232D01*
X65741867Y2851252D01*
X65744979Y2830733D01*
X65749186Y2817051D01*
X65754652Y2807584D01*
X65758528Y2802918D01*
X65789966Y2782425D01*
X65825767Y2783261D01*
X65857127Y2800736D01*
X65883778Y2822316D01*
X65883778Y3469773D01*
X65857127Y3491353D01*
X65831406Y3507051D01*
X65810400Y3512933D01*
X65787386Y3506123D01*
G37*
X65787386Y3506123D02*
X65763673Y3491353D01*
X65737022Y3469773D01*
X65737022Y3148227D01*
X65737107Y3054170D01*
X65737471Y2980068D01*
X65738276Y2923296D01*
X65739687Y2881232D01*
X65741867Y2851252D01*
X65744979Y2830733D01*
X65749186Y2817051D01*
X65754652Y2807584D01*
X65758528Y2802918D01*
X65789966Y2782425D01*
X65825767Y2783261D01*
X65857127Y2800736D01*
X65883778Y2822316D01*
X65883778Y3469773D01*
X65857127Y3491353D01*
X65831406Y3507051D01*
X65810400Y3512933D01*
X65787386Y3506123D01*
G36*
X65012935Y3512837D02*
G01*
X64934228Y3512458D01*
X64873137Y3511667D01*
X64827183Y3510330D01*
X64793886Y3508317D01*
X64770764Y3505494D01*
X64755338Y3501731D01*
X64745129Y3496895D01*
X64740187Y3493178D01*
X64714543Y3460642D01*
X64711441Y3426862D01*
X64727289Y3396174D01*
X64737652Y3383911D01*
X64748804Y3375550D01*
X64764965Y3370343D01*
X64790358Y3367543D01*
X64829202Y3366404D01*
X64885720Y3366179D01*
X64896820Y3366178D01*
X65042756Y3366178D01*
X65042756Y3095244D01*
X65042852Y3009846D01*
X65043289Y2944136D01*
X65044288Y2895226D01*
X65046072Y2860227D01*
X65048863Y2836251D01*
X65052883Y2820407D01*
X65058355Y2809809D01*
X65065334Y2801733D01*
X65098266Y2781888D01*
X65132646Y2783452D01*
X65163824Y2806094D01*
X65166114Y2808900D01*
X65173571Y2819508D01*
X65179253Y2831919D01*
X65183399Y2849150D01*
X65186250Y2874216D01*
X65188046Y2910133D01*
X65189028Y2959917D01*
X65189436Y3026583D01*
X65189511Y3102411D01*
X65189511Y3366178D01*
X65328873Y3366178D01*
X65388678Y3366582D01*
X65430082Y3368160D01*
X65457252Y3371453D01*
X65474354Y3377008D01*
X65485557Y3385369D01*
X65486917Y3386822D01*
X65503275Y3420061D01*
X65501828Y3457638D01*
X65483022Y3490355D01*
X65475750Y3496702D01*
X65466373Y3501734D01*
X65452391Y3505604D01*
X65431304Y3508463D01*
X65400611Y3510465D01*
X65357811Y3511761D01*
X65300405Y3512502D01*
X65225890Y3512842D01*
X65131767Y3512932D01*
X65111740Y3512933D01*
X65012935Y3512837D01*
G37*
X65012935Y3512837D02*
X64934228Y3512458D01*
X64873137Y3511667D01*
X64827183Y3510330D01*
X64793886Y3508317D01*
X64770764Y3505494D01*
X64755338Y3501731D01*
X64745129Y3496895D01*
X64740187Y3493178D01*
X64714543Y3460642D01*
X64711441Y3426862D01*
X64727289Y3396174D01*
X64737652Y3383911D01*
X64748804Y3375550D01*
X64764965Y3370343D01*
X64790358Y3367543D01*
X64829202Y3366404D01*
X64885720Y3366179D01*
X64896820Y3366178D01*
X65042756Y3366178D01*
X65042756Y3095244D01*
X65042852Y3009846D01*
X65043289Y2944136D01*
X65044288Y2895226D01*
X65046072Y2860227D01*
X65048863Y2836251D01*
X65052883Y2820407D01*
X65058355Y2809809D01*
X65065334Y2801733D01*
X65098266Y2781888D01*
X65132646Y2783452D01*
X65163824Y2806094D01*
X65166114Y2808900D01*
X65173571Y2819508D01*
X65179253Y2831919D01*
X65183399Y2849150D01*
X65186250Y2874216D01*
X65188046Y2910133D01*
X65189028Y2959917D01*
X65189436Y3026583D01*
X65189511Y3102411D01*
X65189511Y3366178D01*
X65328873Y3366178D01*
X65388678Y3366582D01*
X65430082Y3368160D01*
X65457252Y3371453D01*
X65474354Y3377008D01*
X65485557Y3385369D01*
X65486917Y3386822D01*
X65503275Y3420061D01*
X65501828Y3457638D01*
X65483022Y3490355D01*
X65475750Y3496702D01*
X65466373Y3501734D01*
X65452391Y3505604D01*
X65431304Y3508463D01*
X65400611Y3510465D01*
X65357811Y3511761D01*
X65300405Y3512502D01*
X65225890Y3512842D01*
X65131767Y3512932D01*
X65111740Y3512933D01*
X65012935Y3512837D01*
G36*
X63747177Y3507467D02*
G01*
X63715798Y3485224D01*
X63688089Y3457515D01*
X63688089Y3148080D01*
X63688162Y3056201D01*
X63688505Y2984160D01*
X63689308Y2929220D01*
X63690759Y2888640D01*
X63693048Y2859683D01*
X63696364Y2839609D01*
X63700895Y2825679D01*
X63706831Y2815155D01*
X63711486Y2808900D01*
X63742217Y2784327D01*
X63777504Y2781659D01*
X63809755Y2796729D01*
X63820412Y2805626D01*
X63827536Y2817443D01*
X63831833Y2836474D01*
X63834009Y2867008D01*
X63834772Y2913338D01*
X63834845Y2949129D01*
X63834845Y3083955D01*
X64331556Y3083955D01*
X64331556Y2961300D01*
X64332069Y2905213D01*
X64334124Y2866667D01*
X64338492Y2840639D01*
X64345944Y2822103D01*
X64354953Y2808900D01*
X64385856Y2784396D01*
X64420804Y2781494D01*
X64454262Y2798911D01*
X64463396Y2808041D01*
X64469848Y2820145D01*
X64474103Y2838999D01*
X64476648Y2868380D01*
X64477971Y2912063D01*
X64478557Y2973825D01*
X64478625Y2988000D01*
X64479109Y3104369D01*
X64479359Y3200273D01*
X64479277Y3277823D01*
X64478769Y3339131D01*
X64477738Y3386310D01*
X64476087Y3421470D01*
X64473721Y3446724D01*
X64470543Y3464183D01*
X64466456Y3475959D01*
X64461366Y3484165D01*
X64455734Y3490355D01*
X64423872Y3510156D01*
X64390643Y3507467D01*
X64359265Y3485224D01*
X64346567Y3470874D01*
X64338474Y3455022D01*
X64333958Y3432446D01*
X64331994Y3397922D01*
X64331556Y3346224D01*
X64331556Y3230711D01*
X63834845Y3230711D01*
X63834845Y3349244D01*
X63834338Y3403852D01*
X63832302Y3440725D01*
X63827965Y3464693D01*
X63820553Y3480585D01*
X63812267Y3490355D01*
X63780406Y3510156D01*
X63747177Y3507467D01*
G37*
X63747177Y3507467D02*
X63715798Y3485224D01*
X63688089Y3457515D01*
X63688089Y3148080D01*
X63688162Y3056201D01*
X63688505Y2984160D01*
X63689308Y2929220D01*
X63690759Y2888640D01*
X63693048Y2859683D01*
X63696364Y2839609D01*
X63700895Y2825679D01*
X63706831Y2815155D01*
X63711486Y2808900D01*
X63742217Y2784327D01*
X63777504Y2781659D01*
X63809755Y2796729D01*
X63820412Y2805626D01*
X63827536Y2817443D01*
X63831833Y2836474D01*
X63834009Y2867008D01*
X63834772Y2913338D01*
X63834845Y2949129D01*
X63834845Y3083955D01*
X64331556Y3083955D01*
X64331556Y2961300D01*
X64332069Y2905213D01*
X64334124Y2866667D01*
X64338492Y2840639D01*
X64345944Y2822103D01*
X64354953Y2808900D01*
X64385856Y2784396D01*
X64420804Y2781494D01*
X64454262Y2798911D01*
X64463396Y2808041D01*
X64469848Y2820145D01*
X64474103Y2838999D01*
X64476648Y2868380D01*
X64477971Y2912063D01*
X64478557Y2973825D01*
X64478625Y2988000D01*
X64479109Y3104369D01*
X64479359Y3200273D01*
X64479277Y3277823D01*
X64478769Y3339131D01*
X64477738Y3386310D01*
X64476087Y3421470D01*
X64473721Y3446724D01*
X64470543Y3464183D01*
X64466456Y3475959D01*
X64461366Y3484165D01*
X64455734Y3490355D01*
X64423872Y3510156D01*
X64390643Y3507467D01*
X64359265Y3485224D01*
X64346567Y3470874D01*
X64338474Y3455022D01*
X64333958Y3432446D01*
X64331994Y3397922D01*
X64331556Y3346224D01*
X64331556Y3230711D01*
X63834845Y3230711D01*
X63834845Y3349244D01*
X63834338Y3403852D01*
X63832302Y3440725D01*
X63827965Y3464693D01*
X63820553Y3480585D01*
X63812267Y3490355D01*
X63780406Y3510156D01*
X63747177Y3507467D01*
%TD*%
M02*
