M48
; DRILL file {KiCad (5.1.6)-1} date 09/24/20 00:50:14
; FORMAT={-:-/ absolute / metric / decimal}
; #@! TF.CreationDate,2020-09-24T00:50:14+03:00
; #@! TF.GenerationSoftware,Kicad,Pcbnew,(5.1.6)-1
FMAT,2
METRIC
T1C0.300
T2C0.400
T3C0.920
T4C1.000
T5C2.330
%
G90
G05
T1
X4.064Y15.494
X6.985Y16.51
X8.78Y7.27
X11.624Y7.56
X12.064Y9.465
X12.87Y6.44
X13.462Y22.352
X14.35Y7.21
X15.239Y8.195
X15.24Y10.16
X16.256Y5.588
X16.88Y7.46
X18.542Y19.558
X18.542Y7.366
X18.796Y11.176
X21.082Y11.176
X21.082Y7.112
X30.225Y19.625
X30.734Y28.194
X33.527Y14.926
X36.258Y29.023
X36.636Y33.468
X37.27Y26.29
X37.972Y11.878
X37.972Y8.068
X39.623Y30.42
X40.512Y31.436
X41.02Y30.42
X41.02Y28.896
X42.036Y30.928
X42.29Y14.989
X43.052Y11.116
X43.56Y32.96
X43.56Y5.782
X44.068Y30.928
X44.322Y11.116
X44.576Y33.976
X44.576Y31.944
X44.576Y29.912
X44.83Y8.83
X46.1Y12.64
X46.608Y17.466
X47.624Y13.148
X47.964Y21.243
X48.132Y30.928
X48.64Y32.96
X49.402Y25.467
X49.783Y16.958
X50.164Y20.514
X51.434Y23.562
X51.688Y30.674
X52.35Y20.52
X53.148Y32.198
X54.164Y28.451
X54.482Y19.244
T2
X1.65Y7.56
X1.65Y2.48
X2.412Y34.29
X3.937Y26.162
X3.937Y21.971
X5.14Y2.2
X6.604Y13.91
X6.604Y9.592
X7.874Y34.29
X8.284Y2.194
X9.75Y29.0
X9.75Y17.0
X10.032Y8.576
X11.81Y13.148
X11.938Y25.908
X12.954Y34.29
X13.208Y18.542
X13.403Y2.248
X14.097Y16.256
X15.24Y32.004
X15.24Y27.178
X15.494Y23.876
X15.494Y13.208
X16.51Y33.782
X17.144Y24.832
X18.415Y16.51
X18.542Y14.478
X18.796Y27.178
X18.796Y22.987
X20.192Y14.672
X21.732Y16.466
X22.352Y33.274
X22.478Y22.038
X23.114Y27.686
X24.51Y13.275
X24.51Y3.115
X24.764Y22.292
X25.145Y8.322
X25.78Y25.594
X26.124Y18.9
X26.288Y22.292
X29.717Y9.211
X30.352Y33.722
X30.988Y26.924
X31.495Y2.48
X31.939Y17.72
X32.13Y15.053
X32.638Y8.068
X32.765Y6.29
X34.67Y29.912
X34.67Y24.705
X34.798Y33.782
X34.924Y21.276
X35.305Y12.64
X37.846Y1.778
X44.83Y15.434
X44.957Y1.21
X44.958Y27.178
X46.862Y24.324
X51.816Y28.388
X56.006Y13.148
X57.404Y11.684
X57.72Y20.831
X57.784Y18.037
X57.912Y5.655
X59.308Y8.576
X59.562Y26.61
X60.324Y12.64
X61.34Y1.21
X61.976Y6.604
X62.356Y18.482
X62.356Y15.18
X62.356Y11.116
X62.61Y31.817
X62.992Y22.606
X64.388Y8.576
X65.278Y23.368
X65.404Y33.976
X65.404Y27.88
X66.42Y18.228
X66.42Y13.91
X67.055Y10.735
X70.484Y33.976
X72.262Y1.718
X72.516Y30.42
X72.516Y24.324
X76.072Y33.976
X76.707Y9.338
X76.834Y2.734
X78.612Y26.864
X78.612Y14.926
T3
X7.398Y25.5
X7.398Y23.0
X9.398Y25.5
X9.398Y23.0
T4
X68.706Y30.0
X68.706Y27.46
X68.706Y24.92
X68.706Y22.38
X68.706Y19.84
X68.706Y17.3
X68.706Y14.76
X68.706Y12.22
X33.908Y10.1
X36.448Y10.1
X27.812Y12.132
X27.812Y9.592
X27.812Y7.052
X27.812Y4.512
X76.316Y30.0
X76.316Y27.46
X76.316Y24.92
X76.316Y22.38
X76.316Y19.84
X76.316Y17.3
X76.316Y14.76
X76.316Y12.22
T5
X4.688Y30.27
X4.688Y18.23
T0
M30
