%TF.GenerationSoftware,KiCad,Pcbnew,(5.1.6)-1*%
%TF.CreationDate,2020-09-08T21:42:59+03:00*%
%TF.ProjectId,freepdk,66726565-7064-46b2-9e6b-696361645f70,3*%
%TF.SameCoordinates,PX3c51298PY447eab0*%
%TF.FileFunction,Copper,L2,Bot*%
%TF.FilePolarity,Positive*%
%FSLAX46Y46*%
G04 Gerber Fmt 4.6, Leading zero omitted, Abs format (unit mm)*
G04 Created by KiCad (PCBNEW (5.1.6)-1) date 2020-09-08 21:42:59*
%MOMM*%
%LPD*%
G01*
G04 APERTURE LIST*
%TA.AperFunction,ComponentPad*%
%ADD10O,1.700000X1.700000*%
%TD*%
%TA.AperFunction,ComponentPad*%
%ADD11R,1.700000X1.700000*%
%TD*%
%TA.AperFunction,ViaPad*%
%ADD12C,0.600000*%
%TD*%
%TA.AperFunction,ViaPad*%
%ADD13C,0.800000*%
%TD*%
%TA.AperFunction,Conductor*%
%ADD14C,0.250000*%
%TD*%
%TA.AperFunction,Conductor*%
%ADD15C,0.500000*%
%TD*%
%TA.AperFunction,Conductor*%
%ADD16C,0.254000*%
%TD*%
G04 APERTURE END LIST*
D10*
%TO.P,J4,8*%
%TO.N,Net-(J4-Pad8)*%
X76316000Y12220000D03*
%TO.P,J4,7*%
%TO.N,Net-(J4-Pad7)*%
X76316000Y14760000D03*
%TO.P,J4,6*%
%TO.N,Net-(J4-Pad6)*%
X76316000Y17300000D03*
%TO.P,J4,5*%
%TO.N,GND*%
X76316000Y19840000D03*
%TO.P,J4,4*%
%TO.N,Net-(J4-Pad4)*%
X76316000Y22380000D03*
%TO.P,J4,3*%
%TO.N,Net-(J4-Pad3)*%
X76316000Y24920000D03*
%TO.P,J4,2*%
%TO.N,Net-(J4-Pad2)*%
X76316000Y27460000D03*
D11*
%TO.P,J4,1*%
%TO.N,Net-(J4-Pad1)*%
X76316000Y30000000D03*
%TD*%
D10*
%TO.P,J3,8*%
%TO.N,/PROG_VPP_PA5*%
X68706000Y12220000D03*
%TO.P,J3,7*%
%TO.N,Net-(J3-Pad7)*%
X68706000Y14760000D03*
%TO.P,J3,6*%
%TO.N,Net-(J3-Pad6)*%
X68706000Y17300000D03*
%TO.P,J3,5*%
%TO.N,/PROG_VDD*%
X68706000Y19840000D03*
%TO.P,J3,4*%
%TO.N,Net-(J3-Pad4)*%
X68706000Y22380000D03*
%TO.P,J3,3*%
%TO.N,Net-(J3-Pad3)*%
X68706000Y24920000D03*
%TO.P,J3,2*%
%TO.N,Net-(J3-Pad2)*%
X68706000Y27460000D03*
D11*
%TO.P,J3,1*%
%TO.N,Net-(J3-Pad1)*%
X68706000Y30000000D03*
%TD*%
D10*
%TO.P,J5,2*%
%TO.N,+3V3*%
X33908000Y10100000D03*
D11*
%TO.P,J5,1*%
%TO.N,/BOOT_SW*%
X36448000Y10100000D03*
%TD*%
D10*
%TO.P,J2,4*%
%TO.N,GND*%
X27812000Y4512000D03*
%TO.P,J2,3*%
%TO.N,/SWD_CLK*%
X27812000Y7052000D03*
%TO.P,J2,2*%
%TO.N,/SWD_IO*%
X27812000Y9592000D03*
D11*
%TO.P,J2,1*%
%TO.N,+3V3*%
X27812000Y12132000D03*
%TD*%
D12*
%TO.N,GND*%
X15239000Y8195000D03*
X12870000Y6440000D03*
X12064000Y9465000D03*
D13*
X57784000Y18037500D03*
X57720500Y20831500D03*
X31939500Y17720000D03*
D12*
X54164500Y28451500D03*
X53148500Y32198000D03*
X39623000Y30420000D03*
D13*
X17144000Y24832000D03*
X18415000Y16510000D03*
X26124194Y18900010D03*
X76072000Y33976000D03*
X70484000Y33976000D03*
X65404000Y33976000D03*
X72516000Y24324000D03*
X72516000Y30420000D03*
X65404000Y27880000D03*
X65278000Y23368000D03*
X72262000Y1718000D03*
X56006000Y13148000D03*
X60324000Y12640000D03*
X59308000Y8576000D03*
X62356000Y11116000D03*
X61976000Y6604000D03*
X64388000Y8576000D03*
X44958000Y27178000D03*
X51816000Y28388000D03*
X15494000Y13208000D03*
X2412000Y34290000D03*
X12954000Y34290000D03*
X7874000Y34290000D03*
X15240000Y32004000D03*
X16510000Y33782000D03*
X32765000Y6290000D03*
X31495000Y2480000D03*
X37846000Y1778000D03*
X24510000Y13275000D03*
X24510000Y3115000D03*
X35305000Y12640000D03*
X67055000Y10735000D03*
X57912000Y5655000D03*
X30352000Y33722000D03*
X22352000Y33274000D03*
X6604000Y13910000D03*
X6604000Y9592000D03*
X1650000Y2480000D03*
X1650000Y7560000D03*
X25145000Y8322000D03*
X34670000Y24705000D03*
X46862000Y24324000D03*
X44830000Y15434000D03*
X59562000Y26610000D03*
X66420000Y18228000D03*
X66420000Y13910000D03*
X62356000Y15180000D03*
X62356000Y18482000D03*
X11810000Y13148000D03*
X34924000Y21276000D03*
X34670000Y29912000D03*
D12*
X41020000Y30420000D03*
X44068000Y30928000D03*
X51688000Y30674000D03*
X43560000Y32960000D03*
X48640000Y32960000D03*
X48132000Y30928000D03*
X50164000Y20514000D03*
X51434000Y23562000D03*
X54482000Y19244000D03*
D13*
X57404000Y11684000D03*
D12*
X52350000Y20520000D03*
X8780000Y7270000D03*
X43560000Y5782000D03*
X37972000Y11878000D03*
X37972000Y8068000D03*
X44322000Y11116000D03*
X46608000Y17466000D03*
X47624000Y13148000D03*
D13*
X15494000Y23876000D03*
X19176000Y22800000D03*
X26288000Y22292000D03*
X25780000Y25594000D03*
X22986000Y28896000D03*
X22478000Y22038000D03*
X32638000Y8068000D03*
X76707000Y9338000D03*
X76834000Y2734000D03*
X78612000Y26864000D03*
X78612000Y14926000D03*
X44957000Y1210000D03*
X61340000Y1210000D03*
X62992000Y22606000D03*
X62610000Y31817000D03*
X32130000Y15053000D03*
X29717000Y9211000D03*
X21732000Y16466000D03*
X10668000Y20320000D03*
X10414000Y18542000D03*
X2655065Y20988625D03*
X2648020Y25187963D03*
X10447798Y27435596D03*
X9652000Y30988000D03*
D12*
X11624000Y7560000D03*
X18796000Y11176000D03*
X21082000Y11176000D03*
D13*
X5334000Y17272000D03*
X8283665Y2194145D03*
D12*
X16256000Y5588000D03*
X15240000Y10160000D03*
D13*
X5140000Y2200000D03*
D12*
X16880000Y7460000D03*
X14350000Y7210000D03*
X37270000Y26290000D03*
X13462000Y22352000D03*
X11684000Y25908000D03*
D13*
X5334000Y28702000D03*
X18542000Y14478000D03*
X14097000Y16256000D03*
D12*
X18542000Y7366000D03*
X21082000Y7112000D03*
X18542000Y19558000D03*
D13*
X2540000Y30480000D03*
X1650000Y15180000D03*
D12*
%TO.N,+3V3*%
X49402000Y25467000D03*
X36257500Y29023000D03*
X33527000Y14926000D03*
X46100000Y12640000D03*
X44830000Y8830000D03*
X30225000Y19625000D03*
%TO.N,/NRST*%
X49783000Y16958000D03*
X47963637Y21243263D03*
D13*
%TO.N,Net-(C14-Pad1)*%
X20192000Y14672000D03*
X24764000Y22292000D03*
D12*
%TO.N,/PROG_VPP_PA5*%
X40512000Y31436000D03*
X44576000Y33976000D03*
D13*
%TO.N,Net-(R3-Pad2)*%
X10032000Y8576000D03*
X13403215Y2247597D03*
D12*
%TO.N,/DAC_VPP*%
X29336000Y29912000D03*
X31876000Y33468000D03*
%TO.N,/FEEDBACK_VDD*%
X41020000Y28896000D03*
X44576000Y29912000D03*
%TO.N,/FEEDBACK_VPP*%
X42036000Y30928000D03*
X44576000Y31944000D03*
%TO.N,Net-(R1-Pad1)*%
X42290000Y14989500D03*
X43052000Y11116000D03*
D13*
%TO.N,Net-(F1-Pad2)*%
X10668000Y24600000D03*
X13208000Y18542000D03*
%TD*%
D14*
%TO.N,+3V3*%
X49402000Y25467000D02*
X45401500Y25467000D01*
X45401500Y25467000D02*
X44004500Y24070000D01*
X36257500Y29023000D02*
X36257500Y25784500D01*
X36257500Y25784500D02*
X37972000Y24070000D01*
X44766500Y17212000D02*
X44639500Y17339000D01*
X44639500Y17339000D02*
X43623500Y18355000D01*
D15*
X33527000Y14926000D02*
X35178000Y14926000D01*
X35178000Y14926000D02*
X38480000Y18228000D01*
D14*
X33146000Y12132000D02*
X33908000Y11370000D01*
X27812000Y12132000D02*
X33146000Y12132000D01*
X33908000Y11370000D02*
X33908000Y10100000D01*
D15*
X30225000Y19625000D02*
X30225000Y21149000D01*
X30225000Y21149000D02*
X31876000Y22800000D01*
X31876000Y22800000D02*
X38480000Y22800000D01*
X46100000Y15878500D02*
X43623500Y18355000D01*
X46100000Y12640000D02*
X46100000Y15878500D01*
X44830000Y8830000D02*
X44830000Y10100000D01*
X46100000Y11370000D02*
X46100000Y12640000D01*
X44830000Y10100000D02*
X46100000Y11370000D01*
D14*
%TO.N,/NRST*%
X49783000Y16958000D02*
X49783000Y19423900D01*
X49783000Y19423900D02*
X47963637Y21243263D01*
D15*
%TO.N,Net-(C14-Pad1)*%
X20192000Y14672000D02*
X20192000Y17720000D01*
X20192000Y17720000D02*
X24764000Y22292000D01*
D14*
%TO.N,/PROG_VPP_PA5*%
X43052000Y33976000D02*
X40512000Y31436000D01*
X44576000Y33976000D02*
X43052000Y33976000D01*
D15*
%TO.N,Net-(R3-Pad2)*%
X10032000Y8576000D02*
X10032000Y6732000D01*
X10032000Y6732000D02*
X13403215Y3360785D01*
X13403215Y3360785D02*
X13403215Y2247597D01*
D14*
%TO.N,/DAC_VPP*%
X31876000Y33468000D02*
X29336000Y30928000D01*
X29336000Y30928000D02*
X29336000Y29912000D01*
%TO.N,/FEEDBACK_VDD*%
X44576000Y29912000D02*
X42036000Y29912000D01*
X42036000Y29912000D02*
X41020000Y28896000D01*
%TO.N,/FEEDBACK_VPP*%
X43052000Y31944000D02*
X42036000Y30928000D01*
X44576000Y31944000D02*
X43052000Y31944000D01*
%TO.N,Net-(R1-Pad1)*%
X42290000Y14989500D02*
X42290000Y11878000D01*
X42290000Y11878000D02*
X43052000Y11116000D01*
D15*
%TO.N,Net-(F1-Pad2)*%
X10668000Y24600000D02*
X11938000Y23330000D01*
X11938000Y23330000D02*
X11938000Y19812000D01*
X11938000Y19812000D02*
X13208000Y18542000D01*
X13208000Y18542000D02*
X13208000Y18542000D01*
%TD*%
D16*
%TO.N,GND*%
G36*
X79340000Y660000D02*
G01*
X660000Y660000D01*
X660000Y8677939D01*
X8997000Y8677939D01*
X8997000Y8474061D01*
X9036774Y8274102D01*
X9114795Y8085744D01*
X9147000Y8037545D01*
X9147001Y6775479D01*
X9142719Y6732000D01*
X9159805Y6558510D01*
X9210412Y6391687D01*
X9292590Y6237941D01*
X9375468Y6136954D01*
X9375471Y6136951D01*
X9403184Y6103183D01*
X9436951Y6075471D01*
X12518215Y2994206D01*
X12518216Y2786052D01*
X12486010Y2737853D01*
X12407989Y2549495D01*
X12368215Y2349536D01*
X12368215Y2145658D01*
X12407989Y1945699D01*
X12486010Y1757341D01*
X12599278Y1587823D01*
X12743441Y1443660D01*
X12912959Y1330392D01*
X13101317Y1252371D01*
X13301276Y1212597D01*
X13505154Y1212597D01*
X13705113Y1252371D01*
X13893471Y1330392D01*
X14062989Y1443660D01*
X14207152Y1587823D01*
X14320420Y1757341D01*
X14398441Y1945699D01*
X14438215Y2145658D01*
X14438215Y2349536D01*
X14398441Y2549495D01*
X14320420Y2737853D01*
X14288215Y2786051D01*
X14288215Y3317316D01*
X14292496Y3360785D01*
X14288215Y3404254D01*
X14288215Y3404262D01*
X14275410Y3534275D01*
X14224804Y3701098D01*
X14142626Y3854844D01*
X14032032Y3989602D01*
X13998265Y4017314D01*
X13860469Y4155110D01*
X26370524Y4155110D01*
X26415175Y4007901D01*
X26540359Y3745080D01*
X26714412Y3511731D01*
X26930645Y3316822D01*
X27180748Y3167843D01*
X27455109Y3070519D01*
X27685000Y3191186D01*
X27685000Y4385000D01*
X27939000Y4385000D01*
X27939000Y3191186D01*
X28168891Y3070519D01*
X28443252Y3167843D01*
X28693355Y3316822D01*
X28909588Y3511731D01*
X29083641Y3745080D01*
X29208825Y4007901D01*
X29253476Y4155110D01*
X29132155Y4385000D01*
X27939000Y4385000D01*
X27685000Y4385000D01*
X26491845Y4385000D01*
X26370524Y4155110D01*
X13860469Y4155110D01*
X10917000Y7098578D01*
X10917000Y8037546D01*
X10949205Y8085744D01*
X11027226Y8274102D01*
X11067000Y8474061D01*
X11067000Y8677939D01*
X11027226Y8877898D01*
X10949205Y9066256D01*
X10835937Y9235774D01*
X10691774Y9379937D01*
X10522256Y9493205D01*
X10333898Y9571226D01*
X10133939Y9611000D01*
X9930061Y9611000D01*
X9730102Y9571226D01*
X9541744Y9493205D01*
X9372226Y9379937D01*
X9228063Y9235774D01*
X9114795Y9066256D01*
X9036774Y8877898D01*
X8997000Y8677939D01*
X660000Y8677939D01*
X660000Y12982000D01*
X26323928Y12982000D01*
X26323928Y11282000D01*
X26336188Y11157518D01*
X26372498Y11037820D01*
X26431463Y10927506D01*
X26510815Y10830815D01*
X26607506Y10751463D01*
X26717820Y10692498D01*
X26790380Y10670487D01*
X26658525Y10538632D01*
X26496010Y10295411D01*
X26384068Y10025158D01*
X26327000Y9738260D01*
X26327000Y9445740D01*
X26384068Y9158842D01*
X26496010Y8888589D01*
X26658525Y8645368D01*
X26865368Y8438525D01*
X27039760Y8322000D01*
X26865368Y8205475D01*
X26658525Y7998632D01*
X26496010Y7755411D01*
X26384068Y7485158D01*
X26327000Y7198260D01*
X26327000Y6905740D01*
X26384068Y6618842D01*
X26496010Y6348589D01*
X26658525Y6105368D01*
X26865368Y5898525D01*
X27047534Y5776805D01*
X26930645Y5707178D01*
X26714412Y5512269D01*
X26540359Y5278920D01*
X26415175Y5016099D01*
X26370524Y4868890D01*
X26491845Y4639000D01*
X27685000Y4639000D01*
X27685000Y4659000D01*
X27939000Y4659000D01*
X27939000Y4639000D01*
X29132155Y4639000D01*
X29253476Y4868890D01*
X29208825Y5016099D01*
X29083641Y5278920D01*
X28909588Y5512269D01*
X28693355Y5707178D01*
X28576466Y5776805D01*
X28758632Y5898525D01*
X28965475Y6105368D01*
X29127990Y6348589D01*
X29239932Y6618842D01*
X29297000Y6905740D01*
X29297000Y7198260D01*
X29239932Y7485158D01*
X29127990Y7755411D01*
X28965475Y7998632D01*
X28758632Y8205475D01*
X28584240Y8322000D01*
X28758632Y8438525D01*
X28965475Y8645368D01*
X29127990Y8888589D01*
X29239932Y9158842D01*
X29297000Y9445740D01*
X29297000Y9738260D01*
X29239932Y10025158D01*
X29127990Y10295411D01*
X28965475Y10538632D01*
X28833620Y10670487D01*
X28906180Y10692498D01*
X29016494Y10751463D01*
X29113185Y10830815D01*
X29192537Y10927506D01*
X29251502Y11037820D01*
X29287812Y11157518D01*
X29300072Y11282000D01*
X29300072Y11372000D01*
X32831199Y11372000D01*
X32955546Y11247653D01*
X32754525Y11046632D01*
X32592010Y10803411D01*
X32480068Y10533158D01*
X32423000Y10246260D01*
X32423000Y9953740D01*
X32480068Y9666842D01*
X32592010Y9396589D01*
X32754525Y9153368D01*
X32961368Y8946525D01*
X33204589Y8784010D01*
X33474842Y8672068D01*
X33761740Y8615000D01*
X34054260Y8615000D01*
X34341158Y8672068D01*
X34611411Y8784010D01*
X34854632Y8946525D01*
X34986487Y9078380D01*
X35008498Y9005820D01*
X35067463Y8895506D01*
X35146815Y8798815D01*
X35243506Y8719463D01*
X35353820Y8660498D01*
X35473518Y8624188D01*
X35598000Y8611928D01*
X37298000Y8611928D01*
X37422482Y8624188D01*
X37542180Y8660498D01*
X37652494Y8719463D01*
X37749185Y8798815D01*
X37828537Y8895506D01*
X37887502Y9005820D01*
X37923812Y9125518D01*
X37936072Y9250000D01*
X37936072Y10950000D01*
X37923812Y11074482D01*
X37887502Y11194180D01*
X37828537Y11304494D01*
X37749185Y11401185D01*
X37652494Y11480537D01*
X37542180Y11539502D01*
X37422482Y11575812D01*
X37298000Y11588072D01*
X35598000Y11588072D01*
X35473518Y11575812D01*
X35353820Y11539502D01*
X35243506Y11480537D01*
X35146815Y11401185D01*
X35067463Y11304494D01*
X35008498Y11194180D01*
X34986487Y11121620D01*
X34854632Y11253475D01*
X34671073Y11376125D01*
X34668000Y11407325D01*
X34668000Y11407333D01*
X34657003Y11518986D01*
X34613546Y11662247D01*
X34542974Y11794276D01*
X34448001Y11910001D01*
X34419004Y11933798D01*
X33709803Y12642998D01*
X33686001Y12672001D01*
X33570276Y12766974D01*
X33438247Y12837546D01*
X33294986Y12881003D01*
X33183333Y12892000D01*
X33183322Y12892000D01*
X33146000Y12895676D01*
X33108678Y12892000D01*
X29300072Y12892000D01*
X29300072Y12982000D01*
X29287812Y13106482D01*
X29251502Y13226180D01*
X29192537Y13336494D01*
X29113185Y13433185D01*
X29016494Y13512537D01*
X28906180Y13571502D01*
X28786482Y13607812D01*
X28662000Y13620072D01*
X26962000Y13620072D01*
X26837518Y13607812D01*
X26717820Y13571502D01*
X26607506Y13512537D01*
X26510815Y13433185D01*
X26431463Y13336494D01*
X26372498Y13226180D01*
X26336188Y13106482D01*
X26323928Y12982000D01*
X660000Y12982000D01*
X660000Y14773939D01*
X19157000Y14773939D01*
X19157000Y14570061D01*
X19196774Y14370102D01*
X19274795Y14181744D01*
X19388063Y14012226D01*
X19532226Y13868063D01*
X19701744Y13754795D01*
X19890102Y13676774D01*
X20090061Y13637000D01*
X20293939Y13637000D01*
X20493898Y13676774D01*
X20682256Y13754795D01*
X20851774Y13868063D01*
X20995937Y14012226D01*
X21109205Y14181744D01*
X21187226Y14370102D01*
X21227000Y14570061D01*
X21227000Y14773939D01*
X21187226Y14973898D01*
X21109205Y15162256D01*
X21077000Y15210454D01*
X21077000Y17353422D01*
X23440667Y19717089D01*
X29290000Y19717089D01*
X29290000Y19532911D01*
X29325932Y19352271D01*
X29396414Y19182111D01*
X29498738Y19028972D01*
X29628972Y18898738D01*
X29782111Y18796414D01*
X29952271Y18725932D01*
X30132911Y18690000D01*
X30317089Y18690000D01*
X30497729Y18725932D01*
X30667889Y18796414D01*
X30821028Y18898738D01*
X30951262Y19028972D01*
X31053586Y19182111D01*
X31124068Y19352271D01*
X31160000Y19532911D01*
X31160000Y19717089D01*
X31124068Y19897729D01*
X31110000Y19931692D01*
X31110000Y20782422D01*
X32242579Y21915000D01*
X37083000Y21915000D01*
X37083000Y18082579D01*
X34811422Y15811000D01*
X33833692Y15811000D01*
X33799729Y15825068D01*
X33619089Y15861000D01*
X33434911Y15861000D01*
X33254271Y15825068D01*
X33084111Y15754586D01*
X32930972Y15652262D01*
X32800738Y15522028D01*
X32698414Y15368889D01*
X32627932Y15198729D01*
X32592000Y15018089D01*
X32592000Y14833911D01*
X32627932Y14653271D01*
X32698414Y14483111D01*
X32800738Y14329972D01*
X32930972Y14199738D01*
X33084111Y14097414D01*
X33254271Y14026932D01*
X33434911Y13991000D01*
X33619089Y13991000D01*
X33799729Y14026932D01*
X33833692Y14041000D01*
X35134531Y14041000D01*
X35178000Y14036719D01*
X35221469Y14041000D01*
X35221477Y14041000D01*
X35351490Y14053805D01*
X35518313Y14104411D01*
X35672059Y14186589D01*
X35806817Y14297183D01*
X35834534Y14330956D01*
X36585167Y15081589D01*
X41355000Y15081589D01*
X41355000Y14897411D01*
X41390932Y14716771D01*
X41461414Y14546611D01*
X41530000Y14443964D01*
X41530001Y11915332D01*
X41526324Y11878000D01*
X41530001Y11840667D01*
X41540998Y11729014D01*
X41554180Y11685558D01*
X41584454Y11585754D01*
X41655026Y11453724D01*
X41708367Y11388729D01*
X41750000Y11337999D01*
X41778998Y11314201D01*
X42128847Y10964351D01*
X42152932Y10843271D01*
X42223414Y10673111D01*
X42325738Y10519972D01*
X42455972Y10389738D01*
X42609111Y10287414D01*
X42779271Y10216932D01*
X42959911Y10181000D01*
X43144089Y10181000D01*
X43324729Y10216932D01*
X43494889Y10287414D01*
X43648028Y10389738D01*
X43778262Y10519972D01*
X43880586Y10673111D01*
X43951068Y10843271D01*
X43987000Y11023911D01*
X43987000Y11208089D01*
X43951068Y11388729D01*
X43880586Y11558889D01*
X43778262Y11712028D01*
X43648028Y11842262D01*
X43494889Y11944586D01*
X43324729Y12015068D01*
X43203649Y12039153D01*
X43050000Y12192801D01*
X43050000Y14443965D01*
X43118586Y14546611D01*
X43189068Y14716771D01*
X43225000Y14897411D01*
X43225000Y15081589D01*
X43189068Y15262229D01*
X43118586Y15432389D01*
X43016262Y15585528D01*
X42886028Y15715762D01*
X42732889Y15818086D01*
X42562729Y15888568D01*
X42382089Y15924500D01*
X42197911Y15924500D01*
X42017271Y15888568D01*
X41847111Y15818086D01*
X41693972Y15715762D01*
X41563738Y15585528D01*
X41461414Y15432389D01*
X41390932Y15262229D01*
X41355000Y15081589D01*
X36585167Y15081589D01*
X38588579Y17085000D01*
X43641922Y17085000D01*
X45215001Y15511920D01*
X45215000Y12946693D01*
X45200932Y12912729D01*
X45165000Y12732089D01*
X45165000Y12547911D01*
X45200932Y12367271D01*
X45215001Y12333306D01*
X45215000Y11736579D01*
X44234951Y10756529D01*
X44201184Y10728817D01*
X44173471Y10695049D01*
X44173468Y10695046D01*
X44090590Y10594059D01*
X44008412Y10440313D01*
X43957805Y10273490D01*
X43940719Y10100000D01*
X43945001Y10056522D01*
X43945000Y9136693D01*
X43930932Y9102729D01*
X43895000Y8922089D01*
X43895000Y8737911D01*
X43930932Y8557271D01*
X44001414Y8387111D01*
X44103738Y8233972D01*
X44233972Y8103738D01*
X44387111Y8001414D01*
X44557271Y7930932D01*
X44737911Y7895000D01*
X44922089Y7895000D01*
X45102729Y7930932D01*
X45272889Y8001414D01*
X45426028Y8103738D01*
X45556262Y8233972D01*
X45658586Y8387111D01*
X45729068Y8557271D01*
X45765000Y8737911D01*
X45765000Y8922089D01*
X45729068Y9102729D01*
X45715000Y9136692D01*
X45715000Y9733422D01*
X46695050Y10713471D01*
X46728817Y10741183D01*
X46782177Y10806201D01*
X46839410Y10875940D01*
X46839411Y10875941D01*
X46921589Y11029687D01*
X46972195Y11196510D01*
X46985000Y11326523D01*
X46985000Y11326533D01*
X46989281Y11369999D01*
X46985000Y11413465D01*
X46985000Y12333308D01*
X46999068Y12367271D01*
X47035000Y12547911D01*
X47035000Y12732089D01*
X46999068Y12912729D01*
X46985000Y12946692D01*
X46985000Y15835031D01*
X46989281Y15878500D01*
X46985000Y15921969D01*
X46985000Y15921977D01*
X46972195Y16051990D01*
X46921589Y16218813D01*
X46839411Y16372559D01*
X46728817Y16507317D01*
X46695049Y16535030D01*
X44957000Y18273078D01*
X44957000Y21335352D01*
X47028637Y21335352D01*
X47028637Y21151174D01*
X47064569Y20970534D01*
X47135051Y20800374D01*
X47237375Y20647235D01*
X47367609Y20517001D01*
X47520748Y20414677D01*
X47690908Y20344195D01*
X47811989Y20320110D01*
X49023001Y19109097D01*
X49023000Y17503536D01*
X48954414Y17400889D01*
X48883932Y17230729D01*
X48848000Y17050089D01*
X48848000Y16865911D01*
X48883932Y16685271D01*
X48954414Y16515111D01*
X49056738Y16361972D01*
X49186972Y16231738D01*
X49340111Y16129414D01*
X49510271Y16058932D01*
X49690911Y16023000D01*
X49875089Y16023000D01*
X50055729Y16058932D01*
X50225889Y16129414D01*
X50379028Y16231738D01*
X50509262Y16361972D01*
X50611586Y16515111D01*
X50682068Y16685271D01*
X50718000Y16865911D01*
X50718000Y17050089D01*
X50682068Y17230729D01*
X50611586Y17400889D01*
X50543000Y17503535D01*
X50543000Y19386577D01*
X50546676Y19423900D01*
X50543000Y19461223D01*
X50543000Y19461233D01*
X50532003Y19572886D01*
X50488546Y19716147D01*
X50417974Y19848176D01*
X50323001Y19963901D01*
X50294003Y19987699D01*
X48886790Y21394911D01*
X48862705Y21515992D01*
X48792223Y21686152D01*
X48689899Y21839291D01*
X48559665Y21969525D01*
X48406526Y22071849D01*
X48236366Y22142331D01*
X48055726Y22178263D01*
X47871548Y22178263D01*
X47690908Y22142331D01*
X47520748Y22071849D01*
X47367609Y21969525D01*
X47237375Y21839291D01*
X47135051Y21686152D01*
X47064569Y21515992D01*
X47028637Y21335352D01*
X44957000Y21335352D01*
X44957000Y23947699D01*
X45716302Y24707000D01*
X48856465Y24707000D01*
X48959111Y24638414D01*
X49129271Y24567932D01*
X49309911Y24532000D01*
X49494089Y24532000D01*
X49674729Y24567932D01*
X49844889Y24638414D01*
X49998028Y24740738D01*
X50128262Y24870972D01*
X50230586Y25024111D01*
X50301068Y25194271D01*
X50337000Y25374911D01*
X50337000Y25559089D01*
X50301068Y25739729D01*
X50230586Y25909889D01*
X50128262Y26063028D01*
X49998028Y26193262D01*
X49844889Y26295586D01*
X49674729Y26366068D01*
X49494089Y26402000D01*
X49309911Y26402000D01*
X49129271Y26366068D01*
X48959111Y26295586D01*
X48856465Y26227000D01*
X45438822Y26227000D01*
X45401499Y26230676D01*
X45364176Y26227000D01*
X45364167Y26227000D01*
X45252514Y26216003D01*
X45109253Y26172546D01*
X44977224Y26101974D01*
X44861499Y26007001D01*
X44837701Y25978003D01*
X43818699Y24959000D01*
X38157802Y24959000D01*
X37017500Y26099301D01*
X37017500Y28477465D01*
X37086086Y28580111D01*
X37156568Y28750271D01*
X37192500Y28930911D01*
X37192500Y29115089D01*
X37156568Y29295729D01*
X37086086Y29465889D01*
X36983762Y29619028D01*
X36853528Y29749262D01*
X36700389Y29851586D01*
X36530229Y29922068D01*
X36349589Y29958000D01*
X36165411Y29958000D01*
X35984771Y29922068D01*
X35814611Y29851586D01*
X35661472Y29749262D01*
X35531238Y29619028D01*
X35428914Y29465889D01*
X35358432Y29295729D01*
X35322500Y29115089D01*
X35322500Y28930911D01*
X35358432Y28750271D01*
X35428914Y28580111D01*
X35497500Y28477464D01*
X35497501Y25821832D01*
X35493824Y25784500D01*
X35497501Y25747167D01*
X35508498Y25635514D01*
X35514422Y25615986D01*
X35551954Y25492254D01*
X35622526Y25360224D01*
X35662277Y25311788D01*
X35717500Y25244499D01*
X35746498Y25220701D01*
X37083000Y23884198D01*
X37083000Y23685000D01*
X31919469Y23685000D01*
X31876000Y23689281D01*
X31832531Y23685000D01*
X31832523Y23685000D01*
X31702510Y23672195D01*
X31535686Y23621589D01*
X31381941Y23539411D01*
X31280953Y23456532D01*
X31280951Y23456530D01*
X31247183Y23428817D01*
X31219470Y23395049D01*
X29629951Y21805529D01*
X29596184Y21777817D01*
X29568471Y21744049D01*
X29568468Y21744046D01*
X29485590Y21643059D01*
X29403412Y21489313D01*
X29352805Y21322490D01*
X29335719Y21149000D01*
X29340001Y21105521D01*
X29340000Y19931693D01*
X29325932Y19897729D01*
X29290000Y19717089D01*
X23440667Y19717089D01*
X25009044Y21285465D01*
X25065898Y21296774D01*
X25254256Y21374795D01*
X25423774Y21488063D01*
X25567937Y21632226D01*
X25681205Y21801744D01*
X25759226Y21990102D01*
X25799000Y22190061D01*
X25799000Y22393939D01*
X25759226Y22593898D01*
X25681205Y22782256D01*
X25567937Y22951774D01*
X25423774Y23095937D01*
X25254256Y23209205D01*
X25065898Y23287226D01*
X24865939Y23327000D01*
X24662061Y23327000D01*
X24462102Y23287226D01*
X24273744Y23209205D01*
X24104226Y23095937D01*
X23960063Y22951774D01*
X23846795Y22782256D01*
X23768774Y22593898D01*
X23757465Y22537044D01*
X19596952Y18376530D01*
X19563184Y18348817D01*
X19535471Y18315049D01*
X19535468Y18315046D01*
X19452590Y18214059D01*
X19370412Y18060313D01*
X19319805Y17893490D01*
X19302719Y17720000D01*
X19307001Y17676521D01*
X19307000Y15210455D01*
X19274795Y15162256D01*
X19196774Y14973898D01*
X19157000Y14773939D01*
X660000Y14773939D01*
X660000Y20911788D01*
X4325000Y20911788D01*
X4325000Y20688212D01*
X4368617Y20468933D01*
X4454176Y20262376D01*
X4578388Y20076480D01*
X4736480Y19918388D01*
X4922376Y19794176D01*
X5128933Y19708617D01*
X5348212Y19665000D01*
X5571788Y19665000D01*
X5791067Y19708617D01*
X5997624Y19794176D01*
X6183520Y19918388D01*
X6341612Y20076480D01*
X6465824Y20262376D01*
X6551383Y20468933D01*
X6595000Y20688212D01*
X6595000Y20911788D01*
X6551383Y21131067D01*
X6465824Y21337624D01*
X6341612Y21523520D01*
X6183520Y21681612D01*
X5997624Y21805824D01*
X5791067Y21891383D01*
X5571788Y21935000D01*
X5348212Y21935000D01*
X5128933Y21891383D01*
X4922376Y21805824D01*
X4736480Y21681612D01*
X4578388Y21523520D01*
X4454176Y21337624D01*
X4368617Y21131067D01*
X4325000Y20911788D01*
X660000Y20911788D01*
X660000Y25311788D01*
X4325000Y25311788D01*
X4325000Y25088212D01*
X4368617Y24868933D01*
X4454176Y24662376D01*
X4578388Y24476480D01*
X4736480Y24318388D01*
X4922376Y24194176D01*
X5128933Y24108617D01*
X5348212Y24065000D01*
X5571788Y24065000D01*
X5791067Y24108617D01*
X5997624Y24194176D01*
X6183520Y24318388D01*
X6341612Y24476480D01*
X6465824Y24662376D01*
X6482211Y24701939D01*
X9633000Y24701939D01*
X9633000Y24498061D01*
X9672774Y24298102D01*
X9750795Y24109744D01*
X9864063Y23940226D01*
X10008226Y23796063D01*
X10177744Y23682795D01*
X10366102Y23604774D01*
X10422957Y23593465D01*
X11053000Y22963421D01*
X11053001Y19855479D01*
X11048719Y19812000D01*
X11065805Y19638510D01*
X11116412Y19471687D01*
X11198590Y19317941D01*
X11281468Y19216954D01*
X11281471Y19216951D01*
X11309184Y19183183D01*
X11342951Y19155471D01*
X12201465Y18296956D01*
X12212774Y18240102D01*
X12290795Y18051744D01*
X12404063Y17882226D01*
X12548226Y17738063D01*
X12717744Y17624795D01*
X12906102Y17546774D01*
X13106061Y17507000D01*
X13309939Y17507000D01*
X13509898Y17546774D01*
X13698256Y17624795D01*
X13867774Y17738063D01*
X14011937Y17882226D01*
X14125205Y18051744D01*
X14203226Y18240102D01*
X14243000Y18440061D01*
X14243000Y18643939D01*
X14203226Y18843898D01*
X14125205Y19032256D01*
X14011937Y19201774D01*
X13867774Y19345937D01*
X13698256Y19459205D01*
X13509898Y19537226D01*
X13453044Y19548535D01*
X12823000Y20178578D01*
X12823000Y23286535D01*
X12827281Y23330001D01*
X12823000Y23373467D01*
X12823000Y23373477D01*
X12810195Y23503490D01*
X12759589Y23670313D01*
X12677411Y23824059D01*
X12566817Y23958817D01*
X12533050Y23986529D01*
X11674535Y24845043D01*
X11663226Y24901898D01*
X11585205Y25090256D01*
X11471937Y25259774D01*
X11327774Y25403937D01*
X11158256Y25517205D01*
X10969898Y25595226D01*
X10769939Y25635000D01*
X10566061Y25635000D01*
X10366102Y25595226D01*
X10177744Y25517205D01*
X10008226Y25403937D01*
X9864063Y25259774D01*
X9750795Y25090256D01*
X9672774Y24901898D01*
X9633000Y24701939D01*
X6482211Y24701939D01*
X6551383Y24868933D01*
X6595000Y25088212D01*
X6595000Y25311788D01*
X6551383Y25531067D01*
X6465824Y25737624D01*
X6341612Y25923520D01*
X6183520Y26081612D01*
X5997624Y26205824D01*
X5791067Y26291383D01*
X5571788Y26335000D01*
X5348212Y26335000D01*
X5128933Y26291383D01*
X4922376Y26205824D01*
X4736480Y26081612D01*
X4578388Y25923520D01*
X4454176Y25737624D01*
X4368617Y25531067D01*
X4325000Y25311788D01*
X660000Y25311788D01*
X660000Y30004089D01*
X28401000Y30004089D01*
X28401000Y29819911D01*
X28436932Y29639271D01*
X28507414Y29469111D01*
X28609738Y29315972D01*
X28739972Y29185738D01*
X28893111Y29083414D01*
X29063271Y29012932D01*
X29243911Y28977000D01*
X29428089Y28977000D01*
X29608729Y29012932D01*
X29778889Y29083414D01*
X29932028Y29185738D01*
X30062262Y29315972D01*
X30164586Y29469111D01*
X30235068Y29639271D01*
X30271000Y29819911D01*
X30271000Y30004089D01*
X30235068Y30184729D01*
X30164586Y30354889D01*
X30096000Y30457535D01*
X30096000Y30613199D01*
X31010890Y31528089D01*
X39577000Y31528089D01*
X39577000Y31343911D01*
X39612932Y31163271D01*
X39683414Y30993111D01*
X39785738Y30839972D01*
X39915972Y30709738D01*
X40069111Y30607414D01*
X40239271Y30536932D01*
X40419911Y30501000D01*
X40604089Y30501000D01*
X40784729Y30536932D01*
X40954889Y30607414D01*
X41108028Y30709738D01*
X41123100Y30724810D01*
X41136932Y30655271D01*
X41207414Y30485111D01*
X41309738Y30331972D01*
X41345454Y30296256D01*
X40868351Y29819153D01*
X40747271Y29795068D01*
X40577111Y29724586D01*
X40423972Y29622262D01*
X40293738Y29492028D01*
X40191414Y29338889D01*
X40120932Y29168729D01*
X40085000Y28988089D01*
X40085000Y28803911D01*
X40120932Y28623271D01*
X40191414Y28453111D01*
X40293738Y28299972D01*
X40423972Y28169738D01*
X40577111Y28067414D01*
X40747271Y27996932D01*
X40927911Y27961000D01*
X41112089Y27961000D01*
X41292729Y27996932D01*
X41462889Y28067414D01*
X41616028Y28169738D01*
X41746262Y28299972D01*
X41848586Y28453111D01*
X41919068Y28623271D01*
X41943153Y28744351D01*
X42350802Y29152000D01*
X44030465Y29152000D01*
X44133111Y29083414D01*
X44303271Y29012932D01*
X44483911Y28977000D01*
X44668089Y28977000D01*
X44848729Y29012932D01*
X45018889Y29083414D01*
X45172028Y29185738D01*
X45302262Y29315972D01*
X45404586Y29469111D01*
X45475068Y29639271D01*
X45511000Y29819911D01*
X45511000Y30004089D01*
X45475068Y30184729D01*
X45404586Y30354889D01*
X45302262Y30508028D01*
X45172028Y30638262D01*
X45018889Y30740586D01*
X44848729Y30811068D01*
X44668089Y30847000D01*
X44483911Y30847000D01*
X44303271Y30811068D01*
X44133111Y30740586D01*
X44030465Y30672000D01*
X42938396Y30672000D01*
X42959153Y30776351D01*
X43032802Y30850000D01*
X67217928Y30850000D01*
X67217928Y29150000D01*
X67230188Y29025518D01*
X67266498Y28905820D01*
X67325463Y28795506D01*
X67404815Y28698815D01*
X67501506Y28619463D01*
X67611820Y28560498D01*
X67684380Y28538487D01*
X67552525Y28406632D01*
X67390010Y28163411D01*
X67278068Y27893158D01*
X67221000Y27606260D01*
X67221000Y27313740D01*
X67278068Y27026842D01*
X67390010Y26756589D01*
X67552525Y26513368D01*
X67759368Y26306525D01*
X67933760Y26190000D01*
X67759368Y26073475D01*
X67552525Y25866632D01*
X67390010Y25623411D01*
X67278068Y25353158D01*
X67221000Y25066260D01*
X67221000Y24773740D01*
X67278068Y24486842D01*
X67390010Y24216589D01*
X67552525Y23973368D01*
X67759368Y23766525D01*
X67933760Y23650000D01*
X67759368Y23533475D01*
X67552525Y23326632D01*
X67390010Y23083411D01*
X67278068Y22813158D01*
X67221000Y22526260D01*
X67221000Y22233740D01*
X67278068Y21946842D01*
X67390010Y21676589D01*
X67552525Y21433368D01*
X67759368Y21226525D01*
X67933760Y21110000D01*
X67759368Y20993475D01*
X67552525Y20786632D01*
X67390010Y20543411D01*
X67278068Y20273158D01*
X67221000Y19986260D01*
X67221000Y19693740D01*
X67278068Y19406842D01*
X67390010Y19136589D01*
X67552525Y18893368D01*
X67759368Y18686525D01*
X67933760Y18570000D01*
X67759368Y18453475D01*
X67552525Y18246632D01*
X67390010Y18003411D01*
X67278068Y17733158D01*
X67221000Y17446260D01*
X67221000Y17153740D01*
X67278068Y16866842D01*
X67390010Y16596589D01*
X67552525Y16353368D01*
X67759368Y16146525D01*
X67933760Y16030000D01*
X67759368Y15913475D01*
X67552525Y15706632D01*
X67390010Y15463411D01*
X67278068Y15193158D01*
X67221000Y14906260D01*
X67221000Y14613740D01*
X67278068Y14326842D01*
X67390010Y14056589D01*
X67552525Y13813368D01*
X67759368Y13606525D01*
X67933760Y13490000D01*
X67759368Y13373475D01*
X67552525Y13166632D01*
X67390010Y12923411D01*
X67278068Y12653158D01*
X67221000Y12366260D01*
X67221000Y12073740D01*
X67278068Y11786842D01*
X67390010Y11516589D01*
X67552525Y11273368D01*
X67759368Y11066525D01*
X68002589Y10904010D01*
X68272842Y10792068D01*
X68559740Y10735000D01*
X68852260Y10735000D01*
X69139158Y10792068D01*
X69409411Y10904010D01*
X69652632Y11066525D01*
X69859475Y11273368D01*
X70021990Y11516589D01*
X70133932Y11786842D01*
X70191000Y12073740D01*
X70191000Y12366260D01*
X70133932Y12653158D01*
X70021990Y12923411D01*
X69859475Y13166632D01*
X69652632Y13373475D01*
X69478240Y13490000D01*
X69652632Y13606525D01*
X69859475Y13813368D01*
X70021990Y14056589D01*
X70133932Y14326842D01*
X70191000Y14613740D01*
X70191000Y14906260D01*
X70133932Y15193158D01*
X70021990Y15463411D01*
X69859475Y15706632D01*
X69652632Y15913475D01*
X69478240Y16030000D01*
X69652632Y16146525D01*
X69859475Y16353368D01*
X70021990Y16596589D01*
X70133932Y16866842D01*
X70191000Y17153740D01*
X70191000Y17446260D01*
X74831000Y17446260D01*
X74831000Y17153740D01*
X74888068Y16866842D01*
X75000010Y16596589D01*
X75162525Y16353368D01*
X75369368Y16146525D01*
X75543760Y16030000D01*
X75369368Y15913475D01*
X75162525Y15706632D01*
X75000010Y15463411D01*
X74888068Y15193158D01*
X74831000Y14906260D01*
X74831000Y14613740D01*
X74888068Y14326842D01*
X75000010Y14056589D01*
X75162525Y13813368D01*
X75369368Y13606525D01*
X75543760Y13490000D01*
X75369368Y13373475D01*
X75162525Y13166632D01*
X75000010Y12923411D01*
X74888068Y12653158D01*
X74831000Y12366260D01*
X74831000Y12073740D01*
X74888068Y11786842D01*
X75000010Y11516589D01*
X75162525Y11273368D01*
X75369368Y11066525D01*
X75612589Y10904010D01*
X75882842Y10792068D01*
X76169740Y10735000D01*
X76462260Y10735000D01*
X76749158Y10792068D01*
X77019411Y10904010D01*
X77262632Y11066525D01*
X77469475Y11273368D01*
X77631990Y11516589D01*
X77743932Y11786842D01*
X77801000Y12073740D01*
X77801000Y12366260D01*
X77743932Y12653158D01*
X77631990Y12923411D01*
X77469475Y13166632D01*
X77262632Y13373475D01*
X77088240Y13490000D01*
X77262632Y13606525D01*
X77469475Y13813368D01*
X77631990Y14056589D01*
X77743932Y14326842D01*
X77801000Y14613740D01*
X77801000Y14906260D01*
X77743932Y15193158D01*
X77631990Y15463411D01*
X77469475Y15706632D01*
X77262632Y15913475D01*
X77088240Y16030000D01*
X77262632Y16146525D01*
X77469475Y16353368D01*
X77631990Y16596589D01*
X77743932Y16866842D01*
X77801000Y17153740D01*
X77801000Y17446260D01*
X77743932Y17733158D01*
X77631990Y18003411D01*
X77469475Y18246632D01*
X77262632Y18453475D01*
X77080466Y18575195D01*
X77197355Y18644822D01*
X77413588Y18839731D01*
X77587641Y19073080D01*
X77712825Y19335901D01*
X77757476Y19483110D01*
X77636155Y19713000D01*
X76443000Y19713000D01*
X76443000Y19693000D01*
X76189000Y19693000D01*
X76189000Y19713000D01*
X74995845Y19713000D01*
X74874524Y19483110D01*
X74919175Y19335901D01*
X75044359Y19073080D01*
X75218412Y18839731D01*
X75434645Y18644822D01*
X75551534Y18575195D01*
X75369368Y18453475D01*
X75162525Y18246632D01*
X75000010Y18003411D01*
X74888068Y17733158D01*
X74831000Y17446260D01*
X70191000Y17446260D01*
X70133932Y17733158D01*
X70021990Y18003411D01*
X69859475Y18246632D01*
X69652632Y18453475D01*
X69478240Y18570000D01*
X69652632Y18686525D01*
X69859475Y18893368D01*
X70021990Y19136589D01*
X70133932Y19406842D01*
X70191000Y19693740D01*
X70191000Y19986260D01*
X70133932Y20273158D01*
X70021990Y20543411D01*
X69859475Y20786632D01*
X69652632Y20993475D01*
X69478240Y21110000D01*
X69652632Y21226525D01*
X69859475Y21433368D01*
X70021990Y21676589D01*
X70133932Y21946842D01*
X70191000Y22233740D01*
X70191000Y22526260D01*
X70133932Y22813158D01*
X70021990Y23083411D01*
X69859475Y23326632D01*
X69652632Y23533475D01*
X69478240Y23650000D01*
X69652632Y23766525D01*
X69859475Y23973368D01*
X70021990Y24216589D01*
X70133932Y24486842D01*
X70191000Y24773740D01*
X70191000Y25066260D01*
X70133932Y25353158D01*
X70021990Y25623411D01*
X69859475Y25866632D01*
X69652632Y26073475D01*
X69478240Y26190000D01*
X69652632Y26306525D01*
X69859475Y26513368D01*
X70021990Y26756589D01*
X70133932Y27026842D01*
X70191000Y27313740D01*
X70191000Y27606260D01*
X70133932Y27893158D01*
X70021990Y28163411D01*
X69859475Y28406632D01*
X69727620Y28538487D01*
X69800180Y28560498D01*
X69910494Y28619463D01*
X70007185Y28698815D01*
X70086537Y28795506D01*
X70145502Y28905820D01*
X70181812Y29025518D01*
X70194072Y29150000D01*
X70194072Y30850000D01*
X74827928Y30850000D01*
X74827928Y29150000D01*
X74840188Y29025518D01*
X74876498Y28905820D01*
X74935463Y28795506D01*
X75014815Y28698815D01*
X75111506Y28619463D01*
X75221820Y28560498D01*
X75294380Y28538487D01*
X75162525Y28406632D01*
X75000010Y28163411D01*
X74888068Y27893158D01*
X74831000Y27606260D01*
X74831000Y27313740D01*
X74888068Y27026842D01*
X75000010Y26756589D01*
X75162525Y26513368D01*
X75369368Y26306525D01*
X75543760Y26190000D01*
X75369368Y26073475D01*
X75162525Y25866632D01*
X75000010Y25623411D01*
X74888068Y25353158D01*
X74831000Y25066260D01*
X74831000Y24773740D01*
X74888068Y24486842D01*
X75000010Y24216589D01*
X75162525Y23973368D01*
X75369368Y23766525D01*
X75543760Y23650000D01*
X75369368Y23533475D01*
X75162525Y23326632D01*
X75000010Y23083411D01*
X74888068Y22813158D01*
X74831000Y22526260D01*
X74831000Y22233740D01*
X74888068Y21946842D01*
X75000010Y21676589D01*
X75162525Y21433368D01*
X75369368Y21226525D01*
X75551534Y21104805D01*
X75434645Y21035178D01*
X75218412Y20840269D01*
X75044359Y20606920D01*
X74919175Y20344099D01*
X74874524Y20196890D01*
X74995845Y19967000D01*
X76189000Y19967000D01*
X76189000Y19987000D01*
X76443000Y19987000D01*
X76443000Y19967000D01*
X77636155Y19967000D01*
X77757476Y20196890D01*
X77712825Y20344099D01*
X77587641Y20606920D01*
X77413588Y20840269D01*
X77197355Y21035178D01*
X77080466Y21104805D01*
X77262632Y21226525D01*
X77469475Y21433368D01*
X77631990Y21676589D01*
X77743932Y21946842D01*
X77801000Y22233740D01*
X77801000Y22526260D01*
X77743932Y22813158D01*
X77631990Y23083411D01*
X77469475Y23326632D01*
X77262632Y23533475D01*
X77088240Y23650000D01*
X77262632Y23766525D01*
X77469475Y23973368D01*
X77631990Y24216589D01*
X77743932Y24486842D01*
X77801000Y24773740D01*
X77801000Y25066260D01*
X77743932Y25353158D01*
X77631990Y25623411D01*
X77469475Y25866632D01*
X77262632Y26073475D01*
X77088240Y26190000D01*
X77262632Y26306525D01*
X77469475Y26513368D01*
X77631990Y26756589D01*
X77743932Y27026842D01*
X77801000Y27313740D01*
X77801000Y27606260D01*
X77743932Y27893158D01*
X77631990Y28163411D01*
X77469475Y28406632D01*
X77337620Y28538487D01*
X77410180Y28560498D01*
X77520494Y28619463D01*
X77617185Y28698815D01*
X77696537Y28795506D01*
X77755502Y28905820D01*
X77791812Y29025518D01*
X77804072Y29150000D01*
X77804072Y30850000D01*
X77791812Y30974482D01*
X77755502Y31094180D01*
X77696537Y31204494D01*
X77617185Y31301185D01*
X77520494Y31380537D01*
X77410180Y31439502D01*
X77290482Y31475812D01*
X77166000Y31488072D01*
X75466000Y31488072D01*
X75341518Y31475812D01*
X75221820Y31439502D01*
X75111506Y31380537D01*
X75014815Y31301185D01*
X74935463Y31204494D01*
X74876498Y31094180D01*
X74840188Y30974482D01*
X74827928Y30850000D01*
X70194072Y30850000D01*
X70181812Y30974482D01*
X70145502Y31094180D01*
X70086537Y31204494D01*
X70007185Y31301185D01*
X69910494Y31380537D01*
X69800180Y31439502D01*
X69680482Y31475812D01*
X69556000Y31488072D01*
X67856000Y31488072D01*
X67731518Y31475812D01*
X67611820Y31439502D01*
X67501506Y31380537D01*
X67404815Y31301185D01*
X67325463Y31204494D01*
X67266498Y31094180D01*
X67230188Y30974482D01*
X67217928Y30850000D01*
X43032802Y30850000D01*
X43366802Y31184000D01*
X44030465Y31184000D01*
X44133111Y31115414D01*
X44303271Y31044932D01*
X44483911Y31009000D01*
X44668089Y31009000D01*
X44848729Y31044932D01*
X45018889Y31115414D01*
X45172028Y31217738D01*
X45302262Y31347972D01*
X45404586Y31501111D01*
X45475068Y31671271D01*
X45511000Y31851911D01*
X45511000Y32036089D01*
X45475068Y32216729D01*
X45404586Y32386889D01*
X45302262Y32540028D01*
X45172028Y32670262D01*
X45018889Y32772586D01*
X44848729Y32843068D01*
X44668089Y32879000D01*
X44483911Y32879000D01*
X44303271Y32843068D01*
X44133111Y32772586D01*
X44030465Y32704000D01*
X43089322Y32704000D01*
X43052000Y32707676D01*
X43014677Y32704000D01*
X43014667Y32704000D01*
X42903014Y32693003D01*
X42818025Y32667222D01*
X43366803Y33216000D01*
X44030465Y33216000D01*
X44133111Y33147414D01*
X44303271Y33076932D01*
X44483911Y33041000D01*
X44668089Y33041000D01*
X44848729Y33076932D01*
X45018889Y33147414D01*
X45172028Y33249738D01*
X45302262Y33379972D01*
X45404586Y33533111D01*
X45475068Y33703271D01*
X45511000Y33883911D01*
X45511000Y34068089D01*
X45475068Y34248729D01*
X45404586Y34418889D01*
X45302262Y34572028D01*
X45172028Y34702262D01*
X45018889Y34804586D01*
X44848729Y34875068D01*
X44668089Y34911000D01*
X44483911Y34911000D01*
X44303271Y34875068D01*
X44133111Y34804586D01*
X44030465Y34736000D01*
X43089322Y34736000D01*
X43051999Y34739676D01*
X43014676Y34736000D01*
X43014667Y34736000D01*
X42903014Y34725003D01*
X42759753Y34681546D01*
X42627724Y34610974D01*
X42627722Y34610973D01*
X42627723Y34610973D01*
X42540996Y34539799D01*
X42540992Y34539795D01*
X42511999Y34516001D01*
X42488205Y34487008D01*
X40360351Y32359153D01*
X40239271Y32335068D01*
X40069111Y32264586D01*
X39915972Y32162262D01*
X39785738Y32032028D01*
X39683414Y31878889D01*
X39612932Y31708729D01*
X39577000Y31528089D01*
X31010890Y31528089D01*
X32027650Y32544848D01*
X32148729Y32568932D01*
X32318889Y32639414D01*
X32472028Y32741738D01*
X32602262Y32871972D01*
X32704586Y33025111D01*
X32775068Y33195271D01*
X32811000Y33375911D01*
X32811000Y33560089D01*
X32775068Y33740729D01*
X32704586Y33910889D01*
X32602262Y34064028D01*
X32472028Y34194262D01*
X32318889Y34296586D01*
X32148729Y34367068D01*
X31968089Y34403000D01*
X31783911Y34403000D01*
X31603271Y34367068D01*
X31433111Y34296586D01*
X31279972Y34194262D01*
X31149738Y34064028D01*
X31047414Y33910889D01*
X30976932Y33740729D01*
X30952848Y33619650D01*
X28825003Y31491804D01*
X28795999Y31468001D01*
X28743474Y31403999D01*
X28701026Y31352276D01*
X28630455Y31220247D01*
X28630454Y31220246D01*
X28586997Y31076985D01*
X28576000Y30965332D01*
X28576000Y30965322D01*
X28572324Y30928000D01*
X28576000Y30890677D01*
X28576000Y30457536D01*
X28507414Y30354889D01*
X28436932Y30184729D01*
X28401000Y30004089D01*
X660000Y30004089D01*
X660000Y35340000D01*
X79340001Y35340000D01*
X79340000Y660000D01*
G37*
X79340000Y660000D02*
X660000Y660000D01*
X660000Y8677939D01*
X8997000Y8677939D01*
X8997000Y8474061D01*
X9036774Y8274102D01*
X9114795Y8085744D01*
X9147000Y8037545D01*
X9147001Y6775479D01*
X9142719Y6732000D01*
X9159805Y6558510D01*
X9210412Y6391687D01*
X9292590Y6237941D01*
X9375468Y6136954D01*
X9375471Y6136951D01*
X9403184Y6103183D01*
X9436951Y6075471D01*
X12518215Y2994206D01*
X12518216Y2786052D01*
X12486010Y2737853D01*
X12407989Y2549495D01*
X12368215Y2349536D01*
X12368215Y2145658D01*
X12407989Y1945699D01*
X12486010Y1757341D01*
X12599278Y1587823D01*
X12743441Y1443660D01*
X12912959Y1330392D01*
X13101317Y1252371D01*
X13301276Y1212597D01*
X13505154Y1212597D01*
X13705113Y1252371D01*
X13893471Y1330392D01*
X14062989Y1443660D01*
X14207152Y1587823D01*
X14320420Y1757341D01*
X14398441Y1945699D01*
X14438215Y2145658D01*
X14438215Y2349536D01*
X14398441Y2549495D01*
X14320420Y2737853D01*
X14288215Y2786051D01*
X14288215Y3317316D01*
X14292496Y3360785D01*
X14288215Y3404254D01*
X14288215Y3404262D01*
X14275410Y3534275D01*
X14224804Y3701098D01*
X14142626Y3854844D01*
X14032032Y3989602D01*
X13998265Y4017314D01*
X13860469Y4155110D01*
X26370524Y4155110D01*
X26415175Y4007901D01*
X26540359Y3745080D01*
X26714412Y3511731D01*
X26930645Y3316822D01*
X27180748Y3167843D01*
X27455109Y3070519D01*
X27685000Y3191186D01*
X27685000Y4385000D01*
X27939000Y4385000D01*
X27939000Y3191186D01*
X28168891Y3070519D01*
X28443252Y3167843D01*
X28693355Y3316822D01*
X28909588Y3511731D01*
X29083641Y3745080D01*
X29208825Y4007901D01*
X29253476Y4155110D01*
X29132155Y4385000D01*
X27939000Y4385000D01*
X27685000Y4385000D01*
X26491845Y4385000D01*
X26370524Y4155110D01*
X13860469Y4155110D01*
X10917000Y7098578D01*
X10917000Y8037546D01*
X10949205Y8085744D01*
X11027226Y8274102D01*
X11067000Y8474061D01*
X11067000Y8677939D01*
X11027226Y8877898D01*
X10949205Y9066256D01*
X10835937Y9235774D01*
X10691774Y9379937D01*
X10522256Y9493205D01*
X10333898Y9571226D01*
X10133939Y9611000D01*
X9930061Y9611000D01*
X9730102Y9571226D01*
X9541744Y9493205D01*
X9372226Y9379937D01*
X9228063Y9235774D01*
X9114795Y9066256D01*
X9036774Y8877898D01*
X8997000Y8677939D01*
X660000Y8677939D01*
X660000Y12982000D01*
X26323928Y12982000D01*
X26323928Y11282000D01*
X26336188Y11157518D01*
X26372498Y11037820D01*
X26431463Y10927506D01*
X26510815Y10830815D01*
X26607506Y10751463D01*
X26717820Y10692498D01*
X26790380Y10670487D01*
X26658525Y10538632D01*
X26496010Y10295411D01*
X26384068Y10025158D01*
X26327000Y9738260D01*
X26327000Y9445740D01*
X26384068Y9158842D01*
X26496010Y8888589D01*
X26658525Y8645368D01*
X26865368Y8438525D01*
X27039760Y8322000D01*
X26865368Y8205475D01*
X26658525Y7998632D01*
X26496010Y7755411D01*
X26384068Y7485158D01*
X26327000Y7198260D01*
X26327000Y6905740D01*
X26384068Y6618842D01*
X26496010Y6348589D01*
X26658525Y6105368D01*
X26865368Y5898525D01*
X27047534Y5776805D01*
X26930645Y5707178D01*
X26714412Y5512269D01*
X26540359Y5278920D01*
X26415175Y5016099D01*
X26370524Y4868890D01*
X26491845Y4639000D01*
X27685000Y4639000D01*
X27685000Y4659000D01*
X27939000Y4659000D01*
X27939000Y4639000D01*
X29132155Y4639000D01*
X29253476Y4868890D01*
X29208825Y5016099D01*
X29083641Y5278920D01*
X28909588Y5512269D01*
X28693355Y5707178D01*
X28576466Y5776805D01*
X28758632Y5898525D01*
X28965475Y6105368D01*
X29127990Y6348589D01*
X29239932Y6618842D01*
X29297000Y6905740D01*
X29297000Y7198260D01*
X29239932Y7485158D01*
X29127990Y7755411D01*
X28965475Y7998632D01*
X28758632Y8205475D01*
X28584240Y8322000D01*
X28758632Y8438525D01*
X28965475Y8645368D01*
X29127990Y8888589D01*
X29239932Y9158842D01*
X29297000Y9445740D01*
X29297000Y9738260D01*
X29239932Y10025158D01*
X29127990Y10295411D01*
X28965475Y10538632D01*
X28833620Y10670487D01*
X28906180Y10692498D01*
X29016494Y10751463D01*
X29113185Y10830815D01*
X29192537Y10927506D01*
X29251502Y11037820D01*
X29287812Y11157518D01*
X29300072Y11282000D01*
X29300072Y11372000D01*
X32831199Y11372000D01*
X32955546Y11247653D01*
X32754525Y11046632D01*
X32592010Y10803411D01*
X32480068Y10533158D01*
X32423000Y10246260D01*
X32423000Y9953740D01*
X32480068Y9666842D01*
X32592010Y9396589D01*
X32754525Y9153368D01*
X32961368Y8946525D01*
X33204589Y8784010D01*
X33474842Y8672068D01*
X33761740Y8615000D01*
X34054260Y8615000D01*
X34341158Y8672068D01*
X34611411Y8784010D01*
X34854632Y8946525D01*
X34986487Y9078380D01*
X35008498Y9005820D01*
X35067463Y8895506D01*
X35146815Y8798815D01*
X35243506Y8719463D01*
X35353820Y8660498D01*
X35473518Y8624188D01*
X35598000Y8611928D01*
X37298000Y8611928D01*
X37422482Y8624188D01*
X37542180Y8660498D01*
X37652494Y8719463D01*
X37749185Y8798815D01*
X37828537Y8895506D01*
X37887502Y9005820D01*
X37923812Y9125518D01*
X37936072Y9250000D01*
X37936072Y10950000D01*
X37923812Y11074482D01*
X37887502Y11194180D01*
X37828537Y11304494D01*
X37749185Y11401185D01*
X37652494Y11480537D01*
X37542180Y11539502D01*
X37422482Y11575812D01*
X37298000Y11588072D01*
X35598000Y11588072D01*
X35473518Y11575812D01*
X35353820Y11539502D01*
X35243506Y11480537D01*
X35146815Y11401185D01*
X35067463Y11304494D01*
X35008498Y11194180D01*
X34986487Y11121620D01*
X34854632Y11253475D01*
X34671073Y11376125D01*
X34668000Y11407325D01*
X34668000Y11407333D01*
X34657003Y11518986D01*
X34613546Y11662247D01*
X34542974Y11794276D01*
X34448001Y11910001D01*
X34419004Y11933798D01*
X33709803Y12642998D01*
X33686001Y12672001D01*
X33570276Y12766974D01*
X33438247Y12837546D01*
X33294986Y12881003D01*
X33183333Y12892000D01*
X33183322Y12892000D01*
X33146000Y12895676D01*
X33108678Y12892000D01*
X29300072Y12892000D01*
X29300072Y12982000D01*
X29287812Y13106482D01*
X29251502Y13226180D01*
X29192537Y13336494D01*
X29113185Y13433185D01*
X29016494Y13512537D01*
X28906180Y13571502D01*
X28786482Y13607812D01*
X28662000Y13620072D01*
X26962000Y13620072D01*
X26837518Y13607812D01*
X26717820Y13571502D01*
X26607506Y13512537D01*
X26510815Y13433185D01*
X26431463Y13336494D01*
X26372498Y13226180D01*
X26336188Y13106482D01*
X26323928Y12982000D01*
X660000Y12982000D01*
X660000Y14773939D01*
X19157000Y14773939D01*
X19157000Y14570061D01*
X19196774Y14370102D01*
X19274795Y14181744D01*
X19388063Y14012226D01*
X19532226Y13868063D01*
X19701744Y13754795D01*
X19890102Y13676774D01*
X20090061Y13637000D01*
X20293939Y13637000D01*
X20493898Y13676774D01*
X20682256Y13754795D01*
X20851774Y13868063D01*
X20995937Y14012226D01*
X21109205Y14181744D01*
X21187226Y14370102D01*
X21227000Y14570061D01*
X21227000Y14773939D01*
X21187226Y14973898D01*
X21109205Y15162256D01*
X21077000Y15210454D01*
X21077000Y17353422D01*
X23440667Y19717089D01*
X29290000Y19717089D01*
X29290000Y19532911D01*
X29325932Y19352271D01*
X29396414Y19182111D01*
X29498738Y19028972D01*
X29628972Y18898738D01*
X29782111Y18796414D01*
X29952271Y18725932D01*
X30132911Y18690000D01*
X30317089Y18690000D01*
X30497729Y18725932D01*
X30667889Y18796414D01*
X30821028Y18898738D01*
X30951262Y19028972D01*
X31053586Y19182111D01*
X31124068Y19352271D01*
X31160000Y19532911D01*
X31160000Y19717089D01*
X31124068Y19897729D01*
X31110000Y19931692D01*
X31110000Y20782422D01*
X32242579Y21915000D01*
X37083000Y21915000D01*
X37083000Y18082579D01*
X34811422Y15811000D01*
X33833692Y15811000D01*
X33799729Y15825068D01*
X33619089Y15861000D01*
X33434911Y15861000D01*
X33254271Y15825068D01*
X33084111Y15754586D01*
X32930972Y15652262D01*
X32800738Y15522028D01*
X32698414Y15368889D01*
X32627932Y15198729D01*
X32592000Y15018089D01*
X32592000Y14833911D01*
X32627932Y14653271D01*
X32698414Y14483111D01*
X32800738Y14329972D01*
X32930972Y14199738D01*
X33084111Y14097414D01*
X33254271Y14026932D01*
X33434911Y13991000D01*
X33619089Y13991000D01*
X33799729Y14026932D01*
X33833692Y14041000D01*
X35134531Y14041000D01*
X35178000Y14036719D01*
X35221469Y14041000D01*
X35221477Y14041000D01*
X35351490Y14053805D01*
X35518313Y14104411D01*
X35672059Y14186589D01*
X35806817Y14297183D01*
X35834534Y14330956D01*
X36585167Y15081589D01*
X41355000Y15081589D01*
X41355000Y14897411D01*
X41390932Y14716771D01*
X41461414Y14546611D01*
X41530000Y14443964D01*
X41530001Y11915332D01*
X41526324Y11878000D01*
X41530001Y11840667D01*
X41540998Y11729014D01*
X41554180Y11685558D01*
X41584454Y11585754D01*
X41655026Y11453724D01*
X41708367Y11388729D01*
X41750000Y11337999D01*
X41778998Y11314201D01*
X42128847Y10964351D01*
X42152932Y10843271D01*
X42223414Y10673111D01*
X42325738Y10519972D01*
X42455972Y10389738D01*
X42609111Y10287414D01*
X42779271Y10216932D01*
X42959911Y10181000D01*
X43144089Y10181000D01*
X43324729Y10216932D01*
X43494889Y10287414D01*
X43648028Y10389738D01*
X43778262Y10519972D01*
X43880586Y10673111D01*
X43951068Y10843271D01*
X43987000Y11023911D01*
X43987000Y11208089D01*
X43951068Y11388729D01*
X43880586Y11558889D01*
X43778262Y11712028D01*
X43648028Y11842262D01*
X43494889Y11944586D01*
X43324729Y12015068D01*
X43203649Y12039153D01*
X43050000Y12192801D01*
X43050000Y14443965D01*
X43118586Y14546611D01*
X43189068Y14716771D01*
X43225000Y14897411D01*
X43225000Y15081589D01*
X43189068Y15262229D01*
X43118586Y15432389D01*
X43016262Y15585528D01*
X42886028Y15715762D01*
X42732889Y15818086D01*
X42562729Y15888568D01*
X42382089Y15924500D01*
X42197911Y15924500D01*
X42017271Y15888568D01*
X41847111Y15818086D01*
X41693972Y15715762D01*
X41563738Y15585528D01*
X41461414Y15432389D01*
X41390932Y15262229D01*
X41355000Y15081589D01*
X36585167Y15081589D01*
X38588579Y17085000D01*
X43641922Y17085000D01*
X45215001Y15511920D01*
X45215000Y12946693D01*
X45200932Y12912729D01*
X45165000Y12732089D01*
X45165000Y12547911D01*
X45200932Y12367271D01*
X45215001Y12333306D01*
X45215000Y11736579D01*
X44234951Y10756529D01*
X44201184Y10728817D01*
X44173471Y10695049D01*
X44173468Y10695046D01*
X44090590Y10594059D01*
X44008412Y10440313D01*
X43957805Y10273490D01*
X43940719Y10100000D01*
X43945001Y10056522D01*
X43945000Y9136693D01*
X43930932Y9102729D01*
X43895000Y8922089D01*
X43895000Y8737911D01*
X43930932Y8557271D01*
X44001414Y8387111D01*
X44103738Y8233972D01*
X44233972Y8103738D01*
X44387111Y8001414D01*
X44557271Y7930932D01*
X44737911Y7895000D01*
X44922089Y7895000D01*
X45102729Y7930932D01*
X45272889Y8001414D01*
X45426028Y8103738D01*
X45556262Y8233972D01*
X45658586Y8387111D01*
X45729068Y8557271D01*
X45765000Y8737911D01*
X45765000Y8922089D01*
X45729068Y9102729D01*
X45715000Y9136692D01*
X45715000Y9733422D01*
X46695050Y10713471D01*
X46728817Y10741183D01*
X46782177Y10806201D01*
X46839410Y10875940D01*
X46839411Y10875941D01*
X46921589Y11029687D01*
X46972195Y11196510D01*
X46985000Y11326523D01*
X46985000Y11326533D01*
X46989281Y11369999D01*
X46985000Y11413465D01*
X46985000Y12333308D01*
X46999068Y12367271D01*
X47035000Y12547911D01*
X47035000Y12732089D01*
X46999068Y12912729D01*
X46985000Y12946692D01*
X46985000Y15835031D01*
X46989281Y15878500D01*
X46985000Y15921969D01*
X46985000Y15921977D01*
X46972195Y16051990D01*
X46921589Y16218813D01*
X46839411Y16372559D01*
X46728817Y16507317D01*
X46695049Y16535030D01*
X44957000Y18273078D01*
X44957000Y21335352D01*
X47028637Y21335352D01*
X47028637Y21151174D01*
X47064569Y20970534D01*
X47135051Y20800374D01*
X47237375Y20647235D01*
X47367609Y20517001D01*
X47520748Y20414677D01*
X47690908Y20344195D01*
X47811989Y20320110D01*
X49023001Y19109097D01*
X49023000Y17503536D01*
X48954414Y17400889D01*
X48883932Y17230729D01*
X48848000Y17050089D01*
X48848000Y16865911D01*
X48883932Y16685271D01*
X48954414Y16515111D01*
X49056738Y16361972D01*
X49186972Y16231738D01*
X49340111Y16129414D01*
X49510271Y16058932D01*
X49690911Y16023000D01*
X49875089Y16023000D01*
X50055729Y16058932D01*
X50225889Y16129414D01*
X50379028Y16231738D01*
X50509262Y16361972D01*
X50611586Y16515111D01*
X50682068Y16685271D01*
X50718000Y16865911D01*
X50718000Y17050089D01*
X50682068Y17230729D01*
X50611586Y17400889D01*
X50543000Y17503535D01*
X50543000Y19386577D01*
X50546676Y19423900D01*
X50543000Y19461223D01*
X50543000Y19461233D01*
X50532003Y19572886D01*
X50488546Y19716147D01*
X50417974Y19848176D01*
X50323001Y19963901D01*
X50294003Y19987699D01*
X48886790Y21394911D01*
X48862705Y21515992D01*
X48792223Y21686152D01*
X48689899Y21839291D01*
X48559665Y21969525D01*
X48406526Y22071849D01*
X48236366Y22142331D01*
X48055726Y22178263D01*
X47871548Y22178263D01*
X47690908Y22142331D01*
X47520748Y22071849D01*
X47367609Y21969525D01*
X47237375Y21839291D01*
X47135051Y21686152D01*
X47064569Y21515992D01*
X47028637Y21335352D01*
X44957000Y21335352D01*
X44957000Y23947699D01*
X45716302Y24707000D01*
X48856465Y24707000D01*
X48959111Y24638414D01*
X49129271Y24567932D01*
X49309911Y24532000D01*
X49494089Y24532000D01*
X49674729Y24567932D01*
X49844889Y24638414D01*
X49998028Y24740738D01*
X50128262Y24870972D01*
X50230586Y25024111D01*
X50301068Y25194271D01*
X50337000Y25374911D01*
X50337000Y25559089D01*
X50301068Y25739729D01*
X50230586Y25909889D01*
X50128262Y26063028D01*
X49998028Y26193262D01*
X49844889Y26295586D01*
X49674729Y26366068D01*
X49494089Y26402000D01*
X49309911Y26402000D01*
X49129271Y26366068D01*
X48959111Y26295586D01*
X48856465Y26227000D01*
X45438822Y26227000D01*
X45401499Y26230676D01*
X45364176Y26227000D01*
X45364167Y26227000D01*
X45252514Y26216003D01*
X45109253Y26172546D01*
X44977224Y26101974D01*
X44861499Y26007001D01*
X44837701Y25978003D01*
X43818699Y24959000D01*
X38157802Y24959000D01*
X37017500Y26099301D01*
X37017500Y28477465D01*
X37086086Y28580111D01*
X37156568Y28750271D01*
X37192500Y28930911D01*
X37192500Y29115089D01*
X37156568Y29295729D01*
X37086086Y29465889D01*
X36983762Y29619028D01*
X36853528Y29749262D01*
X36700389Y29851586D01*
X36530229Y29922068D01*
X36349589Y29958000D01*
X36165411Y29958000D01*
X35984771Y29922068D01*
X35814611Y29851586D01*
X35661472Y29749262D01*
X35531238Y29619028D01*
X35428914Y29465889D01*
X35358432Y29295729D01*
X35322500Y29115089D01*
X35322500Y28930911D01*
X35358432Y28750271D01*
X35428914Y28580111D01*
X35497500Y28477464D01*
X35497501Y25821832D01*
X35493824Y25784500D01*
X35497501Y25747167D01*
X35508498Y25635514D01*
X35514422Y25615986D01*
X35551954Y25492254D01*
X35622526Y25360224D01*
X35662277Y25311788D01*
X35717500Y25244499D01*
X35746498Y25220701D01*
X37083000Y23884198D01*
X37083000Y23685000D01*
X31919469Y23685000D01*
X31876000Y23689281D01*
X31832531Y23685000D01*
X31832523Y23685000D01*
X31702510Y23672195D01*
X31535686Y23621589D01*
X31381941Y23539411D01*
X31280953Y23456532D01*
X31280951Y23456530D01*
X31247183Y23428817D01*
X31219470Y23395049D01*
X29629951Y21805529D01*
X29596184Y21777817D01*
X29568471Y21744049D01*
X29568468Y21744046D01*
X29485590Y21643059D01*
X29403412Y21489313D01*
X29352805Y21322490D01*
X29335719Y21149000D01*
X29340001Y21105521D01*
X29340000Y19931693D01*
X29325932Y19897729D01*
X29290000Y19717089D01*
X23440667Y19717089D01*
X25009044Y21285465D01*
X25065898Y21296774D01*
X25254256Y21374795D01*
X25423774Y21488063D01*
X25567937Y21632226D01*
X25681205Y21801744D01*
X25759226Y21990102D01*
X25799000Y22190061D01*
X25799000Y22393939D01*
X25759226Y22593898D01*
X25681205Y22782256D01*
X25567937Y22951774D01*
X25423774Y23095937D01*
X25254256Y23209205D01*
X25065898Y23287226D01*
X24865939Y23327000D01*
X24662061Y23327000D01*
X24462102Y23287226D01*
X24273744Y23209205D01*
X24104226Y23095937D01*
X23960063Y22951774D01*
X23846795Y22782256D01*
X23768774Y22593898D01*
X23757465Y22537044D01*
X19596952Y18376530D01*
X19563184Y18348817D01*
X19535471Y18315049D01*
X19535468Y18315046D01*
X19452590Y18214059D01*
X19370412Y18060313D01*
X19319805Y17893490D01*
X19302719Y17720000D01*
X19307001Y17676521D01*
X19307000Y15210455D01*
X19274795Y15162256D01*
X19196774Y14973898D01*
X19157000Y14773939D01*
X660000Y14773939D01*
X660000Y20911788D01*
X4325000Y20911788D01*
X4325000Y20688212D01*
X4368617Y20468933D01*
X4454176Y20262376D01*
X4578388Y20076480D01*
X4736480Y19918388D01*
X4922376Y19794176D01*
X5128933Y19708617D01*
X5348212Y19665000D01*
X5571788Y19665000D01*
X5791067Y19708617D01*
X5997624Y19794176D01*
X6183520Y19918388D01*
X6341612Y20076480D01*
X6465824Y20262376D01*
X6551383Y20468933D01*
X6595000Y20688212D01*
X6595000Y20911788D01*
X6551383Y21131067D01*
X6465824Y21337624D01*
X6341612Y21523520D01*
X6183520Y21681612D01*
X5997624Y21805824D01*
X5791067Y21891383D01*
X5571788Y21935000D01*
X5348212Y21935000D01*
X5128933Y21891383D01*
X4922376Y21805824D01*
X4736480Y21681612D01*
X4578388Y21523520D01*
X4454176Y21337624D01*
X4368617Y21131067D01*
X4325000Y20911788D01*
X660000Y20911788D01*
X660000Y25311788D01*
X4325000Y25311788D01*
X4325000Y25088212D01*
X4368617Y24868933D01*
X4454176Y24662376D01*
X4578388Y24476480D01*
X4736480Y24318388D01*
X4922376Y24194176D01*
X5128933Y24108617D01*
X5348212Y24065000D01*
X5571788Y24065000D01*
X5791067Y24108617D01*
X5997624Y24194176D01*
X6183520Y24318388D01*
X6341612Y24476480D01*
X6465824Y24662376D01*
X6482211Y24701939D01*
X9633000Y24701939D01*
X9633000Y24498061D01*
X9672774Y24298102D01*
X9750795Y24109744D01*
X9864063Y23940226D01*
X10008226Y23796063D01*
X10177744Y23682795D01*
X10366102Y23604774D01*
X10422957Y23593465D01*
X11053000Y22963421D01*
X11053001Y19855479D01*
X11048719Y19812000D01*
X11065805Y19638510D01*
X11116412Y19471687D01*
X11198590Y19317941D01*
X11281468Y19216954D01*
X11281471Y19216951D01*
X11309184Y19183183D01*
X11342951Y19155471D01*
X12201465Y18296956D01*
X12212774Y18240102D01*
X12290795Y18051744D01*
X12404063Y17882226D01*
X12548226Y17738063D01*
X12717744Y17624795D01*
X12906102Y17546774D01*
X13106061Y17507000D01*
X13309939Y17507000D01*
X13509898Y17546774D01*
X13698256Y17624795D01*
X13867774Y17738063D01*
X14011937Y17882226D01*
X14125205Y18051744D01*
X14203226Y18240102D01*
X14243000Y18440061D01*
X14243000Y18643939D01*
X14203226Y18843898D01*
X14125205Y19032256D01*
X14011937Y19201774D01*
X13867774Y19345937D01*
X13698256Y19459205D01*
X13509898Y19537226D01*
X13453044Y19548535D01*
X12823000Y20178578D01*
X12823000Y23286535D01*
X12827281Y23330001D01*
X12823000Y23373467D01*
X12823000Y23373477D01*
X12810195Y23503490D01*
X12759589Y23670313D01*
X12677411Y23824059D01*
X12566817Y23958817D01*
X12533050Y23986529D01*
X11674535Y24845043D01*
X11663226Y24901898D01*
X11585205Y25090256D01*
X11471937Y25259774D01*
X11327774Y25403937D01*
X11158256Y25517205D01*
X10969898Y25595226D01*
X10769939Y25635000D01*
X10566061Y25635000D01*
X10366102Y25595226D01*
X10177744Y25517205D01*
X10008226Y25403937D01*
X9864063Y25259774D01*
X9750795Y25090256D01*
X9672774Y24901898D01*
X9633000Y24701939D01*
X6482211Y24701939D01*
X6551383Y24868933D01*
X6595000Y25088212D01*
X6595000Y25311788D01*
X6551383Y25531067D01*
X6465824Y25737624D01*
X6341612Y25923520D01*
X6183520Y26081612D01*
X5997624Y26205824D01*
X5791067Y26291383D01*
X5571788Y26335000D01*
X5348212Y26335000D01*
X5128933Y26291383D01*
X4922376Y26205824D01*
X4736480Y26081612D01*
X4578388Y25923520D01*
X4454176Y25737624D01*
X4368617Y25531067D01*
X4325000Y25311788D01*
X660000Y25311788D01*
X660000Y30004089D01*
X28401000Y30004089D01*
X28401000Y29819911D01*
X28436932Y29639271D01*
X28507414Y29469111D01*
X28609738Y29315972D01*
X28739972Y29185738D01*
X28893111Y29083414D01*
X29063271Y29012932D01*
X29243911Y28977000D01*
X29428089Y28977000D01*
X29608729Y29012932D01*
X29778889Y29083414D01*
X29932028Y29185738D01*
X30062262Y29315972D01*
X30164586Y29469111D01*
X30235068Y29639271D01*
X30271000Y29819911D01*
X30271000Y30004089D01*
X30235068Y30184729D01*
X30164586Y30354889D01*
X30096000Y30457535D01*
X30096000Y30613199D01*
X31010890Y31528089D01*
X39577000Y31528089D01*
X39577000Y31343911D01*
X39612932Y31163271D01*
X39683414Y30993111D01*
X39785738Y30839972D01*
X39915972Y30709738D01*
X40069111Y30607414D01*
X40239271Y30536932D01*
X40419911Y30501000D01*
X40604089Y30501000D01*
X40784729Y30536932D01*
X40954889Y30607414D01*
X41108028Y30709738D01*
X41123100Y30724810D01*
X41136932Y30655271D01*
X41207414Y30485111D01*
X41309738Y30331972D01*
X41345454Y30296256D01*
X40868351Y29819153D01*
X40747271Y29795068D01*
X40577111Y29724586D01*
X40423972Y29622262D01*
X40293738Y29492028D01*
X40191414Y29338889D01*
X40120932Y29168729D01*
X40085000Y28988089D01*
X40085000Y28803911D01*
X40120932Y28623271D01*
X40191414Y28453111D01*
X40293738Y28299972D01*
X40423972Y28169738D01*
X40577111Y28067414D01*
X40747271Y27996932D01*
X40927911Y27961000D01*
X41112089Y27961000D01*
X41292729Y27996932D01*
X41462889Y28067414D01*
X41616028Y28169738D01*
X41746262Y28299972D01*
X41848586Y28453111D01*
X41919068Y28623271D01*
X41943153Y28744351D01*
X42350802Y29152000D01*
X44030465Y29152000D01*
X44133111Y29083414D01*
X44303271Y29012932D01*
X44483911Y28977000D01*
X44668089Y28977000D01*
X44848729Y29012932D01*
X45018889Y29083414D01*
X45172028Y29185738D01*
X45302262Y29315972D01*
X45404586Y29469111D01*
X45475068Y29639271D01*
X45511000Y29819911D01*
X45511000Y30004089D01*
X45475068Y30184729D01*
X45404586Y30354889D01*
X45302262Y30508028D01*
X45172028Y30638262D01*
X45018889Y30740586D01*
X44848729Y30811068D01*
X44668089Y30847000D01*
X44483911Y30847000D01*
X44303271Y30811068D01*
X44133111Y30740586D01*
X44030465Y30672000D01*
X42938396Y30672000D01*
X42959153Y30776351D01*
X43032802Y30850000D01*
X67217928Y30850000D01*
X67217928Y29150000D01*
X67230188Y29025518D01*
X67266498Y28905820D01*
X67325463Y28795506D01*
X67404815Y28698815D01*
X67501506Y28619463D01*
X67611820Y28560498D01*
X67684380Y28538487D01*
X67552525Y28406632D01*
X67390010Y28163411D01*
X67278068Y27893158D01*
X67221000Y27606260D01*
X67221000Y27313740D01*
X67278068Y27026842D01*
X67390010Y26756589D01*
X67552525Y26513368D01*
X67759368Y26306525D01*
X67933760Y26190000D01*
X67759368Y26073475D01*
X67552525Y25866632D01*
X67390010Y25623411D01*
X67278068Y25353158D01*
X67221000Y25066260D01*
X67221000Y24773740D01*
X67278068Y24486842D01*
X67390010Y24216589D01*
X67552525Y23973368D01*
X67759368Y23766525D01*
X67933760Y23650000D01*
X67759368Y23533475D01*
X67552525Y23326632D01*
X67390010Y23083411D01*
X67278068Y22813158D01*
X67221000Y22526260D01*
X67221000Y22233740D01*
X67278068Y21946842D01*
X67390010Y21676589D01*
X67552525Y21433368D01*
X67759368Y21226525D01*
X67933760Y21110000D01*
X67759368Y20993475D01*
X67552525Y20786632D01*
X67390010Y20543411D01*
X67278068Y20273158D01*
X67221000Y19986260D01*
X67221000Y19693740D01*
X67278068Y19406842D01*
X67390010Y19136589D01*
X67552525Y18893368D01*
X67759368Y18686525D01*
X67933760Y18570000D01*
X67759368Y18453475D01*
X67552525Y18246632D01*
X67390010Y18003411D01*
X67278068Y17733158D01*
X67221000Y17446260D01*
X67221000Y17153740D01*
X67278068Y16866842D01*
X67390010Y16596589D01*
X67552525Y16353368D01*
X67759368Y16146525D01*
X67933760Y16030000D01*
X67759368Y15913475D01*
X67552525Y15706632D01*
X67390010Y15463411D01*
X67278068Y15193158D01*
X67221000Y14906260D01*
X67221000Y14613740D01*
X67278068Y14326842D01*
X67390010Y14056589D01*
X67552525Y13813368D01*
X67759368Y13606525D01*
X67933760Y13490000D01*
X67759368Y13373475D01*
X67552525Y13166632D01*
X67390010Y12923411D01*
X67278068Y12653158D01*
X67221000Y12366260D01*
X67221000Y12073740D01*
X67278068Y11786842D01*
X67390010Y11516589D01*
X67552525Y11273368D01*
X67759368Y11066525D01*
X68002589Y10904010D01*
X68272842Y10792068D01*
X68559740Y10735000D01*
X68852260Y10735000D01*
X69139158Y10792068D01*
X69409411Y10904010D01*
X69652632Y11066525D01*
X69859475Y11273368D01*
X70021990Y11516589D01*
X70133932Y11786842D01*
X70191000Y12073740D01*
X70191000Y12366260D01*
X70133932Y12653158D01*
X70021990Y12923411D01*
X69859475Y13166632D01*
X69652632Y13373475D01*
X69478240Y13490000D01*
X69652632Y13606525D01*
X69859475Y13813368D01*
X70021990Y14056589D01*
X70133932Y14326842D01*
X70191000Y14613740D01*
X70191000Y14906260D01*
X70133932Y15193158D01*
X70021990Y15463411D01*
X69859475Y15706632D01*
X69652632Y15913475D01*
X69478240Y16030000D01*
X69652632Y16146525D01*
X69859475Y16353368D01*
X70021990Y16596589D01*
X70133932Y16866842D01*
X70191000Y17153740D01*
X70191000Y17446260D01*
X74831000Y17446260D01*
X74831000Y17153740D01*
X74888068Y16866842D01*
X75000010Y16596589D01*
X75162525Y16353368D01*
X75369368Y16146525D01*
X75543760Y16030000D01*
X75369368Y15913475D01*
X75162525Y15706632D01*
X75000010Y15463411D01*
X74888068Y15193158D01*
X74831000Y14906260D01*
X74831000Y14613740D01*
X74888068Y14326842D01*
X75000010Y14056589D01*
X75162525Y13813368D01*
X75369368Y13606525D01*
X75543760Y13490000D01*
X75369368Y13373475D01*
X75162525Y13166632D01*
X75000010Y12923411D01*
X74888068Y12653158D01*
X74831000Y12366260D01*
X74831000Y12073740D01*
X74888068Y11786842D01*
X75000010Y11516589D01*
X75162525Y11273368D01*
X75369368Y11066525D01*
X75612589Y10904010D01*
X75882842Y10792068D01*
X76169740Y10735000D01*
X76462260Y10735000D01*
X76749158Y10792068D01*
X77019411Y10904010D01*
X77262632Y11066525D01*
X77469475Y11273368D01*
X77631990Y11516589D01*
X77743932Y11786842D01*
X77801000Y12073740D01*
X77801000Y12366260D01*
X77743932Y12653158D01*
X77631990Y12923411D01*
X77469475Y13166632D01*
X77262632Y13373475D01*
X77088240Y13490000D01*
X77262632Y13606525D01*
X77469475Y13813368D01*
X77631990Y14056589D01*
X77743932Y14326842D01*
X77801000Y14613740D01*
X77801000Y14906260D01*
X77743932Y15193158D01*
X77631990Y15463411D01*
X77469475Y15706632D01*
X77262632Y15913475D01*
X77088240Y16030000D01*
X77262632Y16146525D01*
X77469475Y16353368D01*
X77631990Y16596589D01*
X77743932Y16866842D01*
X77801000Y17153740D01*
X77801000Y17446260D01*
X77743932Y17733158D01*
X77631990Y18003411D01*
X77469475Y18246632D01*
X77262632Y18453475D01*
X77080466Y18575195D01*
X77197355Y18644822D01*
X77413588Y18839731D01*
X77587641Y19073080D01*
X77712825Y19335901D01*
X77757476Y19483110D01*
X77636155Y19713000D01*
X76443000Y19713000D01*
X76443000Y19693000D01*
X76189000Y19693000D01*
X76189000Y19713000D01*
X74995845Y19713000D01*
X74874524Y19483110D01*
X74919175Y19335901D01*
X75044359Y19073080D01*
X75218412Y18839731D01*
X75434645Y18644822D01*
X75551534Y18575195D01*
X75369368Y18453475D01*
X75162525Y18246632D01*
X75000010Y18003411D01*
X74888068Y17733158D01*
X74831000Y17446260D01*
X70191000Y17446260D01*
X70133932Y17733158D01*
X70021990Y18003411D01*
X69859475Y18246632D01*
X69652632Y18453475D01*
X69478240Y18570000D01*
X69652632Y18686525D01*
X69859475Y18893368D01*
X70021990Y19136589D01*
X70133932Y19406842D01*
X70191000Y19693740D01*
X70191000Y19986260D01*
X70133932Y20273158D01*
X70021990Y20543411D01*
X69859475Y20786632D01*
X69652632Y20993475D01*
X69478240Y21110000D01*
X69652632Y21226525D01*
X69859475Y21433368D01*
X70021990Y21676589D01*
X70133932Y21946842D01*
X70191000Y22233740D01*
X70191000Y22526260D01*
X70133932Y22813158D01*
X70021990Y23083411D01*
X69859475Y23326632D01*
X69652632Y23533475D01*
X69478240Y23650000D01*
X69652632Y23766525D01*
X69859475Y23973368D01*
X70021990Y24216589D01*
X70133932Y24486842D01*
X70191000Y24773740D01*
X70191000Y25066260D01*
X70133932Y25353158D01*
X70021990Y25623411D01*
X69859475Y25866632D01*
X69652632Y26073475D01*
X69478240Y26190000D01*
X69652632Y26306525D01*
X69859475Y26513368D01*
X70021990Y26756589D01*
X70133932Y27026842D01*
X70191000Y27313740D01*
X70191000Y27606260D01*
X70133932Y27893158D01*
X70021990Y28163411D01*
X69859475Y28406632D01*
X69727620Y28538487D01*
X69800180Y28560498D01*
X69910494Y28619463D01*
X70007185Y28698815D01*
X70086537Y28795506D01*
X70145502Y28905820D01*
X70181812Y29025518D01*
X70194072Y29150000D01*
X70194072Y30850000D01*
X74827928Y30850000D01*
X74827928Y29150000D01*
X74840188Y29025518D01*
X74876498Y28905820D01*
X74935463Y28795506D01*
X75014815Y28698815D01*
X75111506Y28619463D01*
X75221820Y28560498D01*
X75294380Y28538487D01*
X75162525Y28406632D01*
X75000010Y28163411D01*
X74888068Y27893158D01*
X74831000Y27606260D01*
X74831000Y27313740D01*
X74888068Y27026842D01*
X75000010Y26756589D01*
X75162525Y26513368D01*
X75369368Y26306525D01*
X75543760Y26190000D01*
X75369368Y26073475D01*
X75162525Y25866632D01*
X75000010Y25623411D01*
X74888068Y25353158D01*
X74831000Y25066260D01*
X74831000Y24773740D01*
X74888068Y24486842D01*
X75000010Y24216589D01*
X75162525Y23973368D01*
X75369368Y23766525D01*
X75543760Y23650000D01*
X75369368Y23533475D01*
X75162525Y23326632D01*
X75000010Y23083411D01*
X74888068Y22813158D01*
X74831000Y22526260D01*
X74831000Y22233740D01*
X74888068Y21946842D01*
X75000010Y21676589D01*
X75162525Y21433368D01*
X75369368Y21226525D01*
X75551534Y21104805D01*
X75434645Y21035178D01*
X75218412Y20840269D01*
X75044359Y20606920D01*
X74919175Y20344099D01*
X74874524Y20196890D01*
X74995845Y19967000D01*
X76189000Y19967000D01*
X76189000Y19987000D01*
X76443000Y19987000D01*
X76443000Y19967000D01*
X77636155Y19967000D01*
X77757476Y20196890D01*
X77712825Y20344099D01*
X77587641Y20606920D01*
X77413588Y20840269D01*
X77197355Y21035178D01*
X77080466Y21104805D01*
X77262632Y21226525D01*
X77469475Y21433368D01*
X77631990Y21676589D01*
X77743932Y21946842D01*
X77801000Y22233740D01*
X77801000Y22526260D01*
X77743932Y22813158D01*
X77631990Y23083411D01*
X77469475Y23326632D01*
X77262632Y23533475D01*
X77088240Y23650000D01*
X77262632Y23766525D01*
X77469475Y23973368D01*
X77631990Y24216589D01*
X77743932Y24486842D01*
X77801000Y24773740D01*
X77801000Y25066260D01*
X77743932Y25353158D01*
X77631990Y25623411D01*
X77469475Y25866632D01*
X77262632Y26073475D01*
X77088240Y26190000D01*
X77262632Y26306525D01*
X77469475Y26513368D01*
X77631990Y26756589D01*
X77743932Y27026842D01*
X77801000Y27313740D01*
X77801000Y27606260D01*
X77743932Y27893158D01*
X77631990Y28163411D01*
X77469475Y28406632D01*
X77337620Y28538487D01*
X77410180Y28560498D01*
X77520494Y28619463D01*
X77617185Y28698815D01*
X77696537Y28795506D01*
X77755502Y28905820D01*
X77791812Y29025518D01*
X77804072Y29150000D01*
X77804072Y30850000D01*
X77791812Y30974482D01*
X77755502Y31094180D01*
X77696537Y31204494D01*
X77617185Y31301185D01*
X77520494Y31380537D01*
X77410180Y31439502D01*
X77290482Y31475812D01*
X77166000Y31488072D01*
X75466000Y31488072D01*
X75341518Y31475812D01*
X75221820Y31439502D01*
X75111506Y31380537D01*
X75014815Y31301185D01*
X74935463Y31204494D01*
X74876498Y31094180D01*
X74840188Y30974482D01*
X74827928Y30850000D01*
X70194072Y30850000D01*
X70181812Y30974482D01*
X70145502Y31094180D01*
X70086537Y31204494D01*
X70007185Y31301185D01*
X69910494Y31380537D01*
X69800180Y31439502D01*
X69680482Y31475812D01*
X69556000Y31488072D01*
X67856000Y31488072D01*
X67731518Y31475812D01*
X67611820Y31439502D01*
X67501506Y31380537D01*
X67404815Y31301185D01*
X67325463Y31204494D01*
X67266498Y31094180D01*
X67230188Y30974482D01*
X67217928Y30850000D01*
X43032802Y30850000D01*
X43366802Y31184000D01*
X44030465Y31184000D01*
X44133111Y31115414D01*
X44303271Y31044932D01*
X44483911Y31009000D01*
X44668089Y31009000D01*
X44848729Y31044932D01*
X45018889Y31115414D01*
X45172028Y31217738D01*
X45302262Y31347972D01*
X45404586Y31501111D01*
X45475068Y31671271D01*
X45511000Y31851911D01*
X45511000Y32036089D01*
X45475068Y32216729D01*
X45404586Y32386889D01*
X45302262Y32540028D01*
X45172028Y32670262D01*
X45018889Y32772586D01*
X44848729Y32843068D01*
X44668089Y32879000D01*
X44483911Y32879000D01*
X44303271Y32843068D01*
X44133111Y32772586D01*
X44030465Y32704000D01*
X43089322Y32704000D01*
X43052000Y32707676D01*
X43014677Y32704000D01*
X43014667Y32704000D01*
X42903014Y32693003D01*
X42818025Y32667222D01*
X43366803Y33216000D01*
X44030465Y33216000D01*
X44133111Y33147414D01*
X44303271Y33076932D01*
X44483911Y33041000D01*
X44668089Y33041000D01*
X44848729Y33076932D01*
X45018889Y33147414D01*
X45172028Y33249738D01*
X45302262Y33379972D01*
X45404586Y33533111D01*
X45475068Y33703271D01*
X45511000Y33883911D01*
X45511000Y34068089D01*
X45475068Y34248729D01*
X45404586Y34418889D01*
X45302262Y34572028D01*
X45172028Y34702262D01*
X45018889Y34804586D01*
X44848729Y34875068D01*
X44668089Y34911000D01*
X44483911Y34911000D01*
X44303271Y34875068D01*
X44133111Y34804586D01*
X44030465Y34736000D01*
X43089322Y34736000D01*
X43051999Y34739676D01*
X43014676Y34736000D01*
X43014667Y34736000D01*
X42903014Y34725003D01*
X42759753Y34681546D01*
X42627724Y34610974D01*
X42627722Y34610973D01*
X42627723Y34610973D01*
X42540996Y34539799D01*
X42540992Y34539795D01*
X42511999Y34516001D01*
X42488205Y34487008D01*
X40360351Y32359153D01*
X40239271Y32335068D01*
X40069111Y32264586D01*
X39915972Y32162262D01*
X39785738Y32032028D01*
X39683414Y31878889D01*
X39612932Y31708729D01*
X39577000Y31528089D01*
X31010890Y31528089D01*
X32027650Y32544848D01*
X32148729Y32568932D01*
X32318889Y32639414D01*
X32472028Y32741738D01*
X32602262Y32871972D01*
X32704586Y33025111D01*
X32775068Y33195271D01*
X32811000Y33375911D01*
X32811000Y33560089D01*
X32775068Y33740729D01*
X32704586Y33910889D01*
X32602262Y34064028D01*
X32472028Y34194262D01*
X32318889Y34296586D01*
X32148729Y34367068D01*
X31968089Y34403000D01*
X31783911Y34403000D01*
X31603271Y34367068D01*
X31433111Y34296586D01*
X31279972Y34194262D01*
X31149738Y34064028D01*
X31047414Y33910889D01*
X30976932Y33740729D01*
X30952848Y33619650D01*
X28825003Y31491804D01*
X28795999Y31468001D01*
X28743474Y31403999D01*
X28701026Y31352276D01*
X28630455Y31220247D01*
X28630454Y31220246D01*
X28586997Y31076985D01*
X28576000Y30965332D01*
X28576000Y30965322D01*
X28572324Y30928000D01*
X28576000Y30890677D01*
X28576000Y30457536D01*
X28507414Y30354889D01*
X28436932Y30184729D01*
X28401000Y30004089D01*
X660000Y30004089D01*
X660000Y35340000D01*
X79340001Y35340000D01*
X79340000Y660000D01*
%TO.N,+3V3*%
G36*
X44195000Y17847000D02*
G01*
X37845000Y17847000D01*
X37845000Y24197000D01*
X44195000Y24197000D01*
X44195000Y17847000D01*
G37*
X44195000Y17847000D02*
X37845000Y17847000D01*
X37845000Y24197000D01*
X44195000Y24197000D01*
X44195000Y17847000D01*
%TD*%
M02*
