%TF.GenerationSoftware,KiCad,Pcbnew,(5.1.6)-1*%
%TF.CreationDate,2020-09-08T21:42:59+03:00*%
%TF.ProjectId,freepdk,66726565-7064-46b2-9e6b-696361645f70,3*%
%TF.SameCoordinates,PX3c51298PY447eab0*%
%TF.FileFunction,Soldermask,Top*%
%TF.FilePolarity,Negative*%
%FSLAX46Y46*%
G04 Gerber Fmt 4.6, Leading zero omitted, Abs format (unit mm)*
G04 Created by KiCad (PCBNEW (5.1.6)-1) date 2020-09-08 21:42:59*
%MOMM*%
%LPD*%
G01*
G04 APERTURE LIST*
%ADD10R,3.600000X1.900000*%
%ADD11O,1.800000X1.800000*%
%ADD12R,1.800000X1.800000*%
%ADD13C,1.100000*%
%ADD14R,1.800000X2.100000*%
%ADD15R,2.100000X0.600000*%
%ADD16R,2.100000X4.600000*%
%ADD17R,0.750000X1.660000*%
%ADD18R,0.900000X1.000000*%
G04 APERTURE END LIST*
D10*
%TO.C,D1*%
X5160000Y5274000D03*
X10160000Y5274000D03*
%TD*%
%TO.C,F1*%
G36*
G01*
X15695000Y18878262D02*
X15695000Y17921738D01*
G75*
G02*
X15423262Y17650000I-271738J0D01*
G01*
X14716738Y17650000D01*
G75*
G02*
X14445000Y17921738I0J271738D01*
G01*
X14445000Y18878262D01*
G75*
G02*
X14716738Y19150000I271738J0D01*
G01*
X15423262Y19150000D01*
G75*
G02*
X15695000Y18878262I0J-271738D01*
G01*
G37*
G36*
G01*
X17745000Y18878262D02*
X17745000Y17921738D01*
G75*
G02*
X17473262Y17650000I-271738J0D01*
G01*
X16766738Y17650000D01*
G75*
G02*
X16495000Y17921738I0J271738D01*
G01*
X16495000Y18878262D01*
G75*
G02*
X16766738Y19150000I271738J0D01*
G01*
X17473262Y19150000D01*
G75*
G02*
X17745000Y18878262I0J-271738D01*
G01*
G37*
%TD*%
%TO.C,R1*%
G36*
G01*
X42573738Y7913000D02*
X43530262Y7913000D01*
G75*
G02*
X43802000Y7641262I0J-271738D01*
G01*
X43802000Y6934738D01*
G75*
G02*
X43530262Y6663000I-271738J0D01*
G01*
X42573738Y6663000D01*
G75*
G02*
X42302000Y6934738I0J271738D01*
G01*
X42302000Y7641262D01*
G75*
G02*
X42573738Y7913000I271738J0D01*
G01*
G37*
G36*
G01*
X42573738Y9963000D02*
X43530262Y9963000D01*
G75*
G02*
X43802000Y9691262I0J-271738D01*
G01*
X43802000Y8984738D01*
G75*
G02*
X43530262Y8713000I-271738J0D01*
G01*
X42573738Y8713000D01*
G75*
G02*
X42302000Y8984738I0J271738D01*
G01*
X42302000Y9691262D01*
G75*
G02*
X42573738Y9963000I271738J0D01*
G01*
G37*
%TD*%
D11*
%TO.C,J4*%
X76316000Y12220000D03*
X76316000Y14760000D03*
X76316000Y17300000D03*
X76316000Y19840000D03*
X76316000Y22380000D03*
X76316000Y24920000D03*
X76316000Y27460000D03*
D12*
X76316000Y30000000D03*
%TD*%
D11*
%TO.C,J3*%
X68706000Y12220000D03*
X68706000Y14760000D03*
X68706000Y17300000D03*
X68706000Y19840000D03*
X68706000Y22380000D03*
X68706000Y24920000D03*
X68706000Y27460000D03*
D12*
X68706000Y30000000D03*
%TD*%
D13*
%TO.C,J1*%
X5460000Y20800000D03*
X5460000Y25200000D03*
D14*
X2610000Y18550000D03*
X8060000Y18550000D03*
X2610000Y27450000D03*
X8060000Y27450000D03*
D15*
X8160000Y21400000D03*
X8160000Y22200000D03*
X8160000Y23000000D03*
X8160000Y23800000D03*
X8160000Y24600000D03*
%TD*%
%TO.C,U4*%
G36*
G01*
X24817000Y30626000D02*
X24817000Y30976000D01*
G75*
G02*
X24992000Y31151000I175000J0D01*
G01*
X26692000Y31151000D01*
G75*
G02*
X26867000Y30976000I0J-175000D01*
G01*
X26867000Y30626000D01*
G75*
G02*
X26692000Y30451000I-175000J0D01*
G01*
X24992000Y30451000D01*
G75*
G02*
X24817000Y30626000I0J175000D01*
G01*
G37*
G36*
G01*
X24817000Y29356000D02*
X24817000Y29706000D01*
G75*
G02*
X24992000Y29881000I175000J0D01*
G01*
X26692000Y29881000D01*
G75*
G02*
X26867000Y29706000I0J-175000D01*
G01*
X26867000Y29356000D01*
G75*
G02*
X26692000Y29181000I-175000J0D01*
G01*
X24992000Y29181000D01*
G75*
G02*
X24817000Y29356000I0J175000D01*
G01*
G37*
G36*
G01*
X24817000Y28086000D02*
X24817000Y28436000D01*
G75*
G02*
X24992000Y28611000I175000J0D01*
G01*
X26692000Y28611000D01*
G75*
G02*
X26867000Y28436000I0J-175000D01*
G01*
X26867000Y28086000D01*
G75*
G02*
X26692000Y27911000I-175000J0D01*
G01*
X24992000Y27911000D01*
G75*
G02*
X24817000Y28086000I0J175000D01*
G01*
G37*
G36*
G01*
X24817000Y26816000D02*
X24817000Y27166000D01*
G75*
G02*
X24992000Y27341000I175000J0D01*
G01*
X26692000Y27341000D01*
G75*
G02*
X26867000Y27166000I0J-175000D01*
G01*
X26867000Y26816000D01*
G75*
G02*
X26692000Y26641000I-175000J0D01*
G01*
X24992000Y26641000D01*
G75*
G02*
X24817000Y26816000I0J175000D01*
G01*
G37*
G36*
G01*
X19867000Y26816000D02*
X19867000Y27166000D01*
G75*
G02*
X20042000Y27341000I175000J0D01*
G01*
X21742000Y27341000D01*
G75*
G02*
X21917000Y27166000I0J-175000D01*
G01*
X21917000Y26816000D01*
G75*
G02*
X21742000Y26641000I-175000J0D01*
G01*
X20042000Y26641000D01*
G75*
G02*
X19867000Y26816000I0J175000D01*
G01*
G37*
G36*
G01*
X19867000Y28086000D02*
X19867000Y28436000D01*
G75*
G02*
X20042000Y28611000I175000J0D01*
G01*
X21742000Y28611000D01*
G75*
G02*
X21917000Y28436000I0J-175000D01*
G01*
X21917000Y28086000D01*
G75*
G02*
X21742000Y27911000I-175000J0D01*
G01*
X20042000Y27911000D01*
G75*
G02*
X19867000Y28086000I0J175000D01*
G01*
G37*
G36*
G01*
X19867000Y29356000D02*
X19867000Y29706000D01*
G75*
G02*
X20042000Y29881000I175000J0D01*
G01*
X21742000Y29881000D01*
G75*
G02*
X21917000Y29706000I0J-175000D01*
G01*
X21917000Y29356000D01*
G75*
G02*
X21742000Y29181000I-175000J0D01*
G01*
X20042000Y29181000D01*
G75*
G02*
X19867000Y29356000I0J175000D01*
G01*
G37*
G36*
G01*
X19867000Y30626000D02*
X19867000Y30976000D01*
G75*
G02*
X20042000Y31151000I175000J0D01*
G01*
X21742000Y31151000D01*
G75*
G02*
X21917000Y30976000I0J-175000D01*
G01*
X21917000Y30626000D01*
G75*
G02*
X21742000Y30451000I-175000J0D01*
G01*
X20042000Y30451000D01*
G75*
G02*
X19867000Y30626000I0J175000D01*
G01*
G37*
%TD*%
%TO.C,C2*%
G36*
G01*
X28388762Y18247000D02*
X27432238Y18247000D01*
G75*
G02*
X27160500Y18518738I0J271738D01*
G01*
X27160500Y19225262D01*
G75*
G02*
X27432238Y19497000I271738J0D01*
G01*
X28388762Y19497000D01*
G75*
G02*
X28660500Y19225262I0J-271738D01*
G01*
X28660500Y18518738D01*
G75*
G02*
X28388762Y18247000I-271738J0D01*
G01*
G37*
G36*
G01*
X28388762Y16197000D02*
X27432238Y16197000D01*
G75*
G02*
X27160500Y16468738I0J271738D01*
G01*
X27160500Y17175262D01*
G75*
G02*
X27432238Y17447000I271738J0D01*
G01*
X28388762Y17447000D01*
G75*
G02*
X28660500Y17175262I0J-271738D01*
G01*
X28660500Y16468738D01*
G75*
G02*
X28388762Y16197000I-271738J0D01*
G01*
G37*
%TD*%
%TO.C,R3*%
G36*
G01*
X14507738Y2893000D02*
X15464262Y2893000D01*
G75*
G02*
X15736000Y2621262I0J-271738D01*
G01*
X15736000Y1914738D01*
G75*
G02*
X15464262Y1643000I-271738J0D01*
G01*
X14507738Y1643000D01*
G75*
G02*
X14236000Y1914738I0J271738D01*
G01*
X14236000Y2621262D01*
G75*
G02*
X14507738Y2893000I271738J0D01*
G01*
G37*
G36*
G01*
X14507738Y4943000D02*
X15464262Y4943000D01*
G75*
G02*
X15736000Y4671262I0J-271738D01*
G01*
X15736000Y3964738D01*
G75*
G02*
X15464262Y3693000I-271738J0D01*
G01*
X14507738Y3693000D01*
G75*
G02*
X14236000Y3964738I0J271738D01*
G01*
X14236000Y4671262D01*
G75*
G02*
X14507738Y4943000I271738J0D01*
G01*
G37*
%TD*%
D16*
%TO.C,Y1*%
X53847000Y14994000D03*
X53847000Y23494000D03*
%TD*%
D17*
%TO.C,U3*%
X9079500Y12910500D03*
X8129500Y12910500D03*
X10029500Y12910500D03*
X10029500Y10210500D03*
X9079500Y10210500D03*
X8129500Y10210500D03*
%TD*%
D18*
%TO.C,U2*%
X24065500Y18466000D03*
X25015500Y16466000D03*
X23115500Y16466000D03*
%TD*%
%TO.C,U1*%
G36*
G01*
X43970000Y17525000D02*
X43970000Y16150000D01*
G75*
G02*
X43870000Y16050000I-100000J0D01*
G01*
X43670000Y16050000D01*
G75*
G02*
X43570000Y16150000I0J100000D01*
G01*
X43570000Y17525000D01*
G75*
G02*
X43670000Y17625000I100000J0D01*
G01*
X43870000Y17625000D01*
G75*
G02*
X43970000Y17525000I0J-100000D01*
G01*
G37*
G36*
G01*
X43470000Y17525000D02*
X43470000Y16150000D01*
G75*
G02*
X43370000Y16050000I-100000J0D01*
G01*
X43170000Y16050000D01*
G75*
G02*
X43070000Y16150000I0J100000D01*
G01*
X43070000Y17525000D01*
G75*
G02*
X43170000Y17625000I100000J0D01*
G01*
X43370000Y17625000D01*
G75*
G02*
X43470000Y17525000I0J-100000D01*
G01*
G37*
G36*
G01*
X42970000Y17525000D02*
X42970000Y16150000D01*
G75*
G02*
X42870000Y16050000I-100000J0D01*
G01*
X42670000Y16050000D01*
G75*
G02*
X42570000Y16150000I0J100000D01*
G01*
X42570000Y17525000D01*
G75*
G02*
X42670000Y17625000I100000J0D01*
G01*
X42870000Y17625000D01*
G75*
G02*
X42970000Y17525000I0J-100000D01*
G01*
G37*
G36*
G01*
X42470000Y17525000D02*
X42470000Y16150000D01*
G75*
G02*
X42370000Y16050000I-100000J0D01*
G01*
X42170000Y16050000D01*
G75*
G02*
X42070000Y16150000I0J100000D01*
G01*
X42070000Y17525000D01*
G75*
G02*
X42170000Y17625000I100000J0D01*
G01*
X42370000Y17625000D01*
G75*
G02*
X42470000Y17525000I0J-100000D01*
G01*
G37*
G36*
G01*
X41970000Y17525000D02*
X41970000Y16150000D01*
G75*
G02*
X41870000Y16050000I-100000J0D01*
G01*
X41670000Y16050000D01*
G75*
G02*
X41570000Y16150000I0J100000D01*
G01*
X41570000Y17525000D01*
G75*
G02*
X41670000Y17625000I100000J0D01*
G01*
X41870000Y17625000D01*
G75*
G02*
X41970000Y17525000I0J-100000D01*
G01*
G37*
G36*
G01*
X41470000Y17525000D02*
X41470000Y16150000D01*
G75*
G02*
X41370000Y16050000I-100000J0D01*
G01*
X41170000Y16050000D01*
G75*
G02*
X41070000Y16150000I0J100000D01*
G01*
X41070000Y17525000D01*
G75*
G02*
X41170000Y17625000I100000J0D01*
G01*
X41370000Y17625000D01*
G75*
G02*
X41470000Y17525000I0J-100000D01*
G01*
G37*
G36*
G01*
X40970000Y17525000D02*
X40970000Y16150000D01*
G75*
G02*
X40870000Y16050000I-100000J0D01*
G01*
X40670000Y16050000D01*
G75*
G02*
X40570000Y16150000I0J100000D01*
G01*
X40570000Y17525000D01*
G75*
G02*
X40670000Y17625000I100000J0D01*
G01*
X40870000Y17625000D01*
G75*
G02*
X40970000Y17525000I0J-100000D01*
G01*
G37*
G36*
G01*
X40470000Y17525000D02*
X40470000Y16150000D01*
G75*
G02*
X40370000Y16050000I-100000J0D01*
G01*
X40170000Y16050000D01*
G75*
G02*
X40070000Y16150000I0J100000D01*
G01*
X40070000Y17525000D01*
G75*
G02*
X40170000Y17625000I100000J0D01*
G01*
X40370000Y17625000D01*
G75*
G02*
X40470000Y17525000I0J-100000D01*
G01*
G37*
G36*
G01*
X39970000Y17525000D02*
X39970000Y16150000D01*
G75*
G02*
X39870000Y16050000I-100000J0D01*
G01*
X39670000Y16050000D01*
G75*
G02*
X39570000Y16150000I0J100000D01*
G01*
X39570000Y17525000D01*
G75*
G02*
X39670000Y17625000I100000J0D01*
G01*
X39870000Y17625000D01*
G75*
G02*
X39970000Y17525000I0J-100000D01*
G01*
G37*
G36*
G01*
X39470000Y17525000D02*
X39470000Y16150000D01*
G75*
G02*
X39370000Y16050000I-100000J0D01*
G01*
X39170000Y16050000D01*
G75*
G02*
X39070000Y16150000I0J100000D01*
G01*
X39070000Y17525000D01*
G75*
G02*
X39170000Y17625000I100000J0D01*
G01*
X39370000Y17625000D01*
G75*
G02*
X39470000Y17525000I0J-100000D01*
G01*
G37*
G36*
G01*
X38970000Y17525000D02*
X38970000Y16150000D01*
G75*
G02*
X38870000Y16050000I-100000J0D01*
G01*
X38670000Y16050000D01*
G75*
G02*
X38570000Y16150000I0J100000D01*
G01*
X38570000Y17525000D01*
G75*
G02*
X38670000Y17625000I100000J0D01*
G01*
X38870000Y17625000D01*
G75*
G02*
X38970000Y17525000I0J-100000D01*
G01*
G37*
G36*
G01*
X38470000Y17525000D02*
X38470000Y16150000D01*
G75*
G02*
X38370000Y16050000I-100000J0D01*
G01*
X38170000Y16050000D01*
G75*
G02*
X38070000Y16150000I0J100000D01*
G01*
X38070000Y17525000D01*
G75*
G02*
X38170000Y17625000I100000J0D01*
G01*
X38370000Y17625000D01*
G75*
G02*
X38470000Y17525000I0J-100000D01*
G01*
G37*
G36*
G01*
X37645000Y18350000D02*
X37645000Y18150000D01*
G75*
G02*
X37545000Y18050000I-100000J0D01*
G01*
X36170000Y18050000D01*
G75*
G02*
X36070000Y18150000I0J100000D01*
G01*
X36070000Y18350000D01*
G75*
G02*
X36170000Y18450000I100000J0D01*
G01*
X37545000Y18450000D01*
G75*
G02*
X37645000Y18350000I0J-100000D01*
G01*
G37*
G36*
G01*
X37645000Y18850000D02*
X37645000Y18650000D01*
G75*
G02*
X37545000Y18550000I-100000J0D01*
G01*
X36170000Y18550000D01*
G75*
G02*
X36070000Y18650000I0J100000D01*
G01*
X36070000Y18850000D01*
G75*
G02*
X36170000Y18950000I100000J0D01*
G01*
X37545000Y18950000D01*
G75*
G02*
X37645000Y18850000I0J-100000D01*
G01*
G37*
G36*
G01*
X37645000Y19350000D02*
X37645000Y19150000D01*
G75*
G02*
X37545000Y19050000I-100000J0D01*
G01*
X36170000Y19050000D01*
G75*
G02*
X36070000Y19150000I0J100000D01*
G01*
X36070000Y19350000D01*
G75*
G02*
X36170000Y19450000I100000J0D01*
G01*
X37545000Y19450000D01*
G75*
G02*
X37645000Y19350000I0J-100000D01*
G01*
G37*
G36*
G01*
X37645000Y19850000D02*
X37645000Y19650000D01*
G75*
G02*
X37545000Y19550000I-100000J0D01*
G01*
X36170000Y19550000D01*
G75*
G02*
X36070000Y19650000I0J100000D01*
G01*
X36070000Y19850000D01*
G75*
G02*
X36170000Y19950000I100000J0D01*
G01*
X37545000Y19950000D01*
G75*
G02*
X37645000Y19850000I0J-100000D01*
G01*
G37*
G36*
G01*
X37645000Y20350000D02*
X37645000Y20150000D01*
G75*
G02*
X37545000Y20050000I-100000J0D01*
G01*
X36170000Y20050000D01*
G75*
G02*
X36070000Y20150000I0J100000D01*
G01*
X36070000Y20350000D01*
G75*
G02*
X36170000Y20450000I100000J0D01*
G01*
X37545000Y20450000D01*
G75*
G02*
X37645000Y20350000I0J-100000D01*
G01*
G37*
G36*
G01*
X37645000Y20850000D02*
X37645000Y20650000D01*
G75*
G02*
X37545000Y20550000I-100000J0D01*
G01*
X36170000Y20550000D01*
G75*
G02*
X36070000Y20650000I0J100000D01*
G01*
X36070000Y20850000D01*
G75*
G02*
X36170000Y20950000I100000J0D01*
G01*
X37545000Y20950000D01*
G75*
G02*
X37645000Y20850000I0J-100000D01*
G01*
G37*
G36*
G01*
X37645000Y21350000D02*
X37645000Y21150000D01*
G75*
G02*
X37545000Y21050000I-100000J0D01*
G01*
X36170000Y21050000D01*
G75*
G02*
X36070000Y21150000I0J100000D01*
G01*
X36070000Y21350000D01*
G75*
G02*
X36170000Y21450000I100000J0D01*
G01*
X37545000Y21450000D01*
G75*
G02*
X37645000Y21350000I0J-100000D01*
G01*
G37*
G36*
G01*
X37645000Y21850000D02*
X37645000Y21650000D01*
G75*
G02*
X37545000Y21550000I-100000J0D01*
G01*
X36170000Y21550000D01*
G75*
G02*
X36070000Y21650000I0J100000D01*
G01*
X36070000Y21850000D01*
G75*
G02*
X36170000Y21950000I100000J0D01*
G01*
X37545000Y21950000D01*
G75*
G02*
X37645000Y21850000I0J-100000D01*
G01*
G37*
G36*
G01*
X37645000Y22350000D02*
X37645000Y22150000D01*
G75*
G02*
X37545000Y22050000I-100000J0D01*
G01*
X36170000Y22050000D01*
G75*
G02*
X36070000Y22150000I0J100000D01*
G01*
X36070000Y22350000D01*
G75*
G02*
X36170000Y22450000I100000J0D01*
G01*
X37545000Y22450000D01*
G75*
G02*
X37645000Y22350000I0J-100000D01*
G01*
G37*
G36*
G01*
X37645000Y22850000D02*
X37645000Y22650000D01*
G75*
G02*
X37545000Y22550000I-100000J0D01*
G01*
X36170000Y22550000D01*
G75*
G02*
X36070000Y22650000I0J100000D01*
G01*
X36070000Y22850000D01*
G75*
G02*
X36170000Y22950000I100000J0D01*
G01*
X37545000Y22950000D01*
G75*
G02*
X37645000Y22850000I0J-100000D01*
G01*
G37*
G36*
G01*
X37645000Y23350000D02*
X37645000Y23150000D01*
G75*
G02*
X37545000Y23050000I-100000J0D01*
G01*
X36170000Y23050000D01*
G75*
G02*
X36070000Y23150000I0J100000D01*
G01*
X36070000Y23350000D01*
G75*
G02*
X36170000Y23450000I100000J0D01*
G01*
X37545000Y23450000D01*
G75*
G02*
X37645000Y23350000I0J-100000D01*
G01*
G37*
G36*
G01*
X37645000Y23850000D02*
X37645000Y23650000D01*
G75*
G02*
X37545000Y23550000I-100000J0D01*
G01*
X36170000Y23550000D01*
G75*
G02*
X36070000Y23650000I0J100000D01*
G01*
X36070000Y23850000D01*
G75*
G02*
X36170000Y23950000I100000J0D01*
G01*
X37545000Y23950000D01*
G75*
G02*
X37645000Y23850000I0J-100000D01*
G01*
G37*
G36*
G01*
X38470000Y25850000D02*
X38470000Y24475000D01*
G75*
G02*
X38370000Y24375000I-100000J0D01*
G01*
X38170000Y24375000D01*
G75*
G02*
X38070000Y24475000I0J100000D01*
G01*
X38070000Y25850000D01*
G75*
G02*
X38170000Y25950000I100000J0D01*
G01*
X38370000Y25950000D01*
G75*
G02*
X38470000Y25850000I0J-100000D01*
G01*
G37*
G36*
G01*
X38970000Y25850000D02*
X38970000Y24475000D01*
G75*
G02*
X38870000Y24375000I-100000J0D01*
G01*
X38670000Y24375000D01*
G75*
G02*
X38570000Y24475000I0J100000D01*
G01*
X38570000Y25850000D01*
G75*
G02*
X38670000Y25950000I100000J0D01*
G01*
X38870000Y25950000D01*
G75*
G02*
X38970000Y25850000I0J-100000D01*
G01*
G37*
G36*
G01*
X39470000Y25850000D02*
X39470000Y24475000D01*
G75*
G02*
X39370000Y24375000I-100000J0D01*
G01*
X39170000Y24375000D01*
G75*
G02*
X39070000Y24475000I0J100000D01*
G01*
X39070000Y25850000D01*
G75*
G02*
X39170000Y25950000I100000J0D01*
G01*
X39370000Y25950000D01*
G75*
G02*
X39470000Y25850000I0J-100000D01*
G01*
G37*
G36*
G01*
X39970000Y25850000D02*
X39970000Y24475000D01*
G75*
G02*
X39870000Y24375000I-100000J0D01*
G01*
X39670000Y24375000D01*
G75*
G02*
X39570000Y24475000I0J100000D01*
G01*
X39570000Y25850000D01*
G75*
G02*
X39670000Y25950000I100000J0D01*
G01*
X39870000Y25950000D01*
G75*
G02*
X39970000Y25850000I0J-100000D01*
G01*
G37*
G36*
G01*
X40470000Y25850000D02*
X40470000Y24475000D01*
G75*
G02*
X40370000Y24375000I-100000J0D01*
G01*
X40170000Y24375000D01*
G75*
G02*
X40070000Y24475000I0J100000D01*
G01*
X40070000Y25850000D01*
G75*
G02*
X40170000Y25950000I100000J0D01*
G01*
X40370000Y25950000D01*
G75*
G02*
X40470000Y25850000I0J-100000D01*
G01*
G37*
G36*
G01*
X40970000Y25850000D02*
X40970000Y24475000D01*
G75*
G02*
X40870000Y24375000I-100000J0D01*
G01*
X40670000Y24375000D01*
G75*
G02*
X40570000Y24475000I0J100000D01*
G01*
X40570000Y25850000D01*
G75*
G02*
X40670000Y25950000I100000J0D01*
G01*
X40870000Y25950000D01*
G75*
G02*
X40970000Y25850000I0J-100000D01*
G01*
G37*
G36*
G01*
X41470000Y25850000D02*
X41470000Y24475000D01*
G75*
G02*
X41370000Y24375000I-100000J0D01*
G01*
X41170000Y24375000D01*
G75*
G02*
X41070000Y24475000I0J100000D01*
G01*
X41070000Y25850000D01*
G75*
G02*
X41170000Y25950000I100000J0D01*
G01*
X41370000Y25950000D01*
G75*
G02*
X41470000Y25850000I0J-100000D01*
G01*
G37*
G36*
G01*
X41970000Y25850000D02*
X41970000Y24475000D01*
G75*
G02*
X41870000Y24375000I-100000J0D01*
G01*
X41670000Y24375000D01*
G75*
G02*
X41570000Y24475000I0J100000D01*
G01*
X41570000Y25850000D01*
G75*
G02*
X41670000Y25950000I100000J0D01*
G01*
X41870000Y25950000D01*
G75*
G02*
X41970000Y25850000I0J-100000D01*
G01*
G37*
G36*
G01*
X42470000Y25850000D02*
X42470000Y24475000D01*
G75*
G02*
X42370000Y24375000I-100000J0D01*
G01*
X42170000Y24375000D01*
G75*
G02*
X42070000Y24475000I0J100000D01*
G01*
X42070000Y25850000D01*
G75*
G02*
X42170000Y25950000I100000J0D01*
G01*
X42370000Y25950000D01*
G75*
G02*
X42470000Y25850000I0J-100000D01*
G01*
G37*
G36*
G01*
X42970000Y25850000D02*
X42970000Y24475000D01*
G75*
G02*
X42870000Y24375000I-100000J0D01*
G01*
X42670000Y24375000D01*
G75*
G02*
X42570000Y24475000I0J100000D01*
G01*
X42570000Y25850000D01*
G75*
G02*
X42670000Y25950000I100000J0D01*
G01*
X42870000Y25950000D01*
G75*
G02*
X42970000Y25850000I0J-100000D01*
G01*
G37*
G36*
G01*
X43470000Y25850000D02*
X43470000Y24475000D01*
G75*
G02*
X43370000Y24375000I-100000J0D01*
G01*
X43170000Y24375000D01*
G75*
G02*
X43070000Y24475000I0J100000D01*
G01*
X43070000Y25850000D01*
G75*
G02*
X43170000Y25950000I100000J0D01*
G01*
X43370000Y25950000D01*
G75*
G02*
X43470000Y25850000I0J-100000D01*
G01*
G37*
G36*
G01*
X43970000Y25850000D02*
X43970000Y24475000D01*
G75*
G02*
X43870000Y24375000I-100000J0D01*
G01*
X43670000Y24375000D01*
G75*
G02*
X43570000Y24475000I0J100000D01*
G01*
X43570000Y25850000D01*
G75*
G02*
X43670000Y25950000I100000J0D01*
G01*
X43870000Y25950000D01*
G75*
G02*
X43970000Y25850000I0J-100000D01*
G01*
G37*
G36*
G01*
X45970000Y23850000D02*
X45970000Y23650000D01*
G75*
G02*
X45870000Y23550000I-100000J0D01*
G01*
X44495000Y23550000D01*
G75*
G02*
X44395000Y23650000I0J100000D01*
G01*
X44395000Y23850000D01*
G75*
G02*
X44495000Y23950000I100000J0D01*
G01*
X45870000Y23950000D01*
G75*
G02*
X45970000Y23850000I0J-100000D01*
G01*
G37*
G36*
G01*
X45970000Y23350000D02*
X45970000Y23150000D01*
G75*
G02*
X45870000Y23050000I-100000J0D01*
G01*
X44495000Y23050000D01*
G75*
G02*
X44395000Y23150000I0J100000D01*
G01*
X44395000Y23350000D01*
G75*
G02*
X44495000Y23450000I100000J0D01*
G01*
X45870000Y23450000D01*
G75*
G02*
X45970000Y23350000I0J-100000D01*
G01*
G37*
G36*
G01*
X45970000Y22850000D02*
X45970000Y22650000D01*
G75*
G02*
X45870000Y22550000I-100000J0D01*
G01*
X44495000Y22550000D01*
G75*
G02*
X44395000Y22650000I0J100000D01*
G01*
X44395000Y22850000D01*
G75*
G02*
X44495000Y22950000I100000J0D01*
G01*
X45870000Y22950000D01*
G75*
G02*
X45970000Y22850000I0J-100000D01*
G01*
G37*
G36*
G01*
X45970000Y22350000D02*
X45970000Y22150000D01*
G75*
G02*
X45870000Y22050000I-100000J0D01*
G01*
X44495000Y22050000D01*
G75*
G02*
X44395000Y22150000I0J100000D01*
G01*
X44395000Y22350000D01*
G75*
G02*
X44495000Y22450000I100000J0D01*
G01*
X45870000Y22450000D01*
G75*
G02*
X45970000Y22350000I0J-100000D01*
G01*
G37*
G36*
G01*
X45970000Y21850000D02*
X45970000Y21650000D01*
G75*
G02*
X45870000Y21550000I-100000J0D01*
G01*
X44495000Y21550000D01*
G75*
G02*
X44395000Y21650000I0J100000D01*
G01*
X44395000Y21850000D01*
G75*
G02*
X44495000Y21950000I100000J0D01*
G01*
X45870000Y21950000D01*
G75*
G02*
X45970000Y21850000I0J-100000D01*
G01*
G37*
G36*
G01*
X45970000Y21350000D02*
X45970000Y21150000D01*
G75*
G02*
X45870000Y21050000I-100000J0D01*
G01*
X44495000Y21050000D01*
G75*
G02*
X44395000Y21150000I0J100000D01*
G01*
X44395000Y21350000D01*
G75*
G02*
X44495000Y21450000I100000J0D01*
G01*
X45870000Y21450000D01*
G75*
G02*
X45970000Y21350000I0J-100000D01*
G01*
G37*
G36*
G01*
X45970000Y20850000D02*
X45970000Y20650000D01*
G75*
G02*
X45870000Y20550000I-100000J0D01*
G01*
X44495000Y20550000D01*
G75*
G02*
X44395000Y20650000I0J100000D01*
G01*
X44395000Y20850000D01*
G75*
G02*
X44495000Y20950000I100000J0D01*
G01*
X45870000Y20950000D01*
G75*
G02*
X45970000Y20850000I0J-100000D01*
G01*
G37*
G36*
G01*
X45970000Y20350000D02*
X45970000Y20150000D01*
G75*
G02*
X45870000Y20050000I-100000J0D01*
G01*
X44495000Y20050000D01*
G75*
G02*
X44395000Y20150000I0J100000D01*
G01*
X44395000Y20350000D01*
G75*
G02*
X44495000Y20450000I100000J0D01*
G01*
X45870000Y20450000D01*
G75*
G02*
X45970000Y20350000I0J-100000D01*
G01*
G37*
G36*
G01*
X45970000Y19850000D02*
X45970000Y19650000D01*
G75*
G02*
X45870000Y19550000I-100000J0D01*
G01*
X44495000Y19550000D01*
G75*
G02*
X44395000Y19650000I0J100000D01*
G01*
X44395000Y19850000D01*
G75*
G02*
X44495000Y19950000I100000J0D01*
G01*
X45870000Y19950000D01*
G75*
G02*
X45970000Y19850000I0J-100000D01*
G01*
G37*
G36*
G01*
X45970000Y19350000D02*
X45970000Y19150000D01*
G75*
G02*
X45870000Y19050000I-100000J0D01*
G01*
X44495000Y19050000D01*
G75*
G02*
X44395000Y19150000I0J100000D01*
G01*
X44395000Y19350000D01*
G75*
G02*
X44495000Y19450000I100000J0D01*
G01*
X45870000Y19450000D01*
G75*
G02*
X45970000Y19350000I0J-100000D01*
G01*
G37*
G36*
G01*
X45970000Y18850000D02*
X45970000Y18650000D01*
G75*
G02*
X45870000Y18550000I-100000J0D01*
G01*
X44495000Y18550000D01*
G75*
G02*
X44395000Y18650000I0J100000D01*
G01*
X44395000Y18850000D01*
G75*
G02*
X44495000Y18950000I100000J0D01*
G01*
X45870000Y18950000D01*
G75*
G02*
X45970000Y18850000I0J-100000D01*
G01*
G37*
G36*
G01*
X45970000Y18350000D02*
X45970000Y18150000D01*
G75*
G02*
X45870000Y18050000I-100000J0D01*
G01*
X44495000Y18050000D01*
G75*
G02*
X44395000Y18150000I0J100000D01*
G01*
X44395000Y18350000D01*
G75*
G02*
X44495000Y18450000I100000J0D01*
G01*
X45870000Y18450000D01*
G75*
G02*
X45970000Y18350000I0J-100000D01*
G01*
G37*
%TD*%
%TO.C,R24*%
G36*
G01*
X75026262Y6953000D02*
X74069738Y6953000D01*
G75*
G02*
X73798000Y7224738I0J271738D01*
G01*
X73798000Y7931262D01*
G75*
G02*
X74069738Y8203000I271738J0D01*
G01*
X75026262Y8203000D01*
G75*
G02*
X75298000Y7931262I0J-271738D01*
G01*
X75298000Y7224738D01*
G75*
G02*
X75026262Y6953000I-271738J0D01*
G01*
G37*
G36*
G01*
X75026262Y4903000D02*
X74069738Y4903000D01*
G75*
G02*
X73798000Y5174738I0J271738D01*
G01*
X73798000Y5881262D01*
G75*
G02*
X74069738Y6153000I271738J0D01*
G01*
X75026262Y6153000D01*
G75*
G02*
X75298000Y5881262I0J-271738D01*
G01*
X75298000Y5174738D01*
G75*
G02*
X75026262Y4903000I-271738J0D01*
G01*
G37*
%TD*%
%TO.C,R23*%
G36*
G01*
X72232262Y6935000D02*
X71275738Y6935000D01*
G75*
G02*
X71004000Y7206738I0J271738D01*
G01*
X71004000Y7913262D01*
G75*
G02*
X71275738Y8185000I271738J0D01*
G01*
X72232262Y8185000D01*
G75*
G02*
X72504000Y7913262I0J-271738D01*
G01*
X72504000Y7206738D01*
G75*
G02*
X72232262Y6935000I-271738J0D01*
G01*
G37*
G36*
G01*
X72232262Y4885000D02*
X71275738Y4885000D01*
G75*
G02*
X71004000Y5156738I0J271738D01*
G01*
X71004000Y5863262D01*
G75*
G02*
X71275738Y6135000I271738J0D01*
G01*
X72232262Y6135000D01*
G75*
G02*
X72504000Y5863262I0J-271738D01*
G01*
X72504000Y5156738D01*
G75*
G02*
X72232262Y4885000I-271738J0D01*
G01*
G37*
%TD*%
%TO.C,R22*%
G36*
G01*
X72232262Y19653000D02*
X71275738Y19653000D01*
G75*
G02*
X71004000Y19924738I0J271738D01*
G01*
X71004000Y20631262D01*
G75*
G02*
X71275738Y20903000I271738J0D01*
G01*
X72232262Y20903000D01*
G75*
G02*
X72504000Y20631262I0J-271738D01*
G01*
X72504000Y19924738D01*
G75*
G02*
X72232262Y19653000I-271738J0D01*
G01*
G37*
G36*
G01*
X72232262Y17603000D02*
X71275738Y17603000D01*
G75*
G02*
X71004000Y17874738I0J271738D01*
G01*
X71004000Y18581262D01*
G75*
G02*
X71275738Y18853000I271738J0D01*
G01*
X72232262Y18853000D01*
G75*
G02*
X72504000Y18581262I0J-271738D01*
G01*
X72504000Y17874738D01*
G75*
G02*
X72232262Y17603000I-271738J0D01*
G01*
G37*
%TD*%
%TO.C,R21*%
G36*
G01*
X69438262Y6953000D02*
X68481738Y6953000D01*
G75*
G02*
X68210000Y7224738I0J271738D01*
G01*
X68210000Y7931262D01*
G75*
G02*
X68481738Y8203000I271738J0D01*
G01*
X69438262Y8203000D01*
G75*
G02*
X69710000Y7931262I0J-271738D01*
G01*
X69710000Y7224738D01*
G75*
G02*
X69438262Y6953000I-271738J0D01*
G01*
G37*
G36*
G01*
X69438262Y4903000D02*
X68481738Y4903000D01*
G75*
G02*
X68210000Y5174738I0J271738D01*
G01*
X68210000Y5881262D01*
G75*
G02*
X68481738Y6153000I271738J0D01*
G01*
X69438262Y6153000D01*
G75*
G02*
X69710000Y5881262I0J-271738D01*
G01*
X69710000Y5174738D01*
G75*
G02*
X69438262Y4903000I-271738J0D01*
G01*
G37*
%TD*%
%TO.C,R20*%
G36*
G01*
X72232262Y15335000D02*
X71275738Y15335000D01*
G75*
G02*
X71004000Y15606738I0J271738D01*
G01*
X71004000Y16313262D01*
G75*
G02*
X71275738Y16585000I271738J0D01*
G01*
X72232262Y16585000D01*
G75*
G02*
X72504000Y16313262I0J-271738D01*
G01*
X72504000Y15606738D01*
G75*
G02*
X72232262Y15335000I-271738J0D01*
G01*
G37*
G36*
G01*
X72232262Y13285000D02*
X71275738Y13285000D01*
G75*
G02*
X71004000Y13556738I0J271738D01*
G01*
X71004000Y14263262D01*
G75*
G02*
X71275738Y14535000I271738J0D01*
G01*
X72232262Y14535000D01*
G75*
G02*
X72504000Y14263262I0J-271738D01*
G01*
X72504000Y13556738D01*
G75*
G02*
X72232262Y13285000I-271738J0D01*
G01*
G37*
%TD*%
%TO.C,R19*%
G36*
G01*
X59425000Y32676262D02*
X59425000Y31719738D01*
G75*
G02*
X59153262Y31448000I-271738J0D01*
G01*
X58446738Y31448000D01*
G75*
G02*
X58175000Y31719738I0J271738D01*
G01*
X58175000Y32676262D01*
G75*
G02*
X58446738Y32948000I271738J0D01*
G01*
X59153262Y32948000D01*
G75*
G02*
X59425000Y32676262I0J-271738D01*
G01*
G37*
G36*
G01*
X61475000Y32676262D02*
X61475000Y31719738D01*
G75*
G02*
X61203262Y31448000I-271738J0D01*
G01*
X60496738Y31448000D01*
G75*
G02*
X60225000Y31719738I0J271738D01*
G01*
X60225000Y32676262D01*
G75*
G02*
X60496738Y32948000I271738J0D01*
G01*
X61203262Y32948000D01*
G75*
G02*
X61475000Y32676262I0J-271738D01*
G01*
G37*
%TD*%
%TO.C,R18*%
G36*
G01*
X55297500Y32676262D02*
X55297500Y31719738D01*
G75*
G02*
X55025762Y31448000I-271738J0D01*
G01*
X54319238Y31448000D01*
G75*
G02*
X54047500Y31719738I0J271738D01*
G01*
X54047500Y32676262D01*
G75*
G02*
X54319238Y32948000I271738J0D01*
G01*
X55025762Y32948000D01*
G75*
G02*
X55297500Y32676262I0J-271738D01*
G01*
G37*
G36*
G01*
X57347500Y32676262D02*
X57347500Y31719738D01*
G75*
G02*
X57075762Y31448000I-271738J0D01*
G01*
X56369238Y31448000D01*
G75*
G02*
X56097500Y31719738I0J271738D01*
G01*
X56097500Y32676262D01*
G75*
G02*
X56369238Y32948000I271738J0D01*
G01*
X57075762Y32948000D01*
G75*
G02*
X57347500Y32676262I0J-271738D01*
G01*
G37*
%TD*%
%TO.C,R17*%
G36*
G01*
X60441000Y28929762D02*
X60441000Y27973238D01*
G75*
G02*
X60169262Y27701500I-271738J0D01*
G01*
X59462738Y27701500D01*
G75*
G02*
X59191000Y27973238I0J271738D01*
G01*
X59191000Y28929762D01*
G75*
G02*
X59462738Y29201500I271738J0D01*
G01*
X60169262Y29201500D01*
G75*
G02*
X60441000Y28929762I0J-271738D01*
G01*
G37*
G36*
G01*
X62491000Y28929762D02*
X62491000Y27973238D01*
G75*
G02*
X62219262Y27701500I-271738J0D01*
G01*
X61512738Y27701500D01*
G75*
G02*
X61241000Y27973238I0J271738D01*
G01*
X61241000Y28929762D01*
G75*
G02*
X61512738Y29201500I271738J0D01*
G01*
X62219262Y29201500D01*
G75*
G02*
X62491000Y28929762I0J-271738D01*
G01*
G37*
%TD*%
%TO.C,R16*%
G36*
G01*
X56313500Y28929762D02*
X56313500Y27973238D01*
G75*
G02*
X56041762Y27701500I-271738J0D01*
G01*
X55335238Y27701500D01*
G75*
G02*
X55063500Y27973238I0J271738D01*
G01*
X55063500Y28929762D01*
G75*
G02*
X55335238Y29201500I271738J0D01*
G01*
X56041762Y29201500D01*
G75*
G02*
X56313500Y28929762I0J-271738D01*
G01*
G37*
G36*
G01*
X58363500Y28929762D02*
X58363500Y27973238D01*
G75*
G02*
X58091762Y27701500I-271738J0D01*
G01*
X57385238Y27701500D01*
G75*
G02*
X57113500Y27973238I0J271738D01*
G01*
X57113500Y28929762D01*
G75*
G02*
X57385238Y29201500I271738J0D01*
G01*
X58091762Y29201500D01*
G75*
G02*
X58363500Y28929762I0J-271738D01*
G01*
G37*
%TD*%
%TO.C,R15*%
G36*
G01*
X32413738Y29757000D02*
X33370262Y29757000D01*
G75*
G02*
X33642000Y29485262I0J-271738D01*
G01*
X33642000Y28778738D01*
G75*
G02*
X33370262Y28507000I-271738J0D01*
G01*
X32413738Y28507000D01*
G75*
G02*
X32142000Y28778738I0J271738D01*
G01*
X32142000Y29485262D01*
G75*
G02*
X32413738Y29757000I271738J0D01*
G01*
G37*
G36*
G01*
X32413738Y31807000D02*
X33370262Y31807000D01*
G75*
G02*
X33642000Y31535262I0J-271738D01*
G01*
X33642000Y30828738D01*
G75*
G02*
X33370262Y30557000I-271738J0D01*
G01*
X32413738Y30557000D01*
G75*
G02*
X32142000Y30828738I0J271738D01*
G01*
X32142000Y31535262D01*
G75*
G02*
X32413738Y31807000I271738J0D01*
G01*
G37*
%TD*%
%TO.C,R14*%
G36*
G01*
X32413738Y25439000D02*
X33370262Y25439000D01*
G75*
G02*
X33642000Y25167262I0J-271738D01*
G01*
X33642000Y24460738D01*
G75*
G02*
X33370262Y24189000I-271738J0D01*
G01*
X32413738Y24189000D01*
G75*
G02*
X32142000Y24460738I0J271738D01*
G01*
X32142000Y25167262D01*
G75*
G02*
X32413738Y25439000I271738J0D01*
G01*
G37*
G36*
G01*
X32413738Y27489000D02*
X33370262Y27489000D01*
G75*
G02*
X33642000Y27217262I0J-271738D01*
G01*
X33642000Y26510738D01*
G75*
G02*
X33370262Y26239000I-271738J0D01*
G01*
X32413738Y26239000D01*
G75*
G02*
X32142000Y26510738I0J271738D01*
G01*
X32142000Y27217262D01*
G75*
G02*
X32413738Y27489000I271738J0D01*
G01*
G37*
%TD*%
%TO.C,R13*%
G36*
G01*
X28857738Y26727000D02*
X29814262Y26727000D01*
G75*
G02*
X30086000Y26455262I0J-271738D01*
G01*
X30086000Y25748738D01*
G75*
G02*
X29814262Y25477000I-271738J0D01*
G01*
X28857738Y25477000D01*
G75*
G02*
X28586000Y25748738I0J271738D01*
G01*
X28586000Y26455262D01*
G75*
G02*
X28857738Y26727000I271738J0D01*
G01*
G37*
G36*
G01*
X28857738Y28777000D02*
X29814262Y28777000D01*
G75*
G02*
X30086000Y28505262I0J-271738D01*
G01*
X30086000Y27798738D01*
G75*
G02*
X29814262Y27527000I-271738J0D01*
G01*
X28857738Y27527000D01*
G75*
G02*
X28586000Y27798738I0J271738D01*
G01*
X28586000Y28505262D01*
G75*
G02*
X28857738Y28777000I271738J0D01*
G01*
G37*
%TD*%
%TO.C,R12*%
G36*
G01*
X13109738Y28995000D02*
X14066262Y28995000D01*
G75*
G02*
X14338000Y28723262I0J-271738D01*
G01*
X14338000Y28016738D01*
G75*
G02*
X14066262Y27745000I-271738J0D01*
G01*
X13109738Y27745000D01*
G75*
G02*
X12838000Y28016738I0J271738D01*
G01*
X12838000Y28723262D01*
G75*
G02*
X13109738Y28995000I271738J0D01*
G01*
G37*
G36*
G01*
X13109738Y31045000D02*
X14066262Y31045000D01*
G75*
G02*
X14338000Y30773262I0J-271738D01*
G01*
X14338000Y30066738D01*
G75*
G02*
X14066262Y29795000I-271738J0D01*
G01*
X13109738Y29795000D01*
G75*
G02*
X12838000Y30066738I0J271738D01*
G01*
X12838000Y30773262D01*
G75*
G02*
X13109738Y31045000I271738J0D01*
G01*
G37*
%TD*%
%TO.C,R11*%
G36*
G01*
X13109738Y24441000D02*
X14066262Y24441000D01*
G75*
G02*
X14338000Y24169262I0J-271738D01*
G01*
X14338000Y23462738D01*
G75*
G02*
X14066262Y23191000I-271738J0D01*
G01*
X13109738Y23191000D01*
G75*
G02*
X12838000Y23462738I0J271738D01*
G01*
X12838000Y24169262D01*
G75*
G02*
X13109738Y24441000I271738J0D01*
G01*
G37*
G36*
G01*
X13109738Y26491000D02*
X14066262Y26491000D01*
G75*
G02*
X14338000Y26219262I0J-271738D01*
G01*
X14338000Y25512738D01*
G75*
G02*
X14066262Y25241000I-271738J0D01*
G01*
X13109738Y25241000D01*
G75*
G02*
X12838000Y25512738I0J271738D01*
G01*
X12838000Y26219262D01*
G75*
G02*
X13109738Y26491000I271738J0D01*
G01*
G37*
%TD*%
%TO.C,R10*%
G36*
G01*
X16665738Y27725000D02*
X17622262Y27725000D01*
G75*
G02*
X17894000Y27453262I0J-271738D01*
G01*
X17894000Y26746738D01*
G75*
G02*
X17622262Y26475000I-271738J0D01*
G01*
X16665738Y26475000D01*
G75*
G02*
X16394000Y26746738I0J271738D01*
G01*
X16394000Y27453262D01*
G75*
G02*
X16665738Y27725000I271738J0D01*
G01*
G37*
G36*
G01*
X16665738Y29775000D02*
X17622262Y29775000D01*
G75*
G02*
X17894000Y29503262I0J-271738D01*
G01*
X17894000Y28796738D01*
G75*
G02*
X17622262Y28525000I-271738J0D01*
G01*
X16665738Y28525000D01*
G75*
G02*
X16394000Y28796738I0J271738D01*
G01*
X16394000Y29503262D01*
G75*
G02*
X16665738Y29775000I271738J0D01*
G01*
G37*
%TD*%
%TO.C,R9*%
G36*
G01*
X21599000Y12161738D02*
X21599000Y13118262D01*
G75*
G02*
X21870738Y13390000I271738J0D01*
G01*
X22577262Y13390000D01*
G75*
G02*
X22849000Y13118262I0J-271738D01*
G01*
X22849000Y12161738D01*
G75*
G02*
X22577262Y11890000I-271738J0D01*
G01*
X21870738Y11890000D01*
G75*
G02*
X21599000Y12161738I0J271738D01*
G01*
G37*
G36*
G01*
X19549000Y12161738D02*
X19549000Y13118262D01*
G75*
G02*
X19820738Y13390000I271738J0D01*
G01*
X20527262Y13390000D01*
G75*
G02*
X20799000Y13118262I0J-271738D01*
G01*
X20799000Y12161738D01*
G75*
G02*
X20527262Y11890000I-271738J0D01*
G01*
X19820738Y11890000D01*
G75*
G02*
X19549000Y12161738I0J271738D01*
G01*
G37*
%TD*%
%TO.C,R8*%
G36*
G01*
X56651000Y6827738D02*
X56651000Y7784262D01*
G75*
G02*
X56922738Y8056000I271738J0D01*
G01*
X57629262Y8056000D01*
G75*
G02*
X57901000Y7784262I0J-271738D01*
G01*
X57901000Y6827738D01*
G75*
G02*
X57629262Y6556000I-271738J0D01*
G01*
X56922738Y6556000D01*
G75*
G02*
X56651000Y6827738I0J271738D01*
G01*
G37*
G36*
G01*
X54601000Y6827738D02*
X54601000Y7784262D01*
G75*
G02*
X54872738Y8056000I271738J0D01*
G01*
X55579262Y8056000D01*
G75*
G02*
X55851000Y7784262I0J-271738D01*
G01*
X55851000Y6827738D01*
G75*
G02*
X55579262Y6556000I-271738J0D01*
G01*
X54872738Y6556000D01*
G75*
G02*
X54601000Y6827738I0J271738D01*
G01*
G37*
%TD*%
%TO.C,R7*%
G36*
G01*
X52333000Y6827738D02*
X52333000Y7784262D01*
G75*
G02*
X52604738Y8056000I271738J0D01*
G01*
X53311262Y8056000D01*
G75*
G02*
X53583000Y7784262I0J-271738D01*
G01*
X53583000Y6827738D01*
G75*
G02*
X53311262Y6556000I-271738J0D01*
G01*
X52604738Y6556000D01*
G75*
G02*
X52333000Y6827738I0J271738D01*
G01*
G37*
G36*
G01*
X50283000Y6827738D02*
X50283000Y7784262D01*
G75*
G02*
X50554738Y8056000I271738J0D01*
G01*
X51261262Y8056000D01*
G75*
G02*
X51533000Y7784262I0J-271738D01*
G01*
X51533000Y6827738D01*
G75*
G02*
X51261262Y6556000I-271738J0D01*
G01*
X50554738Y6556000D01*
G75*
G02*
X50283000Y6827738I0J271738D01*
G01*
G37*
%TD*%
%TO.C,R6*%
G36*
G01*
X48269000Y6827738D02*
X48269000Y7784262D01*
G75*
G02*
X48540738Y8056000I271738J0D01*
G01*
X49247262Y8056000D01*
G75*
G02*
X49519000Y7784262I0J-271738D01*
G01*
X49519000Y6827738D01*
G75*
G02*
X49247262Y6556000I-271738J0D01*
G01*
X48540738Y6556000D01*
G75*
G02*
X48269000Y6827738I0J271738D01*
G01*
G37*
G36*
G01*
X46219000Y6827738D02*
X46219000Y7784262D01*
G75*
G02*
X46490738Y8056000I271738J0D01*
G01*
X47197262Y8056000D01*
G75*
G02*
X47469000Y7784262I0J-271738D01*
G01*
X47469000Y6827738D01*
G75*
G02*
X47197262Y6556000I-271738J0D01*
G01*
X46490738Y6556000D01*
G75*
G02*
X46219000Y6827738I0J271738D01*
G01*
G37*
%TD*%
%TO.C,R5*%
G36*
G01*
X35150000Y6768262D02*
X35150000Y5811738D01*
G75*
G02*
X34878262Y5540000I-271738J0D01*
G01*
X34171738Y5540000D01*
G75*
G02*
X33900000Y5811738I0J271738D01*
G01*
X33900000Y6768262D01*
G75*
G02*
X34171738Y7040000I271738J0D01*
G01*
X34878262Y7040000D01*
G75*
G02*
X35150000Y6768262I0J-271738D01*
G01*
G37*
G36*
G01*
X37200000Y6768262D02*
X37200000Y5811738D01*
G75*
G02*
X36928262Y5540000I-271738J0D01*
G01*
X36221738Y5540000D01*
G75*
G02*
X35950000Y5811738I0J271738D01*
G01*
X35950000Y6768262D01*
G75*
G02*
X36221738Y7040000I271738J0D01*
G01*
X36928262Y7040000D01*
G75*
G02*
X37200000Y6768262I0J-271738D01*
G01*
G37*
%TD*%
%TO.C,R4*%
G36*
G01*
X10513000Y2704262D02*
X10513000Y1747738D01*
G75*
G02*
X10241262Y1476000I-271738J0D01*
G01*
X9534738Y1476000D01*
G75*
G02*
X9263000Y1747738I0J271738D01*
G01*
X9263000Y2704262D01*
G75*
G02*
X9534738Y2976000I271738J0D01*
G01*
X10241262Y2976000D01*
G75*
G02*
X10513000Y2704262I0J-271738D01*
G01*
G37*
G36*
G01*
X12563000Y2704262D02*
X12563000Y1747738D01*
G75*
G02*
X12291262Y1476000I-271738J0D01*
G01*
X11584738Y1476000D01*
G75*
G02*
X11313000Y1747738I0J271738D01*
G01*
X11313000Y2704262D01*
G75*
G02*
X11584738Y2976000I271738J0D01*
G01*
X12291262Y2976000D01*
G75*
G02*
X12563000Y2704262I0J-271738D01*
G01*
G37*
%TD*%
%TO.C,L1*%
G36*
G01*
X3464544Y10799000D02*
X5679456Y10799000D01*
G75*
G02*
X5947000Y10531456I0J-267544D01*
G01*
X5947000Y9541544D01*
G75*
G02*
X5679456Y9274000I-267544J0D01*
G01*
X3464544Y9274000D01*
G75*
G02*
X3197000Y9541544I0J267544D01*
G01*
X3197000Y10531456D01*
G75*
G02*
X3464544Y10799000I267544J0D01*
G01*
G37*
G36*
G01*
X3464544Y13774000D02*
X5679456Y13774000D01*
G75*
G02*
X5947000Y13506456I0J-267544D01*
G01*
X5947000Y12516544D01*
G75*
G02*
X5679456Y12249000I-267544J0D01*
G01*
X3464544Y12249000D01*
G75*
G02*
X3197000Y12516544I0J267544D01*
G01*
X3197000Y13506456D01*
G75*
G02*
X3464544Y13774000I267544J0D01*
G01*
G37*
%TD*%
D11*
%TO.C,J5*%
X33908000Y10100000D03*
D12*
X36448000Y10100000D03*
%TD*%
D11*
%TO.C,J2*%
X27812000Y4512000D03*
X27812000Y7052000D03*
X27812000Y9592000D03*
D12*
X27812000Y12132000D03*
%TD*%
%TO.C,D4*%
G36*
G01*
X56651000Y9113738D02*
X56651000Y10070262D01*
G75*
G02*
X56922738Y10342000I271738J0D01*
G01*
X57629262Y10342000D01*
G75*
G02*
X57901000Y10070262I0J-271738D01*
G01*
X57901000Y9113738D01*
G75*
G02*
X57629262Y8842000I-271738J0D01*
G01*
X56922738Y8842000D01*
G75*
G02*
X56651000Y9113738I0J271738D01*
G01*
G37*
G36*
G01*
X54601000Y9113738D02*
X54601000Y10070262D01*
G75*
G02*
X54872738Y10342000I271738J0D01*
G01*
X55579262Y10342000D01*
G75*
G02*
X55851000Y10070262I0J-271738D01*
G01*
X55851000Y9113738D01*
G75*
G02*
X55579262Y8842000I-271738J0D01*
G01*
X54872738Y8842000D01*
G75*
G02*
X54601000Y9113738I0J271738D01*
G01*
G37*
%TD*%
%TO.C,D3*%
G36*
G01*
X52351000Y9113738D02*
X52351000Y10070262D01*
G75*
G02*
X52622738Y10342000I271738J0D01*
G01*
X53329262Y10342000D01*
G75*
G02*
X53601000Y10070262I0J-271738D01*
G01*
X53601000Y9113738D01*
G75*
G02*
X53329262Y8842000I-271738J0D01*
G01*
X52622738Y8842000D01*
G75*
G02*
X52351000Y9113738I0J271738D01*
G01*
G37*
G36*
G01*
X50301000Y9113738D02*
X50301000Y10070262D01*
G75*
G02*
X50572738Y10342000I271738J0D01*
G01*
X51279262Y10342000D01*
G75*
G02*
X51551000Y10070262I0J-271738D01*
G01*
X51551000Y9113738D01*
G75*
G02*
X51279262Y8842000I-271738J0D01*
G01*
X50572738Y8842000D01*
G75*
G02*
X50301000Y9113738I0J271738D01*
G01*
G37*
%TD*%
%TO.C,D2*%
G36*
G01*
X48269000Y9113738D02*
X48269000Y10070262D01*
G75*
G02*
X48540738Y10342000I271738J0D01*
G01*
X49247262Y10342000D01*
G75*
G02*
X49519000Y10070262I0J-271738D01*
G01*
X49519000Y9113738D01*
G75*
G02*
X49247262Y8842000I-271738J0D01*
G01*
X48540738Y8842000D01*
G75*
G02*
X48269000Y9113738I0J271738D01*
G01*
G37*
G36*
G01*
X46219000Y9113738D02*
X46219000Y10070262D01*
G75*
G02*
X46490738Y10342000I271738J0D01*
G01*
X47197262Y10342000D01*
G75*
G02*
X47469000Y10070262I0J-271738D01*
G01*
X47469000Y9113738D01*
G75*
G02*
X47197262Y8842000I-271738J0D01*
G01*
X46490738Y8842000D01*
G75*
G02*
X46219000Y9113738I0J271738D01*
G01*
G37*
%TD*%
%TO.C,C6-2*%
G36*
G01*
X20826940Y9884842D02*
X20826940Y8928318D01*
G75*
G02*
X20555202Y8656580I-271738J0D01*
G01*
X19848678Y8656580D01*
G75*
G02*
X19576940Y8928318I0J271738D01*
G01*
X19576940Y9884842D01*
G75*
G02*
X19848678Y10156580I271738J0D01*
G01*
X20555202Y10156580D01*
G75*
G02*
X20826940Y9884842I0J-271738D01*
G01*
G37*
G36*
G01*
X22876940Y9884842D02*
X22876940Y8928318D01*
G75*
G02*
X22605202Y8656580I-271738J0D01*
G01*
X21898678Y8656580D01*
G75*
G02*
X21626940Y8928318I0J271738D01*
G01*
X21626940Y9884842D01*
G75*
G02*
X21898678Y10156580I271738J0D01*
G01*
X22605202Y10156580D01*
G75*
G02*
X22876940Y9884842I0J-271738D01*
G01*
G37*
%TD*%
%TO.C,C6-1*%
G36*
G01*
X20979340Y6006262D02*
X20979340Y5049738D01*
G75*
G02*
X20707602Y4778000I-271738J0D01*
G01*
X20001078Y4778000D01*
G75*
G02*
X19729340Y5049738I0J271738D01*
G01*
X19729340Y6006262D01*
G75*
G02*
X20001078Y6278000I271738J0D01*
G01*
X20707602Y6278000D01*
G75*
G02*
X20979340Y6006262I0J-271738D01*
G01*
G37*
G36*
G01*
X23029340Y6006262D02*
X23029340Y5049738D01*
G75*
G02*
X22757602Y4778000I-271738J0D01*
G01*
X22051078Y4778000D01*
G75*
G02*
X21779340Y5049738I0J271738D01*
G01*
X21779340Y6006262D01*
G75*
G02*
X22051078Y6278000I271738J0D01*
G01*
X22757602Y6278000D01*
G75*
G02*
X23029340Y6006262I0J-271738D01*
G01*
G37*
%TD*%
%TO.C,C17*%
G36*
G01*
X64612262Y13793000D02*
X63655738Y13793000D01*
G75*
G02*
X63384000Y14064738I0J271738D01*
G01*
X63384000Y14771262D01*
G75*
G02*
X63655738Y15043000I271738J0D01*
G01*
X64612262Y15043000D01*
G75*
G02*
X64884000Y14771262I0J-271738D01*
G01*
X64884000Y14064738D01*
G75*
G02*
X64612262Y13793000I-271738J0D01*
G01*
G37*
G36*
G01*
X64612262Y11743000D02*
X63655738Y11743000D01*
G75*
G02*
X63384000Y12014738I0J271738D01*
G01*
X63384000Y12721262D01*
G75*
G02*
X63655738Y12993000I271738J0D01*
G01*
X64612262Y12993000D01*
G75*
G02*
X64884000Y12721262I0J-271738D01*
G01*
X64884000Y12014738D01*
G75*
G02*
X64612262Y11743000I-271738J0D01*
G01*
G37*
%TD*%
%TO.C,C16*%
G36*
G01*
X63655738Y18345000D02*
X64612262Y18345000D01*
G75*
G02*
X64884000Y18073262I0J-271738D01*
G01*
X64884000Y17366738D01*
G75*
G02*
X64612262Y17095000I-271738J0D01*
G01*
X63655738Y17095000D01*
G75*
G02*
X63384000Y17366738I0J271738D01*
G01*
X63384000Y18073262D01*
G75*
G02*
X63655738Y18345000I271738J0D01*
G01*
G37*
G36*
G01*
X63655738Y20395000D02*
X64612262Y20395000D01*
G75*
G02*
X64884000Y20123262I0J-271738D01*
G01*
X64884000Y19416738D01*
G75*
G02*
X64612262Y19145000I-271738J0D01*
G01*
X63655738Y19145000D01*
G75*
G02*
X63384000Y19416738I0J271738D01*
G01*
X63384000Y20123262D01*
G75*
G02*
X63655738Y20395000I271738J0D01*
G01*
G37*
%TD*%
%TO.C,C15*%
G36*
G01*
X28711000Y23337738D02*
X28711000Y24294262D01*
G75*
G02*
X28982738Y24566000I271738J0D01*
G01*
X29689262Y24566000D01*
G75*
G02*
X29961000Y24294262I0J-271738D01*
G01*
X29961000Y23337738D01*
G75*
G02*
X29689262Y23066000I-271738J0D01*
G01*
X28982738Y23066000D01*
G75*
G02*
X28711000Y23337738I0J271738D01*
G01*
G37*
G36*
G01*
X26661000Y23337738D02*
X26661000Y24294262D01*
G75*
G02*
X26932738Y24566000I271738J0D01*
G01*
X27639262Y24566000D01*
G75*
G02*
X27911000Y24294262I0J-271738D01*
G01*
X27911000Y23337738D01*
G75*
G02*
X27639262Y23066000I-271738J0D01*
G01*
X26932738Y23066000D01*
G75*
G02*
X26661000Y23337738I0J271738D01*
G01*
G37*
%TD*%
%TO.C,C14*%
G36*
G01*
X23085000Y24294262D02*
X23085000Y23337738D01*
G75*
G02*
X22813262Y23066000I-271738J0D01*
G01*
X22106738Y23066000D01*
G75*
G02*
X21835000Y23337738I0J271738D01*
G01*
X21835000Y24294262D01*
G75*
G02*
X22106738Y24566000I271738J0D01*
G01*
X22813262Y24566000D01*
G75*
G02*
X23085000Y24294262I0J-271738D01*
G01*
G37*
G36*
G01*
X25135000Y24294262D02*
X25135000Y23337738D01*
G75*
G02*
X24863262Y23066000I-271738J0D01*
G01*
X24156738Y23066000D01*
G75*
G02*
X23885000Y23337738I0J271738D01*
G01*
X23885000Y24294262D01*
G75*
G02*
X24156738Y24566000I271738J0D01*
G01*
X24863262Y24566000D01*
G75*
G02*
X25135000Y24294262I0J-271738D01*
G01*
G37*
%TD*%
%TO.C,C13*%
G36*
G01*
X48923738Y22772000D02*
X49880262Y22772000D01*
G75*
G02*
X50152000Y22500262I0J-271738D01*
G01*
X50152000Y21793738D01*
G75*
G02*
X49880262Y21522000I-271738J0D01*
G01*
X48923738Y21522000D01*
G75*
G02*
X48652000Y21793738I0J271738D01*
G01*
X48652000Y22500262D01*
G75*
G02*
X48923738Y22772000I271738J0D01*
G01*
G37*
G36*
G01*
X48923738Y24822000D02*
X49880262Y24822000D01*
G75*
G02*
X50152000Y24550262I0J-271738D01*
G01*
X50152000Y23843738D01*
G75*
G02*
X49880262Y23572000I-271738J0D01*
G01*
X48923738Y23572000D01*
G75*
G02*
X48652000Y23843738I0J271738D01*
G01*
X48652000Y24550262D01*
G75*
G02*
X48923738Y24822000I271738J0D01*
G01*
G37*
%TD*%
%TO.C,C12*%
G36*
G01*
X38998000Y28544738D02*
X38998000Y29501262D01*
G75*
G02*
X39269738Y29773000I271738J0D01*
G01*
X39976262Y29773000D01*
G75*
G02*
X40248000Y29501262I0J-271738D01*
G01*
X40248000Y28544738D01*
G75*
G02*
X39976262Y28273000I-271738J0D01*
G01*
X39269738Y28273000D01*
G75*
G02*
X38998000Y28544738I0J271738D01*
G01*
G37*
G36*
G01*
X36948000Y28544738D02*
X36948000Y29501262D01*
G75*
G02*
X37219738Y29773000I271738J0D01*
G01*
X37926262Y29773000D01*
G75*
G02*
X38198000Y29501262I0J-271738D01*
G01*
X38198000Y28544738D01*
G75*
G02*
X37926262Y28273000I-271738J0D01*
G01*
X37219738Y28273000D01*
G75*
G02*
X36948000Y28544738I0J271738D01*
G01*
G37*
%TD*%
%TO.C,C11*%
G36*
G01*
X34005262Y17730000D02*
X33048738Y17730000D01*
G75*
G02*
X32777000Y18001738I0J271738D01*
G01*
X32777000Y18708262D01*
G75*
G02*
X33048738Y18980000I271738J0D01*
G01*
X34005262Y18980000D01*
G75*
G02*
X34277000Y18708262I0J-271738D01*
G01*
X34277000Y18001738D01*
G75*
G02*
X34005262Y17730000I-271738J0D01*
G01*
G37*
G36*
G01*
X34005262Y15680000D02*
X33048738Y15680000D01*
G75*
G02*
X32777000Y15951738I0J271738D01*
G01*
X32777000Y16658262D01*
G75*
G02*
X33048738Y16930000I271738J0D01*
G01*
X34005262Y16930000D01*
G75*
G02*
X34277000Y16658262I0J-271738D01*
G01*
X34277000Y15951738D01*
G75*
G02*
X34005262Y15680000I-271738J0D01*
G01*
G37*
%TD*%
%TO.C,C10*%
G36*
G01*
X43278000Y13118262D02*
X43278000Y12161738D01*
G75*
G02*
X43006262Y11890000I-271738J0D01*
G01*
X42299738Y11890000D01*
G75*
G02*
X42028000Y12161738I0J271738D01*
G01*
X42028000Y13118262D01*
G75*
G02*
X42299738Y13390000I271738J0D01*
G01*
X43006262Y13390000D01*
G75*
G02*
X43278000Y13118262I0J-271738D01*
G01*
G37*
G36*
G01*
X45328000Y13118262D02*
X45328000Y12161738D01*
G75*
G02*
X45056262Y11890000I-271738J0D01*
G01*
X44349738Y11890000D01*
G75*
G02*
X44078000Y12161738I0J271738D01*
G01*
X44078000Y13118262D01*
G75*
G02*
X44349738Y13390000I271738J0D01*
G01*
X45056262Y13390000D01*
G75*
G02*
X45328000Y13118262I0J-271738D01*
G01*
G37*
%TD*%
%TO.C,C9*%
G36*
G01*
X58262262Y23635500D02*
X57305738Y23635500D01*
G75*
G02*
X57034000Y23907238I0J271738D01*
G01*
X57034000Y24613762D01*
G75*
G02*
X57305738Y24885500I271738J0D01*
G01*
X58262262Y24885500D01*
G75*
G02*
X58534000Y24613762I0J-271738D01*
G01*
X58534000Y23907238D01*
G75*
G02*
X58262262Y23635500I-271738J0D01*
G01*
G37*
G36*
G01*
X58262262Y21585500D02*
X57305738Y21585500D01*
G75*
G02*
X57034000Y21857238I0J271738D01*
G01*
X57034000Y22563762D01*
G75*
G02*
X57305738Y22835500I271738J0D01*
G01*
X58262262Y22835500D01*
G75*
G02*
X58534000Y22563762I0J-271738D01*
G01*
X58534000Y21857238D01*
G75*
G02*
X58262262Y21585500I-271738J0D01*
G01*
G37*
%TD*%
%TO.C,C8*%
G36*
G01*
X57305738Y15233500D02*
X58262262Y15233500D01*
G75*
G02*
X58534000Y14961762I0J-271738D01*
G01*
X58534000Y14255238D01*
G75*
G02*
X58262262Y13983500I-271738J0D01*
G01*
X57305738Y13983500D01*
G75*
G02*
X57034000Y14255238I0J271738D01*
G01*
X57034000Y14961762D01*
G75*
G02*
X57305738Y15233500I271738J0D01*
G01*
G37*
G36*
G01*
X57305738Y17283500D02*
X58262262Y17283500D01*
G75*
G02*
X58534000Y17011762I0J-271738D01*
G01*
X58534000Y16305238D01*
G75*
G02*
X58262262Y16033500I-271738J0D01*
G01*
X57305738Y16033500D01*
G75*
G02*
X57034000Y16305238I0J271738D01*
G01*
X57034000Y17011762D01*
G75*
G02*
X57305738Y17283500I271738J0D01*
G01*
G37*
%TD*%
%TO.C,C7*%
G36*
G01*
X48358000Y15721762D02*
X48358000Y14765238D01*
G75*
G02*
X48086262Y14493500I-271738J0D01*
G01*
X47379738Y14493500D01*
G75*
G02*
X47108000Y14765238I0J271738D01*
G01*
X47108000Y15721762D01*
G75*
G02*
X47379738Y15993500I271738J0D01*
G01*
X48086262Y15993500D01*
G75*
G02*
X48358000Y15721762I0J-271738D01*
G01*
G37*
G36*
G01*
X50408000Y15721762D02*
X50408000Y14765238D01*
G75*
G02*
X50136262Y14493500I-271738J0D01*
G01*
X49429738Y14493500D01*
G75*
G02*
X49158000Y14765238I0J271738D01*
G01*
X49158000Y15721762D01*
G75*
G02*
X49429738Y15993500I271738J0D01*
G01*
X50136262Y15993500D01*
G75*
G02*
X50408000Y15721762I0J-271738D01*
G01*
G37*
%TD*%
%TO.C,C5*%
G36*
G01*
X18258262Y4921000D02*
X17301738Y4921000D01*
G75*
G02*
X17030000Y5192738I0J271738D01*
G01*
X17030000Y5899262D01*
G75*
G02*
X17301738Y6171000I271738J0D01*
G01*
X18258262Y6171000D01*
G75*
G02*
X18530000Y5899262I0J-271738D01*
G01*
X18530000Y5192738D01*
G75*
G02*
X18258262Y4921000I-271738J0D01*
G01*
G37*
G36*
G01*
X18258262Y2871000D02*
X17301738Y2871000D01*
G75*
G02*
X17030000Y3142738I0J271738D01*
G01*
X17030000Y3849262D01*
G75*
G02*
X17301738Y4121000I271738J0D01*
G01*
X18258262Y4121000D01*
G75*
G02*
X18530000Y3849262I0J-271738D01*
G01*
X18530000Y3142738D01*
G75*
G02*
X18258262Y2871000I-271738J0D01*
G01*
G37*
%TD*%
%TO.C,C4*%
G36*
G01*
X13251978Y10026500D02*
X14208502Y10026500D01*
G75*
G02*
X14480240Y9754762I0J-271738D01*
G01*
X14480240Y9048238D01*
G75*
G02*
X14208502Y8776500I-271738J0D01*
G01*
X13251978Y8776500D01*
G75*
G02*
X12980240Y9048238I0J271738D01*
G01*
X12980240Y9754762D01*
G75*
G02*
X13251978Y10026500I271738J0D01*
G01*
G37*
G36*
G01*
X13251978Y12076500D02*
X14208502Y12076500D01*
G75*
G02*
X14480240Y11804762I0J-271738D01*
G01*
X14480240Y11098238D01*
G75*
G02*
X14208502Y10826500I-271738J0D01*
G01*
X13251978Y10826500D01*
G75*
G02*
X12980240Y11098238I0J271738D01*
G01*
X12980240Y11804762D01*
G75*
G02*
X13251978Y12076500I271738J0D01*
G01*
G37*
%TD*%
%TO.C,C3*%
G36*
G01*
X19523238Y17129500D02*
X20479762Y17129500D01*
G75*
G02*
X20751500Y16857762I0J-271738D01*
G01*
X20751500Y16151238D01*
G75*
G02*
X20479762Y15879500I-271738J0D01*
G01*
X19523238Y15879500D01*
G75*
G02*
X19251500Y16151238I0J271738D01*
G01*
X19251500Y16857762D01*
G75*
G02*
X19523238Y17129500I271738J0D01*
G01*
G37*
G36*
G01*
X19523238Y19179500D02*
X20479762Y19179500D01*
G75*
G02*
X20751500Y18907762I0J-271738D01*
G01*
X20751500Y18201238D01*
G75*
G02*
X20479762Y17929500I-271738J0D01*
G01*
X19523238Y17929500D01*
G75*
G02*
X19251500Y18201238I0J271738D01*
G01*
X19251500Y18907762D01*
G75*
G02*
X19523238Y19179500I271738J0D01*
G01*
G37*
%TD*%
%TO.C,C1*%
G36*
G01*
X16604778Y10018660D02*
X17561302Y10018660D01*
G75*
G02*
X17833040Y9746922I0J-271738D01*
G01*
X17833040Y9040398D01*
G75*
G02*
X17561302Y8768660I-271738J0D01*
G01*
X16604778Y8768660D01*
G75*
G02*
X16333040Y9040398I0J271738D01*
G01*
X16333040Y9746922D01*
G75*
G02*
X16604778Y10018660I271738J0D01*
G01*
G37*
G36*
G01*
X16604778Y12068660D02*
X17561302Y12068660D01*
G75*
G02*
X17833040Y11796922I0J-271738D01*
G01*
X17833040Y11090398D01*
G75*
G02*
X17561302Y10818660I-271738J0D01*
G01*
X16604778Y10818660D01*
G75*
G02*
X16333040Y11090398I0J271738D01*
G01*
X16333040Y11796922D01*
G75*
G02*
X16604778Y12068660I271738J0D01*
G01*
G37*
%TD*%
M02*
